M48
METRIC,LZ,000.000
;FILE_FORMAT=3:3
;TYPE=PLATED
;Layer: PTH_Through_Via
;EasyEDA v6.5.20, 2022-12-02 00:59:29
;a67cddfb3fce44daa9051d46cbbcc19f,10
;Gerber Generator version 0.2
;Holesize 1 = 0.305 mm
T01C0.305
;Holesize 2 = 0.306 mm
T02C0.306
%
G05
G90
T01
X014000Y081450
X013000Y080800
X006000Y083000
X025000Y095600
X028000Y093000
X019300Y076500
X021500Y076500
X021500Y077300
X020000Y077300
X024501Y090000
X023301Y091200
X023891Y090609
X049000Y085500
X050000Y085500
X054000Y083500
X082000Y090000
X079000Y090000
X080000Y090000
X081000Y090000
X064000Y090000
X063000Y090000
X062000Y090000
X050000Y084600
X049000Y082800
X082000Y089000
X061000Y077000
X084000Y047000
X084000Y052000
X081000Y046000
X081000Y051000
X078000Y046000
X078000Y051000
X060000Y089000
X060000Y091000
T02
X094111Y037309
X001072Y088768
X001072Y073528
X001072Y068448
X001072Y063368
X001072Y058288
X001072Y053208
X001072Y048128
X001072Y043048
X001072Y037968
X001072Y032888
X001072Y027808
X001072Y022728
X001072Y017648
X001072Y012568
X006152Y088768
X006152Y078608
X006152Y073528
X006152Y068448
X006152Y053208
X006152Y037968
X006152Y032888
X006152Y027808
X006152Y022728
X006152Y017648
X006152Y012568
X011232Y098928
X011232Y093848
X011232Y088768
X011232Y078608
X011232Y073528
X011232Y068448
X011232Y053208
X011232Y037968
X011232Y032888
X011232Y027808
X011232Y022728
X011232Y017648
X011232Y012568
X011232Y007488
X011232Y002408
X016312Y098928
X016312Y093848
X016312Y088768
X016312Y078608
X016312Y068448
X016312Y063368
X016312Y048128
X016312Y043048
X016312Y037968
X016312Y022728
X016312Y017648
X016312Y012568
X016312Y007488
X016312Y002408
X021392Y063368
X021392Y058288
X021392Y048128
X021392Y043048
X021392Y037968
X021392Y022728
X021392Y017648
X021392Y012568
X021392Y007488
X021392Y002408
X026472Y098928
X026472Y083688
X026472Y037968
X026472Y032888
X026472Y027808
X026472Y022728
X026472Y007488
X026472Y002408
X031552Y098928
X031552Y093848
X031552Y088768
X031552Y083688
X031552Y032888
X031552Y027808
X031552Y022728
X031552Y007488
X031552Y002408
X036632Y098928
X036632Y093848
X036632Y048128
X036632Y022728
X036632Y012568
X036632Y007488
X036632Y002408
X041712Y098928
X041712Y093848
X041712Y048128
X041712Y043048
X041712Y022728
X041712Y012568
X041712Y007488
X041712Y002408
X046792Y098928
X046792Y093848
X046792Y043048
X046792Y032888
X046792Y027808
X046792Y022728
X046792Y002408
X051872Y098928
X051872Y093848
X051872Y043048
X051872Y032888
X051872Y027808
X051872Y022728
X051872Y002408
X056952Y098928
X056000Y092000
X056952Y048128
X056952Y043048
X056952Y022728
X056952Y012568
X056952Y002408
X062032Y048128
X062032Y043048
X062032Y022728
X062032Y012568
X062032Y007488
X062032Y002408
X067112Y032888
X067112Y027808
X067112Y007488
X067112Y002408
X072192Y083688
X072192Y053208
X072192Y027808
X072192Y022728
X072192Y007488
X072192Y002408
X077272Y078608
X077272Y022728
X077272Y012568
X077272Y007488
X077272Y002408
X082352Y063368
X082352Y058288
X082352Y053208
X082352Y043048
X082352Y037968
X082352Y022728
X082352Y012568
X082352Y007488
X082352Y002408
X087432Y093848
X087432Y037968
X087432Y027808
X087432Y022728
X087432Y012568
X087432Y007488
X087432Y002408
X092512Y088768
X092512Y027808
X092512Y022728
X092512Y012568
X097592Y088768
X097592Y017648
X097592Y012568
M30
