M48
METRIC,LZ,000.000
;FILE_FORMAT=3:3
;TYPE=PLATED
;Layer: PTH_Through
;EasyEDA v6.5.20, 2022-12-02 00:59:29
;a67cddfb3fce44daa9051d46cbbcc19f,10
;Gerber Generator version 0.2
;Holesize 1 = 0.701 mm
T01C0.701
;Holesize 2 = 0.798 mm
T02C0.798
;Holesize 3 = 1.101 mm
T03C1.101
;Holesize 4 = 1.200 mm
T04C1.200
;Holesize 5 = 1.850 mm
T05C1.850
%
G05
G90
T01
X001079Y077200G85X001879Y077200
X001079Y084400G85X001879Y084400
X004149Y083225
X004149Y078375
T02
X029091Y085300
X027109Y085300
T03
X011499Y062499
X006499Y062499
X006499Y057499
X011499Y057499
X011499Y047501
X006499Y047501
X006499Y042501
X011499Y042501
X032500Y047500
X027500Y047500
X027500Y042500
X032500Y042500
X052500Y052500
X047500Y052500
X047500Y047500
X052500Y047500
X072500Y047500
X067500Y047500
X067500Y042500
X072500Y042500
X093500Y047500
X088500Y047500
X088500Y042500
X093500Y042500
X022500Y032500
X017500Y032500
X017500Y027500
X022500Y027500
X042500Y032500
X037500Y032500
X037500Y027500
X042500Y027500
X062500Y032500
X057500Y032500
X057500Y027500
X062500Y027500
X093500Y062500
X088500Y062500
X088500Y057500
X093500Y057500
X032500Y017500
X027500Y017500
X027500Y012500
X032500Y012500
X052500Y012500
X047500Y012500
X047500Y007500
X052500Y007500
X072500Y017500
X067500Y017500
X067500Y012500
X072500Y012500
X082500Y032500
X077500Y032500
X077500Y027500
X082500Y027500
T04
X037300Y085500
X037300Y083000
X040700Y088000
X040700Y085500
X040700Y083000
X037300Y088000
T05
X043500Y095500
X038800Y095500
X034100Y095500
M30
