G04 Layer: BottomSolderMaskLayer*
G04 EasyEDA v6.5.20, 2022-12-02 00:59:29*
G04 a67cddfb3fce44daa9051d46cbbcc19f,10*
G04 Gerber Generator version 0.2*
G04 Scale: 100 percent, Rotated: No, Reflected: No *
G04 Dimensions in millimeters *
G04 leading zeros omitted , absolute positions ,4 integer and 5 decimal *
%FSLAX45Y45*%
%MOMM*%

%AMMACRO1*1,1,$1,$2,$3*1,1,$1,$4,$5*1,1,$1,0-$2,0-$3*1,1,$1,0-$4,0-$5*20,1,$1,$2,$3,$4,$5,0*20,1,$1,$4,$5,0-$2,0-$3,0*20,1,$1,0-$2,0-$3,0-$4,0-$5,0*20,1,$1,0-$4,0-$5,$2,$3,0*4,1,4,$2,$3,$4,$5,0-$2,0-$3,0-$4,0-$5,$2,$3,0*%
%ADD10MACRO1,0.1016X0.3325X0.14X-0.3325X0.14*%
%ADD11MACRO1,0.1016X-0.3325X0.14X0.3325X0.14*%
%ADD12MACRO1,0.1016X0.625X1X-0.625X1*%
%ADD13MACRO1,0.1016X0.5663X-0.6885X0.5663X0.6885*%
%ADD14MACRO1,0.1016X-0.5663X-0.6885X-0.5663X0.6885*%
%ADD15MACRO1,0.1016X0.6885X0.5663X-0.6885X0.5663*%
%ADD16MACRO1,0.1016X0.6885X-0.5663X-0.6885X-0.5663*%
%ADD17MACRO1,0.1016X-0.6885X-0.5663X0.6885X-0.5663*%
%ADD18MACRO1,0.1016X-0.6885X0.5663X0.6885X0.5663*%
%ADD19MACRO1,0.1016X2X-1X2X1*%
%ADD20MACRO1,0.1016X-0.675X-0.705X0.675X-0.705*%
%ADD21MACRO1,0.1016X-0.675X0.705X0.675X0.705*%
%ADD22MACRO1,0.1016X0.6998X-0.6502X0.6998X0.6502*%
%ADD23MACRO1,0.1016X-1.6X-1.6X1.6X-1.6*%
%ADD24O,0.38160960000000005X1.0015981999999999*%
%ADD25O,1.0015981999999999X0.38160960000000005*%
%ADD26MACRO1,0.2032X-0.55X0.5X-0.55X-0.5*%
%ADD27R,1.3032X1.2032*%
%ADD28MACRO1,0.1016X0.5X0.6X-0.5X0.6*%
%ADD29MACRO1,0.1016X0.35X-0.625X0.35X0.625*%
%ADD30MACRO1,0.2032X0.35X0.625X-0.35X0.625*%
%ADD31MACRO1,0.1016X-0.3X0.5X-0.3X-0.5*%
%ADD32MACRO1,0.1016X-0.55X0.5X-0.55X-0.5*%
%ADD33MACRO1,0.2032X0.55X-0.5X0.55X0.5*%
%ADD34MACRO1,0.1016X1X0.45X-1X0.45*%
%ADD35MACRO1,0.1016X0.665X0.665X-0.665X0.665*%
%ADD36C,2.9516*%
%ADD37C,1.9016*%
%ADD38C,2.1016*%
%ADD39O,2.3015956X1.4015974000000002*%
%ADD40C,1.4016*%
%ADD41C,1.5240*%
%ADD42C,0.0111*%

%LPD*%
D10*
G01*
X5365738Y8649982D03*
G01*
X5365738Y8599982D03*
G01*
X5365738Y8549982D03*
G01*
X5365738Y8499983D03*
G01*
X5365738Y8449983D03*
D11*
G01*
X5134240Y8649982D03*
G01*
X5134240Y8599982D03*
G01*
X5134240Y8549982D03*
G01*
X5134240Y8499983D03*
G01*
X5134240Y8449983D03*
D12*
G01*
X5249989Y8549982D03*
D13*
G01*
X4899985Y8279983D03*
D14*
G01*
X5099994Y8279983D03*
D15*
G01*
X4699990Y8849977D03*
D16*
G01*
X4699990Y9049986D03*
D15*
G01*
X4949990Y8849977D03*
D16*
G01*
X4949990Y9049986D03*
D17*
G01*
X5199989Y9049986D03*
D18*
G01*
X5199989Y8849977D03*
D19*
G01*
X5723346Y8326821D03*
G01*
X5723346Y8757630D03*
D20*
G01*
X4699990Y8549985D03*
D21*
G01*
X4699990Y8349980D03*
D22*
G01*
X5849988Y9394952D03*
G01*
X5849988Y9605010D03*
D17*
G01*
X6149987Y9599985D03*
D18*
G01*
X6149987Y9399976D03*
D23*
G01*
X1999983Y8089971D03*
D24*
G01*
X1849881Y7839989D03*
G01*
X1899920Y7839989D03*
G01*
X1949958Y7839989D03*
G01*
X1999970Y7839989D03*
G01*
X2050034Y7839989D03*
G01*
X2100072Y7839989D03*
G01*
X2150109Y7839989D03*
D25*
G01*
X2250008Y7939862D03*
G01*
X2250008Y7989900D03*
G01*
X2250008Y8039938D03*
G01*
X2250008Y8089976D03*
G01*
X2250008Y8140014D03*
G01*
X2250008Y8190052D03*
G01*
X2250008Y8240090D03*
D24*
G01*
X2150109Y8339988D03*
G01*
X2100072Y8339988D03*
G01*
X2050034Y8339988D03*
G01*
X1999970Y8339988D03*
G01*
X1949958Y8339988D03*
G01*
X1899920Y8339988D03*
G01*
X1849881Y8339988D03*
D25*
G01*
X1750009Y8240090D03*
G01*
X1750009Y8190052D03*
G01*
X1750009Y8140014D03*
G01*
X1750009Y8089976D03*
G01*
X1750009Y8039938D03*
G01*
X1750009Y7989900D03*
G01*
X1750009Y7939862D03*
D26*
G01*
X1099997Y8509980D03*
G01*
X1099997Y8329970D03*
G01*
X1300098Y8509980D03*
D27*
G01*
X1300098Y8329980D03*
D26*
G01*
X1499997Y8509980D03*
D27*
G01*
X1499996Y8329980D03*
D28*
G01*
X1845005Y9119981D03*
G01*
X2154986Y9119981D03*
D22*
G01*
X1999996Y9594951D03*
G01*
X1999996Y9805009D03*
D29*
G01*
X1904999Y8819982D03*
G01*
X2094990Y8819982D03*
G01*
X1999994Y8619982D03*
D30*
G01*
X1799996Y6895017D03*
G01*
X1894992Y7144953D03*
G01*
X1705000Y7144953D03*
G01*
X2199995Y6895017D03*
G01*
X2294991Y7144953D03*
G01*
X2104999Y7144953D03*
D15*
G01*
X799998Y8319978D03*
D16*
G01*
X799998Y8519988D03*
D31*
G01*
X2794990Y9419996D03*
G01*
X2604998Y9419996D03*
G01*
X2604998Y9159976D03*
G01*
X2699994Y9159976D03*
G01*
X2794990Y9159976D03*
D17*
G01*
X2300020Y9800010D03*
D18*
G01*
X2300020Y9600001D03*
D15*
G01*
X2799892Y9660006D03*
D16*
G01*
X2799892Y9860015D03*
D32*
G01*
X1799996Y7339977D03*
G01*
X1799996Y7499977D03*
G01*
X2099995Y7339977D03*
G01*
X2099995Y7499977D03*
D33*
G01*
X8899982Y8829984D03*
G01*
X8899982Y9009994D03*
D34*
G01*
X8399975Y9142996D03*
G01*
X8399975Y9015996D03*
G01*
X8399975Y8888996D03*
G01*
X8399975Y8761996D03*
G01*
X8399975Y8634996D03*
G01*
X8399975Y8507996D03*
G01*
X8399975Y8380996D03*
G01*
X8399975Y8253996D03*
G01*
X8399975Y8126996D03*
G01*
X8399975Y7999996D03*
G01*
X8399975Y7872996D03*
G01*
X8399975Y7745996D03*
G01*
X8399975Y7618996D03*
G01*
X8399975Y7491996D03*
G01*
X8399975Y7364996D03*
G01*
X8399975Y7237996D03*
G01*
X8399975Y7110996D03*
G01*
X8399975Y6983996D03*
G01*
X8399975Y6856996D03*
G01*
X6599989Y6856996D03*
G01*
X6599989Y6983996D03*
G01*
X6599989Y7110996D03*
G01*
X6599989Y7237996D03*
G01*
X6599989Y7364996D03*
G01*
X6599989Y7491996D03*
G01*
X6599989Y7618996D03*
G01*
X6599989Y7745996D03*
G01*
X6599989Y7872996D03*
G01*
X6599989Y7999996D03*
G01*
X6599989Y8126996D03*
G01*
X6599989Y8253996D03*
G01*
X6599989Y8380996D03*
G01*
X6599989Y8507996D03*
G01*
X6599989Y8634996D03*
G01*
X6599989Y8761996D03*
G01*
X6599989Y8888996D03*
G01*
X6599989Y9015996D03*
G01*
X6599989Y9142996D03*
D35*
G01*
X7599982Y8393010D03*
G01*
X7783482Y8393008D03*
G01*
X7416497Y8393008D03*
G01*
X7783482Y8576495D03*
G01*
X7599982Y8576497D03*
G01*
X7416474Y8576492D03*
G01*
X7783482Y8209500D03*
G01*
X7599982Y8209503D03*
G01*
X7416497Y8209506D03*
D33*
G01*
X8650058Y8829974D03*
G01*
X8650058Y9009984D03*
D36*
G01*
X4349991Y9549980D03*
G01*
X3879989Y9549980D03*
G01*
X3409988Y9549980D03*
D37*
G01*
X3729990Y8549982D03*
G01*
X3729990Y8299996D03*
G01*
X4069994Y8799969D03*
G01*
X4069994Y8549982D03*
G01*
X4069994Y8299996D03*
G01*
X3729990Y8799969D03*
D38*
G01*
X1149934Y6249949D03*
G01*
X649935Y6249949D03*
G01*
X649935Y5749950D03*
G01*
X1149934Y5749950D03*
G01*
X1149934Y4750079D03*
G01*
X649935Y4750079D03*
G01*
X649935Y4250080D03*
G01*
X1149934Y4250080D03*
D39*
G01*
X147878Y7719999D03*
G01*
X147878Y8439988D03*
D40*
G01*
X414883Y8322487D03*
G01*
X414883Y7837500D03*
D38*
G01*
X3250006Y4749977D03*
G01*
X2750007Y4749977D03*
G01*
X2750007Y4249978D03*
G01*
X3250006Y4249978D03*
G01*
X5250002Y5249976D03*
G01*
X4750003Y5249976D03*
G01*
X4750003Y4749977D03*
G01*
X5250002Y4749977D03*
G01*
X7249998Y4749977D03*
G01*
X6749999Y4749977D03*
G01*
X6749999Y4249978D03*
G01*
X7249998Y4249978D03*
G01*
X9349993Y4749977D03*
G01*
X8849995Y4749977D03*
G01*
X8849995Y4249978D03*
G01*
X9349993Y4249978D03*
G01*
X2250008Y3249980D03*
G01*
X1750009Y3249980D03*
G01*
X1750009Y2749981D03*
G01*
X2250008Y2749981D03*
G01*
X4250004Y3249980D03*
G01*
X3750005Y3249980D03*
G01*
X3750005Y2749981D03*
G01*
X4250004Y2749981D03*
G01*
X6250000Y3249980D03*
G01*
X5750001Y3249980D03*
G01*
X5750001Y2749981D03*
G01*
X6250000Y2749981D03*
G01*
X9349993Y6249974D03*
G01*
X8849995Y6249974D03*
G01*
X8849995Y5749975D03*
G01*
X9349993Y5749975D03*
G01*
X3250006Y1749983D03*
G01*
X2750007Y1749983D03*
G01*
X2750007Y1249984D03*
G01*
X3250006Y1249984D03*
G01*
X5250002Y1249984D03*
G01*
X4750003Y1249984D03*
G01*
X4750003Y749985D03*
G01*
X5250002Y749985D03*
G01*
X7249998Y1749983D03*
G01*
X6749999Y1749983D03*
G01*
X6749999Y1249984D03*
G01*
X7249998Y1249984D03*
G01*
X8249996Y3249980D03*
G01*
X7749997Y3249980D03*
G01*
X7749997Y2749981D03*
G01*
X8249996Y2749981D03*
D41*
G01*
X2909064Y8529982D03*
G01*
X2710944Y8529982D03*
M02*
