G04 Layer: BottomPasteMaskLayer*
G04 EasyEDA v6.5.20, 2022-12-02 00:59:29*
G04 a67cddfb3fce44daa9051d46cbbcc19f,10*
G04 Gerber Generator version 0.2*
G04 Scale: 100 percent, Rotated: No, Reflected: No *
G04 Dimensions in millimeters *
G04 leading zeros omitted , absolute positions ,4 integer and 5 decimal *
%FSLAX45Y45*%
%MOMM*%

%AMMACRO1*21,1,$1,$2,0,0,$3*%
%ADD10R,0.6650X0.2800*%
%ADD11MACRO1,0.665X0.28X0.0000*%
%ADD12R,1.2500X2.0000*%
%ADD13MACRO1,2X4X90.0000*%
%ADD14MACRO1,1.3005X1.3995X90.0000*%
%ADD15MACRO1,3.2X3.2X0.0000*%
%ADD16O,0.2800096X0.8999982*%
%ADD17O,0.8999982X0.2800096*%
%ADD18MACRO1,1X1.1X-90.0000*%
%ADD19MACRO1,1X1.2X0.0000*%
%ADD20MACRO1,1.25X0.7X90.0000*%
%ADD21MACRO1,0.7X1.25X0.0000*%
%ADD22MACRO1,1X0.6X-90.0000*%
%ADD23MACRO1,1X1.1X90.0000*%
%ADD24MACRO1,2X0.9X0.0000*%
%ADD25MACRO1,1.33X1.33X0.0000*%
%ADD26C,0.0122*%

%LPD*%
G36*
X5049977Y8348980D02*
G01*
X5044998Y8344001D01*
X5044490Y8302955D01*
X5089499Y8302955D01*
X5089499Y8257997D01*
X5045506Y8257997D01*
X5044998Y8215985D01*
X5049977Y8210956D01*
X5164988Y8210956D01*
X5169966Y8215985D01*
X5169966Y8344001D01*
X5164988Y8348980D01*
G37*
G36*
X4834991Y8348980D02*
G01*
X4830013Y8344001D01*
X4830013Y8215985D01*
X4834991Y8210956D01*
X4950002Y8210956D01*
X4954981Y8215985D01*
X4954981Y8257997D01*
X4910480Y8257997D01*
X4910480Y8302955D01*
X4954473Y8302955D01*
X4954981Y8344001D01*
X4950002Y8348980D01*
G37*
G36*
X4636008Y9119971D02*
G01*
X4630978Y9114993D01*
X4630978Y8999982D01*
X4636008Y8995003D01*
X4677003Y8994495D01*
X4677003Y9039504D01*
X4722012Y9039504D01*
X4722012Y8995460D01*
X4763973Y8995003D01*
X4769002Y8999982D01*
X4769002Y9114993D01*
X4763973Y9119971D01*
G37*
G36*
X4636008Y8904986D02*
G01*
X4630978Y8900007D01*
X4630978Y8784996D01*
X4636008Y8779967D01*
X4763973Y8779967D01*
X4769002Y8784996D01*
X4769002Y8900007D01*
X4763973Y8904986D01*
X4722012Y8904986D01*
X4722012Y8860485D01*
X4677003Y8860485D01*
X4677003Y8904478D01*
G37*
G36*
X4885994Y9119971D02*
G01*
X4880965Y9114993D01*
X4880965Y8999982D01*
X4885994Y8995003D01*
X4926990Y8994495D01*
X4926990Y9039504D01*
X4971999Y9039504D01*
X4971999Y8995460D01*
X5014010Y8995003D01*
X5018989Y8999982D01*
X5018989Y9114993D01*
X5014010Y9119971D01*
G37*
G36*
X4885994Y8904986D02*
G01*
X4880965Y8900007D01*
X4880965Y8784996D01*
X4885994Y8779967D01*
X5014010Y8779967D01*
X5018989Y8784996D01*
X5018989Y8900007D01*
X5014010Y8904986D01*
X4971999Y8904986D01*
X4971999Y8860485D01*
X4926990Y8860485D01*
X4926990Y8904478D01*
G37*
G36*
X5223002Y8905494D02*
G01*
X5223002Y8860485D01*
X5177993Y8860485D01*
X5177993Y8904478D01*
X5135981Y8904986D01*
X5131003Y8900007D01*
X5131003Y8784996D01*
X5135981Y8779967D01*
X5263997Y8779967D01*
X5268976Y8784996D01*
X5268976Y8900007D01*
X5263997Y8904986D01*
G37*
G36*
X5135981Y9119971D02*
G01*
X5131003Y9114993D01*
X5131003Y8999982D01*
X5135981Y8995003D01*
X5177993Y8995003D01*
X5177993Y9039504D01*
X5223002Y9039504D01*
X5223002Y8995460D01*
X5263997Y8995003D01*
X5268976Y8999982D01*
X5268976Y9114993D01*
X5263997Y9119971D01*
G37*
G36*
X4725009Y8408009D02*
G01*
X4725009Y8363000D01*
X4680000Y8363000D01*
X4680000Y8406993D01*
X4637989Y8407501D01*
X4633010Y8402472D01*
X4633010Y8287461D01*
X4637989Y8282482D01*
X4766005Y8282482D01*
X4770983Y8287461D01*
X4770983Y8402472D01*
X4766005Y8407501D01*
G37*
G36*
X4637989Y8622487D02*
G01*
X4633010Y8617458D01*
X4633010Y8502497D01*
X4637989Y8497468D01*
X4680000Y8497468D01*
X4680000Y8541969D01*
X4725009Y8541969D01*
X4725009Y8497976D01*
X4766005Y8497468D01*
X4770983Y8502497D01*
X4770983Y8617458D01*
X4766005Y8622487D01*
G37*
G36*
X6172962Y9455505D02*
G01*
X6172962Y9410496D01*
X6128004Y9410496D01*
X6128004Y9454489D01*
X6085992Y9454997D01*
X6080963Y9449968D01*
X6080963Y9334957D01*
X6085992Y9329978D01*
X6214008Y9329978D01*
X6218986Y9334957D01*
X6218986Y9449968D01*
X6214008Y9454997D01*
G37*
G36*
X6085992Y9669983D02*
G01*
X6080963Y9664954D01*
X6080963Y9549993D01*
X6085992Y9544964D01*
X6128004Y9544964D01*
X6128004Y9589465D01*
X6172962Y9589465D01*
X6172962Y9545472D01*
X6214008Y9544964D01*
X6218986Y9549993D01*
X6218986Y9664954D01*
X6214008Y9669983D01*
G37*
G36*
X735990Y8589975D02*
G01*
X731012Y8584996D01*
X731012Y8469985D01*
X735990Y8465007D01*
X776986Y8464499D01*
X776986Y8509457D01*
X821994Y8509457D01*
X821994Y8465464D01*
X864006Y8465007D01*
X868984Y8469985D01*
X868984Y8584996D01*
X864006Y8589975D01*
G37*
G36*
X735990Y8374989D02*
G01*
X731012Y8369960D01*
X731012Y8255000D01*
X735990Y8249970D01*
X864006Y8249970D01*
X868984Y8255000D01*
X868984Y8369960D01*
X864006Y8374989D01*
X821994Y8374989D01*
X821994Y8330488D01*
X776986Y8330488D01*
X776986Y8374481D01*
G37*
G36*
X2323033Y9655505D02*
G01*
X2323033Y9610496D01*
X2278024Y9610496D01*
X2278024Y9654489D01*
X2236012Y9654997D01*
X2231034Y9650018D01*
X2231034Y9535007D01*
X2236012Y9530029D01*
X2364028Y9530029D01*
X2369007Y9535007D01*
X2369007Y9650018D01*
X2364028Y9654997D01*
G37*
G36*
X2236012Y9869982D02*
G01*
X2231034Y9865004D01*
X2231034Y9749993D01*
X2236012Y9745014D01*
X2278024Y9745014D01*
X2278024Y9789515D01*
X2323033Y9789515D01*
X2323033Y9745522D01*
X2364028Y9745014D01*
X2369007Y9749993D01*
X2369007Y9865004D01*
X2364028Y9869982D01*
G37*
G36*
X2735884Y9930028D02*
G01*
X2730906Y9924999D01*
X2730906Y9809988D01*
X2735884Y9805009D01*
X2776880Y9804501D01*
X2776880Y9849510D01*
X2821889Y9849510D01*
X2821889Y9805517D01*
X2863900Y9805009D01*
X2868879Y9809988D01*
X2868879Y9924999D01*
X2863900Y9930028D01*
G37*
G36*
X2735884Y9714992D02*
G01*
X2730906Y9710013D01*
X2730906Y9595002D01*
X2735884Y9590024D01*
X2863900Y9590024D01*
X2868879Y9595002D01*
X2868879Y9710013D01*
X2863900Y9714992D01*
X2821889Y9714992D01*
X2821889Y9670491D01*
X2776880Y9670491D01*
X2776880Y9714484D01*
G37*
D10*
G01*
X5365737Y8649982D03*
G01*
X5365737Y8599970D03*
G01*
X5365737Y8549982D03*
G01*
X5365737Y8499970D03*
G01*
X5365737Y8449983D03*
D11*
G01*
X5134240Y8649982D03*
G01*
X5134240Y8599982D03*
G01*
X5134240Y8549982D03*
G01*
X5134240Y8499983D03*
G01*
X5134240Y8449983D03*
D12*
G01*
X5249989Y8549982D03*
D13*
G01*
X5723346Y8326821D03*
G01*
X5723346Y8757630D03*
D14*
G01*
X5849988Y9394952D03*
G01*
X5849988Y9605010D03*
D15*
G01*
X1999983Y8089971D03*
D16*
G01*
X1849881Y7839989D03*
G01*
X1899920Y7839989D03*
G01*
X1949958Y7839989D03*
G01*
X1999970Y7839989D03*
G01*
X2050034Y7839989D03*
G01*
X2100072Y7839989D03*
G01*
X2150109Y7839989D03*
D17*
G01*
X2250008Y7939862D03*
G01*
X2250008Y7989900D03*
G01*
X2250008Y8039938D03*
G01*
X2250008Y8089976D03*
G01*
X2250008Y8140014D03*
G01*
X2250008Y8190052D03*
G01*
X2250008Y8240090D03*
D16*
G01*
X2150109Y8339988D03*
G01*
X2100072Y8339988D03*
G01*
X2050034Y8339988D03*
G01*
X1999970Y8339988D03*
G01*
X1949958Y8339988D03*
G01*
X1899920Y8339988D03*
G01*
X1849881Y8339988D03*
D17*
G01*
X1750009Y8240090D03*
G01*
X1750009Y8190052D03*
G01*
X1750009Y8140014D03*
G01*
X1750009Y8089976D03*
G01*
X1750009Y8039938D03*
G01*
X1750009Y7989900D03*
G01*
X1750009Y7939862D03*
D18*
G01*
X1099997Y8509980D03*
G01*
X1099997Y8329970D03*
G01*
X1300098Y8509980D03*
G01*
X1300098Y8329970D03*
G01*
X1499997Y8509980D03*
G01*
X1499997Y8329970D03*
D19*
G01*
X1845005Y9119981D03*
G01*
X2154986Y9119981D03*
D14*
G01*
X1999996Y9594951D03*
G01*
X1999996Y9805009D03*
D20*
G01*
X1905000Y8819982D03*
G01*
X2094990Y8819982D03*
G01*
X1999994Y8619982D03*
D21*
G01*
X1799996Y6895017D03*
G01*
X1894992Y7144953D03*
G01*
X1705000Y7144953D03*
G01*
X2199995Y6895017D03*
G01*
X2294991Y7144953D03*
G01*
X2104999Y7144953D03*
D22*
G01*
X2794990Y9419996D03*
G01*
X2604998Y9419996D03*
G01*
X2604998Y9159976D03*
G01*
X2699994Y9159976D03*
G01*
X2794990Y9159976D03*
D18*
G01*
X1799996Y7339977D03*
G01*
X1799996Y7499977D03*
G01*
X2099995Y7339977D03*
G01*
X2099995Y7499977D03*
D23*
G01*
X8899982Y8829984D03*
G01*
X8899982Y9009994D03*
D24*
G01*
X8399975Y9142996D03*
G01*
X8399975Y9015996D03*
G01*
X8399975Y8888996D03*
G01*
X8399975Y8761996D03*
G01*
X8399975Y8634996D03*
G01*
X8399975Y8507996D03*
G01*
X8399975Y8380996D03*
G01*
X8399975Y8253996D03*
G01*
X8399975Y8126996D03*
G01*
X8399975Y7999996D03*
G01*
X8399975Y7872996D03*
G01*
X8399975Y7745996D03*
G01*
X8399975Y7618996D03*
G01*
X8399975Y7491996D03*
G01*
X8399975Y7364996D03*
G01*
X8399975Y7237996D03*
G01*
X8399975Y7110996D03*
G01*
X8399975Y6983996D03*
G01*
X8399975Y6856996D03*
G01*
X6599989Y6856996D03*
G01*
X6599989Y6983996D03*
G01*
X6599989Y7110996D03*
G01*
X6599989Y7237996D03*
G01*
X6599989Y7364996D03*
G01*
X6599989Y7491996D03*
G01*
X6599989Y7618996D03*
G01*
X6599989Y7745996D03*
G01*
X6599989Y7872996D03*
G01*
X6599989Y7999996D03*
G01*
X6599989Y8126996D03*
G01*
X6599989Y8253996D03*
G01*
X6599989Y8380996D03*
G01*
X6599989Y8507996D03*
G01*
X6599989Y8634996D03*
G01*
X6599989Y8761996D03*
G01*
X6599989Y8888996D03*
G01*
X6599989Y9015996D03*
G01*
X6599989Y9142996D03*
D25*
G01*
X7599982Y8393010D03*
G01*
X7783482Y8393008D03*
G01*
X7416497Y8393008D03*
G01*
X7783482Y8576495D03*
G01*
X7599982Y8576497D03*
G01*
X7416474Y8576492D03*
G01*
X7783482Y8209500D03*
G01*
X7599982Y8209503D03*
G01*
X7416497Y8209506D03*
D23*
G01*
X8650058Y8829974D03*
G01*
X8650058Y9009984D03*
M02*
