G04 Layer: BottomLayer*
G04 EasyEDA v6.5.20, 2022-12-02 00:59:29*
G04 a67cddfb3fce44daa9051d46cbbcc19f,10*
G04 Gerber Generator version 0.2*
G04 Scale: 100 percent, Rotated: No, Reflected: No *
G04 Dimensions in millimeters *
G04 leading zeros omitted , absolute positions ,4 integer and 5 decimal *
%FSLAX45Y45*%
%MOMM*%

%AMMACRO1*21,1,$1,$2,0,0,$3*%
%ADD10C,1.0000*%
%ADD11C,0.5000*%
%ADD12C,0.8000*%
%ADD13C,0.3000*%
%ADD14C,0.4000*%
%ADD15C,0.2500*%
%ADD16C,0.7500*%
%ADD17R,0.6650X0.2800*%
%ADD18MACRO1,0.665X0.28X0.0000*%
%ADD19R,1.2500X2.0000*%
%ADD20MACRO1,1.377X1.1325X90.0000*%
%ADD21R,1.3770X1.1325*%
%ADD22MACRO1,1.377X1.1325X0.0000*%
%ADD23MACRO1,2X4X90.0000*%
%ADD24R,1.3500X1.4100*%
%ADD25MACRO1,1.35X1.41X0.0000*%
%ADD26MACRO1,1.3005X1.3995X90.0000*%
%ADD27MACRO1,3.2X3.2X0.0000*%
%ADD28O,0.2800096X0.8999982*%
%ADD29O,0.8999982X0.2800096*%
%ADD30MACRO1,1X1.1X-90.0000*%
%ADD31MACRO1,1X1.2X0.0000*%
%ADD32MACRO1,1.25X0.7X90.0000*%
%ADD33MACRO1,0.7X1.25X0.0000*%
%ADD34MACRO1,1X0.6X-90.0000*%
%ADD35MACRO1,1X1.1X90.0000*%
%ADD36MACRO1,2X0.9X0.0000*%
%ADD37MACRO1,1.33X1.33X0.0000*%
%ADD38C,2.8500*%
%ADD39C,1.8000*%
%ADD40C,2.0000*%
%ADD41O,2.1999956000000003X1.2999974*%
%ADD42C,1.3000*%
%ADD43C,1.4224*%
%ADD44C,0.6096*%
%ADD45C,0.6100*%
%ADD46C,0.0149*%

%LPD*%
G36*
X731012Y25908D02*
G01*
X727202Y26670D01*
X723950Y28803D01*
X721715Y32004D01*
X720852Y35864D01*
X721563Y39674D01*
X723595Y43027D01*
X726795Y45313D01*
X730402Y46939D01*
X757834Y61722D01*
X784301Y78130D01*
X809701Y96164D01*
X833932Y115722D01*
X856945Y136702D01*
X878586Y159105D01*
X898855Y182778D01*
X917549Y207670D01*
X934719Y233629D01*
X950264Y260654D01*
X964133Y288544D01*
X976223Y317246D01*
X986485Y346659D01*
X994968Y376631D01*
X1001572Y407060D01*
X1006297Y437845D01*
X1009091Y468884D01*
X1010005Y499973D01*
X1009091Y531114D01*
X1006297Y562152D01*
X1001572Y592937D01*
X994968Y623366D01*
X986485Y653338D01*
X976223Y682752D01*
X964133Y711454D01*
X950264Y739343D01*
X934719Y766368D01*
X917549Y792327D01*
X898855Y817219D01*
X878586Y840892D01*
X856945Y863295D01*
X833932Y884275D01*
X809701Y903833D01*
X784301Y921867D01*
X757834Y938276D01*
X730402Y953058D01*
X702106Y966063D01*
X673049Y977341D01*
X643382Y986790D01*
X613206Y994410D01*
X582574Y1000150D01*
X551637Y1003960D01*
X520547Y1005890D01*
X489407Y1005890D01*
X458317Y1003960D01*
X427431Y1000150D01*
X396798Y994410D01*
X366623Y986790D01*
X336956Y977341D01*
X307898Y966063D01*
X279603Y953058D01*
X252171Y938276D01*
X225704Y921867D01*
X200304Y903833D01*
X176072Y884275D01*
X153060Y863295D01*
X131419Y840892D01*
X111150Y817219D01*
X92405Y792327D01*
X75234Y766368D01*
X59740Y739343D01*
X45872Y711454D01*
X43230Y707085D01*
X39928Y704900D01*
X36017Y704138D01*
X32156Y704951D01*
X28854Y707136D01*
X26670Y710438D01*
X25908Y714298D01*
X25908Y7644384D01*
X26670Y7648244D01*
X28803Y7651496D01*
X32004Y7653731D01*
X35814Y7654544D01*
X39674Y7653883D01*
X43027Y7651851D01*
X45516Y7649514D01*
X55626Y7642352D01*
X66649Y7636611D01*
X78333Y7632496D01*
X86512Y7630769D01*
X86512Y7681163D01*
X36068Y7681163D01*
X32156Y7681925D01*
X28905Y7684109D01*
X26670Y7687411D01*
X25908Y7691323D01*
X25908Y7748676D01*
X26670Y7752588D01*
X28905Y7755839D01*
X32156Y7758074D01*
X36068Y7758836D01*
X86512Y7758836D01*
X86512Y7809179D01*
X78333Y7807502D01*
X66649Y7803337D01*
X55626Y7797647D01*
X45516Y7790484D01*
X43027Y7788148D01*
X39674Y7786065D01*
X35814Y7785404D01*
X32004Y7786268D01*
X28803Y7788452D01*
X26670Y7791754D01*
X25908Y7795564D01*
X25908Y8364423D01*
X26670Y8368233D01*
X28803Y8371484D01*
X32004Y8373719D01*
X35814Y8374583D01*
X39674Y8373922D01*
X43027Y8371840D01*
X45516Y8369503D01*
X55626Y8362340D01*
X66649Y8356650D01*
X78333Y8352485D01*
X86512Y8350758D01*
X86512Y8401151D01*
X36068Y8401151D01*
X32156Y8401913D01*
X28905Y8404098D01*
X26670Y8407400D01*
X25908Y8411311D01*
X25908Y8468664D01*
X26670Y8472576D01*
X28905Y8475878D01*
X32156Y8478062D01*
X36068Y8478824D01*
X86512Y8478824D01*
X86512Y8529218D01*
X78333Y8527491D01*
X66649Y8523325D01*
X55626Y8517636D01*
X45516Y8510473D01*
X43027Y8508136D01*
X39674Y8506053D01*
X35814Y8505393D01*
X32004Y8506256D01*
X28803Y8508492D01*
X26670Y8511743D01*
X25908Y8515553D01*
X25908Y9285681D01*
X26670Y9289542D01*
X28854Y9292844D01*
X32156Y9295028D01*
X36017Y9295841D01*
X39928Y9295079D01*
X43230Y9292894D01*
X45872Y9288526D01*
X59740Y9260636D01*
X75234Y9233611D01*
X92405Y9207652D01*
X111150Y9182760D01*
X131419Y9159087D01*
X153060Y9136684D01*
X176072Y9115704D01*
X200304Y9096146D01*
X225704Y9078112D01*
X252171Y9061704D01*
X279603Y9046921D01*
X307898Y9033916D01*
X336956Y9022638D01*
X366623Y9013190D01*
X396798Y9005570D01*
X427431Y8999829D01*
X458317Y8996019D01*
X489407Y8994089D01*
X520547Y8994089D01*
X551637Y8996019D01*
X582574Y8999829D01*
X613206Y9005570D01*
X643382Y9013190D01*
X673049Y9022638D01*
X702106Y9033916D01*
X730402Y9046921D01*
X757834Y9061704D01*
X784301Y9078112D01*
X809701Y9096146D01*
X833932Y9115704D01*
X856945Y9136684D01*
X878586Y9159087D01*
X898855Y9182760D01*
X917549Y9207652D01*
X934719Y9233611D01*
X950264Y9260636D01*
X964133Y9288526D01*
X976223Y9317228D01*
X986485Y9346641D01*
X994968Y9376613D01*
X1001572Y9407042D01*
X1006297Y9437827D01*
X1009091Y9468866D01*
X1010005Y9499955D01*
X1009091Y9531096D01*
X1006297Y9562134D01*
X1001572Y9592919D01*
X994968Y9623348D01*
X986485Y9653320D01*
X976223Y9682734D01*
X964133Y9711436D01*
X950264Y9739325D01*
X934719Y9766350D01*
X917549Y9792309D01*
X898855Y9817201D01*
X878586Y9840874D01*
X856945Y9863277D01*
X833932Y9884257D01*
X809701Y9903815D01*
X784301Y9921849D01*
X757834Y9938258D01*
X730402Y9953040D01*
X726795Y9954666D01*
X723595Y9956952D01*
X721563Y9960305D01*
X720852Y9964115D01*
X721715Y9967976D01*
X723950Y9971176D01*
X727202Y9973310D01*
X731012Y9974072D01*
X5999429Y9974072D01*
X6030061Y9973106D01*
X6059728Y9970262D01*
X6089142Y9965588D01*
X6118199Y9959086D01*
X6146800Y9950754D01*
X6174790Y9940645D01*
X6202121Y9928809D01*
X6228638Y9915245D01*
X6254292Y9900056D01*
X6278880Y9883343D01*
X6302400Y9865055D01*
X6324752Y9845344D01*
X6345783Y9824262D01*
X6365443Y9801910D01*
X6383680Y9778390D01*
X6400444Y9753752D01*
X6415582Y9728098D01*
X6429095Y9701530D01*
X6440881Y9674199D01*
X6450939Y9646158D01*
X6459220Y9617557D01*
X6465722Y9588500D01*
X6470345Y9559086D01*
X6473139Y9529419D01*
X6474104Y9499447D01*
X6474104Y9200591D01*
X6474714Y9195409D01*
X6474714Y9193072D01*
X6474104Y9187434D01*
X6474104Y9171838D01*
X6547459Y9171838D01*
X6550456Y9173514D01*
X6553809Y9174073D01*
X6646164Y9174073D01*
X6649567Y9173514D01*
X6652514Y9171838D01*
X6729730Y9171838D01*
X6732676Y9173514D01*
X6736080Y9174073D01*
X8263890Y9174073D01*
X8267293Y9173514D01*
X8270240Y9171838D01*
X8347456Y9171838D01*
X8350402Y9173514D01*
X8353806Y9174073D01*
X8446160Y9174073D01*
X8449513Y9173514D01*
X8452510Y9171838D01*
X8525865Y9171838D01*
X8525865Y9187434D01*
X8525256Y9193174D01*
X8525256Y9195612D01*
X8525916Y9200642D01*
X8525916Y9499447D01*
X8526881Y9530080D01*
X8529675Y9559696D01*
X8534349Y9589109D01*
X8540902Y9618167D01*
X8549233Y9646767D01*
X8559342Y9674809D01*
X8571179Y9702139D01*
X8584692Y9728657D01*
X8599881Y9754260D01*
X8616645Y9778898D01*
X8634933Y9802418D01*
X8654643Y9824720D01*
X8675674Y9845802D01*
X8698026Y9865461D01*
X8721598Y9883698D01*
X8746236Y9900412D01*
X8771890Y9915550D01*
X8798407Y9929063D01*
X8825738Y9940899D01*
X8853779Y9950958D01*
X8882380Y9959238D01*
X8911488Y9965690D01*
X8940901Y9970363D01*
X8970518Y9973157D01*
X9000540Y9974072D01*
X9281109Y9974072D01*
X9284919Y9973310D01*
X9288170Y9971176D01*
X9290405Y9967976D01*
X9291269Y9964115D01*
X9290558Y9960305D01*
X9288526Y9956952D01*
X9285325Y9954666D01*
X9279585Y9952024D01*
X9252153Y9937292D01*
X9225686Y9920884D01*
X9200286Y9902850D01*
X9176054Y9883292D01*
X9153042Y9862261D01*
X9131401Y9839909D01*
X9111132Y9816236D01*
X9092387Y9791344D01*
X9075216Y9765334D01*
X9059722Y9738360D01*
X9045854Y9710470D01*
X9033764Y9681768D01*
X9023451Y9652355D01*
X9015018Y9622383D01*
X9008414Y9591954D01*
X9003690Y9561169D01*
X9000896Y9530130D01*
X8999982Y9499041D01*
X9000896Y9467850D01*
X9003690Y9436862D01*
X9008414Y9406077D01*
X9015018Y9375597D01*
X9023451Y9345625D01*
X9033764Y9316262D01*
X9045854Y9287560D01*
X9059722Y9259620D01*
X9075216Y9232646D01*
X9092387Y9206636D01*
X9111132Y9181795D01*
X9131401Y9158071D01*
X9153042Y9135719D01*
X9176054Y9114688D01*
X9200286Y9095130D01*
X9225686Y9077147D01*
X9252153Y9060688D01*
X9279585Y9045956D01*
X9307880Y9032900D01*
X9336887Y9021673D01*
X9366605Y9012224D01*
X9396780Y9004604D01*
X9427413Y8998864D01*
X9458299Y8995003D01*
X9489389Y8993124D01*
X9520529Y8993124D01*
X9551619Y8995003D01*
X9582556Y8998864D01*
X9613188Y9004604D01*
X9643364Y9012224D01*
X9673031Y9021673D01*
X9702088Y9032900D01*
X9730384Y9045956D01*
X9757816Y9060688D01*
X9784283Y9077147D01*
X9809683Y9095130D01*
X9833914Y9114688D01*
X9856927Y9135719D01*
X9878568Y9158071D01*
X9898837Y9181795D01*
X9917531Y9206636D01*
X9934702Y9232646D01*
X9950246Y9259620D01*
X9954818Y9268815D01*
X9957663Y9272320D01*
X9961727Y9274251D01*
X9966248Y9274200D01*
X9970262Y9272219D01*
X9973056Y9268714D01*
X9974072Y9264294D01*
X9974072Y744677D01*
X9973106Y740410D01*
X9970414Y736904D01*
X9966553Y734872D01*
X9962134Y734669D01*
X9958070Y736346D01*
X9955123Y739597D01*
X9939731Y766368D01*
X9922560Y792327D01*
X9903815Y817219D01*
X9883597Y840892D01*
X9861905Y863295D01*
X9838944Y884275D01*
X9814661Y903833D01*
X9789261Y921867D01*
X9762794Y938276D01*
X9735362Y953058D01*
X9707067Y966063D01*
X9678060Y977341D01*
X9648393Y986790D01*
X9618167Y994410D01*
X9587534Y1000150D01*
X9556648Y1003960D01*
X9525558Y1005890D01*
X9494418Y1005890D01*
X9463328Y1003960D01*
X9432391Y1000150D01*
X9401810Y994410D01*
X9371584Y986790D01*
X9341916Y977341D01*
X9312859Y966063D01*
X9284563Y953058D01*
X9257131Y938276D01*
X9230664Y921867D01*
X9205264Y903833D01*
X9181033Y884275D01*
X9158020Y863295D01*
X9136380Y840892D01*
X9116161Y817219D01*
X9097416Y792327D01*
X9080246Y766368D01*
X9064701Y739343D01*
X9050883Y711454D01*
X9038793Y682752D01*
X9028480Y653338D01*
X9019997Y623366D01*
X9013393Y592937D01*
X9008668Y562152D01*
X9005874Y531114D01*
X9005011Y500024D01*
X9005874Y468884D01*
X9008668Y437845D01*
X9013393Y407060D01*
X9019997Y376631D01*
X9028480Y346659D01*
X9038793Y317246D01*
X9050883Y288544D01*
X9064701Y260654D01*
X9080246Y233629D01*
X9097416Y207670D01*
X9116161Y182778D01*
X9136380Y159105D01*
X9158020Y136702D01*
X9181033Y115722D01*
X9205264Y96164D01*
X9230664Y78130D01*
X9257131Y61722D01*
X9284563Y46939D01*
X9288221Y45313D01*
X9291370Y43027D01*
X9293453Y39674D01*
X9294114Y35864D01*
X9293250Y32004D01*
X9291066Y28803D01*
X9287764Y26670D01*
X9283954Y25908D01*
G37*

%LPC*%
G36*
X2705150Y9894671D02*
G01*
X2759100Y9894671D01*
X2759100Y9942525D01*
X2731617Y9942525D01*
X2725267Y9941814D01*
X2719832Y9939934D01*
X2714904Y9936835D01*
X2710840Y9932771D01*
X2707741Y9927844D01*
X2705862Y9922408D01*
X2705150Y9916058D01*
G37*
G36*
X2840685Y9894671D02*
G01*
X2894634Y9894671D01*
X2894634Y9916058D01*
X2893923Y9922408D01*
X2892044Y9927844D01*
X2888945Y9932771D01*
X2884881Y9936835D01*
X2879953Y9939934D01*
X2874518Y9941814D01*
X2868168Y9942525D01*
X2840685Y9942525D01*
G37*
G36*
X4806340Y637540D02*
G01*
X4808524Y638505D01*
X4821529Y646379D01*
X4833467Y655726D01*
X4844237Y666496D01*
X4853584Y678484D01*
X4861458Y691489D01*
X4862423Y693623D01*
X4806340Y693623D01*
G37*
G36*
X5306364Y637540D02*
G01*
X5308498Y638505D01*
X5321503Y646379D01*
X5333492Y655726D01*
X5344210Y666496D01*
X5353608Y678484D01*
X5361482Y691489D01*
X5362448Y693623D01*
X5306364Y693623D01*
G37*
G36*
X4693666Y637540D02*
G01*
X4693666Y693623D01*
X4637582Y693623D01*
X4638548Y691489D01*
X4646422Y678484D01*
X4655769Y666496D01*
X4666538Y655726D01*
X4678476Y646379D01*
X4691481Y638505D01*
G37*
G36*
X5193639Y637540D02*
G01*
X5193639Y693623D01*
X5137556Y693623D01*
X5138521Y691489D01*
X5146395Y678484D01*
X5155793Y666496D01*
X5166512Y655726D01*
X5178501Y646379D01*
X5191506Y638505D01*
G37*
G36*
X2731617Y9777476D02*
G01*
X2759100Y9777476D01*
X2759100Y9825329D01*
X2705150Y9825329D01*
X2705150Y9803942D01*
X2705862Y9797643D01*
X2707741Y9792157D01*
X2710840Y9787280D01*
X2714904Y9783165D01*
X2719832Y9780117D01*
X2725267Y9778187D01*
G37*
G36*
X2840685Y9777476D02*
G01*
X2868168Y9777476D01*
X2874518Y9778187D01*
X2879953Y9780117D01*
X2884881Y9783165D01*
X2888945Y9787280D01*
X2892044Y9792157D01*
X2893923Y9797643D01*
X2894634Y9803942D01*
X2894634Y9825329D01*
X2840685Y9825329D01*
G37*
G36*
X4806340Y806297D02*
G01*
X4862423Y806297D01*
X4861458Y808482D01*
X4853584Y821486D01*
X4844237Y833475D01*
X4833467Y844194D01*
X4821529Y853592D01*
X4808524Y861466D01*
X4806340Y862431D01*
G37*
G36*
X5137556Y806297D02*
G01*
X5193639Y806297D01*
X5193639Y862431D01*
X5191506Y861466D01*
X5178501Y853592D01*
X5166512Y844194D01*
X5155793Y833475D01*
X5146395Y821486D01*
X5138521Y808482D01*
G37*
G36*
X4637582Y806297D02*
G01*
X4693666Y806297D01*
X4693666Y862431D01*
X4691481Y861466D01*
X4678476Y853592D01*
X4666538Y844194D01*
X4655769Y833475D01*
X4646422Y821486D01*
X4638548Y808482D01*
G37*
G36*
X5306364Y806297D02*
G01*
X5362448Y806297D01*
X5361482Y808482D01*
X5353608Y821486D01*
X5344210Y833475D01*
X5333492Y844194D01*
X5321503Y853592D01*
X5308498Y861466D01*
X5306364Y862431D01*
G37*
G36*
X1930603Y9714077D02*
G01*
X2069388Y9714077D01*
X2075738Y9714788D01*
X2081174Y9716719D01*
X2086102Y9719767D01*
X2087422Y9721138D01*
X2090724Y9723323D01*
X2094585Y9724085D01*
X2210663Y9724085D01*
X2213508Y9723678D01*
X2216099Y9722561D01*
X2219960Y9720122D01*
X2225395Y9718192D01*
X2231745Y9717481D01*
X2368296Y9717481D01*
X2374646Y9718192D01*
X2380081Y9720122D01*
X2385009Y9723170D01*
X2389073Y9727285D01*
X2392172Y9732162D01*
X2394051Y9737648D01*
X2394762Y9743948D01*
X2394762Y9856063D01*
X2394051Y9862413D01*
X2392172Y9867849D01*
X2389073Y9872726D01*
X2385009Y9876840D01*
X2380081Y9879939D01*
X2374646Y9881819D01*
X2368296Y9882530D01*
X2231745Y9882530D01*
X2225395Y9881819D01*
X2219960Y9879939D01*
X2216048Y9877450D01*
X2213457Y9876332D01*
X2210663Y9875926D01*
X2102205Y9875926D01*
X2098852Y9876485D01*
X2095906Y9878110D01*
X2093620Y9880650D01*
X2090166Y9886137D01*
X2086102Y9890252D01*
X2081174Y9893300D01*
X2075738Y9895230D01*
X2069388Y9895941D01*
X1930603Y9895941D01*
X1924253Y9895230D01*
X1918817Y9893300D01*
X1913889Y9890252D01*
X1909825Y9886137D01*
X1906727Y9881260D01*
X1904847Y9875774D01*
X1904136Y9869474D01*
X1904136Y9740544D01*
X1904847Y9734245D01*
X1906727Y9728758D01*
X1909825Y9723882D01*
X1913889Y9719767D01*
X1918817Y9716719D01*
X1924253Y9714788D01*
G37*
G36*
X4427575Y9627565D02*
G01*
X4499457Y9627565D01*
X4490313Y9643059D01*
X4479645Y9657435D01*
X4467453Y9670643D01*
X4453991Y9682429D01*
X4439310Y9692741D01*
X4427575Y9699244D01*
G37*
G36*
X2806344Y1137513D02*
G01*
X2808528Y1138478D01*
X2821533Y1146352D01*
X2833471Y1155750D01*
X2844241Y1166469D01*
X2853588Y1178458D01*
X2861462Y1191463D01*
X2862427Y1193596D01*
X2806344Y1193596D01*
G37*
G36*
X6806336Y1137513D02*
G01*
X6808520Y1138478D01*
X6821525Y1146352D01*
X6833463Y1155750D01*
X6844233Y1166469D01*
X6853580Y1178458D01*
X6861454Y1191463D01*
X6862419Y1193596D01*
X6806336Y1193596D01*
G37*
G36*
X3306368Y1137513D02*
G01*
X3308502Y1138478D01*
X3321507Y1146352D01*
X3333496Y1155750D01*
X3344214Y1166469D01*
X3353612Y1178458D01*
X3361486Y1191463D01*
X3362451Y1193596D01*
X3306368Y1193596D01*
G37*
G36*
X7306360Y1137513D02*
G01*
X7308494Y1138478D01*
X7321499Y1146352D01*
X7333488Y1155750D01*
X7344206Y1166469D01*
X7353604Y1178458D01*
X7361478Y1191463D01*
X7362444Y1193596D01*
X7306360Y1193596D01*
G37*
G36*
X6693662Y1137513D02*
G01*
X6693662Y1193596D01*
X6637578Y1193596D01*
X6638544Y1191463D01*
X6646418Y1178458D01*
X6655765Y1166469D01*
X6666534Y1155750D01*
X6678472Y1146352D01*
X6691477Y1138478D01*
G37*
G36*
X3193643Y1137513D02*
G01*
X3193643Y1193596D01*
X3137560Y1193596D01*
X3138525Y1191463D01*
X3146399Y1178458D01*
X3155797Y1166469D01*
X3166516Y1155750D01*
X3178505Y1146352D01*
X3191510Y1138478D01*
G37*
G36*
X2693670Y1137513D02*
G01*
X2693670Y1193596D01*
X2637586Y1193596D01*
X2638552Y1191463D01*
X2646426Y1178458D01*
X2655773Y1166469D01*
X2666542Y1155750D01*
X2678480Y1146352D01*
X2691485Y1138478D01*
G37*
G36*
X7193635Y1137513D02*
G01*
X7193635Y1193596D01*
X7137552Y1193596D01*
X7138517Y1191463D01*
X7146391Y1178458D01*
X7155789Y1166469D01*
X7166508Y1155750D01*
X7178497Y1146352D01*
X7191502Y1138478D01*
G37*
G36*
X4200804Y9627565D02*
G01*
X4272381Y9627565D01*
X4272381Y9699244D01*
X4268419Y9697262D01*
X4253179Y9687763D01*
X4239107Y9676688D01*
X4226255Y9664192D01*
X4214825Y9650425D01*
X4204919Y9635490D01*
G37*
G36*
X2637586Y1306322D02*
G01*
X2693670Y1306322D01*
X2693670Y1362405D01*
X2691485Y1361440D01*
X2678480Y1353566D01*
X2666542Y1344218D01*
X2655773Y1333449D01*
X2646426Y1321460D01*
X2638552Y1308455D01*
G37*
G36*
X7137552Y1306322D02*
G01*
X7193635Y1306322D01*
X7193635Y1362405D01*
X7191502Y1361440D01*
X7178497Y1353566D01*
X7166508Y1344218D01*
X7155789Y1333449D01*
X7146391Y1321460D01*
X7138517Y1308455D01*
G37*
G36*
X6806336Y1306322D02*
G01*
X6862419Y1306322D01*
X6861454Y1308455D01*
X6853580Y1321460D01*
X6844233Y1333449D01*
X6833463Y1344218D01*
X6821525Y1353566D01*
X6808520Y1361440D01*
X6806336Y1362405D01*
G37*
G36*
X6637578Y1306322D02*
G01*
X6693662Y1306322D01*
X6693662Y1362405D01*
X6691477Y1361440D01*
X6678472Y1353566D01*
X6666534Y1344218D01*
X6655765Y1333449D01*
X6646418Y1321460D01*
X6638544Y1308455D01*
G37*
G36*
X3137560Y1306322D02*
G01*
X3193643Y1306322D01*
X3193643Y1362405D01*
X3191510Y1361440D01*
X3178505Y1353566D01*
X3166516Y1344218D01*
X3155797Y1333449D01*
X3146399Y1321460D01*
X3138525Y1308455D01*
G37*
G36*
X3306368Y1306322D02*
G01*
X3362451Y1306322D01*
X3361486Y1308455D01*
X3353612Y1321460D01*
X3344214Y1333449D01*
X3333496Y1344218D01*
X3321507Y1353566D01*
X3308502Y1361440D01*
X3306368Y1362405D01*
G37*
G36*
X7306360Y1306322D02*
G01*
X7362444Y1306322D01*
X7361478Y1308455D01*
X7353604Y1321460D01*
X7344206Y1333449D01*
X7333488Y1344218D01*
X7321499Y1353566D01*
X7308494Y1361440D01*
X7306360Y1362405D01*
G37*
G36*
X2806344Y1306322D02*
G01*
X2862427Y1306322D01*
X2861462Y1308455D01*
X2853588Y1321460D01*
X2844241Y1333449D01*
X2833471Y1344218D01*
X2821533Y1353566D01*
X2808528Y1361440D01*
X2806344Y1362405D01*
G37*
G36*
X5780582Y9514078D02*
G01*
X5919419Y9514078D01*
X5925718Y9514789D01*
X5931154Y9516719D01*
X5936081Y9519767D01*
X5940145Y9523882D01*
X5943244Y9528759D01*
X5945174Y9534245D01*
X5945886Y9540544D01*
X5945886Y9551416D01*
X5946648Y9555276D01*
X5948832Y9558578D01*
X5952134Y9560814D01*
X5956046Y9561576D01*
X6045047Y9561576D01*
X6048959Y9560814D01*
X6052261Y9558578D01*
X6054445Y9555276D01*
X6055207Y9551416D01*
X6055207Y9543948D01*
X6055918Y9537598D01*
X6057849Y9532162D01*
X6060948Y9527235D01*
X6065012Y9523171D01*
X6069939Y9520072D01*
X6075375Y9518142D01*
X6081725Y9517430D01*
X6218275Y9517430D01*
X6224574Y9518142D01*
X6230061Y9520072D01*
X6234938Y9523171D01*
X6239052Y9527235D01*
X6242100Y9532162D01*
X6244031Y9537598D01*
X6244742Y9543948D01*
X6244742Y9656064D01*
X6244031Y9662363D01*
X6242100Y9667849D01*
X6239052Y9672726D01*
X6234938Y9676841D01*
X6230061Y9679889D01*
X6224574Y9681819D01*
X6218275Y9682530D01*
X6081725Y9682530D01*
X6075375Y9681819D01*
X6069939Y9679889D01*
X6065012Y9676841D01*
X6060948Y9672726D01*
X6057849Y9667849D01*
X6055918Y9662363D01*
X6055207Y9656064D01*
X6055207Y9648545D01*
X6054445Y9644684D01*
X6052261Y9641382D01*
X6048959Y9639147D01*
X6045047Y9638385D01*
X5956046Y9638385D01*
X5952134Y9639147D01*
X5948832Y9641382D01*
X5946648Y9644684D01*
X5945886Y9648545D01*
X5945886Y9669475D01*
X5945174Y9675774D01*
X5943244Y9681260D01*
X5940145Y9686137D01*
X5936081Y9690252D01*
X5931154Y9693300D01*
X5925718Y9695230D01*
X5919419Y9695942D01*
X5780582Y9695942D01*
X5774283Y9695230D01*
X5768797Y9693300D01*
X5763920Y9690252D01*
X5759805Y9686137D01*
X5756706Y9681260D01*
X5754827Y9675774D01*
X5754116Y9669475D01*
X5754116Y9540544D01*
X5754827Y9534245D01*
X5756706Y9528759D01*
X5759805Y9523882D01*
X5763920Y9519767D01*
X5768797Y9516719D01*
X5774283Y9514789D01*
G37*
G36*
X6190742Y9434626D02*
G01*
X6244742Y9434626D01*
X6244742Y9456013D01*
X6244031Y9462363D01*
X6242100Y9467799D01*
X6239052Y9472726D01*
X6234938Y9476790D01*
X6230061Y9479889D01*
X6224574Y9481820D01*
X6218275Y9482531D01*
X6190742Y9482531D01*
G37*
G36*
X6055207Y9434626D02*
G01*
X6109208Y9434626D01*
X6109208Y9482531D01*
X6081725Y9482531D01*
X6075375Y9481820D01*
X6069939Y9479889D01*
X6065012Y9476790D01*
X6060948Y9472726D01*
X6057849Y9467799D01*
X6055918Y9462363D01*
X6055207Y9456013D01*
G37*
G36*
X4427575Y9400743D02*
G01*
X4439310Y9407245D01*
X4453991Y9417507D01*
X4467453Y9429343D01*
X4479645Y9442500D01*
X4490313Y9456877D01*
X4499457Y9472371D01*
X4427575Y9472371D01*
G37*
G36*
X4272381Y9400743D02*
G01*
X4272381Y9472371D01*
X4200804Y9472371D01*
X4204919Y9464497D01*
X4214825Y9449562D01*
X4226255Y9435744D01*
X4239107Y9423247D01*
X4253179Y9412173D01*
X4268419Y9402673D01*
G37*
G36*
X3884472Y9381642D02*
G01*
X3902354Y9383064D01*
X3919931Y9386417D01*
X3937101Y9391548D01*
X3953611Y9398558D01*
X3969308Y9407245D01*
X3983990Y9417507D01*
X3997451Y9429343D01*
X4009644Y9442500D01*
X4020312Y9456877D01*
X4029405Y9472320D01*
X4036822Y9488678D01*
X4042460Y9505696D01*
X4046220Y9523171D01*
X4048150Y9541002D01*
X4048150Y9558934D01*
X4046220Y9576765D01*
X4042460Y9594291D01*
X4036822Y9611309D01*
X4029405Y9627616D01*
X4020312Y9643059D01*
X4009644Y9657435D01*
X3997451Y9670643D01*
X3983990Y9682429D01*
X3969308Y9692741D01*
X3953611Y9701428D01*
X3937101Y9708388D01*
X3919931Y9713569D01*
X3902354Y9716871D01*
X3884472Y9718294D01*
X3866540Y9717836D01*
X3848811Y9715449D01*
X3831386Y9711182D01*
X3814521Y9705136D01*
X3798417Y9697262D01*
X3783177Y9687763D01*
X3769106Y9676688D01*
X3756253Y9664192D01*
X3744823Y9650425D01*
X3734917Y9635490D01*
X3726637Y9619538D01*
X3720134Y9602876D01*
X3715410Y9585553D01*
X3712565Y9567875D01*
X3711600Y9549993D01*
X3712565Y9532061D01*
X3715410Y9514382D01*
X3720134Y9497110D01*
X3726637Y9480397D01*
X3734917Y9464497D01*
X3744823Y9449562D01*
X3756253Y9435744D01*
X3769106Y9423247D01*
X3783177Y9412173D01*
X3798417Y9402673D01*
X3814521Y9394850D01*
X3831386Y9388754D01*
X3848811Y9384487D01*
X3866540Y9382099D01*
G37*
G36*
X3414471Y9381642D02*
G01*
X3432352Y9383064D01*
X3449980Y9386417D01*
X3467100Y9391548D01*
X3483610Y9398558D01*
X3499307Y9407245D01*
X3513988Y9417507D01*
X3527450Y9429343D01*
X3539642Y9442500D01*
X3550310Y9456877D01*
X3559403Y9472320D01*
X3566820Y9488678D01*
X3572459Y9505696D01*
X3576218Y9523171D01*
X3578148Y9541002D01*
X3578148Y9558934D01*
X3576218Y9576765D01*
X3572459Y9594291D01*
X3566820Y9611309D01*
X3559403Y9627616D01*
X3550310Y9643059D01*
X3539642Y9657435D01*
X3527450Y9670643D01*
X3513988Y9682429D01*
X3499307Y9692741D01*
X3483610Y9701428D01*
X3467100Y9708388D01*
X3449980Y9713569D01*
X3432352Y9716871D01*
X3414471Y9718294D01*
X3396538Y9717836D01*
X3378809Y9715449D01*
X3361385Y9711182D01*
X3344519Y9705136D01*
X3328415Y9697262D01*
X3313176Y9687763D01*
X3299104Y9676688D01*
X3286251Y9664192D01*
X3274822Y9650425D01*
X3264915Y9635490D01*
X3256635Y9619538D01*
X3250133Y9602876D01*
X3245408Y9585553D01*
X3242564Y9567875D01*
X3241598Y9549993D01*
X3242564Y9532061D01*
X3245408Y9514382D01*
X3250133Y9497110D01*
X3256635Y9480397D01*
X3264915Y9464497D01*
X3274822Y9449562D01*
X3286251Y9435744D01*
X3299104Y9423247D01*
X3313176Y9412173D01*
X3328415Y9402673D01*
X3344519Y9394850D01*
X3361385Y9388754D01*
X3378809Y9384487D01*
X3396538Y9382099D01*
G37*
G36*
X6190742Y9317431D02*
G01*
X6218275Y9317431D01*
X6224574Y9318142D01*
X6230061Y9320072D01*
X6234938Y9323120D01*
X6239052Y9327235D01*
X6242100Y9332112D01*
X6244031Y9337598D01*
X6244742Y9343898D01*
X6244742Y9365335D01*
X6190742Y9365335D01*
G37*
G36*
X4306366Y2637536D02*
G01*
X4308500Y2638501D01*
X4321505Y2646375D01*
X4333494Y2655722D01*
X4344212Y2666492D01*
X4353610Y2678480D01*
X4361484Y2691485D01*
X4362450Y2693619D01*
X4306366Y2693619D01*
G37*
G36*
X2306370Y2637536D02*
G01*
X2308504Y2638501D01*
X2321509Y2646375D01*
X2333498Y2655722D01*
X2344216Y2666492D01*
X2353614Y2678480D01*
X2361488Y2691485D01*
X2362454Y2693619D01*
X2306370Y2693619D01*
G37*
G36*
X6306362Y2637536D02*
G01*
X6308496Y2638501D01*
X6321501Y2646375D01*
X6333490Y2655722D01*
X6344208Y2666492D01*
X6353606Y2678480D01*
X6361480Y2691485D01*
X6362446Y2693619D01*
X6306362Y2693619D01*
G37*
G36*
X5806338Y2637536D02*
G01*
X5808522Y2638501D01*
X5821527Y2646375D01*
X5833465Y2655722D01*
X5844235Y2666492D01*
X5853582Y2678480D01*
X5861456Y2691485D01*
X5862421Y2693619D01*
X5806338Y2693619D01*
G37*
G36*
X8306358Y2637536D02*
G01*
X8308492Y2638501D01*
X8321497Y2646375D01*
X8333486Y2655722D01*
X8344204Y2666492D01*
X8353602Y2678480D01*
X8361476Y2691485D01*
X8362442Y2693619D01*
X8306358Y2693619D01*
G37*
G36*
X3806342Y2637536D02*
G01*
X3808526Y2638501D01*
X3821531Y2646375D01*
X3833469Y2655722D01*
X3844239Y2666492D01*
X3853586Y2678480D01*
X3861460Y2691485D01*
X3862425Y2693619D01*
X3806342Y2693619D01*
G37*
G36*
X7806334Y2637536D02*
G01*
X7808518Y2638501D01*
X7821523Y2646375D01*
X7833461Y2655722D01*
X7844231Y2666492D01*
X7853578Y2678480D01*
X7861452Y2691485D01*
X7862417Y2693619D01*
X7806334Y2693619D01*
G37*
G36*
X6193637Y2637536D02*
G01*
X6193637Y2693619D01*
X6137554Y2693619D01*
X6138519Y2691485D01*
X6146393Y2678480D01*
X6155791Y2666492D01*
X6166510Y2655722D01*
X6178499Y2646375D01*
X6191504Y2638501D01*
G37*
G36*
X1806346Y2637536D02*
G01*
X1808530Y2638501D01*
X1821535Y2646375D01*
X1833473Y2655722D01*
X1844243Y2666492D01*
X1853590Y2678480D01*
X1861464Y2691485D01*
X1862429Y2693619D01*
X1806346Y2693619D01*
G37*
G36*
X8193633Y2637536D02*
G01*
X8193633Y2693619D01*
X8137550Y2693619D01*
X8138515Y2691485D01*
X8146389Y2678480D01*
X8155787Y2666492D01*
X8166506Y2655722D01*
X8178495Y2646375D01*
X8191500Y2638501D01*
G37*
G36*
X1693672Y2637536D02*
G01*
X1693672Y2693619D01*
X1637588Y2693619D01*
X1638554Y2691485D01*
X1646428Y2678480D01*
X1655775Y2666492D01*
X1666544Y2655722D01*
X1678482Y2646375D01*
X1691487Y2638501D01*
G37*
G36*
X5693664Y2637536D02*
G01*
X5693664Y2693619D01*
X5637580Y2693619D01*
X5638546Y2691485D01*
X5646420Y2678480D01*
X5655767Y2666492D01*
X5666536Y2655722D01*
X5678474Y2646375D01*
X5691479Y2638501D01*
G37*
G36*
X4193641Y2637536D02*
G01*
X4193641Y2693619D01*
X4137558Y2693619D01*
X4138523Y2691485D01*
X4146397Y2678480D01*
X4155795Y2666492D01*
X4166514Y2655722D01*
X4178503Y2646375D01*
X4191508Y2638501D01*
G37*
G36*
X3693668Y2637536D02*
G01*
X3693668Y2693619D01*
X3637584Y2693619D01*
X3638550Y2691485D01*
X3646424Y2678480D01*
X3655771Y2666492D01*
X3666540Y2655722D01*
X3678478Y2646375D01*
X3691483Y2638501D01*
G37*
G36*
X2193645Y2637536D02*
G01*
X2193645Y2693619D01*
X2137562Y2693619D01*
X2138527Y2691485D01*
X2146401Y2678480D01*
X2155799Y2666492D01*
X2166518Y2655722D01*
X2178507Y2646375D01*
X2191512Y2638501D01*
G37*
G36*
X7693659Y2637536D02*
G01*
X7693659Y2693619D01*
X7637576Y2693619D01*
X7638542Y2691485D01*
X7646416Y2678480D01*
X7655763Y2666492D01*
X7666532Y2655722D01*
X7678470Y2646375D01*
X7691475Y2638501D01*
G37*
G36*
X3637584Y2806293D02*
G01*
X3693668Y2806293D01*
X3693668Y2862427D01*
X3691483Y2861462D01*
X3678478Y2853588D01*
X3666540Y2844190D01*
X3655771Y2833471D01*
X3646424Y2821482D01*
X3638550Y2808478D01*
G37*
G36*
X5637580Y2806293D02*
G01*
X5693664Y2806293D01*
X5693664Y2862427D01*
X5691479Y2861462D01*
X5678474Y2853588D01*
X5666536Y2844190D01*
X5655767Y2833471D01*
X5646420Y2821482D01*
X5638546Y2808478D01*
G37*
G36*
X2137562Y2806293D02*
G01*
X2193645Y2806293D01*
X2193645Y2862427D01*
X2191512Y2861462D01*
X2178507Y2853588D01*
X2166518Y2844190D01*
X2155799Y2833471D01*
X2146401Y2821482D01*
X2138527Y2808478D01*
G37*
G36*
X5806338Y2806293D02*
G01*
X5862421Y2806293D01*
X5861456Y2808478D01*
X5853582Y2821482D01*
X5844235Y2833471D01*
X5833465Y2844190D01*
X5821527Y2853588D01*
X5808522Y2861462D01*
X5806338Y2862427D01*
G37*
G36*
X8306358Y2806293D02*
G01*
X8362442Y2806293D01*
X8361476Y2808478D01*
X8353602Y2821482D01*
X8344204Y2833471D01*
X8333486Y2844190D01*
X8321497Y2853588D01*
X8308492Y2861462D01*
X8306358Y2862427D01*
G37*
G36*
X6306362Y2806293D02*
G01*
X6362446Y2806293D01*
X6361480Y2808478D01*
X6353606Y2821482D01*
X6344208Y2833471D01*
X6333490Y2844190D01*
X6321501Y2853588D01*
X6308496Y2861462D01*
X6306362Y2862427D01*
G37*
G36*
X4306366Y2806293D02*
G01*
X4362450Y2806293D01*
X4361484Y2808478D01*
X4353610Y2821482D01*
X4344212Y2833471D01*
X4333494Y2844190D01*
X4321505Y2853588D01*
X4308500Y2861462D01*
X4306366Y2862427D01*
G37*
G36*
X8137550Y2806293D02*
G01*
X8193633Y2806293D01*
X8193633Y2862427D01*
X8191500Y2861462D01*
X8178495Y2853588D01*
X8166506Y2844190D01*
X8155787Y2833471D01*
X8146389Y2821482D01*
X8138515Y2808478D01*
G37*
G36*
X7806334Y2806293D02*
G01*
X7862417Y2806293D01*
X7861452Y2808478D01*
X7853578Y2821482D01*
X7844231Y2833471D01*
X7833461Y2844190D01*
X7821523Y2853588D01*
X7808518Y2861462D01*
X7806334Y2862427D01*
G37*
G36*
X6137554Y2806293D02*
G01*
X6193637Y2806293D01*
X6193637Y2862427D01*
X6191504Y2861462D01*
X6178499Y2853588D01*
X6166510Y2844190D01*
X6155791Y2833471D01*
X6146393Y2821482D01*
X6138519Y2808478D01*
G37*
G36*
X3806342Y2806293D02*
G01*
X3862425Y2806293D01*
X3861460Y2808478D01*
X3853586Y2821482D01*
X3844239Y2833471D01*
X3833469Y2844190D01*
X3821531Y2853588D01*
X3808526Y2861462D01*
X3806342Y2862427D01*
G37*
G36*
X4137558Y2806293D02*
G01*
X4193641Y2806293D01*
X4193641Y2862427D01*
X4191508Y2861462D01*
X4178503Y2853588D01*
X4166514Y2844190D01*
X4155795Y2833471D01*
X4146397Y2821482D01*
X4138523Y2808478D01*
G37*
G36*
X7637576Y2806293D02*
G01*
X7693659Y2806293D01*
X7693659Y2862427D01*
X7691475Y2861462D01*
X7678470Y2853588D01*
X7666532Y2844190D01*
X7655763Y2833471D01*
X7646416Y2821482D01*
X7638542Y2808478D01*
G37*
G36*
X1806346Y2806293D02*
G01*
X1862429Y2806293D01*
X1861464Y2808478D01*
X1853590Y2821482D01*
X1844243Y2833471D01*
X1833473Y2844190D01*
X1821535Y2853588D01*
X1808530Y2861462D01*
X1806346Y2862427D01*
G37*
G36*
X2306370Y2806293D02*
G01*
X2362454Y2806293D01*
X2361488Y2808478D01*
X2353614Y2821482D01*
X2344216Y2833471D01*
X2333498Y2844190D01*
X2321509Y2853588D01*
X2308504Y2861462D01*
X2306370Y2862427D01*
G37*
G36*
X1637588Y2806293D02*
G01*
X1693672Y2806293D01*
X1693672Y2862427D01*
X1691487Y2861462D01*
X1678482Y2853588D01*
X1666544Y2844190D01*
X1655775Y2833471D01*
X1646428Y2821482D01*
X1638554Y2808478D01*
G37*
G36*
X3750005Y3124098D02*
G01*
X3765194Y3125012D01*
X3780129Y3127756D01*
X3794658Y3132277D01*
X3808526Y3138525D01*
X3821531Y3146399D01*
X3833469Y3155746D01*
X3844239Y3166516D01*
X3853586Y3178454D01*
X3861460Y3191459D01*
X3867810Y3205581D01*
X3870045Y3208731D01*
X3873296Y3210814D01*
X3877106Y3211576D01*
X4122928Y3211576D01*
X4126737Y3210814D01*
X4129938Y3208731D01*
X4132173Y3205581D01*
X4138523Y3191459D01*
X4146397Y3178454D01*
X4155795Y3166516D01*
X4166514Y3155746D01*
X4178503Y3146399D01*
X4191508Y3138525D01*
X4205376Y3132277D01*
X4219854Y3127756D01*
X4234840Y3125012D01*
X4250029Y3124098D01*
X4265168Y3125012D01*
X4280154Y3127756D01*
X4294632Y3132277D01*
X4308500Y3138525D01*
X4321505Y3146399D01*
X4333494Y3155746D01*
X4344212Y3166516D01*
X4353610Y3178454D01*
X4361484Y3191459D01*
X4367733Y3205327D01*
X4372254Y3219856D01*
X4374997Y3234791D01*
X4375912Y3249980D01*
X4374997Y3265170D01*
X4372254Y3280105D01*
X4367733Y3294634D01*
X4364786Y3301187D01*
X4363872Y3305149D01*
X4364583Y3309112D01*
X4366869Y3312515D01*
X4712970Y3658615D01*
X4716221Y3660851D01*
X4720132Y3661613D01*
X7999475Y3661613D01*
X8007451Y3662375D01*
X8014665Y3664559D01*
X8021320Y3668115D01*
X8027517Y3673195D01*
X8426856Y4072534D01*
X8431936Y4078732D01*
X8435492Y4085386D01*
X8437676Y4092600D01*
X8438438Y4100576D01*
X8438438Y4654854D01*
X8439200Y4658766D01*
X8441436Y4662017D01*
X8443163Y4663744D01*
X8448802Y4671822D01*
X8452916Y4680712D01*
X8455456Y4690211D01*
X8456320Y4699965D01*
X8455456Y4709769D01*
X8452916Y4719269D01*
X8448802Y4728159D01*
X8443163Y4736236D01*
X8436203Y4743145D01*
X8428177Y4748784D01*
X8419236Y4752949D01*
X8409787Y4755489D01*
X8399983Y4756353D01*
X8390178Y4755489D01*
X8380730Y4752949D01*
X8371789Y4748784D01*
X8363762Y4743145D01*
X8356803Y4736236D01*
X8351164Y4728159D01*
X8347049Y4719269D01*
X8344509Y4709769D01*
X8343646Y4699965D01*
X8344509Y4690211D01*
X8347049Y4680712D01*
X8351164Y4671822D01*
X8356803Y4663744D01*
X8358631Y4661916D01*
X8360867Y4658664D01*
X8361629Y4654753D01*
X8361629Y4120184D01*
X8360867Y4116273D01*
X8358631Y4113022D01*
X7987030Y3741420D01*
X7983778Y3739184D01*
X7979867Y3738422D01*
X4700524Y3738422D01*
X4692548Y3737660D01*
X4685334Y3735476D01*
X4678680Y3731920D01*
X4672482Y3726840D01*
X4312513Y3366820D01*
X4309110Y3364585D01*
X4305147Y3363874D01*
X4301185Y3364737D01*
X4294632Y3367684D01*
X4280154Y3372205D01*
X4265168Y3374948D01*
X4250029Y3375863D01*
X4234840Y3374948D01*
X4219854Y3372205D01*
X4205376Y3367684D01*
X4191508Y3361436D01*
X4178503Y3353562D01*
X4166514Y3344214D01*
X4155795Y3333445D01*
X4146397Y3321507D01*
X4138523Y3308502D01*
X4132173Y3294379D01*
X4129938Y3291230D01*
X4126737Y3289147D01*
X4122928Y3288385D01*
X3877106Y3288385D01*
X3873296Y3289147D01*
X3870045Y3291230D01*
X3867810Y3294379D01*
X3861460Y3308502D01*
X3853586Y3321507D01*
X3844239Y3333445D01*
X3833469Y3344214D01*
X3821531Y3353562D01*
X3808526Y3361436D01*
X3794658Y3367684D01*
X3780129Y3372205D01*
X3765194Y3374948D01*
X3750005Y3375863D01*
X3734815Y3374948D01*
X3719880Y3372205D01*
X3705351Y3367684D01*
X3691483Y3361436D01*
X3678478Y3353562D01*
X3666540Y3344214D01*
X3655771Y3333445D01*
X3646424Y3321507D01*
X3638550Y3308502D01*
X3632301Y3294634D01*
X3627780Y3280105D01*
X3625037Y3265170D01*
X3624122Y3249980D01*
X3625037Y3234791D01*
X3627780Y3219856D01*
X3632301Y3205327D01*
X3638550Y3191459D01*
X3646424Y3178454D01*
X3655771Y3166516D01*
X3666540Y3155746D01*
X3678478Y3146399D01*
X3691483Y3138525D01*
X3705351Y3132277D01*
X3719880Y3127756D01*
X3734815Y3125012D01*
G37*
G36*
X6081725Y9317431D02*
G01*
X6109208Y9317431D01*
X6109208Y9365335D01*
X6055207Y9365335D01*
X6055207Y9343898D01*
X6055918Y9337598D01*
X6057849Y9332112D01*
X6060948Y9327235D01*
X6065012Y9323120D01*
X6069939Y9320072D01*
X6075375Y9318142D01*
G37*
G36*
X1750009Y3124098D02*
G01*
X1765198Y3125012D01*
X1780133Y3127756D01*
X1794662Y3132277D01*
X1808530Y3138525D01*
X1821535Y3146399D01*
X1833473Y3155746D01*
X1844243Y3166516D01*
X1853590Y3178454D01*
X1861464Y3191459D01*
X1867814Y3205581D01*
X1870049Y3208731D01*
X1873300Y3210814D01*
X1877110Y3211576D01*
X2122932Y3211576D01*
X2126742Y3210814D01*
X2129942Y3208731D01*
X2132177Y3205581D01*
X2138527Y3191459D01*
X2146401Y3178454D01*
X2155799Y3166516D01*
X2166518Y3155746D01*
X2178507Y3146399D01*
X2191512Y3138525D01*
X2205380Y3132277D01*
X2219858Y3127756D01*
X2234844Y3125012D01*
X2249982Y3124098D01*
X2265172Y3125012D01*
X2280158Y3127756D01*
X2294636Y3132277D01*
X2308504Y3138525D01*
X2321509Y3146399D01*
X2333498Y3155746D01*
X2344216Y3166516D01*
X2353614Y3178454D01*
X2361488Y3191459D01*
X2367737Y3205327D01*
X2372258Y3219856D01*
X2375001Y3234791D01*
X2375916Y3249980D01*
X2375001Y3265170D01*
X2372258Y3280105D01*
X2367737Y3294634D01*
X2364435Y3301898D01*
X2363520Y3305860D01*
X2364282Y3309874D01*
X2366518Y3313277D01*
X2812999Y3758742D01*
X2816301Y3760927D01*
X2820162Y3761689D01*
X7899653Y3761689D01*
X7907629Y3762451D01*
X7914843Y3764635D01*
X7921498Y3768191D01*
X7927695Y3773271D01*
X8126882Y3972458D01*
X8131962Y3978656D01*
X8135518Y3985310D01*
X8137702Y3992524D01*
X8138464Y4000500D01*
X8138464Y4554880D01*
X8139226Y4558792D01*
X8141462Y4562043D01*
X8143138Y4563770D01*
X8148777Y4571796D01*
X8152942Y4580737D01*
X8155482Y4590186D01*
X8156346Y4599990D01*
X8155482Y4609795D01*
X8152942Y4619244D01*
X8148777Y4628184D01*
X8143138Y4636211D01*
X8136229Y4643170D01*
X8128152Y4648809D01*
X8119262Y4652924D01*
X8109762Y4655464D01*
X8100009Y4656328D01*
X8090204Y4655464D01*
X8080705Y4652924D01*
X8071815Y4648809D01*
X8063738Y4643170D01*
X8056829Y4636211D01*
X8051190Y4628184D01*
X8047024Y4619244D01*
X8044484Y4609795D01*
X8043621Y4599990D01*
X8044484Y4590186D01*
X8047024Y4580737D01*
X8051190Y4571796D01*
X8056829Y4563770D01*
X8058658Y4561890D01*
X8060893Y4558639D01*
X8061655Y4554728D01*
X8061655Y4020108D01*
X8060893Y4016197D01*
X8058658Y4012946D01*
X7887208Y3841496D01*
X7883956Y3839260D01*
X7880045Y3838498D01*
X2800604Y3838498D01*
X2792679Y3837736D01*
X2785465Y3835552D01*
X2778810Y3831996D01*
X2772613Y3826916D01*
X2311755Y3367176D01*
X2308402Y3364941D01*
X2304389Y3364179D01*
X2300427Y3365093D01*
X2294636Y3367684D01*
X2280158Y3372205D01*
X2265172Y3374948D01*
X2249982Y3375863D01*
X2234844Y3374948D01*
X2219858Y3372205D01*
X2205380Y3367684D01*
X2191512Y3361436D01*
X2178507Y3353562D01*
X2166518Y3344214D01*
X2155799Y3333445D01*
X2146401Y3321507D01*
X2138527Y3308502D01*
X2132177Y3294379D01*
X2129942Y3291230D01*
X2126742Y3289147D01*
X2122932Y3288385D01*
X1877110Y3288385D01*
X1873300Y3289147D01*
X1870049Y3291230D01*
X1867814Y3294379D01*
X1861464Y3308502D01*
X1853590Y3321507D01*
X1844243Y3333445D01*
X1833473Y3344214D01*
X1821535Y3353562D01*
X1808530Y3361436D01*
X1794662Y3367684D01*
X1780133Y3372205D01*
X1765198Y3374948D01*
X1750009Y3375863D01*
X1734820Y3374948D01*
X1719884Y3372205D01*
X1705356Y3367684D01*
X1691487Y3361436D01*
X1678482Y3353562D01*
X1666544Y3344214D01*
X1655775Y3333445D01*
X1646428Y3321507D01*
X1638554Y3308502D01*
X1632305Y3294634D01*
X1627784Y3280105D01*
X1625041Y3265170D01*
X1624126Y3249980D01*
X1625041Y3234791D01*
X1627784Y3219856D01*
X1632305Y3205327D01*
X1638554Y3191459D01*
X1646428Y3178454D01*
X1655775Y3166516D01*
X1666544Y3155746D01*
X1678482Y3146399D01*
X1691487Y3138525D01*
X1705356Y3132277D01*
X1719884Y3127756D01*
X1734820Y3125012D01*
G37*
G36*
X4605223Y9084665D02*
G01*
X4659223Y9084665D01*
X4659223Y9132519D01*
X4631690Y9132519D01*
X4625390Y9131808D01*
X4619904Y9129877D01*
X4615027Y9126829D01*
X4610912Y9122714D01*
X4607864Y9117838D01*
X4605934Y9112351D01*
X4605223Y9106052D01*
G37*
G36*
X4855210Y9084665D02*
G01*
X4909210Y9084665D01*
X4909210Y9132519D01*
X4881727Y9132519D01*
X4875377Y9131808D01*
X4869942Y9129877D01*
X4865014Y9126829D01*
X4860950Y9122714D01*
X4857851Y9117838D01*
X4855921Y9112351D01*
X4855210Y9106052D01*
G37*
G36*
X4740757Y9084665D02*
G01*
X4794758Y9084665D01*
X4794758Y9106052D01*
X4794046Y9112351D01*
X4792116Y9117838D01*
X4789068Y9122714D01*
X4784953Y9126829D01*
X4780076Y9129877D01*
X4774590Y9131808D01*
X4768291Y9132519D01*
X4740757Y9132519D01*
G37*
G36*
X4990744Y9084665D02*
G01*
X5044744Y9084665D01*
X5044744Y9106052D01*
X5044033Y9112351D01*
X5042103Y9117838D01*
X5039055Y9122714D01*
X5034940Y9126829D01*
X5030063Y9129877D01*
X5024577Y9131808D01*
X5018278Y9132519D01*
X4990744Y9132519D01*
G37*
G36*
X2721356Y9084106D02*
G01*
X2729433Y9084106D01*
X2735732Y9084818D01*
X2741218Y9086697D01*
X2745587Y9088628D01*
X2749397Y9088628D01*
X2753766Y9086697D01*
X2759252Y9084818D01*
X2765552Y9084106D01*
X2824429Y9084106D01*
X2830728Y9084818D01*
X2836214Y9086697D01*
X2841091Y9089796D01*
X2845206Y9093911D01*
X2848254Y9098788D01*
X2850184Y9104223D01*
X2850896Y9110573D01*
X2850896Y9209430D01*
X2850184Y9215729D01*
X2848254Y9221216D01*
X2846273Y9225127D01*
X2845917Y9227921D01*
X2845917Y9264446D01*
X2846374Y9267545D01*
X2848813Y9271812D01*
X2852928Y9280702D01*
X2855468Y9290202D01*
X2856331Y9299956D01*
X2855468Y9309760D01*
X2852928Y9319260D01*
X2848813Y9328150D01*
X2840329Y9340138D01*
X2839516Y9344050D01*
X2840329Y9347911D01*
X2842514Y9351213D01*
X2845206Y9353905D01*
X2848254Y9358782D01*
X2850184Y9364268D01*
X2850896Y9370568D01*
X2850896Y9469424D01*
X2850184Y9475774D01*
X2848254Y9481210D01*
X2846273Y9485071D01*
X2845917Y9487916D01*
X2845917Y9567316D01*
X2846679Y9571177D01*
X2848864Y9574479D01*
X2852166Y9576714D01*
X2856077Y9577476D01*
X2868168Y9577476D01*
X2874518Y9578187D01*
X2879953Y9580118D01*
X2884881Y9583166D01*
X2888945Y9587280D01*
X2892044Y9592157D01*
X2893923Y9597644D01*
X2894634Y9603943D01*
X2894634Y9716058D01*
X2893923Y9722408D01*
X2892044Y9727844D01*
X2888945Y9732721D01*
X2884881Y9736836D01*
X2879953Y9739934D01*
X2874518Y9741814D01*
X2868168Y9742525D01*
X2731617Y9742525D01*
X2725267Y9741814D01*
X2719832Y9739934D01*
X2714904Y9736836D01*
X2710840Y9732721D01*
X2707741Y9727844D01*
X2705862Y9722408D01*
X2705150Y9716058D01*
X2705150Y9603943D01*
X2705862Y9597644D01*
X2707741Y9592157D01*
X2710840Y9587280D01*
X2714904Y9583166D01*
X2719832Y9580118D01*
X2725267Y9578187D01*
X2731617Y9577476D01*
X2733903Y9577476D01*
X2737815Y9576714D01*
X2741117Y9574479D01*
X2743301Y9571177D01*
X2744063Y9567316D01*
X2744063Y9487916D01*
X2743708Y9485122D01*
X2741676Y9481210D01*
X2739796Y9475774D01*
X2739085Y9469424D01*
X2739085Y9370568D01*
X2739796Y9364268D01*
X2741676Y9358782D01*
X2744774Y9353905D01*
X2748889Y9349790D01*
X2751937Y9347860D01*
X2754934Y9345015D01*
X2756509Y9341256D01*
X2756509Y9337192D01*
X2754884Y9333433D01*
X2751175Y9328150D01*
X2747060Y9319260D01*
X2744520Y9309760D01*
X2743657Y9299956D01*
X2744063Y9294520D01*
X2744063Y9245600D01*
X2743200Y9241485D01*
X2740710Y9238030D01*
X2737002Y9235948D01*
X2732786Y9235541D01*
X2729433Y9235897D01*
X2721356Y9235897D01*
X2721356Y9191345D01*
X2728925Y9191345D01*
X2732836Y9190583D01*
X2736088Y9188348D01*
X2738323Y9185097D01*
X2739085Y9181185D01*
X2739085Y9138818D01*
X2738323Y9134906D01*
X2736088Y9131604D01*
X2732836Y9129420D01*
X2728925Y9128658D01*
X2721356Y9128658D01*
G37*
G36*
X4881727Y8967470D02*
G01*
X4909210Y8967470D01*
X4909210Y9015323D01*
X4855210Y9015323D01*
X4855210Y8993936D01*
X4855921Y8987586D01*
X4857851Y8982151D01*
X4860950Y8977223D01*
X4865014Y8973159D01*
X4869942Y8970060D01*
X4875377Y8968181D01*
G37*
G36*
X4631690Y8967470D02*
G01*
X4659223Y8967470D01*
X4659223Y9015323D01*
X4605223Y9015323D01*
X4605223Y8993936D01*
X4605934Y8987586D01*
X4607864Y8982151D01*
X4610912Y8977223D01*
X4615027Y8973159D01*
X4619904Y8970060D01*
X4625390Y8968181D01*
G37*
G36*
X4740757Y8967470D02*
G01*
X4768291Y8967470D01*
X4774590Y8968181D01*
X4780076Y8970060D01*
X4784953Y8973159D01*
X4789068Y8977223D01*
X4792116Y8982151D01*
X4794046Y8987586D01*
X4794758Y8993936D01*
X4794758Y9015323D01*
X4740757Y9015323D01*
G37*
G36*
X4990744Y8967470D02*
G01*
X5018278Y8967470D01*
X5024577Y8968181D01*
X5030063Y8970060D01*
X5034940Y8973159D01*
X5039055Y8977223D01*
X5042103Y8982151D01*
X5044033Y8987586D01*
X5044744Y8993936D01*
X5044744Y9015323D01*
X4990744Y9015323D01*
G37*
G36*
X8933840Y8861348D02*
G01*
X8980881Y8861348D01*
X8980881Y8879433D01*
X8980170Y8885732D01*
X8978290Y8891219D01*
X8975191Y8896096D01*
X8971076Y8900210D01*
X8966200Y8903258D01*
X8960713Y8905189D01*
X8954414Y8905900D01*
X8933840Y8905900D01*
G37*
G36*
X8569147Y8861348D02*
G01*
X8616188Y8861348D01*
X8616188Y8905900D01*
X8595614Y8905900D01*
X8589314Y8905189D01*
X8583828Y8903258D01*
X8578951Y8900160D01*
X8574836Y8896096D01*
X8571788Y8891168D01*
X8569858Y8885732D01*
X8569147Y8879382D01*
G37*
G36*
X8819083Y8861348D02*
G01*
X8866124Y8861348D01*
X8866124Y8905900D01*
X8845550Y8905900D01*
X8839250Y8905189D01*
X8833764Y8903258D01*
X8828887Y8900210D01*
X8824772Y8896096D01*
X8821674Y8891219D01*
X8819794Y8885732D01*
X8819083Y8879433D01*
G37*
G36*
X4100576Y3861511D02*
G01*
X7599425Y3861511D01*
X7607401Y3862273D01*
X7614615Y3864457D01*
X7621270Y3868013D01*
X7627467Y3873093D01*
X7826908Y4072534D01*
X7831988Y4078732D01*
X7835544Y4085386D01*
X7837728Y4092600D01*
X7838490Y4100576D01*
X7838490Y4554931D01*
X7839252Y4558792D01*
X7841488Y4562094D01*
X7843164Y4563770D01*
X7848803Y4571796D01*
X7852918Y4580737D01*
X7855458Y4590186D01*
X7856321Y4599990D01*
X7855458Y4609795D01*
X7852918Y4619244D01*
X7848803Y4628184D01*
X7843164Y4636211D01*
X7836204Y4643170D01*
X7828178Y4648809D01*
X7819237Y4652924D01*
X7809788Y4655464D01*
X7799984Y4656328D01*
X7790180Y4655464D01*
X7780731Y4652924D01*
X7771790Y4648809D01*
X7763764Y4643170D01*
X7756804Y4636211D01*
X7751165Y4628184D01*
X7747050Y4619244D01*
X7744510Y4609795D01*
X7743647Y4599990D01*
X7744510Y4590186D01*
X7747050Y4580737D01*
X7751165Y4571796D01*
X7756804Y4563770D01*
X7758684Y4561890D01*
X7760919Y4558588D01*
X7761681Y4554728D01*
X7761681Y4120184D01*
X7760919Y4116273D01*
X7758684Y4113022D01*
X7586980Y3941318D01*
X7583728Y3939082D01*
X7579817Y3938320D01*
X4120184Y3938320D01*
X4116273Y3939082D01*
X4113022Y3941318D01*
X3366871Y4687468D01*
X3364636Y4690821D01*
X3363874Y4694834D01*
X3364788Y4698796D01*
X3367735Y4705350D01*
X3372256Y4719828D01*
X3374999Y4734814D01*
X3375914Y4749952D01*
X3374999Y4765141D01*
X3372256Y4780127D01*
X3367735Y4794605D01*
X3361486Y4808474D01*
X3353612Y4821478D01*
X3344214Y4833467D01*
X3333496Y4844186D01*
X3321507Y4853584D01*
X3308502Y4861458D01*
X3294634Y4867706D01*
X3280156Y4872228D01*
X3265170Y4874971D01*
X3250031Y4875885D01*
X3234842Y4874971D01*
X3219856Y4872228D01*
X3205378Y4867706D01*
X3191510Y4861458D01*
X3178505Y4853584D01*
X3166516Y4844186D01*
X3155797Y4833467D01*
X3146399Y4821478D01*
X3138525Y4808474D01*
X3132175Y4794351D01*
X3129940Y4791202D01*
X3126740Y4789119D01*
X3122930Y4788408D01*
X2877108Y4788408D01*
X2873298Y4789119D01*
X2870047Y4791202D01*
X2867812Y4794351D01*
X2861462Y4808474D01*
X2853588Y4821478D01*
X2844241Y4833467D01*
X2833471Y4844186D01*
X2821533Y4853584D01*
X2808528Y4861458D01*
X2794660Y4867706D01*
X2780131Y4872228D01*
X2765196Y4874971D01*
X2750007Y4875885D01*
X2734818Y4874971D01*
X2719882Y4872228D01*
X2705354Y4867706D01*
X2691485Y4861458D01*
X2678480Y4853584D01*
X2666542Y4844186D01*
X2655773Y4833467D01*
X2646426Y4821478D01*
X2638552Y4808474D01*
X2632303Y4794605D01*
X2627782Y4780127D01*
X2625039Y4765141D01*
X2624124Y4749952D01*
X2625039Y4734814D01*
X2627782Y4719828D01*
X2632303Y4705350D01*
X2638552Y4691481D01*
X2646426Y4678476D01*
X2655773Y4666488D01*
X2666542Y4655769D01*
X2678480Y4646371D01*
X2691485Y4638497D01*
X2705354Y4632248D01*
X2719882Y4627727D01*
X2734818Y4624984D01*
X2750007Y4624070D01*
X2765196Y4624984D01*
X2780131Y4627727D01*
X2794660Y4632248D01*
X2808528Y4638497D01*
X2821533Y4646371D01*
X2833471Y4655769D01*
X2844241Y4666488D01*
X2853588Y4678476D01*
X2861462Y4691481D01*
X2867812Y4705604D01*
X2870047Y4708753D01*
X2873298Y4710836D01*
X2877108Y4711547D01*
X3122930Y4711547D01*
X3126740Y4710836D01*
X3129940Y4708753D01*
X3132175Y4705604D01*
X3138525Y4691481D01*
X3146399Y4678476D01*
X3155797Y4666488D01*
X3166516Y4655769D01*
X3178505Y4646371D01*
X3191510Y4638497D01*
X3205378Y4632248D01*
X3219856Y4627727D01*
X3234842Y4624984D01*
X3250031Y4624070D01*
X3265170Y4624984D01*
X3280156Y4627727D01*
X3294634Y4632248D01*
X3301187Y4635195D01*
X3305149Y4636109D01*
X3309162Y4635347D01*
X3312515Y4633112D01*
X4072534Y3873093D01*
X4078732Y3868013D01*
X4085386Y3864457D01*
X4092600Y3862273D01*
G37*
G36*
X8683904Y8861348D02*
G01*
X8730945Y8861348D01*
X8730945Y8879382D01*
X8730234Y8885732D01*
X8728354Y8891168D01*
X8725255Y8896096D01*
X8721191Y8900160D01*
X8716264Y8903258D01*
X8710828Y8905189D01*
X8704478Y8905900D01*
X8683904Y8905900D01*
G37*
G36*
X6806336Y4137507D02*
G01*
X6808520Y4138472D01*
X6821525Y4146346D01*
X6833463Y4155744D01*
X6844233Y4166463D01*
X6853580Y4178452D01*
X6861454Y4191457D01*
X6862419Y4193590D01*
X6806336Y4193590D01*
G37*
G36*
X7306360Y4137507D02*
G01*
X7308494Y4138472D01*
X7321499Y4146346D01*
X7333488Y4155744D01*
X7344206Y4166463D01*
X7353604Y4178452D01*
X7361478Y4191457D01*
X7362444Y4193590D01*
X7306360Y4193590D01*
G37*
G36*
X8906357Y4137507D02*
G01*
X8908491Y4138472D01*
X8921496Y4146346D01*
X8933484Y4155744D01*
X8944203Y4166463D01*
X8953601Y4178452D01*
X8961475Y4191457D01*
X8962440Y4193590D01*
X8906357Y4193590D01*
G37*
G36*
X3306368Y4137507D02*
G01*
X3308502Y4138472D01*
X3321507Y4146346D01*
X3333496Y4155744D01*
X3344214Y4166463D01*
X3353612Y4178452D01*
X3361486Y4191457D01*
X3362451Y4193590D01*
X3306368Y4193590D01*
G37*
G36*
X2806344Y4137507D02*
G01*
X2808528Y4138472D01*
X2821533Y4146346D01*
X2833471Y4155744D01*
X2844241Y4166463D01*
X2853588Y4178452D01*
X2861462Y4191457D01*
X2862427Y4193590D01*
X2806344Y4193590D01*
G37*
G36*
X3193643Y4137507D02*
G01*
X3193643Y4193590D01*
X3137560Y4193590D01*
X3138525Y4191457D01*
X3146399Y4178452D01*
X3155797Y4166463D01*
X3166516Y4155744D01*
X3178505Y4146346D01*
X3191510Y4138472D01*
G37*
G36*
X7193635Y4137507D02*
G01*
X7193635Y4193590D01*
X7137552Y4193590D01*
X7138517Y4191457D01*
X7146391Y4178452D01*
X7155789Y4166463D01*
X7166508Y4155744D01*
X7178497Y4146346D01*
X7191502Y4138472D01*
G37*
G36*
X2693670Y4137507D02*
G01*
X2693670Y4193590D01*
X2637586Y4193590D01*
X2638552Y4191457D01*
X2646426Y4178452D01*
X2655773Y4166463D01*
X2666542Y4155744D01*
X2678480Y4146346D01*
X2691485Y4138472D01*
G37*
G36*
X6693662Y4137507D02*
G01*
X6693662Y4193590D01*
X6637578Y4193590D01*
X6638544Y4191457D01*
X6646418Y4178452D01*
X6655765Y4166463D01*
X6666534Y4155744D01*
X6678472Y4146346D01*
X6691477Y4138472D01*
G37*
G36*
X8793632Y4137507D02*
G01*
X8793632Y4193590D01*
X8737549Y4193590D01*
X8738514Y4191457D01*
X8746388Y4178452D01*
X8755786Y4166463D01*
X8766505Y4155744D01*
X8778494Y4146346D01*
X8791498Y4138472D01*
G37*
G36*
X8595614Y8754059D02*
G01*
X8616188Y8754059D01*
X8616188Y8798610D01*
X8569147Y8798610D01*
X8569147Y8780526D01*
X8569858Y8774226D01*
X8571788Y8768740D01*
X8574836Y8763863D01*
X8578951Y8759748D01*
X8583828Y8756700D01*
X8589314Y8754770D01*
G37*
G36*
X8845550Y8754059D02*
G01*
X8866124Y8754059D01*
X8866124Y8798610D01*
X8819083Y8798610D01*
X8819083Y8780576D01*
X8819794Y8774226D01*
X8821674Y8768791D01*
X8824772Y8763863D01*
X8828887Y8759799D01*
X8833764Y8756700D01*
X8839250Y8754770D01*
G37*
G36*
X706323Y4137609D02*
G01*
X708456Y4138574D01*
X721461Y4146448D01*
X733450Y4155846D01*
X744169Y4166565D01*
X753567Y4178554D01*
X761441Y4191558D01*
X762406Y4193692D01*
X706323Y4193692D01*
G37*
G36*
X1093622Y4137609D02*
G01*
X1093622Y4193692D01*
X1037488Y4193692D01*
X1038453Y4191558D01*
X1046327Y4178554D01*
X1055725Y4166565D01*
X1066444Y4155846D01*
X1078433Y4146448D01*
X1091438Y4138574D01*
G37*
G36*
X1206296Y4137609D02*
G01*
X1208430Y4138574D01*
X1221435Y4146448D01*
X1233424Y4155846D01*
X1244193Y4166565D01*
X1253540Y4178554D01*
X1261414Y4191558D01*
X1262380Y4193692D01*
X1206296Y4193692D01*
G37*
G36*
X593598Y4137609D02*
G01*
X593598Y4193692D01*
X537514Y4193692D01*
X538480Y4191558D01*
X546354Y4178554D01*
X555701Y4166565D01*
X566470Y4155846D01*
X578459Y4146448D01*
X591464Y4138574D01*
G37*
G36*
X6637578Y4306316D02*
G01*
X6693662Y4306316D01*
X6693662Y4362399D01*
X6691477Y4361434D01*
X6678472Y4353560D01*
X6666534Y4344212D01*
X6655765Y4333443D01*
X6646418Y4321454D01*
X6638544Y4308449D01*
G37*
G36*
X8737549Y4306316D02*
G01*
X8793632Y4306316D01*
X8793632Y4362399D01*
X8791498Y4361434D01*
X8778494Y4353560D01*
X8766505Y4344212D01*
X8755786Y4333443D01*
X8746388Y4321454D01*
X8738514Y4308449D01*
G37*
G36*
X3306368Y4306316D02*
G01*
X3362451Y4306316D01*
X3361486Y4308449D01*
X3353612Y4321454D01*
X3344214Y4333443D01*
X3333496Y4344212D01*
X3321507Y4353560D01*
X3308502Y4361434D01*
X3306368Y4362399D01*
G37*
G36*
X2637586Y4306316D02*
G01*
X2693670Y4306316D01*
X2693670Y4362399D01*
X2691485Y4361434D01*
X2678480Y4353560D01*
X2666542Y4344212D01*
X2655773Y4333443D01*
X2646426Y4321454D01*
X2638552Y4308449D01*
G37*
G36*
X8906357Y4306316D02*
G01*
X8962440Y4306316D01*
X8961475Y4308449D01*
X8953601Y4321454D01*
X8944203Y4333443D01*
X8933484Y4344212D01*
X8921496Y4353560D01*
X8908491Y4361434D01*
X8906357Y4362399D01*
G37*
G36*
X7306360Y4306316D02*
G01*
X7362444Y4306316D01*
X7361478Y4308449D01*
X7353604Y4321454D01*
X7344206Y4333443D01*
X7333488Y4344212D01*
X7321499Y4353560D01*
X7308494Y4361434D01*
X7306360Y4362399D01*
G37*
G36*
X6806336Y4306316D02*
G01*
X6862419Y4306316D01*
X6861454Y4308449D01*
X6853580Y4321454D01*
X6844233Y4333443D01*
X6833463Y4344212D01*
X6821525Y4353560D01*
X6808520Y4361434D01*
X6806336Y4362399D01*
G37*
G36*
X7137552Y4306316D02*
G01*
X7193635Y4306316D01*
X7193635Y4362399D01*
X7191502Y4361434D01*
X7178497Y4353560D01*
X7166508Y4344212D01*
X7155789Y4333443D01*
X7146391Y4321454D01*
X7138517Y4308449D01*
G37*
G36*
X3137560Y4306316D02*
G01*
X3193643Y4306316D01*
X3193643Y4362399D01*
X3191510Y4361434D01*
X3178505Y4353560D01*
X3166516Y4344212D01*
X3155797Y4333443D01*
X3146399Y4321454D01*
X3138525Y4308449D01*
G37*
G36*
X2806344Y4306316D02*
G01*
X2862427Y4306316D01*
X2861462Y4308449D01*
X2853588Y4321454D01*
X2844241Y4333443D01*
X2833471Y4344212D01*
X2821533Y4353560D01*
X2808528Y4361434D01*
X2806344Y4362399D01*
G37*
G36*
X8683904Y8754059D02*
G01*
X8704478Y8754059D01*
X8710828Y8754770D01*
X8716264Y8756700D01*
X8721191Y8759748D01*
X8725255Y8763863D01*
X8728354Y8768740D01*
X8730234Y8774226D01*
X8730945Y8780526D01*
X8730945Y8798610D01*
X8683904Y8798610D01*
G37*
G36*
X1206296Y4306417D02*
G01*
X1262380Y4306417D01*
X1261414Y4308551D01*
X1253540Y4321556D01*
X1244193Y4333544D01*
X1233424Y4344263D01*
X1221435Y4353661D01*
X1208430Y4361535D01*
X1206296Y4362500D01*
G37*
G36*
X1037488Y4306417D02*
G01*
X1093622Y4306417D01*
X1093622Y4362500D01*
X1091438Y4361535D01*
X1078433Y4353661D01*
X1066444Y4344263D01*
X1055725Y4333544D01*
X1046327Y4321556D01*
X1038453Y4308551D01*
G37*
G36*
X706323Y4306417D02*
G01*
X762406Y4306417D01*
X761441Y4308551D01*
X753567Y4321556D01*
X744169Y4333544D01*
X733450Y4344263D01*
X721461Y4353661D01*
X708456Y4361535D01*
X706323Y4362500D01*
G37*
G36*
X537514Y4306417D02*
G01*
X593598Y4306417D01*
X593598Y4362500D01*
X591464Y4361535D01*
X578459Y4353661D01*
X566470Y4344263D01*
X555701Y4333544D01*
X546354Y4321556D01*
X538480Y4308551D01*
G37*
G36*
X8933840Y8754059D02*
G01*
X8954414Y8754059D01*
X8960713Y8754770D01*
X8966200Y8756700D01*
X8971076Y8759799D01*
X8975191Y8763863D01*
X8978290Y8768791D01*
X8980170Y8774226D01*
X8980881Y8780576D01*
X8980881Y8798610D01*
X8933840Y8798610D01*
G37*
G36*
X8850020Y4624070D02*
G01*
X8865158Y4624984D01*
X8880144Y4627727D01*
X8894622Y4632248D01*
X8908491Y4638497D01*
X8921496Y4646371D01*
X8933484Y4655769D01*
X8944203Y4666488D01*
X8953601Y4678476D01*
X8961475Y4691481D01*
X8967724Y4705350D01*
X8972245Y4719828D01*
X8974988Y4734814D01*
X8975902Y4749952D01*
X8974988Y4765141D01*
X8972245Y4780127D01*
X8967724Y4794605D01*
X8961475Y4808474D01*
X8953601Y4821478D01*
X8944203Y4833467D01*
X8933484Y4844186D01*
X8921496Y4853584D01*
X8908491Y4861458D01*
X8894622Y4867706D01*
X8880144Y4872228D01*
X8865158Y4874971D01*
X8850020Y4875885D01*
X8834831Y4874971D01*
X8819845Y4872228D01*
X8805367Y4867706D01*
X8791498Y4861458D01*
X8778494Y4853584D01*
X8766505Y4844186D01*
X8755786Y4833467D01*
X8746388Y4821478D01*
X8738514Y4808474D01*
X8732266Y4794605D01*
X8727744Y4780127D01*
X8725001Y4765141D01*
X8724087Y4749952D01*
X8725001Y4734814D01*
X8727744Y4719828D01*
X8732266Y4705350D01*
X8738514Y4691481D01*
X8746388Y4678476D01*
X8755786Y4666488D01*
X8766505Y4655769D01*
X8778494Y4646371D01*
X8791498Y4638497D01*
X8805367Y4632248D01*
X8819845Y4627727D01*
X8834831Y4624984D01*
G37*
G36*
X7456068Y8616086D02*
G01*
X7560360Y8616086D01*
X7560360Y8668918D01*
X7534046Y8668918D01*
X7527747Y8668207D01*
X7522260Y8666276D01*
X7517384Y8663178D01*
X7515402Y8661247D01*
X7512100Y8659063D01*
X7508240Y8658250D01*
X7504328Y8659063D01*
X7501026Y8661247D01*
X7499096Y8663178D01*
X7494168Y8666276D01*
X7488732Y8668207D01*
X7482382Y8668918D01*
X7456068Y8668918D01*
G37*
G36*
X7639608Y8616086D02*
G01*
X7743901Y8616086D01*
X7743901Y8668918D01*
X7717536Y8668918D01*
X7711236Y8668207D01*
X7705750Y8666276D01*
X7700873Y8663178D01*
X7698943Y8661247D01*
X7695641Y8659063D01*
X7691729Y8658250D01*
X7687868Y8659063D01*
X7684566Y8661247D01*
X7682585Y8663178D01*
X7677708Y8666276D01*
X7672222Y8668207D01*
X7665923Y8668918D01*
X7639608Y8668918D01*
G37*
G36*
X7324090Y8616086D02*
G01*
X7376871Y8616086D01*
X7376871Y8668918D01*
X7350556Y8668918D01*
X7344206Y8668207D01*
X7338771Y8666276D01*
X7333843Y8663178D01*
X7329779Y8659114D01*
X7326680Y8654186D01*
X7324801Y8648750D01*
X7324090Y8642400D01*
G37*
G36*
X7823098Y8616086D02*
G01*
X7875879Y8616086D01*
X7875879Y8642400D01*
X7875168Y8648750D01*
X7873288Y8654186D01*
X7870190Y8659114D01*
X7866075Y8663178D01*
X7861198Y8666276D01*
X7855762Y8668207D01*
X7849412Y8668918D01*
X7823098Y8668918D01*
G37*
G36*
X2950972Y8571890D02*
G01*
X2996336Y8571890D01*
X2991916Y8580374D01*
X2984296Y8591194D01*
X2975254Y8600897D01*
X2964992Y8609228D01*
X2953664Y8616086D01*
X2950972Y8617305D01*
G37*
G36*
X649935Y4624171D02*
G01*
X665124Y4625086D01*
X680059Y4627829D01*
X694588Y4632350D01*
X708456Y4638598D01*
X721461Y4646472D01*
X733450Y4655820D01*
X744169Y4666589D01*
X753567Y4678578D01*
X761441Y4691583D01*
X767791Y4705705D01*
X769975Y4708855D01*
X773226Y4710938D01*
X777036Y4711649D01*
X1022858Y4711649D01*
X1026668Y4710938D01*
X1029919Y4708855D01*
X1032103Y4705705D01*
X1038453Y4691583D01*
X1046327Y4678578D01*
X1055725Y4666589D01*
X1066444Y4655820D01*
X1078433Y4646472D01*
X1091438Y4638598D01*
X1105306Y4632350D01*
X1119835Y4627829D01*
X1134770Y4625086D01*
X1149959Y4624171D01*
X1165098Y4625086D01*
X1180084Y4627829D01*
X1194612Y4632350D01*
X1208430Y4638598D01*
X1221435Y4646472D01*
X1233424Y4655820D01*
X1244193Y4666589D01*
X1253540Y4678578D01*
X1261414Y4691583D01*
X1267663Y4705400D01*
X1272184Y4719929D01*
X1274927Y4734915D01*
X1275842Y4750054D01*
X1274927Y4765243D01*
X1272184Y4780178D01*
X1267663Y4794707D01*
X1264666Y4801311D01*
X1263802Y4805273D01*
X1264513Y4809236D01*
X1266748Y4812639D01*
X1812798Y5358638D01*
X1816049Y5360873D01*
X1819960Y5361635D01*
X4659426Y5361635D01*
X4663287Y5360873D01*
X4666589Y5358638D01*
X4668824Y5355336D01*
X4669586Y5351475D01*
X4668824Y5347563D01*
X4666589Y5344312D01*
X4655769Y5333441D01*
X4646422Y5321503D01*
X4638548Y5308498D01*
X4632299Y5294630D01*
X4627778Y5280101D01*
X4625035Y5265166D01*
X4624120Y5249976D01*
X4625035Y5234787D01*
X4627778Y5219852D01*
X4632299Y5205323D01*
X4638548Y5191455D01*
X4646422Y5178450D01*
X4655769Y5166512D01*
X4666538Y5155742D01*
X4678476Y5146395D01*
X4691481Y5138521D01*
X4705350Y5132273D01*
X4719878Y5127752D01*
X4734814Y5125008D01*
X4750003Y5124094D01*
X4765192Y5125008D01*
X4780127Y5127752D01*
X4794656Y5132273D01*
X4808524Y5138521D01*
X4821529Y5146395D01*
X4833467Y5155742D01*
X4844237Y5166512D01*
X4853584Y5178450D01*
X4861458Y5191455D01*
X4867808Y5205577D01*
X4870043Y5208727D01*
X4873294Y5210810D01*
X4877104Y5211572D01*
X5122926Y5211572D01*
X5126736Y5210810D01*
X5129936Y5208727D01*
X5132171Y5205577D01*
X5138521Y5191455D01*
X5146395Y5178450D01*
X5155793Y5166512D01*
X5166512Y5155742D01*
X5178501Y5146395D01*
X5191506Y5138521D01*
X5205374Y5132273D01*
X5219852Y5127752D01*
X5234838Y5125008D01*
X5250027Y5124094D01*
X5265166Y5125008D01*
X5280152Y5127752D01*
X5294630Y5132273D01*
X5308498Y5138521D01*
X5321503Y5146395D01*
X5333492Y5155742D01*
X5344210Y5166512D01*
X5353608Y5178450D01*
X5361482Y5191455D01*
X5367832Y5205577D01*
X5370068Y5208727D01*
X5373268Y5210810D01*
X5377078Y5211572D01*
X6849465Y5211572D01*
X6857441Y5212334D01*
X6864654Y5214518D01*
X6871309Y5218074D01*
X6877507Y5223154D01*
X7726781Y6072479D01*
X7731861Y6078677D01*
X7735417Y6085332D01*
X7737602Y6092494D01*
X7738414Y6100470D01*
X7738414Y7099503D01*
X7737602Y7107478D01*
X7735417Y7114692D01*
X7731861Y7121296D01*
X7726781Y7127494D01*
X7208520Y7645806D01*
X7202322Y7650886D01*
X7195667Y7654442D01*
X7188453Y7656626D01*
X7180478Y7657388D01*
X6735673Y7657388D01*
X6732016Y7658049D01*
X6728866Y7659979D01*
X6726631Y7662875D01*
X6725564Y7666431D01*
X6725208Y7669733D01*
X6723278Y7675219D01*
X6722109Y7677099D01*
X6720738Y7680604D01*
X6720738Y7684363D01*
X6722109Y7687919D01*
X6723278Y7689799D01*
X6725208Y7695234D01*
X6725564Y7698536D01*
X6726631Y7702092D01*
X6728866Y7704988D01*
X6732016Y7706918D01*
X6735673Y7707579D01*
X7233869Y7707579D01*
X7237780Y7706817D01*
X7241031Y7704581D01*
X7758582Y7187031D01*
X7760817Y7183780D01*
X7761579Y7179868D01*
X7761579Y5145176D01*
X7760817Y5141264D01*
X7758582Y5138013D01*
X7756804Y5136235D01*
X7751165Y5128158D01*
X7747050Y5119268D01*
X7744510Y5109768D01*
X7743647Y5099964D01*
X7744510Y5090210D01*
X7747050Y5080711D01*
X7751165Y5071821D01*
X7756804Y5063744D01*
X7763764Y5056835D01*
X7771790Y5051196D01*
X7780731Y5047030D01*
X7790180Y5044490D01*
X7799984Y5043627D01*
X7809788Y5044490D01*
X7819237Y5047030D01*
X7828178Y5051196D01*
X7836204Y5056835D01*
X7843164Y5063744D01*
X7848803Y5071821D01*
X7852918Y5080711D01*
X7855458Y5090210D01*
X7856321Y5099964D01*
X7855458Y5109768D01*
X7852918Y5119268D01*
X7848803Y5128158D01*
X7843164Y5136235D01*
X7841386Y5138013D01*
X7839151Y5141315D01*
X7838389Y5145176D01*
X7838389Y7199477D01*
X7837627Y7207453D01*
X7835442Y7214666D01*
X7831886Y7221321D01*
X7826806Y7227519D01*
X7281519Y7772806D01*
X7275322Y7777886D01*
X7268667Y7781442D01*
X7261453Y7783626D01*
X7253478Y7784388D01*
X6735673Y7784388D01*
X6732016Y7785049D01*
X6728866Y7786979D01*
X6726631Y7789875D01*
X6725564Y7793431D01*
X6725208Y7796733D01*
X6723278Y7802219D01*
X6722109Y7804099D01*
X6720738Y7807604D01*
X6720738Y7811363D01*
X6722109Y7814919D01*
X6723278Y7816799D01*
X6725208Y7822234D01*
X6725564Y7825536D01*
X6726631Y7829092D01*
X6728866Y7831988D01*
X6732016Y7833918D01*
X6735673Y7834579D01*
X7406894Y7834579D01*
X7410754Y7833817D01*
X7414056Y7831581D01*
X8058607Y7187031D01*
X8060791Y7183780D01*
X8061553Y7179868D01*
X8061553Y5145176D01*
X8060791Y5141264D01*
X8058607Y5138013D01*
X8056829Y5136235D01*
X8051190Y5128158D01*
X8047024Y5119268D01*
X8044484Y5109768D01*
X8043621Y5099964D01*
X8044484Y5090210D01*
X8047024Y5080711D01*
X8051190Y5071821D01*
X8056829Y5063744D01*
X8063738Y5056835D01*
X8071815Y5051196D01*
X8080705Y5047030D01*
X8090204Y5044490D01*
X8100009Y5043627D01*
X8109762Y5044490D01*
X8119262Y5047030D01*
X8128152Y5051196D01*
X8136229Y5056835D01*
X8143138Y5063744D01*
X8148777Y5071821D01*
X8152942Y5080711D01*
X8155482Y5090210D01*
X8156346Y5099964D01*
X8155482Y5109768D01*
X8152942Y5119268D01*
X8148777Y5128158D01*
X8143138Y5136235D01*
X8141360Y5138013D01*
X8139175Y5141264D01*
X8138414Y5145176D01*
X8138414Y7199477D01*
X8137601Y7207453D01*
X8135416Y7214666D01*
X8131860Y7221321D01*
X8126780Y7227519D01*
X7454493Y7899806D01*
X7448296Y7904886D01*
X7441692Y7908442D01*
X7434478Y7910626D01*
X7426502Y7911388D01*
X6735673Y7911388D01*
X6732016Y7912049D01*
X6728866Y7913979D01*
X6726631Y7916875D01*
X6725564Y7920431D01*
X6725208Y7923733D01*
X6723278Y7929219D01*
X6722109Y7931099D01*
X6720738Y7934604D01*
X6720738Y7938363D01*
X6722109Y7941919D01*
X6723278Y7943799D01*
X6725208Y7949234D01*
X6725920Y7955584D01*
X6725920Y8044434D01*
X6725208Y8050733D01*
X6723278Y8056219D01*
X6722109Y8058099D01*
X6720738Y8061604D01*
X6720738Y8065363D01*
X6722109Y8068919D01*
X6723278Y8070799D01*
X6725208Y8076234D01*
X6725920Y8082584D01*
X6725920Y8171434D01*
X6725208Y8177733D01*
X6723278Y8183219D01*
X6722109Y8185099D01*
X6720738Y8188604D01*
X6720738Y8192363D01*
X6722109Y8195919D01*
X6723278Y8197799D01*
X6725208Y8203234D01*
X6725920Y8209584D01*
X6725920Y8298434D01*
X6725208Y8304733D01*
X6723278Y8310219D01*
X6722109Y8312099D01*
X6720738Y8315604D01*
X6720738Y8319363D01*
X6722109Y8322919D01*
X6723278Y8324799D01*
X6725208Y8330234D01*
X6725920Y8336584D01*
X6725920Y8425434D01*
X6725208Y8431733D01*
X6723278Y8437219D01*
X6722109Y8439099D01*
X6720738Y8442604D01*
X6720738Y8446363D01*
X6722109Y8449919D01*
X6723278Y8451799D01*
X6725208Y8457234D01*
X6725920Y8463584D01*
X6725920Y8552434D01*
X6725208Y8558733D01*
X6723278Y8564219D01*
X6722109Y8566099D01*
X6720738Y8569604D01*
X6720738Y8573363D01*
X6722109Y8576919D01*
X6723278Y8578799D01*
X6725208Y8584234D01*
X6725920Y8590584D01*
X6725920Y8679434D01*
X6725208Y8685733D01*
X6723278Y8691219D01*
X6722109Y8693099D01*
X6720738Y8696604D01*
X6720738Y8700363D01*
X6722109Y8703919D01*
X6723278Y8705799D01*
X6725208Y8711234D01*
X6725920Y8717584D01*
X6725920Y8806434D01*
X6725208Y8812733D01*
X6723278Y8818219D01*
X6722109Y8820099D01*
X6720738Y8823604D01*
X6720738Y8827363D01*
X6722109Y8830919D01*
X6723278Y8832799D01*
X6725208Y8838234D01*
X6725920Y8844584D01*
X6725920Y8933434D01*
X6725208Y8939733D01*
X6723278Y8945219D01*
X6722109Y8947099D01*
X6720738Y8950604D01*
X6720738Y8954363D01*
X6722109Y8957919D01*
X6723278Y8959799D01*
X6725208Y8965234D01*
X6725920Y8971584D01*
X6725920Y9060434D01*
X6725208Y9066733D01*
X6723278Y9072219D01*
X6722109Y9074099D01*
X6720738Y9077604D01*
X6720738Y9081363D01*
X6722109Y9084919D01*
X6723278Y9086799D01*
X6725208Y9092234D01*
X6725920Y9098584D01*
X6725920Y9114129D01*
X6656324Y9114129D01*
X6656324Y9097060D01*
X6655562Y9093200D01*
X6653377Y9089898D01*
X6650075Y9087662D01*
X6646164Y9086900D01*
X6553809Y9086900D01*
X6549898Y9087662D01*
X6546596Y9089898D01*
X6544411Y9093200D01*
X6543649Y9097060D01*
X6543649Y9114129D01*
X6474104Y9114129D01*
X6474104Y9098584D01*
X6474815Y9092234D01*
X6476695Y9086799D01*
X6477914Y9084919D01*
X6479286Y9081363D01*
X6479286Y9077604D01*
X6477914Y9074099D01*
X6476695Y9072219D01*
X6474815Y9066733D01*
X6474104Y9060434D01*
X6474104Y9057233D01*
X6473291Y9053322D01*
X6471005Y9049969D01*
X6467652Y9047784D01*
X6463690Y9047124D01*
X6459728Y9047988D01*
X6456476Y9050324D01*
X6451600Y9055608D01*
X6442710Y9062669D01*
X6432905Y9068358D01*
X6422339Y9072473D01*
X6411315Y9075013D01*
X6399631Y9075877D01*
X6064910Y9075877D01*
X6061252Y9076588D01*
X6058103Y9078518D01*
X6055817Y9081414D01*
X6054801Y9084970D01*
X6055461Y9090202D01*
X6056325Y9099956D01*
X6055461Y9109760D01*
X6052921Y9119260D01*
X6048806Y9128150D01*
X6042710Y9136786D01*
X6041390Y9139580D01*
X6040882Y9142628D01*
X6040882Y9244431D01*
X6040069Y9252915D01*
X6037732Y9260586D01*
X6033973Y9267647D01*
X6028588Y9274200D01*
X5948832Y9353956D01*
X5946648Y9357258D01*
X5945886Y9361119D01*
X5945886Y9459417D01*
X5945174Y9465716D01*
X5943244Y9471202D01*
X5940145Y9476079D01*
X5936081Y9480194D01*
X5931154Y9483242D01*
X5925718Y9485172D01*
X5919419Y9485884D01*
X5780582Y9485884D01*
X5774283Y9485172D01*
X5768797Y9483242D01*
X5763920Y9480194D01*
X5759805Y9476079D01*
X5756706Y9471202D01*
X5754827Y9465716D01*
X5754116Y9459417D01*
X5754116Y9330486D01*
X5754827Y9324187D01*
X5756706Y9318701D01*
X5759805Y9313824D01*
X5763920Y9309709D01*
X5768797Y9306661D01*
X5774283Y9304731D01*
X5780582Y9304020D01*
X5878880Y9304020D01*
X5882741Y9303258D01*
X5886043Y9301022D01*
X5956096Y9230969D01*
X5958332Y9227667D01*
X5959094Y9223806D01*
X5959094Y9142628D01*
X5958586Y9139580D01*
X5957265Y9136786D01*
X5951169Y9128150D01*
X5947054Y9119260D01*
X5944514Y9109760D01*
X5943650Y9099956D01*
X5944514Y9090202D01*
X5945174Y9084970D01*
X5944158Y9081414D01*
X5941872Y9078518D01*
X5938723Y9076588D01*
X5935065Y9075877D01*
X5487314Y9075826D01*
X5478475Y9075013D01*
X5476036Y9074607D01*
X5467400Y9072473D01*
X5465064Y9071711D01*
X5456834Y9068308D01*
X5454650Y9067190D01*
X5447030Y9062567D01*
X5438190Y9055506D01*
X5370677Y8988044D01*
X5367375Y8985859D01*
X5363514Y8985097D01*
X5359603Y8985859D01*
X5356301Y8988044D01*
X5297728Y9046616D01*
X5295544Y9049918D01*
X5294731Y9053830D01*
X5294731Y9106052D01*
X5294020Y9112351D01*
X5292140Y9117838D01*
X5289042Y9122714D01*
X5284978Y9126829D01*
X5280050Y9129877D01*
X5274614Y9131808D01*
X5268264Y9132519D01*
X5131714Y9132519D01*
X5125364Y9131808D01*
X5119928Y9129877D01*
X5115001Y9126829D01*
X5110937Y9122714D01*
X5107838Y9117838D01*
X5105958Y9112351D01*
X5105247Y9106052D01*
X5105247Y8993936D01*
X5105958Y8987586D01*
X5107838Y8982151D01*
X5110937Y8977223D01*
X5115001Y8973159D01*
X5119928Y8970060D01*
X5125364Y8968181D01*
X5131714Y8967470D01*
X5264048Y8967470D01*
X5267960Y8966657D01*
X5271262Y8964472D01*
X5288229Y8947505D01*
X5290413Y8944254D01*
X5291226Y8940444D01*
X5290515Y8936634D01*
X5288483Y8933332D01*
X5285333Y8931097D01*
X5281523Y8930132D01*
X5277713Y8930690D01*
X5274614Y8931808D01*
X5268264Y8932519D01*
X5131714Y8932519D01*
X5125364Y8931808D01*
X5119928Y8929878D01*
X5115001Y8926830D01*
X5110937Y8922715D01*
X5107838Y8917838D01*
X5105958Y8912352D01*
X5105247Y8906052D01*
X5105247Y8898534D01*
X5104434Y8894673D01*
X5102250Y8891371D01*
X5098948Y8889187D01*
X5095087Y8888374D01*
X5054904Y8888374D01*
X5051044Y8889187D01*
X5047742Y8891371D01*
X5045506Y8894673D01*
X5044744Y8898534D01*
X5044744Y8906052D01*
X5044033Y8912352D01*
X5042103Y8917838D01*
X5039055Y8922715D01*
X5034940Y8926830D01*
X5030063Y8929878D01*
X5024577Y8931808D01*
X5018278Y8932519D01*
X4881727Y8932519D01*
X4875377Y8931808D01*
X4869942Y8929878D01*
X4865014Y8926830D01*
X4860950Y8922715D01*
X4857851Y8917838D01*
X4855921Y8912352D01*
X4855210Y8906052D01*
X4855210Y8898534D01*
X4854448Y8894673D01*
X4852263Y8891371D01*
X4848961Y8889187D01*
X4845050Y8888374D01*
X4804918Y8888374D01*
X4801006Y8889187D01*
X4797704Y8891371D01*
X4795520Y8894673D01*
X4794758Y8898534D01*
X4794758Y8906052D01*
X4794046Y8912352D01*
X4792116Y8917838D01*
X4789068Y8922715D01*
X4784953Y8926830D01*
X4780076Y8929878D01*
X4774590Y8931808D01*
X4768291Y8932519D01*
X4631690Y8932519D01*
X4625390Y8931808D01*
X4619904Y8929878D01*
X4615027Y8926830D01*
X4610912Y8922715D01*
X4607864Y8917838D01*
X4605934Y8912352D01*
X4605223Y8906052D01*
X4605223Y8793937D01*
X4605934Y8787587D01*
X4607864Y8782151D01*
X4610912Y8777224D01*
X4615027Y8773160D01*
X4619904Y8770061D01*
X4625390Y8768130D01*
X4631690Y8767419D01*
X4768291Y8767419D01*
X4774590Y8768130D01*
X4780076Y8770061D01*
X4784953Y8773160D01*
X4789068Y8777224D01*
X4792116Y8782151D01*
X4794046Y8787587D01*
X4794758Y8793937D01*
X4794758Y8801404D01*
X4795520Y8805316D01*
X4797704Y8808618D01*
X4801006Y8810802D01*
X4804918Y8811564D01*
X4845050Y8811564D01*
X4848961Y8810802D01*
X4852263Y8808618D01*
X4854448Y8805316D01*
X4855210Y8801404D01*
X4855210Y8793937D01*
X4855921Y8787587D01*
X4857851Y8782151D01*
X4860950Y8777224D01*
X4865014Y8773160D01*
X4869942Y8770061D01*
X4875377Y8768130D01*
X4881727Y8767419D01*
X5018278Y8767419D01*
X5024577Y8768130D01*
X5030063Y8770061D01*
X5034940Y8773160D01*
X5039055Y8777224D01*
X5042103Y8782151D01*
X5044033Y8787587D01*
X5044744Y8793937D01*
X5044744Y8801404D01*
X5045506Y8805316D01*
X5047742Y8808618D01*
X5051044Y8810802D01*
X5054904Y8811564D01*
X5095087Y8811564D01*
X5098948Y8810802D01*
X5102250Y8808618D01*
X5104434Y8805316D01*
X5105247Y8801404D01*
X5105247Y8793937D01*
X5105958Y8787587D01*
X5107838Y8782151D01*
X5110937Y8777224D01*
X5115001Y8773160D01*
X5119928Y8770061D01*
X5125364Y8768130D01*
X5131714Y8767419D01*
X5151424Y8767419D01*
X5155285Y8766657D01*
X5158587Y8764473D01*
X5160822Y8761171D01*
X5161584Y8757259D01*
X5161584Y8735872D01*
X5160822Y8731961D01*
X5158587Y8728659D01*
X5122824Y8692845D01*
X5119522Y8690660D01*
X5115610Y8689898D01*
X5101539Y8689898D01*
X5095240Y8689187D01*
X5089753Y8687257D01*
X5084876Y8684209D01*
X5080762Y8680094D01*
X5077714Y8675217D01*
X5075783Y8669731D01*
X5075072Y8663432D01*
X5075072Y8636558D01*
X5075783Y8630208D01*
X5077002Y8624976D01*
X5075783Y8619744D01*
X5075072Y8613394D01*
X5075072Y8611463D01*
X5074158Y8607247D01*
X5071567Y8603792D01*
X5067757Y8601710D01*
X5063439Y8601405D01*
X5059375Y8602980D01*
X5055158Y8605723D01*
X5045557Y8609939D01*
X5035397Y8612479D01*
X5024577Y8613394D01*
X4803241Y8613394D01*
X4799584Y8614054D01*
X4796434Y8615984D01*
X4794199Y8618880D01*
X4793132Y8622385D01*
X4792675Y8626246D01*
X4790795Y8631682D01*
X4787696Y8636609D01*
X4783582Y8640673D01*
X4778705Y8643772D01*
X4773218Y8645702D01*
X4766919Y8646414D01*
X4715154Y8646414D01*
X4711242Y8647176D01*
X4707940Y8649360D01*
X4501794Y8855456D01*
X4494936Y8861145D01*
X4492904Y8862568D01*
X4485284Y8867140D01*
X4483100Y8868257D01*
X4474870Y8871661D01*
X4472533Y8872423D01*
X4463948Y8874607D01*
X4461510Y8875014D01*
X4452670Y8875826D01*
X4161790Y8875877D01*
X4157726Y8876690D01*
X4154373Y8879078D01*
X4149344Y8884462D01*
X4138117Y8893708D01*
X4125823Y8901531D01*
X4112666Y8907729D01*
X4098798Y8912199D01*
X4084523Y8914942D01*
X4069994Y8915857D01*
X4055465Y8914942D01*
X4041190Y8912199D01*
X4027322Y8907729D01*
X4014165Y8901531D01*
X4001871Y8893708D01*
X3990644Y8884462D01*
X3985615Y8879078D01*
X3982262Y8876690D01*
X3978198Y8875877D01*
X3821785Y8875877D01*
X3817721Y8876690D01*
X3814368Y8879078D01*
X3809339Y8884462D01*
X3798112Y8893708D01*
X3785819Y8901531D01*
X3772662Y8907729D01*
X3758793Y8912199D01*
X3744518Y8914942D01*
X3729990Y8915857D01*
X3715461Y8914942D01*
X3701186Y8912199D01*
X3687318Y8907729D01*
X3674160Y8901531D01*
X3661867Y8893708D01*
X3650640Y8884462D01*
X3640683Y8873845D01*
X3632149Y8862060D01*
X3625138Y8849309D01*
X3619754Y8835796D01*
X3616147Y8821674D01*
X3614318Y8807246D01*
X3614318Y8792718D01*
X3616147Y8778240D01*
X3619754Y8764168D01*
X3625138Y8750604D01*
X3632149Y8737854D01*
X3640683Y8726119D01*
X3650640Y8715502D01*
X3661867Y8706205D01*
X3674160Y8698433D01*
X3687318Y8692235D01*
X3701186Y8687714D01*
X3715664Y8684971D01*
X3719372Y8683447D01*
X3722217Y8680653D01*
X3723741Y8676944D01*
X3723741Y8672982D01*
X3722217Y8669324D01*
X3719372Y8666480D01*
X3715664Y8665006D01*
X3701186Y8662212D01*
X3687318Y8657742D01*
X3674160Y8651544D01*
X3661867Y8643721D01*
X3650640Y8634476D01*
X3640683Y8623858D01*
X3632149Y8612073D01*
X3625138Y8599322D01*
X3619754Y8585809D01*
X3616147Y8571687D01*
X3614318Y8557260D01*
X3614318Y8542731D01*
X3616147Y8528253D01*
X3619754Y8514181D01*
X3625138Y8500618D01*
X3632149Y8487867D01*
X3640683Y8476132D01*
X3650640Y8465515D01*
X3661867Y8456218D01*
X3674160Y8448446D01*
X3687318Y8442248D01*
X3701186Y8437727D01*
X3715461Y8434984D01*
X3729990Y8434120D01*
X3744925Y8435086D01*
X3758793Y8437727D01*
X3772662Y8442248D01*
X3785819Y8448446D01*
X3798112Y8456218D01*
X3809339Y8465515D01*
X3819296Y8476132D01*
X3827830Y8487867D01*
X3834841Y8500618D01*
X3836619Y8505139D01*
X3838803Y8508542D01*
X3842156Y8510778D01*
X3846068Y8511590D01*
X3953916Y8511590D01*
X3957828Y8510778D01*
X3961180Y8508542D01*
X3963365Y8505139D01*
X3965143Y8500618D01*
X3972153Y8487867D01*
X3980687Y8476132D01*
X3990644Y8465515D01*
X4001871Y8456218D01*
X4014165Y8448446D01*
X4027322Y8442248D01*
X4041190Y8437727D01*
X4055465Y8434984D01*
X4069994Y8434120D01*
X4084929Y8435086D01*
X4098798Y8437727D01*
X4112666Y8442248D01*
X4125823Y8448446D01*
X4138117Y8456218D01*
X4149344Y8465515D01*
X4159300Y8476132D01*
X4167835Y8487867D01*
X4174845Y8500618D01*
X4176623Y8505088D01*
X4178808Y8508441D01*
X4182110Y8510676D01*
X4186072Y8511489D01*
X4339844Y8511489D01*
X4343704Y8510727D01*
X4347006Y8508542D01*
X4432503Y8423249D01*
X4438650Y8418169D01*
X4445304Y8414613D01*
X4452518Y8412429D01*
X4460494Y8411667D01*
X4596434Y8411616D01*
X4600295Y8410854D01*
X4603597Y8408670D01*
X4605832Y8405368D01*
X4606594Y8401456D01*
X4606594Y8391601D01*
X4659884Y8391601D01*
X4659884Y8401456D01*
X4660646Y8405317D01*
X4662881Y8408619D01*
X4666183Y8410854D01*
X4670044Y8411616D01*
X4729937Y8411616D01*
X4733798Y8410803D01*
X4737100Y8408619D01*
X4739335Y8405317D01*
X4740097Y8401456D01*
X4740097Y8391601D01*
X4794097Y8391601D01*
X4796282Y8394903D01*
X4799584Y8397189D01*
X4803495Y8398002D01*
X4807407Y8397240D01*
X4810760Y8395004D01*
X4824780Y8380933D01*
X4827016Y8377681D01*
X4827778Y8373770D01*
X4827016Y8369909D01*
X4824780Y8366607D01*
X4823155Y8364931D01*
X4820056Y8360054D01*
X4818176Y8354568D01*
X4817465Y8348268D01*
X4817465Y8211718D01*
X4818176Y8205368D01*
X4820056Y8199932D01*
X4823155Y8195005D01*
X4827270Y8190941D01*
X4832146Y8187842D01*
X4837582Y8185912D01*
X4843932Y8185200D01*
X4956048Y8185200D01*
X4962347Y8185912D01*
X4967833Y8187842D01*
X4972710Y8190941D01*
X4976825Y8195005D01*
X4979873Y8199932D01*
X4981803Y8205368D01*
X4982514Y8211718D01*
X4982514Y8348268D01*
X4982311Y8350351D01*
X4982718Y8354568D01*
X4984800Y8358225D01*
X4988255Y8360714D01*
X4992370Y8361629D01*
X5007610Y8361629D01*
X5011724Y8360714D01*
X5015179Y8358225D01*
X5017262Y8354568D01*
X5017668Y8350351D01*
X5017465Y8348268D01*
X5017465Y8320735D01*
X5065318Y8320735D01*
X5065318Y8351469D01*
X5066080Y8355330D01*
X5068316Y8358631D01*
X5071618Y8360867D01*
X5075478Y8361629D01*
X5083810Y8361629D01*
X5091785Y8362391D01*
X5098948Y8364575D01*
X5105603Y8368131D01*
X5111800Y8373211D01*
X5117338Y8378748D01*
X5120589Y8380933D01*
X5124500Y8381695D01*
X5128463Y8381034D01*
X5127701Y8384895D01*
X5128463Y8388807D01*
X5130647Y8392109D01*
X5145684Y8407095D01*
X5148986Y8409279D01*
X5152847Y8410092D01*
X5166918Y8410092D01*
X5173218Y8410803D01*
X5178704Y8412683D01*
X5183530Y8415731D01*
X5188661Y8421014D01*
X5192014Y8423300D01*
X5195976Y8424062D01*
X5212384Y8424062D01*
X5212384Y8493607D01*
X5203545Y8493607D01*
X5199684Y8494420D01*
X5196382Y8496604D01*
X5194147Y8499906D01*
X5193385Y8503767D01*
X5193385Y8513419D01*
X5192674Y8519718D01*
X5191455Y8525002D01*
X5192674Y8530234D01*
X5193385Y8536533D01*
X5193385Y8563406D01*
X5192674Y8569756D01*
X5190794Y8575192D01*
X5187696Y8580120D01*
X5183581Y8584184D01*
X5178704Y8587282D01*
X5173218Y8589162D01*
X5166969Y8589873D01*
X5162956Y8591194D01*
X5159857Y8594039D01*
X5158181Y8597900D01*
X5158181Y8602065D01*
X5159857Y8605926D01*
X5162956Y8608771D01*
X5166969Y8610092D01*
X5173218Y8610803D01*
X5178907Y8612784D01*
X5182260Y8613343D01*
X5203545Y8613343D01*
X5207457Y8612581D01*
X5210759Y8610346D01*
X5212384Y8607907D01*
X5212384Y8669578D01*
X5213146Y8673490D01*
X5215382Y8676792D01*
X5226812Y8688222D01*
X5231892Y8694420D01*
X5235448Y8701074D01*
X5237632Y8708237D01*
X5238394Y8716213D01*
X5238394Y8757259D01*
X5239156Y8761171D01*
X5241391Y8764473D01*
X5244693Y8766657D01*
X5248554Y8767419D01*
X5268264Y8767419D01*
X5273598Y8768029D01*
X5277612Y8767673D01*
X5281218Y8765794D01*
X5283758Y8762593D01*
X5284876Y8758529D01*
X5287416Y8747506D01*
X5291531Y8736939D01*
X5297220Y8727135D01*
X5304282Y8718245D01*
X5305755Y8716873D01*
X5308142Y8713520D01*
X5309006Y8709456D01*
X5309006Y8686038D01*
X5308244Y8682177D01*
X5306009Y8678875D01*
X5302707Y8676640D01*
X5298846Y8675878D01*
X5287568Y8675878D01*
X5287568Y8606332D01*
X5296408Y8606332D01*
X5300319Y8605570D01*
X5303621Y8603335D01*
X5305806Y8600084D01*
X5306568Y8596172D01*
X5306568Y8586571D01*
X5307279Y8580221D01*
X5309209Y8574786D01*
X5312308Y8569858D01*
X5316372Y8565794D01*
X5321300Y8562695D01*
X5326735Y8560765D01*
X5333034Y8560054D01*
X5336997Y8558733D01*
X5340096Y8555939D01*
X5341823Y8552078D01*
X5341823Y8547862D01*
X5340096Y8544052D01*
X5336997Y8541207D01*
X5333034Y8539886D01*
X5326735Y8539175D01*
X5321300Y8537244D01*
X5316372Y8534196D01*
X5312308Y8530082D01*
X5309209Y8525205D01*
X5307279Y8519718D01*
X5306568Y8513419D01*
X5306568Y8503767D01*
X5305806Y8499906D01*
X5303621Y8496604D01*
X5300319Y8494420D01*
X5296408Y8493607D01*
X5287568Y8493607D01*
X5287568Y8424062D01*
X5304028Y8424062D01*
X5307990Y8423249D01*
X5311292Y8421014D01*
X5316931Y8415223D01*
X5319064Y8411921D01*
X5319826Y8408111D01*
X5319877Y8382457D01*
X5321096Y8373719D01*
X5323789Y8365693D01*
X5327904Y8358327D01*
X5333593Y8351418D01*
X5342432Y8342630D01*
X5344058Y8340496D01*
X5345074Y8338058D01*
X5347055Y8330692D01*
X5351170Y8321802D01*
X5356809Y8313775D01*
X5363768Y8306816D01*
X5371795Y8301177D01*
X5380736Y8297011D01*
X5390184Y8294471D01*
X5399989Y8293658D01*
X5409793Y8294471D01*
X5419242Y8297011D01*
X5428183Y8301177D01*
X5436209Y8306816D01*
X5443169Y8313775D01*
X5448808Y8321802D01*
X5452922Y8330692D01*
X5455462Y8340191D01*
X5456326Y8349996D01*
X5455462Y8359749D01*
X5452922Y8369249D01*
X5448808Y8378139D01*
X5443169Y8386216D01*
X5436209Y8393125D01*
X5428183Y8398764D01*
X5420817Y8402218D01*
X5417667Y8404504D01*
X5415635Y8407755D01*
X5414975Y8411616D01*
X5415737Y8415375D01*
X5417921Y8418576D01*
X5419191Y8419846D01*
X5422290Y8424773D01*
X5424170Y8430209D01*
X5424881Y8436559D01*
X5424881Y8451392D01*
X5425694Y8455304D01*
X5427878Y8458606D01*
X5431180Y8460790D01*
X5435041Y8461552D01*
X5497220Y8461552D01*
X5501132Y8460790D01*
X5504434Y8458606D01*
X5506618Y8455304D01*
X5507380Y8451392D01*
X5506618Y8447532D01*
X5504434Y8444230D01*
X5503164Y8442960D01*
X5500065Y8438032D01*
X5498134Y8432596D01*
X5497423Y8426246D01*
X5497423Y8227415D01*
X5498134Y8221065D01*
X5500065Y8215630D01*
X5503164Y8210702D01*
X5507228Y8206638D01*
X5512155Y8203539D01*
X5517591Y8201609D01*
X5523941Y8200898D01*
X5922772Y8200898D01*
X5929122Y8201609D01*
X5934557Y8203539D01*
X5939434Y8206638D01*
X5943549Y8210702D01*
X5946648Y8215630D01*
X5948527Y8221065D01*
X5949238Y8227415D01*
X5949238Y8426246D01*
X5948527Y8432596D01*
X5946648Y8438032D01*
X5943549Y8442960D01*
X5939434Y8447024D01*
X5934557Y8450122D01*
X5929122Y8452002D01*
X5922772Y8452713D01*
X5655970Y8452713D01*
X5652058Y8453526D01*
X5648807Y8455710D01*
X5577687Y8526780D01*
X5571490Y8531860D01*
X5564886Y8535416D01*
X5557672Y8537600D01*
X5549696Y8538362D01*
X5408726Y8538362D01*
X5404764Y8539175D01*
X5398465Y8539886D01*
X5394452Y8541207D01*
X5391353Y8544052D01*
X5389676Y8547862D01*
X5389676Y8552078D01*
X5391353Y8555939D01*
X5394452Y8558733D01*
X5398465Y8560054D01*
X5408676Y8561578D01*
X5565190Y8561578D01*
X5573166Y8562340D01*
X5580380Y8564524D01*
X5586984Y8568080D01*
X5593181Y8573160D01*
X5648756Y8628735D01*
X5652058Y8630970D01*
X5655970Y8631732D01*
X5922772Y8631732D01*
X5929122Y8632444D01*
X5934557Y8634323D01*
X5939434Y8637422D01*
X5943549Y8641537D01*
X5946648Y8646414D01*
X5948527Y8651900D01*
X5949238Y8658199D01*
X5949238Y8847480D01*
X5950204Y8851747D01*
X5952896Y8855252D01*
X5956808Y8857284D01*
X5961176Y8857488D01*
X5965240Y8855760D01*
X5971794Y8851188D01*
X5980734Y8847023D01*
X5990183Y8844483D01*
X5999988Y8843619D01*
X6009792Y8844483D01*
X6019241Y8847023D01*
X6028182Y8851188D01*
X6035598Y8856421D01*
X6038494Y8857792D01*
X6041644Y8858250D01*
X6464503Y8850528D01*
X6468110Y8849817D01*
X6471158Y8847886D01*
X6473393Y8844991D01*
X6474409Y8841536D01*
X6474815Y8838234D01*
X6476695Y8832799D01*
X6477914Y8830919D01*
X6479286Y8827363D01*
X6479286Y8823604D01*
X6477914Y8820099D01*
X6476695Y8818219D01*
X6474815Y8812733D01*
X6474409Y8809431D01*
X6473342Y8805875D01*
X6471107Y8802979D01*
X6467957Y8801049D01*
X6464300Y8800388D01*
X6442456Y8800388D01*
X6434480Y8799626D01*
X6427266Y8797442D01*
X6420612Y8793886D01*
X6414414Y8788806D01*
X6273139Y8647531D01*
X6268059Y8641334D01*
X6264503Y8634679D01*
X6262319Y8627465D01*
X6261557Y8619490D01*
X6261557Y8120075D01*
X6260795Y8116214D01*
X6258610Y8112912D01*
X6187033Y8041386D01*
X6183782Y8039150D01*
X6179870Y8038388D01*
X2815082Y8038388D01*
X2812135Y8038846D01*
X2808071Y8040065D01*
X2799588Y8040878D01*
X2570480Y8040878D01*
X2561996Y8040065D01*
X2554325Y8037728D01*
X2547264Y8033969D01*
X2540711Y8028533D01*
X2286000Y7773873D01*
X2282698Y7771638D01*
X2278837Y7770875D01*
X2192629Y7770875D01*
X2189581Y7771384D01*
X2186127Y7773212D01*
X2183536Y7775803D01*
X2182063Y7779156D01*
X2181860Y7782814D01*
X2182977Y7786319D01*
X2186940Y7793736D01*
X2189175Y7801203D01*
X2189988Y7809484D01*
X2189988Y7870494D01*
X2189175Y7878775D01*
X2186940Y7886242D01*
X2183434Y7892796D01*
X2182266Y7896910D01*
X2182876Y7901178D01*
X2185212Y7904784D01*
X2188819Y7907070D01*
X2193036Y7907731D01*
X2197150Y7906562D01*
X2203754Y7903006D01*
X2211222Y7900771D01*
X2219502Y7899958D01*
X2280513Y7899958D01*
X2288794Y7900771D01*
X2296261Y7903006D01*
X2303170Y7906715D01*
X2309164Y7911642D01*
X2314143Y7917688D01*
X2317851Y7924596D01*
X2320086Y7932064D01*
X2320848Y7939836D01*
X2320086Y7947609D01*
X2317851Y7955127D01*
X2315159Y7960055D01*
X2314092Y7963204D01*
X2314092Y7966506D01*
X2315159Y7969656D01*
X2317851Y7974634D01*
X2320086Y7982102D01*
X2320848Y7989874D01*
X2320086Y7997647D01*
X2317851Y8005165D01*
X2315159Y8010093D01*
X2314092Y8013242D01*
X2314092Y8016544D01*
X2315159Y8019694D01*
X2317851Y8024672D01*
X2320086Y8032140D01*
X2320848Y8039912D01*
X2320086Y8047685D01*
X2317851Y8055203D01*
X2315159Y8060131D01*
X2314092Y8063280D01*
X2314092Y8066582D01*
X2315159Y8069732D01*
X2317851Y8074710D01*
X2320086Y8082178D01*
X2320848Y8089950D01*
X2320086Y8097723D01*
X2317851Y8105241D01*
X2315159Y8110169D01*
X2314092Y8113318D01*
X2314092Y8116620D01*
X2315159Y8119770D01*
X2317851Y8124748D01*
X2320086Y8132216D01*
X2320848Y8139988D01*
X2320086Y8147761D01*
X2317851Y8155279D01*
X2315159Y8160207D01*
X2314092Y8163356D01*
X2314092Y8166658D01*
X2315159Y8169808D01*
X2317851Y8174786D01*
X2320086Y8182254D01*
X2320848Y8190026D01*
X2320086Y8197799D01*
X2317851Y8205317D01*
X2315159Y8210245D01*
X2314092Y8213394D01*
X2314092Y8216696D01*
X2315159Y8219846D01*
X2317851Y8224824D01*
X2320086Y8232292D01*
X2320848Y8240064D01*
X2320086Y8247837D01*
X2317851Y8255355D01*
X2314143Y8262213D01*
X2309164Y8268258D01*
X2303170Y8273237D01*
X2296261Y8276894D01*
X2288794Y8279180D01*
X2280513Y8279993D01*
X2219502Y8279993D01*
X2211222Y8279180D01*
X2203754Y8276894D01*
X2197150Y8273389D01*
X2193036Y8272221D01*
X2188768Y8272830D01*
X2185162Y8275167D01*
X2182876Y8278774D01*
X2182215Y8282990D01*
X2183384Y8287105D01*
X2186940Y8293709D01*
X2189175Y8301177D01*
X2189988Y8309457D01*
X2189988Y8370468D01*
X2189175Y8378748D01*
X2186940Y8386216D01*
X2183231Y8393125D01*
X2178304Y8399170D01*
X2172258Y8404098D01*
X2165350Y8407806D01*
X2157882Y8410092D01*
X2150110Y8410854D01*
X2142337Y8410092D01*
X2134870Y8407806D01*
X2129891Y8405164D01*
X2126742Y8404098D01*
X2123440Y8404098D01*
X2120290Y8405164D01*
X2115312Y8407806D01*
X2107844Y8410092D01*
X2100072Y8410854D01*
X2092299Y8410092D01*
X2084832Y8407806D01*
X2079853Y8405164D01*
X2076704Y8404098D01*
X2073402Y8404098D01*
X2070252Y8405164D01*
X2065274Y8407806D01*
X2057806Y8410092D01*
X2050034Y8410854D01*
X2042261Y8410092D01*
X2034793Y8407806D01*
X2029815Y8405164D01*
X2026666Y8404098D01*
X2023364Y8404098D01*
X2020214Y8405164D01*
X2015236Y8407806D01*
X2007768Y8410092D01*
X1999996Y8410854D01*
X1992223Y8410092D01*
X1984756Y8407806D01*
X1979777Y8405164D01*
X1976628Y8404098D01*
X1973325Y8404098D01*
X1970176Y8405164D01*
X1965198Y8407806D01*
X1957730Y8410092D01*
X1949957Y8410854D01*
X1942185Y8410092D01*
X1934718Y8407806D01*
X1929739Y8405164D01*
X1926589Y8404098D01*
X1923288Y8404098D01*
X1920138Y8405164D01*
X1915160Y8407806D01*
X1907692Y8410092D01*
X1899920Y8410854D01*
X1892147Y8410092D01*
X1884680Y8407806D01*
X1881936Y8406333D01*
X1878025Y8405164D01*
X1873910Y8405672D01*
X1870354Y8407704D01*
X1867916Y8411006D01*
X1867001Y8415020D01*
X1867712Y8419084D01*
X1869948Y8422487D01*
X1900529Y8453120D01*
X1907590Y8461959D01*
X1912213Y8469579D01*
X1913331Y8471763D01*
X1917496Y8482330D01*
X1919630Y8490966D01*
X1920036Y8493353D01*
X1920849Y8502243D01*
X1920900Y8545931D01*
X1921713Y8549894D01*
X1923999Y8553196D01*
X1927402Y8555380D01*
X1931416Y8556091D01*
X1935327Y8555126D01*
X1938578Y8552738D01*
X1940661Y8549284D01*
X1941728Y8546287D01*
X1944776Y8541359D01*
X1948891Y8537295D01*
X1953768Y8534196D01*
X1959254Y8532266D01*
X1965553Y8531555D01*
X2034438Y8531555D01*
X2040737Y8532266D01*
X2046224Y8534196D01*
X2051100Y8537295D01*
X2054910Y8541105D01*
X2058212Y8543290D01*
X2062124Y8544052D01*
X2162657Y8544102D01*
X2171496Y8544966D01*
X2173935Y8545372D01*
X2182571Y8547506D01*
X2184908Y8548268D01*
X2193086Y8551672D01*
X2195271Y8552789D01*
X2202891Y8557361D01*
X2204923Y8558784D01*
X2211781Y8564473D01*
X2267508Y8620150D01*
X2270810Y8622385D01*
X2274722Y8623147D01*
X2553462Y8623147D01*
X2556764Y8622588D01*
X2559710Y8621014D01*
X2561996Y8618575D01*
X2612644Y8541461D01*
X2613964Y8538464D01*
X2614269Y8535162D01*
X2613914Y8529980D01*
X2614828Y8516772D01*
X2617520Y8503818D01*
X2621940Y8491321D01*
X2628036Y8479586D01*
X2635707Y8468766D01*
X2644698Y8459063D01*
X2655011Y8450732D01*
X2666288Y8443874D01*
X2678430Y8438591D01*
X2691180Y8434984D01*
X2704338Y8433206D01*
X2717546Y8433206D01*
X2730652Y8434984D01*
X2743403Y8438591D01*
X2755544Y8443874D01*
X2766872Y8450732D01*
X2777134Y8459063D01*
X2786176Y8468766D01*
X2793796Y8479586D01*
X2802585Y8496300D01*
X2803550Y8501634D01*
X2804363Y8503818D01*
X2807055Y8516772D01*
X2807919Y8529980D01*
X2807055Y8543188D01*
X2804363Y8556142D01*
X2803550Y8558326D01*
X2802991Y8562136D01*
X2802585Y8563660D01*
X2793796Y8580374D01*
X2786176Y8591194D01*
X2777134Y8600897D01*
X2766872Y8609228D01*
X2755544Y8616086D01*
X2743911Y8621166D01*
X2741422Y8622741D01*
X2739440Y8624925D01*
X2672588Y8726678D01*
X2671318Y8729370D01*
X2670911Y8732266D01*
X2670911Y9073946D01*
X2671876Y9078264D01*
X2674670Y9081820D01*
X2678633Y9083802D01*
X2678633Y9128912D01*
X2674670Y9130944D01*
X2671876Y9134449D01*
X2670911Y9138818D01*
X2670911Y9159595D01*
X2670048Y9170314D01*
X2668016Y9178798D01*
X2667812Y9182455D01*
X2668930Y9185960D01*
X2671165Y9188805D01*
X2674315Y9190685D01*
X2678633Y9191345D01*
X2678633Y9235897D01*
X2670556Y9235897D01*
X2664256Y9235186D01*
X2658770Y9233255D01*
X2654401Y9231325D01*
X2650591Y9231325D01*
X2646222Y9233255D01*
X2640736Y9235186D01*
X2634437Y9235897D01*
X2575560Y9235897D01*
X2569260Y9235186D01*
X2563774Y9233255D01*
X2558897Y9230207D01*
X2554782Y9226092D01*
X2551734Y9221216D01*
X2549804Y9215729D01*
X2549093Y9209430D01*
X2549093Y9197289D01*
X2548686Y9194546D01*
X2546299Y9189872D01*
X2542336Y9180322D01*
X2539949Y9170314D01*
X2539085Y9159595D01*
X2539085Y9033865D01*
X2538323Y9030004D01*
X2536139Y9026753D01*
X2532888Y9024518D01*
X2529027Y9023705D01*
X2525166Y9024467D01*
X2521864Y9026601D01*
X2519629Y9029801D01*
X2517190Y9035440D01*
X2511145Y9045041D01*
X2503474Y9053931D01*
X2381859Y9175496D01*
X2373020Y9182557D01*
X2365400Y9187180D01*
X2363216Y9188297D01*
X2354986Y9191701D01*
X2352649Y9192463D01*
X2344013Y9194596D01*
X2341575Y9195003D01*
X2332736Y9195816D01*
X2229612Y9195866D01*
X2225751Y9196628D01*
X2222449Y9198864D01*
X2221128Y9200184D01*
X2216200Y9203283D01*
X2210765Y9205163D01*
X2204415Y9205874D01*
X2105558Y9205874D01*
X2099259Y9205163D01*
X2093772Y9203283D01*
X2088896Y9200184D01*
X2084781Y9196070D01*
X2081733Y9191193D01*
X2079802Y9185757D01*
X2079091Y9179407D01*
X2079091Y8918549D01*
X2078329Y8914638D01*
X2076094Y8911386D01*
X2072792Y8909151D01*
X2068931Y8908389D01*
X2060549Y8908389D01*
X2054250Y8907678D01*
X2048764Y8905748D01*
X2043887Y8902700D01*
X2039772Y8898585D01*
X2036724Y8893708D01*
X2034793Y8888222D01*
X2034082Y8881922D01*
X2034082Y8868206D01*
X2033676Y8865412D01*
X2032507Y8862822D01*
X2027885Y8855456D01*
X2023364Y8845042D01*
X2020417Y8834069D01*
X2019147Y8822842D01*
X2019604Y8811514D01*
X2021687Y8800338D01*
X2025446Y8789619D01*
X2030730Y8779611D01*
X2033574Y8774887D01*
X2034082Y8771737D01*
X2034082Y8758072D01*
X2034793Y8751722D01*
X2036724Y8746286D01*
X2039772Y8741359D01*
X2043887Y8737295D01*
X2048764Y8734196D01*
X2054250Y8732266D01*
X2060549Y8731554D01*
X2129434Y8731554D01*
X2135733Y8732266D01*
X2138629Y8733282D01*
X2142490Y8733840D01*
X2146249Y8732926D01*
X2149398Y8730640D01*
X2151481Y8727389D01*
X2152142Y8723528D01*
X2151329Y8719718D01*
X2149195Y8716518D01*
X2131517Y8698890D01*
X2128215Y8696655D01*
X2124354Y8695893D01*
X2062124Y8695893D01*
X2058212Y8696655D01*
X2054961Y8698890D01*
X2051100Y8702700D01*
X2046224Y8705748D01*
X2040737Y8707678D01*
X2034438Y8708390D01*
X1965553Y8708390D01*
X1959254Y8707678D01*
X1953768Y8705748D01*
X1948891Y8702700D01*
X1944776Y8698585D01*
X1941728Y8693708D01*
X1940661Y8690711D01*
X1938578Y8687206D01*
X1935327Y8684818D01*
X1931416Y8683904D01*
X1927402Y8684564D01*
X1923999Y8686749D01*
X1921713Y8690102D01*
X1920900Y8694064D01*
X1920900Y8721394D01*
X1921662Y8725306D01*
X1923897Y8728608D01*
X1927199Y8730792D01*
X1931060Y8731554D01*
X1939442Y8731554D01*
X1945741Y8732266D01*
X1951228Y8734196D01*
X1956104Y8737295D01*
X1960219Y8741359D01*
X1963267Y8746286D01*
X1965198Y8751722D01*
X1965909Y8758072D01*
X1965909Y8775395D01*
X1966925Y8779814D01*
X1970379Y8786977D01*
X1973681Y8797798D01*
X1975408Y8809024D01*
X1975408Y8820353D01*
X1973681Y8831580D01*
X1970379Y8842451D01*
X1966925Y8849614D01*
X1965909Y8853982D01*
X1965909Y8881922D01*
X1965198Y8888222D01*
X1963267Y8893708D01*
X1960219Y8898585D01*
X1956104Y8902700D01*
X1951228Y8905748D01*
X1945741Y8907678D01*
X1939442Y8908389D01*
X1931060Y8908389D01*
X1927199Y8909151D01*
X1923897Y8911386D01*
X1921662Y8914638D01*
X1920900Y8918549D01*
X1920900Y9084310D01*
X1921662Y9088221D01*
X1923897Y9091523D01*
X2173478Y9341104D01*
X2176780Y9343339D01*
X2180691Y9344101D01*
X2634437Y9344101D01*
X2640736Y9344812D01*
X2646222Y9346692D01*
X2651099Y9349790D01*
X2655214Y9353854D01*
X2658262Y9358782D01*
X2660192Y9364218D01*
X2661158Y9368536D01*
X2664307Y9372701D01*
X2670708Y9382048D01*
X2675636Y9392259D01*
X2678988Y9403130D01*
X2680665Y9414357D01*
X2680665Y9425686D01*
X2678988Y9436912D01*
X2675636Y9447733D01*
X2670708Y9457944D01*
X2664307Y9467291D01*
X2661158Y9471456D01*
X2660192Y9475724D01*
X2658262Y9481210D01*
X2655214Y9486087D01*
X2651099Y9490202D01*
X2646222Y9493250D01*
X2640736Y9495180D01*
X2634437Y9495891D01*
X2538577Y9495891D01*
X2534412Y9496806D01*
X2531008Y9499295D01*
X2528925Y9503003D01*
X2528519Y9507270D01*
X2529890Y9511284D01*
X2532786Y9514382D01*
X2536240Y9516821D01*
X2543149Y9523730D01*
X2548788Y9531807D01*
X2552954Y9540697D01*
X2555494Y9550196D01*
X2556357Y9559950D01*
X2555494Y9569754D01*
X2552954Y9579254D01*
X2548788Y9588144D01*
X2543149Y9596221D01*
X2536240Y9603130D01*
X2528163Y9608769D01*
X2520442Y9612376D01*
X2517597Y9614408D01*
X2496108Y9635845D01*
X2492705Y9638995D01*
X2489149Y9641687D01*
X2485390Y9644075D01*
X2481478Y9646158D01*
X2477363Y9647834D01*
X2473147Y9649155D01*
X2468778Y9650120D01*
X2464409Y9650730D01*
X2459736Y9650933D01*
X2404414Y9650933D01*
X2400808Y9651593D01*
X2397658Y9653473D01*
X2395423Y9656419D01*
X2394356Y9659924D01*
X2394051Y9662363D01*
X2392172Y9667849D01*
X2389073Y9672726D01*
X2385009Y9676841D01*
X2380081Y9679889D01*
X2374646Y9681819D01*
X2368296Y9682530D01*
X2231745Y9682530D01*
X2225395Y9681819D01*
X2219960Y9679889D01*
X2215032Y9676841D01*
X2210968Y9672726D01*
X2207869Y9667849D01*
X2205990Y9662363D01*
X2205278Y9656064D01*
X2205278Y9543948D01*
X2205990Y9537598D01*
X2207869Y9532162D01*
X2210968Y9527286D01*
X2215032Y9523171D01*
X2219960Y9520072D01*
X2225395Y9518192D01*
X2231745Y9517481D01*
X2368296Y9517481D01*
X2374646Y9518192D01*
X2380081Y9520072D01*
X2385009Y9523171D01*
X2389073Y9527286D01*
X2392172Y9532162D01*
X2394051Y9537598D01*
X2394356Y9540087D01*
X2395423Y9543592D01*
X2397658Y9546539D01*
X2400808Y9548418D01*
X2404414Y9549079D01*
X2434691Y9549079D01*
X2438552Y9548317D01*
X2441854Y9546132D01*
X2445562Y9542373D01*
X2447594Y9539528D01*
X2451201Y9531807D01*
X2456840Y9523730D01*
X2463749Y9516821D01*
X2467203Y9514382D01*
X2470099Y9511284D01*
X2471470Y9507270D01*
X2471064Y9503003D01*
X2468981Y9499295D01*
X2465578Y9496806D01*
X2461412Y9495891D01*
X2145233Y9495891D01*
X2141270Y9495739D01*
X2137156Y9496450D01*
X2133650Y9498736D01*
X2098852Y9533534D01*
X2096668Y9536836D01*
X2095906Y9540697D01*
X2095906Y9659416D01*
X2095144Y9665716D01*
X2093264Y9671202D01*
X2090166Y9676079D01*
X2086102Y9680194D01*
X2081174Y9683242D01*
X2075738Y9685172D01*
X2069388Y9685883D01*
X1930603Y9685883D01*
X1924253Y9685172D01*
X1918817Y9683242D01*
X1913889Y9680194D01*
X1909825Y9676079D01*
X1906727Y9671202D01*
X1904847Y9665716D01*
X1904136Y9659416D01*
X1904136Y9530486D01*
X1904847Y9524187D01*
X1906727Y9518700D01*
X1909825Y9513824D01*
X1913889Y9509709D01*
X1918817Y9506661D01*
X1922475Y9505340D01*
X1926132Y9503156D01*
X1928520Y9499650D01*
X1932787Y9489744D01*
X1938832Y9480092D01*
X1944471Y9473285D01*
X2010511Y9407194D01*
X2012696Y9403892D01*
X2013457Y9399981D01*
X2012696Y9396120D01*
X2010511Y9392818D01*
X1826514Y9208871D01*
X1823262Y9206687D01*
X1819351Y9205874D01*
X1795576Y9205874D01*
X1789226Y9205163D01*
X1783791Y9203283D01*
X1778863Y9200184D01*
X1774799Y9196070D01*
X1771700Y9191193D01*
X1769821Y9185757D01*
X1769110Y9179407D01*
X1769110Y8540546D01*
X1768297Y8536635D01*
X1766112Y8533333D01*
X1641652Y8408873D01*
X1638350Y8406638D01*
X1634439Y8405876D01*
X627329Y8405825D01*
X618490Y8405012D01*
X616051Y8404606D01*
X607466Y8402472D01*
X605129Y8401710D01*
X596900Y8398306D01*
X594715Y8397189D01*
X585063Y8391144D01*
X578205Y8385505D01*
X546608Y8353907D01*
X538937Y8345017D01*
X532892Y8335416D01*
X528370Y8325053D01*
X525424Y8314080D01*
X524154Y8302802D01*
X524611Y8291474D01*
X526694Y8280349D01*
X530453Y8269630D01*
X535736Y8259622D01*
X542493Y8250478D01*
X550519Y8242452D01*
X559612Y8235746D01*
X569671Y8230412D01*
X580339Y8226704D01*
X591515Y8224570D01*
X602843Y8224164D01*
X614121Y8225434D01*
X625043Y8228380D01*
X635457Y8232902D01*
X645058Y8238947D01*
X653948Y8246567D01*
X658469Y8251088D01*
X661771Y8253323D01*
X665632Y8254085D01*
X701040Y8254085D01*
X704392Y8253526D01*
X707390Y8251850D01*
X709625Y8249310D01*
X710946Y8247227D01*
X715010Y8243163D01*
X719937Y8240064D01*
X725373Y8238134D01*
X731723Y8237423D01*
X868273Y8237423D01*
X874623Y8238134D01*
X880059Y8240064D01*
X884986Y8243163D01*
X889050Y8247227D01*
X890371Y8249310D01*
X892606Y8251850D01*
X895603Y8253526D01*
X898956Y8254085D01*
X1624482Y8254085D01*
X1628343Y8253272D01*
X1631645Y8251088D01*
X1676958Y8205774D01*
X1679346Y8202015D01*
X1679905Y8197596D01*
X1679143Y8190077D01*
X1678127Y8186521D01*
X1675841Y8183575D01*
X1672691Y8181594D01*
X1669034Y8180933D01*
X1447647Y8180933D01*
X1443786Y8181695D01*
X1440484Y8183880D01*
X1436217Y8188147D01*
X1428191Y8193786D01*
X1419250Y8197951D01*
X1409801Y8200491D01*
X1399997Y8201355D01*
X1390192Y8200491D01*
X1380744Y8197951D01*
X1371803Y8193786D01*
X1363776Y8188147D01*
X1356817Y8181238D01*
X1351178Y8173161D01*
X1347063Y8164271D01*
X1344523Y8154771D01*
X1343660Y8144967D01*
X1344269Y8137906D01*
X1343863Y8134096D01*
X1342136Y8130692D01*
X1339240Y8128203D01*
X1335633Y8126984D01*
X1331823Y8127136D01*
X1319276Y8132927D01*
X1309776Y8135467D01*
X1300022Y8136331D01*
X1290218Y8135467D01*
X1280718Y8132927D01*
X1271828Y8128812D01*
X1263751Y8123174D01*
X1256842Y8116214D01*
X1251204Y8108188D01*
X1247038Y8099247D01*
X1244498Y8089798D01*
X1243634Y8079994D01*
X1244498Y8070189D01*
X1247038Y8060740D01*
X1251204Y8051800D01*
X1256842Y8043773D01*
X1263751Y8036814D01*
X1271828Y8031175D01*
X1280718Y8027060D01*
X1290218Y8024520D01*
X1300022Y8023656D01*
X1309776Y8024520D01*
X1319276Y8027060D01*
X1328166Y8031175D01*
X1339646Y8039201D01*
X1343406Y8040014D01*
X1705203Y8047990D01*
X1709267Y8047228D01*
X1712671Y8044942D01*
X1714906Y8041436D01*
X1715566Y8037372D01*
X1714550Y8033359D01*
X1712010Y8030108D01*
X1708353Y8028127D01*
X1704746Y8027009D01*
X1701800Y8026552D01*
X1681581Y8026552D01*
X1682191Y8024672D01*
X1684832Y8019694D01*
X1685899Y8016544D01*
X1685899Y8013242D01*
X1684832Y8010093D01*
X1682191Y8005165D01*
X1679905Y7997647D01*
X1679143Y7989874D01*
X1679905Y7982102D01*
X1682191Y7974634D01*
X1684832Y7969656D01*
X1685899Y7966506D01*
X1685899Y7963204D01*
X1684832Y7960055D01*
X1682191Y7955127D01*
X1679905Y7947609D01*
X1679143Y7939836D01*
X1679905Y7932064D01*
X1682191Y7924596D01*
X1685848Y7917688D01*
X1690827Y7911642D01*
X1696872Y7906715D01*
X1703730Y7903006D01*
X1711248Y7900771D01*
X1719529Y7899958D01*
X1780489Y7899958D01*
X1788769Y7900771D01*
X1796237Y7903006D01*
X1802790Y7906512D01*
X1806905Y7907680D01*
X1811172Y7907070D01*
X1814779Y7904734D01*
X1817116Y7901127D01*
X1817725Y7896910D01*
X1816557Y7892796D01*
X1813052Y7886242D01*
X1810766Y7878775D01*
X1809953Y7870494D01*
X1809953Y7862112D01*
X1809191Y7858252D01*
X1807006Y7854950D01*
X1771446Y7819390D01*
X1766011Y7812786D01*
X1762252Y7805724D01*
X1759915Y7798053D01*
X1759102Y7789621D01*
X1759102Y7586065D01*
X1758340Y7582153D01*
X1756105Y7578852D01*
X1752803Y7576667D01*
X1748942Y7575905D01*
X1745589Y7575905D01*
X1739239Y7575194D01*
X1733804Y7573264D01*
X1728876Y7570165D01*
X1724812Y7566101D01*
X1721713Y7561173D01*
X1719783Y7555738D01*
X1719122Y7549896D01*
X1718056Y7546390D01*
X1715820Y7543495D01*
X1712671Y7541564D01*
X1709064Y7540904D01*
X1700479Y7540904D01*
X1692046Y7540040D01*
X1684375Y7537754D01*
X1677314Y7533944D01*
X1670710Y7528559D01*
X1571447Y7429246D01*
X1566011Y7422692D01*
X1562252Y7415631D01*
X1559915Y7407960D01*
X1559102Y7399477D01*
X1559102Y7100468D01*
X1559915Y7092035D01*
X1562252Y7084364D01*
X1566011Y7077303D01*
X1571447Y7070699D01*
X1670710Y6971436D01*
X1677314Y6966000D01*
X1684375Y6962241D01*
X1692046Y6959904D01*
X1700479Y6959092D01*
X1728927Y6959092D01*
X1732838Y6958279D01*
X1736089Y6956094D01*
X1738325Y6952792D01*
X1739087Y6948931D01*
X1739087Y6833108D01*
X1739798Y6826758D01*
X1741728Y6821322D01*
X1744776Y6816394D01*
X1748891Y6812330D01*
X1753768Y6809231D01*
X1758289Y6806895D01*
X1760626Y6803898D01*
X1761743Y6800240D01*
X1762455Y6792671D01*
X1764639Y6785457D01*
X1768195Y6778802D01*
X1773275Y6772605D01*
X1872386Y6673240D01*
X1878584Y6668160D01*
X1885188Y6664604D01*
X1892401Y6662420D01*
X1900428Y6661607D01*
X2399538Y6661607D01*
X2407513Y6662369D01*
X2414727Y6664553D01*
X2421382Y6668109D01*
X2427579Y6673189D01*
X2626766Y6872376D01*
X2631846Y6878574D01*
X2635402Y6885228D01*
X2637586Y6892442D01*
X2638348Y6900418D01*
X2638348Y7529779D01*
X2639110Y7533690D01*
X2641346Y7536942D01*
X2763012Y7658608D01*
X2766263Y7660843D01*
X2770174Y7661605D01*
X6054801Y7661605D01*
X6058662Y7660843D01*
X6061964Y7658608D01*
X6063742Y7656830D01*
X6071819Y7651191D01*
X6080709Y7647025D01*
X6090208Y7644485D01*
X6100013Y7643622D01*
X6109766Y7644485D01*
X6119266Y7647025D01*
X6128156Y7651191D01*
X6136233Y7656830D01*
X6143142Y7663738D01*
X6148781Y7671816D01*
X6152946Y7680706D01*
X6155486Y7690205D01*
X6156350Y7699959D01*
X6155486Y7709763D01*
X6152946Y7719263D01*
X6148781Y7728153D01*
X6143142Y7736230D01*
X6133236Y7746288D01*
X6131864Y7750352D01*
X6132271Y7754569D01*
X6134404Y7758277D01*
X6137808Y7760766D01*
X6141974Y7761681D01*
X6179769Y7761681D01*
X6183630Y7760919D01*
X6186932Y7758684D01*
X6471107Y7474559D01*
X6473291Y7471257D01*
X6474104Y7467346D01*
X6474104Y7447584D01*
X6474815Y7441234D01*
X6476695Y7435799D01*
X6477914Y7433919D01*
X6479286Y7430363D01*
X6479286Y7426604D01*
X6477914Y7423099D01*
X6476695Y7421219D01*
X6474815Y7415733D01*
X6474104Y7409434D01*
X6474104Y7320584D01*
X6474815Y7314234D01*
X6476695Y7308799D01*
X6477914Y7306919D01*
X6479286Y7303363D01*
X6479286Y7299604D01*
X6477914Y7296099D01*
X6476695Y7294219D01*
X6474815Y7288733D01*
X6474104Y7282434D01*
X6474104Y7193584D01*
X6474815Y7187234D01*
X6476695Y7181799D01*
X6477914Y7179919D01*
X6479286Y7176363D01*
X6479286Y7172604D01*
X6477914Y7169099D01*
X6476695Y7167219D01*
X6474815Y7161733D01*
X6474104Y7155434D01*
X6474104Y7066584D01*
X6474815Y7060234D01*
X6476695Y7054799D01*
X6477914Y7052919D01*
X6479286Y7049363D01*
X6479286Y7045604D01*
X6477914Y7042099D01*
X6476695Y7040219D01*
X6474815Y7034733D01*
X6474104Y7028434D01*
X6474104Y6939584D01*
X6474815Y6933234D01*
X6476695Y6927799D01*
X6477914Y6925919D01*
X6479286Y6922363D01*
X6479286Y6918604D01*
X6477914Y6915099D01*
X6476695Y6913219D01*
X6474815Y6907733D01*
X6474104Y6901434D01*
X6474104Y6812584D01*
X6474815Y6806234D01*
X6476695Y6800799D01*
X6479794Y6795871D01*
X6483858Y6791807D01*
X6488785Y6788708D01*
X6494221Y6786778D01*
X6500571Y6786067D01*
X6699402Y6786067D01*
X6705752Y6786778D01*
X6711188Y6788708D01*
X6716115Y6791807D01*
X6720179Y6795871D01*
X6723278Y6800799D01*
X6725208Y6806234D01*
X6725920Y6812584D01*
X6725920Y6901434D01*
X6725208Y6907733D01*
X6723278Y6913219D01*
X6722109Y6915099D01*
X6720738Y6918604D01*
X6720738Y6922363D01*
X6722109Y6925919D01*
X6723278Y6927799D01*
X6725208Y6933234D01*
X6725920Y6939584D01*
X6725920Y7028434D01*
X6725208Y7034733D01*
X6723278Y7040219D01*
X6722109Y7042099D01*
X6720738Y7045604D01*
X6720738Y7049363D01*
X6722109Y7052919D01*
X6723278Y7054799D01*
X6725208Y7060234D01*
X6725920Y7066584D01*
X6725920Y7155434D01*
X6725208Y7161733D01*
X6723278Y7167219D01*
X6722109Y7169099D01*
X6720738Y7172604D01*
X6720738Y7176363D01*
X6722109Y7179919D01*
X6723278Y7181799D01*
X6725208Y7187234D01*
X6725564Y7190536D01*
X6726631Y7194092D01*
X6728866Y7196988D01*
X6732016Y7198918D01*
X6735673Y7199579D01*
X7141870Y7199579D01*
X7145781Y7198817D01*
X7149033Y7196581D01*
X7358634Y6986981D01*
X7360869Y6983730D01*
X7361631Y6979818D01*
X7361631Y6320078D01*
X7360869Y6316167D01*
X7358634Y6312916D01*
X6687058Y5641340D01*
X6683806Y5639104D01*
X6679895Y5638342D01*
X1819960Y5638342D01*
X1816049Y5639104D01*
X1812798Y5641340D01*
X1266748Y6187338D01*
X1264513Y6190742D01*
X1263802Y6194704D01*
X1264666Y6198666D01*
X1267663Y6205270D01*
X1272184Y6219799D01*
X1274927Y6234785D01*
X1275842Y6249924D01*
X1274927Y6265113D01*
X1272184Y6280048D01*
X1267663Y6294577D01*
X1261414Y6308445D01*
X1253540Y6321450D01*
X1244193Y6333439D01*
X1233424Y6344158D01*
X1221435Y6353556D01*
X1208430Y6361430D01*
X1194612Y6367627D01*
X1180084Y6372148D01*
X1165098Y6374892D01*
X1149959Y6375806D01*
X1134770Y6374892D01*
X1119835Y6372148D01*
X1105306Y6367627D01*
X1091438Y6361430D01*
X1078433Y6353556D01*
X1066444Y6344158D01*
X1055725Y6333439D01*
X1046327Y6321450D01*
X1038453Y6308445D01*
X1032154Y6294323D01*
X1029919Y6291173D01*
X1026668Y6289090D01*
X1022858Y6288379D01*
X777036Y6288379D01*
X773226Y6289090D01*
X769975Y6291173D01*
X767740Y6294323D01*
X761441Y6308445D01*
X753567Y6321450D01*
X744169Y6333439D01*
X733450Y6344158D01*
X721461Y6353556D01*
X708456Y6361430D01*
X694588Y6367627D01*
X680059Y6372148D01*
X665124Y6374892D01*
X649935Y6375806D01*
X634796Y6374892D01*
X619810Y6372148D01*
X605282Y6367627D01*
X591464Y6361430D01*
X578459Y6353556D01*
X566470Y6344158D01*
X555701Y6333439D01*
X546354Y6321450D01*
X538480Y6308445D01*
X532231Y6294577D01*
X527710Y6280048D01*
X524967Y6265113D01*
X524052Y6249924D01*
X524967Y6234785D01*
X527710Y6219799D01*
X532231Y6205270D01*
X538480Y6191453D01*
X546354Y6178448D01*
X555701Y6166459D01*
X566470Y6155690D01*
X578459Y6146342D01*
X591464Y6138468D01*
X605282Y6132220D01*
X619810Y6127699D01*
X634796Y6124956D01*
X649935Y6124041D01*
X665124Y6124956D01*
X680059Y6127699D01*
X694588Y6132220D01*
X708456Y6138468D01*
X721461Y6146342D01*
X733450Y6155690D01*
X744169Y6166459D01*
X753567Y6178448D01*
X761441Y6191453D01*
X767791Y6205575D01*
X769975Y6208725D01*
X773226Y6210808D01*
X777036Y6211519D01*
X1022858Y6211519D01*
X1026668Y6210808D01*
X1029919Y6208725D01*
X1032103Y6205575D01*
X1038453Y6191453D01*
X1046327Y6178448D01*
X1055725Y6166459D01*
X1066444Y6155690D01*
X1078433Y6146342D01*
X1091438Y6138468D01*
X1105306Y6132220D01*
X1119835Y6127699D01*
X1134770Y6124956D01*
X1149959Y6124041D01*
X1165098Y6124956D01*
X1180084Y6127699D01*
X1194612Y6132220D01*
X1201064Y6135116D01*
X1205026Y6136030D01*
X1209040Y6135319D01*
X1212392Y6133033D01*
X1772310Y5573115D01*
X1778507Y5568035D01*
X1785162Y5564479D01*
X1792376Y5562295D01*
X1800352Y5561533D01*
X6699503Y5561533D01*
X6707479Y5562295D01*
X6714693Y5564479D01*
X6721348Y5568035D01*
X6727545Y5573115D01*
X7426858Y6272428D01*
X7431938Y6278626D01*
X7435494Y6285280D01*
X7437678Y6292494D01*
X7438440Y6300470D01*
X7438440Y6999427D01*
X7437678Y7007402D01*
X7435494Y7014616D01*
X7431938Y7021271D01*
X7426858Y7027468D01*
X7189520Y7264806D01*
X7183323Y7269886D01*
X7176668Y7273442D01*
X7169454Y7275626D01*
X7161479Y7276388D01*
X6735673Y7276388D01*
X6732016Y7277049D01*
X6728866Y7278979D01*
X6726631Y7281875D01*
X6725564Y7285431D01*
X6725208Y7288733D01*
X6723278Y7294219D01*
X6722109Y7296099D01*
X6720738Y7299604D01*
X6720738Y7303363D01*
X6722109Y7306919D01*
X6723278Y7308799D01*
X6725208Y7314234D01*
X6725564Y7317536D01*
X6726631Y7321092D01*
X6728866Y7323988D01*
X6732016Y7325918D01*
X6735673Y7326579D01*
X7214870Y7326579D01*
X7218781Y7325817D01*
X7222032Y7323581D01*
X7458608Y7087057D01*
X7460792Y7083755D01*
X7461554Y7079894D01*
X7461453Y6220002D01*
X7460691Y6216091D01*
X7458456Y6212840D01*
X6687058Y5441442D01*
X6683806Y5439206D01*
X6679895Y5438444D01*
X1800352Y5438444D01*
X1792376Y5437682D01*
X1785162Y5435498D01*
X1778507Y5431942D01*
X1772310Y5426862D01*
X1212443Y4866944D01*
X1209040Y4864709D01*
X1205026Y4863947D01*
X1201064Y4864862D01*
X1194612Y4867757D01*
X1180084Y4872278D01*
X1165098Y4875022D01*
X1149959Y4875936D01*
X1134770Y4875022D01*
X1119835Y4872278D01*
X1105306Y4867757D01*
X1091438Y4861560D01*
X1078433Y4853686D01*
X1066444Y4844288D01*
X1055725Y4833569D01*
X1046327Y4821580D01*
X1038453Y4808575D01*
X1032154Y4794453D01*
X1029919Y4791303D01*
X1026668Y4789220D01*
X1022858Y4788509D01*
X777036Y4788509D01*
X773226Y4789220D01*
X769975Y4791303D01*
X767740Y4794453D01*
X761441Y4808575D01*
X753567Y4821580D01*
X744169Y4833569D01*
X733450Y4844288D01*
X721461Y4853686D01*
X708456Y4861560D01*
X694588Y4867757D01*
X680059Y4872278D01*
X665124Y4875022D01*
X649935Y4875936D01*
X634796Y4875022D01*
X619810Y4872278D01*
X605282Y4867757D01*
X591464Y4861560D01*
X578459Y4853686D01*
X566470Y4844288D01*
X555701Y4833569D01*
X546354Y4821580D01*
X538480Y4808575D01*
X532231Y4794707D01*
X527710Y4780178D01*
X524967Y4765243D01*
X524052Y4750054D01*
X524967Y4734915D01*
X527710Y4719929D01*
X532231Y4705400D01*
X538480Y4691583D01*
X546354Y4678578D01*
X555701Y4666589D01*
X566470Y4655820D01*
X578459Y4646472D01*
X591464Y4638598D01*
X605282Y4632350D01*
X619810Y4627829D01*
X634796Y4625086D01*
G37*
G36*
X2821787Y8571890D02*
G01*
X2867152Y8571890D01*
X2867152Y8617305D01*
X2864408Y8616086D01*
X2853131Y8609228D01*
X2842818Y8600897D01*
X2833827Y8591194D01*
X2826156Y8580374D01*
G37*
G36*
X4806340Y4637532D02*
G01*
X4808524Y4638497D01*
X4821529Y4646371D01*
X4833467Y4655718D01*
X4844237Y4666488D01*
X4853584Y4678476D01*
X4861458Y4691481D01*
X4862423Y4693615D01*
X4806340Y4693615D01*
G37*
G36*
X5306364Y4637532D02*
G01*
X5308498Y4638497D01*
X5321503Y4646371D01*
X5333492Y4655718D01*
X5344210Y4666488D01*
X5353608Y4678476D01*
X5361482Y4691481D01*
X5362448Y4693615D01*
X5306364Y4693615D01*
G37*
G36*
X4693666Y4637532D02*
G01*
X4693666Y4693615D01*
X4637582Y4693615D01*
X4638548Y4691481D01*
X4646422Y4678476D01*
X4655769Y4666488D01*
X4666538Y4655718D01*
X4678476Y4646371D01*
X4691481Y4638497D01*
G37*
G36*
X5193639Y4637532D02*
G01*
X5193639Y4693615D01*
X5137556Y4693615D01*
X5138521Y4691481D01*
X5146395Y4678476D01*
X5155793Y4666488D01*
X5166512Y4655718D01*
X5178501Y4646371D01*
X5191506Y4638497D01*
G37*
G36*
X705256Y8554669D02*
G01*
X759206Y8554669D01*
X759206Y8602522D01*
X731723Y8602522D01*
X725373Y8601811D01*
X719937Y8599881D01*
X715010Y8596833D01*
X710946Y8592718D01*
X707847Y8587841D01*
X705967Y8582355D01*
X705256Y8576056D01*
G37*
G36*
X840790Y8554669D02*
G01*
X894740Y8554669D01*
X894740Y8576056D01*
X894029Y8582355D01*
X892149Y8587841D01*
X889050Y8592718D01*
X884986Y8596833D01*
X880059Y8599881D01*
X874623Y8601811D01*
X868273Y8602522D01*
X840790Y8602522D01*
G37*
G36*
X1133856Y8541308D02*
G01*
X1180896Y8541308D01*
X1180896Y8559393D01*
X1180185Y8565743D01*
X1178306Y8571179D01*
X1175207Y8576106D01*
X1171092Y8580170D01*
X1166215Y8583269D01*
X1160729Y8585200D01*
X1154430Y8585911D01*
X1133856Y8585911D01*
G37*
G36*
X1333957Y8541308D02*
G01*
X1380998Y8541308D01*
X1380998Y8559393D01*
X1380286Y8565743D01*
X1378407Y8571179D01*
X1375308Y8576106D01*
X1371193Y8580170D01*
X1366316Y8583269D01*
X1360830Y8585200D01*
X1354531Y8585911D01*
X1333957Y8585911D01*
G37*
G36*
X5137556Y4806289D02*
G01*
X5193639Y4806289D01*
X5193639Y4862423D01*
X5191506Y4861458D01*
X5178501Y4853584D01*
X5166512Y4844186D01*
X5155793Y4833467D01*
X5146395Y4821478D01*
X5138521Y4808474D01*
G37*
G36*
X4806340Y4806289D02*
G01*
X4862423Y4806289D01*
X4861458Y4808474D01*
X4853584Y4821478D01*
X4844237Y4833467D01*
X4833467Y4844186D01*
X4821529Y4853584D01*
X4808524Y4861458D01*
X4806340Y4862423D01*
G37*
G36*
X5306364Y4806289D02*
G01*
X5362448Y4806289D01*
X5361482Y4808474D01*
X5353608Y4821478D01*
X5344210Y4833467D01*
X5333492Y4844186D01*
X5321503Y4853584D01*
X5308498Y4861458D01*
X5306364Y4862423D01*
G37*
G36*
X4637582Y4806289D02*
G01*
X4693666Y4806289D01*
X4693666Y4862423D01*
X4691481Y4861458D01*
X4678476Y4853584D01*
X4666538Y4844186D01*
X4655769Y4833467D01*
X4646422Y4821478D01*
X4638548Y4808474D01*
G37*
G36*
X1533855Y8541308D02*
G01*
X1580896Y8541308D01*
X1580896Y8559393D01*
X1580184Y8565743D01*
X1578305Y8571179D01*
X1575206Y8576106D01*
X1571091Y8580170D01*
X1566214Y8583269D01*
X1560728Y8585200D01*
X1554429Y8585911D01*
X1533855Y8585911D01*
G37*
G36*
X1019098Y8541308D02*
G01*
X1066139Y8541308D01*
X1066139Y8585911D01*
X1045565Y8585911D01*
X1039266Y8585200D01*
X1033780Y8583269D01*
X1028903Y8580170D01*
X1024788Y8576106D01*
X1021689Y8571179D01*
X1019810Y8565743D01*
X1019098Y8559393D01*
G37*
G36*
X1219200Y8541308D02*
G01*
X1266240Y8541308D01*
X1266240Y8585911D01*
X1245666Y8585911D01*
X1239367Y8585200D01*
X1233881Y8583269D01*
X1229004Y8580170D01*
X1224889Y8576106D01*
X1221790Y8571179D01*
X1219911Y8565743D01*
X1219200Y8559393D01*
G37*
G36*
X1419098Y8541308D02*
G01*
X1466138Y8541308D01*
X1466138Y8585911D01*
X1445564Y8585911D01*
X1439265Y8585200D01*
X1433779Y8583269D01*
X1428902Y8580170D01*
X1424787Y8576106D01*
X1421688Y8571179D01*
X1419809Y8565743D01*
X1419098Y8559393D01*
G37*
G36*
X209194Y8478824D02*
G01*
X274828Y8478824D01*
X273558Y8481822D01*
X267106Y8492388D01*
X259283Y8502040D01*
X250240Y8510473D01*
X240080Y8517636D01*
X229057Y8523325D01*
X217373Y8527491D01*
X209194Y8529218D01*
G37*
G36*
X2950972Y8442655D02*
G01*
X2953664Y8443874D01*
X2964992Y8450732D01*
X2975254Y8459063D01*
X2984296Y8468766D01*
X2991916Y8479586D01*
X2996336Y8488070D01*
X2950972Y8488070D01*
G37*
G36*
X2867152Y8442655D02*
G01*
X2867152Y8488070D01*
X2821787Y8488070D01*
X2826156Y8479586D01*
X2833827Y8468766D01*
X2842818Y8459063D01*
X2853131Y8450732D01*
X2864408Y8443874D01*
G37*
G36*
X840790Y8437473D02*
G01*
X868273Y8437473D01*
X874623Y8438184D01*
X880059Y8440064D01*
X884986Y8443163D01*
X889050Y8447227D01*
X892149Y8452154D01*
X894029Y8457590D01*
X894740Y8463940D01*
X894740Y8485327D01*
X840790Y8485327D01*
G37*
G36*
X731723Y8437473D02*
G01*
X759206Y8437473D01*
X759206Y8485327D01*
X705256Y8485327D01*
X705256Y8463940D01*
X705967Y8457590D01*
X707847Y8452154D01*
X710946Y8447227D01*
X715010Y8443163D01*
X719937Y8440064D01*
X725373Y8438184D01*
G37*
G36*
X1206296Y5637479D02*
G01*
X1208430Y5638444D01*
X1221435Y5646318D01*
X1233424Y5655716D01*
X1244193Y5666435D01*
X1253540Y5678424D01*
X1261414Y5691428D01*
X1262380Y5693562D01*
X1206296Y5693562D01*
G37*
G36*
X1093622Y5637479D02*
G01*
X1093622Y5693562D01*
X1037488Y5693562D01*
X1038453Y5691428D01*
X1046327Y5678424D01*
X1055725Y5666435D01*
X1066444Y5655716D01*
X1078433Y5646318D01*
X1091438Y5638444D01*
G37*
G36*
X706323Y5637479D02*
G01*
X708456Y5638444D01*
X721461Y5646318D01*
X733450Y5655716D01*
X744169Y5666435D01*
X753567Y5678424D01*
X761441Y5691428D01*
X762406Y5693562D01*
X706323Y5693562D01*
G37*
G36*
X593598Y5637479D02*
G01*
X593598Y5693562D01*
X537514Y5693562D01*
X538480Y5691428D01*
X546354Y5678424D01*
X555701Y5666435D01*
X566470Y5655716D01*
X578459Y5646318D01*
X591464Y5638444D01*
G37*
G36*
X1533855Y8434070D02*
G01*
X1554429Y8434070D01*
X1560728Y8434781D01*
X1566214Y8436711D01*
X1571091Y8439759D01*
X1575206Y8443874D01*
X1578305Y8448751D01*
X1580184Y8454237D01*
X1580896Y8460536D01*
X1580896Y8478621D01*
X1533855Y8478621D01*
G37*
G36*
X1045565Y8434070D02*
G01*
X1066139Y8434070D01*
X1066139Y8478621D01*
X1019098Y8478621D01*
X1019098Y8460536D01*
X1019810Y8454237D01*
X1021689Y8448751D01*
X1024788Y8443874D01*
X1028903Y8439759D01*
X1033780Y8436711D01*
X1039266Y8434781D01*
G37*
G36*
X1333957Y8434070D02*
G01*
X1354531Y8434070D01*
X1360830Y8434781D01*
X1366316Y8436711D01*
X1371193Y8439759D01*
X1375308Y8443874D01*
X1378407Y8448751D01*
X1380286Y8454237D01*
X1380998Y8460536D01*
X1380998Y8478621D01*
X1333957Y8478621D01*
G37*
G36*
X1133856Y8434070D02*
G01*
X1154430Y8434070D01*
X1160729Y8434781D01*
X1166215Y8436711D01*
X1171092Y8439759D01*
X1175207Y8443874D01*
X1178306Y8448751D01*
X1180185Y8454237D01*
X1180896Y8460536D01*
X1180896Y8478621D01*
X1133856Y8478621D01*
G37*
G36*
X1245666Y8434070D02*
G01*
X1266240Y8434070D01*
X1266240Y8478621D01*
X1219200Y8478621D01*
X1219200Y8460536D01*
X1219911Y8454237D01*
X1221790Y8448751D01*
X1224889Y8443874D01*
X1229004Y8439759D01*
X1233881Y8436711D01*
X1239367Y8434781D01*
G37*
G36*
X2700477Y5661355D02*
G01*
X6299504Y5661355D01*
X6307531Y5662168D01*
X6314744Y5664352D01*
X6321399Y5667908D01*
X6327241Y5672734D01*
X6332067Y5678576D01*
X6335623Y5685231D01*
X6337808Y5692444D01*
X6338620Y5700471D01*
X6338620Y7499502D01*
X6337808Y7507528D01*
X6335623Y7514742D01*
X6332067Y7521397D01*
X6327241Y7527239D01*
X6321399Y7532065D01*
X6314744Y7535621D01*
X6307531Y7537805D01*
X6299504Y7538567D01*
X2700528Y7538466D01*
X2692501Y7537653D01*
X2685288Y7535468D01*
X2678582Y7531912D01*
X2672740Y7527137D01*
X2667965Y7521295D01*
X2664409Y7514590D01*
X2662224Y7507376D01*
X2661412Y7499350D01*
X2661412Y5700471D01*
X2662174Y5692444D01*
X2664358Y5685231D01*
X2667914Y5678576D01*
X2672740Y5672734D01*
X2678582Y5667908D01*
X2685237Y5664352D01*
X2692450Y5662168D01*
G37*
G36*
X1037488Y5806287D02*
G01*
X1093622Y5806287D01*
X1093622Y5862370D01*
X1091438Y5861405D01*
X1078433Y5853531D01*
X1066444Y5844133D01*
X1055725Y5833414D01*
X1046327Y5821426D01*
X1038453Y5808421D01*
G37*
G36*
X706323Y5806287D02*
G01*
X762406Y5806287D01*
X761441Y5808421D01*
X753567Y5821426D01*
X744169Y5833414D01*
X733450Y5844133D01*
X721461Y5853531D01*
X708456Y5861405D01*
X706323Y5862370D01*
G37*
G36*
X537514Y5806287D02*
G01*
X593598Y5806287D01*
X593598Y5862370D01*
X591464Y5861405D01*
X578459Y5853531D01*
X566470Y5844133D01*
X555701Y5833414D01*
X546354Y5821426D01*
X538480Y5808421D01*
G37*
G36*
X1206296Y5806287D02*
G01*
X1262380Y5806287D01*
X1261414Y5808421D01*
X1253540Y5821426D01*
X1244193Y5833414D01*
X1233424Y5844133D01*
X1221435Y5853531D01*
X1208430Y5861405D01*
X1206296Y5862370D01*
G37*
G36*
X1445564Y8434070D02*
G01*
X1466138Y8434070D01*
X1466138Y8478621D01*
X1419098Y8478621D01*
X1419098Y8460536D01*
X1419809Y8454237D01*
X1421688Y8448751D01*
X1424787Y8443874D01*
X1428902Y8439759D01*
X1433779Y8436711D01*
X1439265Y8434781D01*
G37*
G36*
X7456119Y8432596D02*
G01*
X7560360Y8432596D01*
X7560360Y8536889D01*
X7456068Y8536889D01*
G37*
G36*
X7639608Y8432596D02*
G01*
X7743901Y8432596D01*
X7743901Y8536889D01*
X7639608Y8536889D01*
G37*
G36*
X7324090Y8432596D02*
G01*
X7376922Y8432596D01*
X7376871Y8536889D01*
X7324090Y8536889D01*
X7324090Y8510574D01*
X7324801Y8504224D01*
X7326680Y8498789D01*
X7329779Y8493861D01*
X7331709Y8491931D01*
X7333945Y8488629D01*
X7334707Y8484717D01*
X7333945Y8480856D01*
X7331709Y8477554D01*
X7329779Y8475624D01*
X7326731Y8470696D01*
X7324801Y8465261D01*
X7324090Y8458962D01*
G37*
G36*
X7823098Y8432596D02*
G01*
X7875879Y8432596D01*
X7875879Y8458962D01*
X7875168Y8465261D01*
X7873288Y8470696D01*
X7870190Y8475624D01*
X7868259Y8477554D01*
X7866024Y8480856D01*
X7865262Y8484768D01*
X7866024Y8488629D01*
X7868259Y8491931D01*
X7870190Y8493861D01*
X7873288Y8498789D01*
X7875168Y8504224D01*
X7875879Y8510574D01*
X7875879Y8536889D01*
X7823098Y8536889D01*
G37*
G36*
X453745Y8361324D02*
G01*
X496773Y8361324D01*
X493572Y8367928D01*
X486511Y8378444D01*
X478028Y8387842D01*
X468274Y8396020D01*
X457555Y8402726D01*
X453745Y8404453D01*
G37*
G36*
X332943Y8361324D02*
G01*
X376021Y8361324D01*
X376021Y8404453D01*
X372211Y8402726D01*
X361442Y8396020D01*
X351739Y8387842D01*
X343255Y8378444D01*
X336194Y8367928D01*
G37*
G36*
X3626256Y8351367D02*
G01*
X3678631Y8351367D01*
X3678631Y8403640D01*
X3674160Y8401558D01*
X3661867Y8393734D01*
X3650640Y8384489D01*
X3640683Y8373872D01*
X3632149Y8362086D01*
G37*
G36*
X3966260Y8351367D02*
G01*
X4018635Y8351367D01*
X4018635Y8403640D01*
X4014165Y8401558D01*
X4001871Y8393734D01*
X3990644Y8384489D01*
X3980687Y8373872D01*
X3972153Y8362086D01*
G37*
G36*
X6000343Y461721D02*
G01*
X8299602Y461721D01*
X8307578Y462483D01*
X8314791Y464667D01*
X8321395Y468223D01*
X8327644Y473303D01*
X9926777Y2072487D01*
X9931857Y2078685D01*
X9935413Y2085339D01*
X9937597Y2092502D01*
X9938410Y2100478D01*
X9938410Y8099501D01*
X9937597Y8107476D01*
X9935413Y8114639D01*
X9931857Y8121294D01*
X9926777Y8127492D01*
X9519513Y8534806D01*
X9513316Y8539886D01*
X9506661Y8543442D01*
X9499447Y8545626D01*
X9491472Y8546388D01*
X8535670Y8546388D01*
X8532012Y8547049D01*
X8528862Y8548979D01*
X8526627Y8551875D01*
X8525560Y8555431D01*
X8525154Y8558733D01*
X8523274Y8564219D01*
X8522055Y8566099D01*
X8520684Y8569604D01*
X8520684Y8573363D01*
X8522055Y8576919D01*
X8523274Y8578799D01*
X8525154Y8584234D01*
X8525865Y8590584D01*
X8525865Y8679434D01*
X8525154Y8685733D01*
X8523274Y8691219D01*
X8522055Y8693099D01*
X8520684Y8696604D01*
X8520684Y8700363D01*
X8522055Y8703919D01*
X8523274Y8705799D01*
X8525154Y8711234D01*
X8525865Y8717584D01*
X8525865Y8806434D01*
X8525154Y8812733D01*
X8523274Y8818219D01*
X8522055Y8820099D01*
X8520684Y8823604D01*
X8520684Y8827363D01*
X8522055Y8830919D01*
X8523274Y8832799D01*
X8525154Y8838234D01*
X8525865Y8844584D01*
X8525865Y8923934D01*
X8526678Y8927795D01*
X8528862Y8931097D01*
X8532164Y8933332D01*
X8536025Y8934094D01*
X8954414Y8934094D01*
X8960713Y8934805D01*
X8966200Y8936685D01*
X8971076Y8939784D01*
X8975191Y8943848D01*
X8978290Y8948775D01*
X8980170Y8954211D01*
X8980881Y8960561D01*
X8980881Y9059418D01*
X8980170Y9065717D01*
X8978290Y9071203D01*
X8975191Y9076080D01*
X8971076Y9080195D01*
X8966200Y9083294D01*
X8960713Y9085173D01*
X8954414Y9085884D01*
X8535822Y9085884D01*
X8531656Y9086799D01*
X8528253Y9089288D01*
X8526170Y9092996D01*
X8525865Y9098584D01*
X8525865Y9114129D01*
X8456320Y9114129D01*
X8456320Y9097060D01*
X8455558Y9093200D01*
X8453374Y9089898D01*
X8450072Y9087662D01*
X8446160Y9086900D01*
X8428736Y9086900D01*
X8425688Y9087358D01*
X8419592Y9089288D01*
X8414054Y9090558D01*
X8408466Y9091422D01*
X8402777Y9091828D01*
X8397138Y9091828D01*
X8391448Y9091422D01*
X8385860Y9090558D01*
X8380323Y9089288D01*
X8374227Y9087358D01*
X8371179Y9086900D01*
X8353806Y9086900D01*
X8349894Y9087662D01*
X8346592Y9089898D01*
X8344408Y9093200D01*
X8343646Y9097060D01*
X8343646Y9114129D01*
X8274050Y9114129D01*
X8274050Y9098584D01*
X8274761Y9092234D01*
X8275777Y9089390D01*
X8276336Y9085580D01*
X8275421Y9081871D01*
X8273186Y9078722D01*
X8269986Y9076639D01*
X8266175Y9075877D01*
X7900365Y9075877D01*
X7888681Y9075013D01*
X7877606Y9072473D01*
X7867040Y9068358D01*
X7857236Y9062669D01*
X7848346Y9055608D01*
X7840675Y9047276D01*
X7834274Y9037929D01*
X7829346Y9027718D01*
X7825994Y9016847D01*
X7824317Y9005671D01*
X7824317Y8994292D01*
X7825994Y8983116D01*
X7829346Y8972245D01*
X7834274Y8962034D01*
X7840675Y8952687D01*
X7848346Y8944356D01*
X7857236Y8937294D01*
X7867040Y8931605D01*
X7877606Y8927490D01*
X7888681Y8924950D01*
X7900365Y8924086D01*
X8135061Y8924086D01*
X8138718Y8923426D01*
X8141868Y8921445D01*
X8144154Y8918549D01*
X8145170Y8914993D01*
X8144509Y8909761D01*
X8143646Y8899956D01*
X8144509Y8890203D01*
X8147050Y8880703D01*
X8151164Y8871813D01*
X8156803Y8863736D01*
X8163763Y8856827D01*
X8171789Y8851188D01*
X8180730Y8847023D01*
X8190179Y8844483D01*
X8199983Y8843619D01*
X8209788Y8844483D01*
X8219236Y8847023D01*
X8224824Y8849614D01*
X8229092Y8850579D01*
X8264296Y8850579D01*
X8267953Y8849918D01*
X8271103Y8847988D01*
X8273338Y8845092D01*
X8274405Y8841536D01*
X8274761Y8838234D01*
X8276691Y8832799D01*
X8277859Y8830919D01*
X8279231Y8827363D01*
X8279231Y8823604D01*
X8277859Y8820099D01*
X8276691Y8818219D01*
X8274761Y8812733D01*
X8274050Y8806434D01*
X8274050Y8717584D01*
X8274761Y8711234D01*
X8276691Y8705799D01*
X8277859Y8703919D01*
X8279231Y8700363D01*
X8279231Y8696604D01*
X8277859Y8693099D01*
X8276691Y8691219D01*
X8274761Y8685733D01*
X8274050Y8679434D01*
X8274050Y8590584D01*
X8274761Y8584234D01*
X8276691Y8578799D01*
X8277859Y8576919D01*
X8279231Y8573363D01*
X8279231Y8569604D01*
X8277859Y8566099D01*
X8276691Y8564219D01*
X8274761Y8558733D01*
X8274050Y8552434D01*
X8274050Y8463584D01*
X8274761Y8457234D01*
X8276691Y8451799D01*
X8277859Y8449919D01*
X8279231Y8446363D01*
X8279231Y8442604D01*
X8277859Y8439099D01*
X8276691Y8437219D01*
X8274761Y8431733D01*
X8274050Y8425434D01*
X8274050Y8336584D01*
X8274761Y8330234D01*
X8276691Y8324799D01*
X8277859Y8322919D01*
X8279231Y8319363D01*
X8279231Y8315604D01*
X8277859Y8312099D01*
X8276691Y8310219D01*
X8274761Y8304733D01*
X8274050Y8298434D01*
X8274050Y8209584D01*
X8274761Y8203234D01*
X8276691Y8197799D01*
X8277859Y8195919D01*
X8279231Y8192363D01*
X8279231Y8188604D01*
X8277859Y8185099D01*
X8276691Y8183219D01*
X8274761Y8177733D01*
X8274050Y8171434D01*
X8274050Y8082584D01*
X8274761Y8076234D01*
X8276691Y8070799D01*
X8277859Y8068919D01*
X8279231Y8065363D01*
X8279231Y8061604D01*
X8277859Y8058099D01*
X8276691Y8056219D01*
X8274761Y8050733D01*
X8274050Y8044434D01*
X8274050Y7955584D01*
X8274761Y7949234D01*
X8276691Y7943799D01*
X8277859Y7941919D01*
X8279231Y7938363D01*
X8279231Y7934604D01*
X8277859Y7931099D01*
X8276691Y7929219D01*
X8274761Y7923733D01*
X8274050Y7917434D01*
X8274050Y7828584D01*
X8274761Y7822234D01*
X8276691Y7816799D01*
X8277859Y7814919D01*
X8279231Y7811363D01*
X8279231Y7807604D01*
X8277859Y7804099D01*
X8276691Y7802219D01*
X8274761Y7796733D01*
X8274050Y7790434D01*
X8274050Y7701584D01*
X8274761Y7695234D01*
X8276691Y7689799D01*
X8277859Y7687919D01*
X8279231Y7684363D01*
X8279231Y7680604D01*
X8277859Y7677099D01*
X8276691Y7675219D01*
X8274761Y7669733D01*
X8274050Y7663434D01*
X8274050Y7574584D01*
X8274761Y7568234D01*
X8276691Y7562799D01*
X8277859Y7560919D01*
X8279231Y7557363D01*
X8279231Y7553604D01*
X8277859Y7550099D01*
X8276691Y7548219D01*
X8274761Y7542733D01*
X8274050Y7536434D01*
X8274050Y7447584D01*
X8274761Y7441234D01*
X8276691Y7435799D01*
X8277859Y7433919D01*
X8279231Y7430363D01*
X8279231Y7426604D01*
X8277859Y7423099D01*
X8276691Y7421219D01*
X8274761Y7415733D01*
X8274050Y7409434D01*
X8274050Y7393838D01*
X8343646Y7393838D01*
X8343646Y7410907D01*
X8344408Y7414818D01*
X8346592Y7418120D01*
X8349894Y7420305D01*
X8353806Y7421067D01*
X8446160Y7421067D01*
X8450072Y7420305D01*
X8453374Y7418120D01*
X8455558Y7414818D01*
X8456320Y7410907D01*
X8456320Y7393838D01*
X8525865Y7393838D01*
X8525865Y7409434D01*
X8525154Y7415733D01*
X8523274Y7421219D01*
X8522055Y7423099D01*
X8520684Y7426604D01*
X8520684Y7430363D01*
X8522055Y7433919D01*
X8523274Y7435799D01*
X8525154Y7441234D01*
X8525865Y7447584D01*
X8525865Y7536434D01*
X8525154Y7542733D01*
X8523274Y7548219D01*
X8522055Y7550099D01*
X8520684Y7553604D01*
X8520684Y7557363D01*
X8522055Y7560919D01*
X8523274Y7562799D01*
X8525154Y7568234D01*
X8525560Y7571536D01*
X8526627Y7575092D01*
X8528862Y7577988D01*
X8532012Y7579918D01*
X8535619Y7580579D01*
X8760866Y7580579D01*
X8764778Y7579817D01*
X8768029Y7577581D01*
X8958580Y7387031D01*
X8960815Y7383780D01*
X8961577Y7379868D01*
X8961577Y6340652D01*
X8960815Y6336741D01*
X8958580Y6333439D01*
X8955278Y6331254D01*
X8951417Y6330492D01*
X8947505Y6331254D01*
X8944254Y6333439D01*
X8933484Y6344208D01*
X8921496Y6353556D01*
X8908491Y6361430D01*
X8894622Y6367678D01*
X8880144Y6372199D01*
X8865158Y6374942D01*
X8850020Y6375857D01*
X8834831Y6374942D01*
X8819845Y6372199D01*
X8805367Y6367678D01*
X8791498Y6361430D01*
X8778494Y6353556D01*
X8766505Y6344208D01*
X8755735Y6333439D01*
X8752484Y6331254D01*
X8748572Y6330492D01*
X8744712Y6331254D01*
X8741410Y6333439D01*
X8739174Y6336741D01*
X8738412Y6340652D01*
X8738412Y7099553D01*
X8737650Y7107529D01*
X8735466Y7114743D01*
X8731910Y7121398D01*
X8726830Y7127595D01*
X8589619Y7264806D01*
X8583422Y7269886D01*
X8576767Y7273442D01*
X8569553Y7275626D01*
X8561578Y7276388D01*
X8535670Y7276388D01*
X8532012Y7277049D01*
X8528862Y7278979D01*
X8526627Y7281875D01*
X8525560Y7285431D01*
X8525154Y7288733D01*
X8523274Y7294219D01*
X8522055Y7296099D01*
X8520684Y7299604D01*
X8520684Y7303363D01*
X8522055Y7306919D01*
X8523274Y7308799D01*
X8525154Y7314234D01*
X8525865Y7320584D01*
X8525865Y7336129D01*
X8456320Y7336129D01*
X8456320Y7319060D01*
X8455558Y7315200D01*
X8453374Y7311898D01*
X8450072Y7309662D01*
X8446160Y7308900D01*
X8353806Y7308900D01*
X8349894Y7309662D01*
X8346592Y7311898D01*
X8344408Y7315200D01*
X8343646Y7319060D01*
X8343646Y7336129D01*
X8274050Y7336129D01*
X8274050Y7320584D01*
X8274761Y7314234D01*
X8276691Y7308799D01*
X8277859Y7306919D01*
X8279231Y7303363D01*
X8279231Y7299604D01*
X8277859Y7296099D01*
X8276691Y7294219D01*
X8274761Y7288733D01*
X8274050Y7282434D01*
X8274050Y7193584D01*
X8274761Y7187234D01*
X8276691Y7181799D01*
X8277859Y7179919D01*
X8279231Y7176363D01*
X8279231Y7172604D01*
X8277859Y7169099D01*
X8276691Y7167219D01*
X8274761Y7161733D01*
X8274050Y7155434D01*
X8274050Y7066584D01*
X8274761Y7060234D01*
X8276691Y7054799D01*
X8277859Y7052919D01*
X8279231Y7049363D01*
X8279231Y7045604D01*
X8277859Y7042099D01*
X8276691Y7040219D01*
X8274761Y7034733D01*
X8274050Y7028434D01*
X8274050Y6939584D01*
X8274761Y6933234D01*
X8276691Y6927799D01*
X8277859Y6925919D01*
X8279231Y6922363D01*
X8279231Y6918604D01*
X8277859Y6915099D01*
X8276691Y6913219D01*
X8274761Y6907733D01*
X8274050Y6901434D01*
X8274050Y6812584D01*
X8274761Y6806234D01*
X8276691Y6800799D01*
X8279790Y6795871D01*
X8283854Y6791807D01*
X8288781Y6788708D01*
X8294217Y6786778D01*
X8300567Y6786067D01*
X8499398Y6786067D01*
X8505748Y6786778D01*
X8511184Y6788708D01*
X8516112Y6791807D01*
X8520176Y6795871D01*
X8523274Y6800799D01*
X8525154Y6806234D01*
X8525865Y6812584D01*
X8525865Y6901434D01*
X8525154Y6907733D01*
X8523274Y6913219D01*
X8522055Y6915099D01*
X8520684Y6918604D01*
X8520684Y6922363D01*
X8522055Y6925919D01*
X8523274Y6927799D01*
X8525154Y6933234D01*
X8525865Y6939584D01*
X8525865Y7028434D01*
X8525154Y7034733D01*
X8523274Y7040219D01*
X8522055Y7042099D01*
X8520684Y7045604D01*
X8520684Y7049363D01*
X8522055Y7052919D01*
X8523274Y7054799D01*
X8525154Y7060234D01*
X8525865Y7066584D01*
X8525865Y7155434D01*
X8525154Y7161733D01*
X8523274Y7167219D01*
X8522055Y7169099D01*
X8520684Y7172604D01*
X8520684Y7176363D01*
X8522055Y7179919D01*
X8523274Y7181799D01*
X8525154Y7187234D01*
X8525560Y7190536D01*
X8526627Y7194092D01*
X8528862Y7196988D01*
X8532012Y7198918D01*
X8535619Y7199579D01*
X8541969Y7199579D01*
X8545880Y7198817D01*
X8549132Y7196581D01*
X8658606Y7087108D01*
X8660841Y7083856D01*
X8661603Y7079945D01*
X8661603Y5520131D01*
X8660841Y5516219D01*
X8658606Y5512968D01*
X8404809Y5259171D01*
X8401913Y5257139D01*
X8398510Y5256225D01*
X8390178Y5255463D01*
X8380730Y5252923D01*
X8371789Y5248808D01*
X8363762Y5243169D01*
X8356803Y5236210D01*
X8351164Y5228183D01*
X8347049Y5219242D01*
X8344509Y5209794D01*
X8343646Y5199989D01*
X8344509Y5190185D01*
X8347049Y5180736D01*
X8351164Y5171795D01*
X8356803Y5163769D01*
X8363762Y5156809D01*
X8371789Y5151170D01*
X8380730Y5147056D01*
X8390178Y5144516D01*
X8399983Y5143652D01*
X8409787Y5144516D01*
X8419236Y5147056D01*
X8428177Y5151170D01*
X8436203Y5156809D01*
X8443163Y5163769D01*
X8448802Y5171795D01*
X8452916Y5180736D01*
X8455456Y5190185D01*
X8456218Y5198516D01*
X8457133Y5201920D01*
X8459165Y5204815D01*
X8726830Y5472480D01*
X8731910Y5478678D01*
X8735466Y5485333D01*
X8737650Y5492546D01*
X8738412Y5500522D01*
X8738412Y5659323D01*
X8739174Y5663184D01*
X8741410Y5666486D01*
X8744712Y5668670D01*
X8748572Y5669483D01*
X8752484Y5668670D01*
X8755735Y5666486D01*
X8766505Y5655716D01*
X8778494Y5646369D01*
X8791498Y5638495D01*
X8793632Y5637530D01*
X8793632Y5693613D01*
X8748572Y5693613D01*
X8744712Y5694375D01*
X8741410Y5696610D01*
X8739174Y5699861D01*
X8738412Y5703773D01*
X8738412Y5796127D01*
X8739174Y5800039D01*
X8741410Y5803341D01*
X8744712Y5805525D01*
X8748572Y5806287D01*
X8793632Y5806287D01*
X8793632Y5862421D01*
X8791498Y5861456D01*
X8778494Y5853582D01*
X8766505Y5844184D01*
X8755735Y5833414D01*
X8752484Y5831230D01*
X8748572Y5830468D01*
X8744712Y5831230D01*
X8741410Y5833414D01*
X8739174Y5836716D01*
X8738412Y5840628D01*
X8738412Y6159296D01*
X8739174Y6163208D01*
X8741410Y6166510D01*
X8744712Y6168694D01*
X8748572Y6169456D01*
X8752484Y6168694D01*
X8755735Y6166510D01*
X8766505Y6155740D01*
X8778494Y6146393D01*
X8791498Y6138519D01*
X8805367Y6132271D01*
X8819845Y6127750D01*
X8834831Y6125006D01*
X8850020Y6124092D01*
X8865158Y6125006D01*
X8880144Y6127750D01*
X8894622Y6132271D01*
X8908491Y6138519D01*
X8921496Y6146393D01*
X8933484Y6155740D01*
X8944254Y6166510D01*
X8947505Y6168694D01*
X8951417Y6169456D01*
X8955278Y6168694D01*
X8958580Y6166510D01*
X8960815Y6163208D01*
X8961577Y6159296D01*
X8961577Y5840628D01*
X8960815Y5836716D01*
X8958580Y5833414D01*
X8955278Y5831230D01*
X8951417Y5830468D01*
X8947505Y5831230D01*
X8944254Y5833414D01*
X8933484Y5844184D01*
X8921496Y5853582D01*
X8908491Y5861456D01*
X8906357Y5862421D01*
X8906357Y5806287D01*
X8951417Y5806287D01*
X8955278Y5805525D01*
X8958580Y5803341D01*
X8960815Y5800039D01*
X8961577Y5796127D01*
X8961577Y5703773D01*
X8960815Y5699861D01*
X8958580Y5696610D01*
X8955278Y5694375D01*
X8951417Y5693613D01*
X8906357Y5693613D01*
X8906357Y5637530D01*
X8908491Y5638495D01*
X8921496Y5646369D01*
X8933484Y5655716D01*
X8944254Y5666486D01*
X8947505Y5668670D01*
X8951417Y5669483D01*
X8955278Y5668670D01*
X8958580Y5666486D01*
X8960815Y5663184D01*
X8961577Y5659323D01*
X8961577Y5618327D01*
X8960916Y5614771D01*
X8959037Y5611622D01*
X8235696Y4791811D01*
X8232241Y4789271D01*
X8228075Y4788408D01*
X7377074Y4788408D01*
X7373264Y4789119D01*
X7370064Y4791202D01*
X7367828Y4794351D01*
X7361478Y4808474D01*
X7353604Y4821478D01*
X7344206Y4833467D01*
X7333488Y4844186D01*
X7321499Y4853584D01*
X7308494Y4861458D01*
X7294625Y4867706D01*
X7280148Y4872228D01*
X7265162Y4874971D01*
X7250023Y4875885D01*
X7234834Y4874971D01*
X7219848Y4872228D01*
X7205370Y4867706D01*
X7191502Y4861458D01*
X7178497Y4853584D01*
X7166508Y4844186D01*
X7155789Y4833467D01*
X7146391Y4821478D01*
X7138517Y4808474D01*
X7132167Y4794351D01*
X7129932Y4791202D01*
X7126731Y4789119D01*
X7122922Y4788408D01*
X6877100Y4788408D01*
X6873290Y4789119D01*
X6870039Y4791202D01*
X6867804Y4794351D01*
X6861454Y4808474D01*
X6853580Y4821478D01*
X6844233Y4833467D01*
X6833463Y4844186D01*
X6821525Y4853584D01*
X6808520Y4861458D01*
X6794652Y4867706D01*
X6780123Y4872228D01*
X6765188Y4874971D01*
X6749999Y4875885D01*
X6734809Y4874971D01*
X6719874Y4872228D01*
X6705346Y4867706D01*
X6691477Y4861458D01*
X6678472Y4853584D01*
X6666534Y4844186D01*
X6655765Y4833467D01*
X6646418Y4821478D01*
X6638544Y4808474D01*
X6632295Y4794605D01*
X6627774Y4780127D01*
X6625031Y4765141D01*
X6624116Y4749952D01*
X6625031Y4734814D01*
X6627774Y4719828D01*
X6632295Y4705350D01*
X6638544Y4691481D01*
X6646418Y4678476D01*
X6655765Y4666488D01*
X6666534Y4655769D01*
X6678472Y4646371D01*
X6691477Y4638497D01*
X6705346Y4632248D01*
X6719874Y4627727D01*
X6734809Y4624984D01*
X6749999Y4624070D01*
X6765188Y4624984D01*
X6780123Y4627727D01*
X6794652Y4632248D01*
X6808520Y4638497D01*
X6821525Y4646371D01*
X6833463Y4655769D01*
X6844233Y4666488D01*
X6853580Y4678476D01*
X6861454Y4691481D01*
X6867804Y4705604D01*
X6870039Y4708753D01*
X6873290Y4710836D01*
X6877100Y4711547D01*
X7122922Y4711547D01*
X7126731Y4710836D01*
X7129932Y4708753D01*
X7132167Y4705604D01*
X7138517Y4691481D01*
X7146391Y4678476D01*
X7155789Y4666488D01*
X7166508Y4655769D01*
X7178497Y4646371D01*
X7191502Y4638497D01*
X7205370Y4632248D01*
X7219848Y4627727D01*
X7234834Y4624984D01*
X7250023Y4624070D01*
X7265162Y4624984D01*
X7280148Y4627727D01*
X7294625Y4632248D01*
X7308494Y4638497D01*
X7321499Y4646371D01*
X7333488Y4655769D01*
X7344206Y4666488D01*
X7353604Y4678476D01*
X7361478Y4691481D01*
X7367828Y4705604D01*
X7370064Y4708753D01*
X7373264Y4710836D01*
X7377074Y4711547D01*
X8252002Y4711649D01*
X8259775Y4712919D01*
X8266836Y4715510D01*
X8273237Y4719472D01*
X8279079Y4724958D01*
X9028430Y5574182D01*
X9033154Y5580684D01*
X9036253Y5587542D01*
X9038031Y5595010D01*
X9038386Y5600344D01*
X9038386Y7399477D01*
X9037624Y7407452D01*
X9035440Y7414666D01*
X9031884Y7421270D01*
X9026804Y7427518D01*
X8808516Y7645806D01*
X8802319Y7650886D01*
X8795664Y7654442D01*
X8788450Y7656626D01*
X8780475Y7657388D01*
X8535670Y7657388D01*
X8532012Y7658049D01*
X8528862Y7659979D01*
X8526627Y7662875D01*
X8525560Y7666431D01*
X8525154Y7669733D01*
X8523274Y7675219D01*
X8522055Y7677099D01*
X8520684Y7680604D01*
X8520684Y7684363D01*
X8522055Y7687919D01*
X8523274Y7689799D01*
X8525154Y7695234D01*
X8525560Y7698536D01*
X8526627Y7702092D01*
X8528862Y7704988D01*
X8532012Y7706918D01*
X8535619Y7707579D01*
X8818067Y7707579D01*
X8821978Y7706817D01*
X8825280Y7704581D01*
X9058605Y7471257D01*
X9060789Y7467955D01*
X9061551Y7464094D01*
X9061653Y3920032D01*
X9060891Y3916121D01*
X9058656Y3912870D01*
X8687054Y3541268D01*
X8683802Y3539032D01*
X8679891Y3538270D01*
X6500622Y3538270D01*
X6492646Y3537508D01*
X6485432Y3535324D01*
X6478828Y3531768D01*
X6472631Y3526688D01*
X6312560Y3366820D01*
X6309156Y3364585D01*
X6305194Y3363823D01*
X6301232Y3364737D01*
X6294628Y3367684D01*
X6280150Y3372205D01*
X6265164Y3374948D01*
X6250025Y3375863D01*
X6234836Y3374948D01*
X6219850Y3372205D01*
X6205372Y3367684D01*
X6191504Y3361436D01*
X6178499Y3353562D01*
X6166510Y3344214D01*
X6155791Y3333445D01*
X6146393Y3321507D01*
X6138519Y3308502D01*
X6132169Y3294379D01*
X6129934Y3291230D01*
X6126734Y3289147D01*
X6122924Y3288385D01*
X5877102Y3288385D01*
X5873292Y3289147D01*
X5870041Y3291230D01*
X5867806Y3294379D01*
X5861456Y3308502D01*
X5853582Y3321507D01*
X5844235Y3333445D01*
X5833465Y3344214D01*
X5821527Y3353562D01*
X5808522Y3361436D01*
X5794654Y3367684D01*
X5780125Y3372205D01*
X5765190Y3374948D01*
X5750001Y3375863D01*
X5734812Y3374948D01*
X5719876Y3372205D01*
X5705348Y3367684D01*
X5691479Y3361436D01*
X5678474Y3353562D01*
X5666536Y3344214D01*
X5655767Y3333445D01*
X5646420Y3321507D01*
X5638546Y3308502D01*
X5632297Y3294634D01*
X5627776Y3280105D01*
X5625033Y3265170D01*
X5624118Y3249980D01*
X5625033Y3234791D01*
X5627776Y3219856D01*
X5632297Y3205327D01*
X5638546Y3191459D01*
X5646420Y3178454D01*
X5655767Y3166516D01*
X5666536Y3155746D01*
X5678474Y3146399D01*
X5691479Y3138525D01*
X5705348Y3132277D01*
X5719876Y3127756D01*
X5734812Y3125012D01*
X5750001Y3124098D01*
X5765190Y3125012D01*
X5780125Y3127756D01*
X5794654Y3132277D01*
X5808522Y3138525D01*
X5821527Y3146399D01*
X5833465Y3155746D01*
X5844235Y3166516D01*
X5853582Y3178454D01*
X5861456Y3191459D01*
X5867806Y3205581D01*
X5870041Y3208731D01*
X5873292Y3210814D01*
X5877102Y3211576D01*
X6122924Y3211576D01*
X6126734Y3210814D01*
X6129934Y3208731D01*
X6132169Y3205581D01*
X6138519Y3191459D01*
X6146393Y3178454D01*
X6155791Y3166516D01*
X6166510Y3155746D01*
X6178499Y3146399D01*
X6191504Y3138525D01*
X6205372Y3132277D01*
X6219850Y3127756D01*
X6234836Y3125012D01*
X6250025Y3124098D01*
X6265164Y3125012D01*
X6280150Y3127756D01*
X6294628Y3132277D01*
X6308496Y3138525D01*
X6321501Y3146399D01*
X6333490Y3155746D01*
X6344208Y3166516D01*
X6353606Y3178454D01*
X6361480Y3191459D01*
X6367729Y3205327D01*
X6372250Y3219856D01*
X6374993Y3234791D01*
X6375908Y3249980D01*
X6374993Y3265170D01*
X6372250Y3280105D01*
X6367729Y3294634D01*
X6364782Y3301136D01*
X6363919Y3305098D01*
X6364630Y3309061D01*
X6366865Y3312464D01*
X6513017Y3458464D01*
X6516319Y3460699D01*
X6520230Y3461461D01*
X8699500Y3461461D01*
X8707475Y3462223D01*
X8714689Y3464407D01*
X8721344Y3467963D01*
X8727541Y3473043D01*
X9126880Y3872382D01*
X9131960Y3878579D01*
X9135516Y3885234D01*
X9137700Y3892448D01*
X9138462Y3900424D01*
X9138412Y7483703D01*
X9137599Y7491679D01*
X9135414Y7498892D01*
X9131858Y7505496D01*
X9126778Y7511694D01*
X8865717Y7772806D01*
X8859520Y7777886D01*
X8852865Y7781442D01*
X8845702Y7783626D01*
X8837726Y7784388D01*
X8535670Y7784388D01*
X8532012Y7785049D01*
X8528862Y7786979D01*
X8526627Y7789875D01*
X8525560Y7793431D01*
X8525154Y7796733D01*
X8523274Y7802219D01*
X8522055Y7804099D01*
X8520684Y7807604D01*
X8520684Y7811363D01*
X8522055Y7814919D01*
X8523274Y7816799D01*
X8525154Y7822234D01*
X8525560Y7825536D01*
X8526627Y7829092D01*
X8528862Y7831988D01*
X8532012Y7833918D01*
X8535619Y7834579D01*
X8906713Y7834579D01*
X8910624Y7833817D01*
X8913926Y7831581D01*
X9158478Y7586980D01*
X9160713Y7583728D01*
X9161475Y7579817D01*
X9161475Y3820210D01*
X9160713Y3816299D01*
X9158478Y3812997D01*
X8787130Y3441446D01*
X8783828Y3439210D01*
X8779967Y3438448D01*
X7300468Y3438448D01*
X7292492Y3437686D01*
X7285278Y3435502D01*
X7278624Y3431946D01*
X7272426Y3426866D01*
X6973163Y3127603D01*
X6968083Y3121406D01*
X6964527Y3114751D01*
X6962343Y3107537D01*
X6961581Y3099562D01*
X6961581Y2520238D01*
X6960819Y2516327D01*
X6958584Y2513076D01*
X6236970Y1791462D01*
X6233718Y1789226D01*
X6229807Y1788464D01*
X3377082Y1788414D01*
X3373272Y1789125D01*
X3370072Y1791207D01*
X3367836Y1794408D01*
X3361486Y1808480D01*
X3353612Y1821484D01*
X3344214Y1833473D01*
X3333496Y1844192D01*
X3321507Y1853590D01*
X3308502Y1861464D01*
X3294634Y1867712D01*
X3280156Y1872234D01*
X3265170Y1874977D01*
X3250031Y1875891D01*
X3234842Y1874977D01*
X3219856Y1872234D01*
X3205378Y1867712D01*
X3191510Y1861464D01*
X3178505Y1853590D01*
X3166516Y1844192D01*
X3155797Y1833473D01*
X3146399Y1821484D01*
X3138525Y1808480D01*
X3132175Y1794357D01*
X3129940Y1791207D01*
X3126740Y1789125D01*
X3122930Y1788414D01*
X2877108Y1788414D01*
X2873298Y1789125D01*
X2870047Y1791207D01*
X2867812Y1794357D01*
X2861462Y1808480D01*
X2853588Y1821484D01*
X2844241Y1833473D01*
X2833471Y1844192D01*
X2821533Y1853590D01*
X2808528Y1861464D01*
X2794660Y1867712D01*
X2780131Y1872234D01*
X2765196Y1874977D01*
X2750007Y1875891D01*
X2734818Y1874977D01*
X2719882Y1872234D01*
X2705354Y1867712D01*
X2691485Y1861464D01*
X2678480Y1853590D01*
X2666542Y1844192D01*
X2655773Y1833473D01*
X2646426Y1821484D01*
X2638552Y1808480D01*
X2632303Y1794611D01*
X2627782Y1780133D01*
X2625039Y1765147D01*
X2624124Y1749958D01*
X2625039Y1734820D01*
X2627782Y1719834D01*
X2632303Y1705356D01*
X2638552Y1691487D01*
X2646426Y1678482D01*
X2655773Y1666493D01*
X2666542Y1655775D01*
X2678480Y1646377D01*
X2691485Y1638503D01*
X2705354Y1632254D01*
X2719882Y1627733D01*
X2734818Y1624990D01*
X2750007Y1624076D01*
X2765196Y1624990D01*
X2780131Y1627733D01*
X2794660Y1632254D01*
X2808528Y1638503D01*
X2821533Y1646377D01*
X2833471Y1655775D01*
X2844241Y1666493D01*
X2853588Y1678482D01*
X2861462Y1691487D01*
X2867812Y1705610D01*
X2870047Y1708759D01*
X2873298Y1710842D01*
X2877108Y1711553D01*
X3122930Y1711553D01*
X3126740Y1710842D01*
X3129940Y1708759D01*
X3132175Y1705610D01*
X3138525Y1691487D01*
X3146399Y1678482D01*
X3155797Y1666493D01*
X3166516Y1655775D01*
X3178505Y1646377D01*
X3191510Y1638503D01*
X3205378Y1632254D01*
X3219856Y1627733D01*
X3234842Y1624990D01*
X3250031Y1624076D01*
X3265170Y1624990D01*
X3280156Y1627733D01*
X3294634Y1632254D01*
X3308502Y1638503D01*
X3321507Y1646377D01*
X3333496Y1655775D01*
X3344214Y1666493D01*
X3353612Y1678482D01*
X3361486Y1691487D01*
X3367836Y1705610D01*
X3370072Y1708759D01*
X3373272Y1710842D01*
X3377082Y1711553D01*
X6249416Y1711655D01*
X6257391Y1712417D01*
X6264605Y1714601D01*
X6271260Y1718157D01*
X6277457Y1723237D01*
X7026808Y2472588D01*
X7031888Y2478786D01*
X7035444Y2485440D01*
X7037628Y2492654D01*
X7038390Y2500630D01*
X7038390Y3079953D01*
X7039152Y3083864D01*
X7041388Y3087116D01*
X7312914Y3358642D01*
X7316165Y3360877D01*
X7320076Y3361639D01*
X7659420Y3361639D01*
X7663281Y3360877D01*
X7666583Y3358642D01*
X7668818Y3355340D01*
X7669580Y3351479D01*
X7668818Y3347567D01*
X7666583Y3344316D01*
X7655763Y3333445D01*
X7646416Y3321507D01*
X7638542Y3308502D01*
X7632293Y3294634D01*
X7627772Y3280105D01*
X7625029Y3265170D01*
X7624114Y3249980D01*
X7625029Y3234791D01*
X7627772Y3219856D01*
X7632293Y3205327D01*
X7638542Y3191459D01*
X7646416Y3178454D01*
X7655763Y3166516D01*
X7666532Y3155746D01*
X7678470Y3146399D01*
X7691475Y3138525D01*
X7705344Y3132277D01*
X7719872Y3127756D01*
X7734808Y3125012D01*
X7749997Y3124098D01*
X7765186Y3125012D01*
X7780121Y3127756D01*
X7794650Y3132277D01*
X7808518Y3138525D01*
X7821523Y3146399D01*
X7833461Y3155746D01*
X7844231Y3166516D01*
X7853578Y3178454D01*
X7861452Y3191459D01*
X7867802Y3205581D01*
X7870037Y3208731D01*
X7873288Y3210814D01*
X7877098Y3211576D01*
X8122920Y3211576D01*
X8126730Y3210814D01*
X8129930Y3208731D01*
X8132165Y3205581D01*
X8138515Y3191459D01*
X8146389Y3178454D01*
X8155787Y3166516D01*
X8166506Y3155746D01*
X8178495Y3146399D01*
X8191500Y3138525D01*
X8205368Y3132277D01*
X8219846Y3127756D01*
X8234832Y3125012D01*
X8250021Y3124098D01*
X8265159Y3125012D01*
X8280146Y3127756D01*
X8294624Y3132277D01*
X8308492Y3138525D01*
X8321497Y3146399D01*
X8333486Y3155746D01*
X8344204Y3166516D01*
X8353602Y3178454D01*
X8361476Y3191459D01*
X8367826Y3205581D01*
X8370062Y3208731D01*
X8373262Y3210814D01*
X8377072Y3211576D01*
X9149384Y3211576D01*
X9157360Y3212338D01*
X9164574Y3214522D01*
X9171228Y3218078D01*
X9177426Y3223158D01*
X9726828Y3772560D01*
X9731908Y3778758D01*
X9735464Y3785412D01*
X9737648Y3792626D01*
X9738410Y3800601D01*
X9738410Y7899501D01*
X9737598Y7907477D01*
X9735413Y7914640D01*
X9731857Y7921294D01*
X9726777Y7927492D01*
X9373514Y8280806D01*
X9367316Y8285886D01*
X9360662Y8289442D01*
X9353448Y8291626D01*
X9345472Y8292388D01*
X8535670Y8292388D01*
X8532012Y8293049D01*
X8528862Y8294979D01*
X8526627Y8297875D01*
X8525560Y8301431D01*
X8525154Y8304733D01*
X8523274Y8310219D01*
X8522055Y8312099D01*
X8520684Y8315604D01*
X8520684Y8319363D01*
X8522055Y8322919D01*
X8523274Y8324799D01*
X8525154Y8330234D01*
X8525560Y8333536D01*
X8526627Y8337092D01*
X8528862Y8339988D01*
X8532012Y8341918D01*
X8535619Y8342579D01*
X9398863Y8342579D01*
X9402775Y8341817D01*
X9406026Y8339581D01*
X9758680Y7986928D01*
X9760915Y7983677D01*
X9761677Y7979765D01*
X9761677Y2220010D01*
X9760915Y2216099D01*
X9758680Y2212848D01*
X9337243Y1791360D01*
X9333941Y1789175D01*
X9330029Y1788414D01*
X7377074Y1788414D01*
X7373264Y1789125D01*
X7370064Y1791207D01*
X7367828Y1794357D01*
X7361478Y1808480D01*
X7353604Y1821484D01*
X7344206Y1833473D01*
X7333488Y1844192D01*
X7321499Y1853590D01*
X7308494Y1861464D01*
X7294625Y1867712D01*
X7280148Y1872234D01*
X7265162Y1874977D01*
X7250023Y1875891D01*
X7234834Y1874977D01*
X7219848Y1872234D01*
X7205370Y1867712D01*
X7191502Y1861464D01*
X7178497Y1853590D01*
X7166508Y1844192D01*
X7155789Y1833473D01*
X7146391Y1821484D01*
X7138517Y1808480D01*
X7132167Y1794357D01*
X7129932Y1791207D01*
X7126731Y1789125D01*
X7122922Y1788414D01*
X6877100Y1788414D01*
X6873290Y1789125D01*
X6870039Y1791207D01*
X6867804Y1794357D01*
X6861454Y1808480D01*
X6853580Y1821484D01*
X6844233Y1833473D01*
X6833463Y1844192D01*
X6821525Y1853590D01*
X6808520Y1861464D01*
X6794652Y1867712D01*
X6780123Y1872234D01*
X6765188Y1874977D01*
X6749999Y1875891D01*
X6734809Y1874977D01*
X6719874Y1872234D01*
X6705346Y1867712D01*
X6691477Y1861464D01*
X6678472Y1853590D01*
X6666534Y1844192D01*
X6655765Y1833473D01*
X6646418Y1821484D01*
X6638544Y1808480D01*
X6632295Y1794611D01*
X6627774Y1780133D01*
X6625031Y1765147D01*
X6624116Y1749958D01*
X6625031Y1734820D01*
X6627774Y1719834D01*
X6632295Y1705356D01*
X6638544Y1691487D01*
X6646418Y1678482D01*
X6655765Y1666493D01*
X6666534Y1655775D01*
X6678472Y1646377D01*
X6691477Y1638503D01*
X6705346Y1632254D01*
X6719874Y1627733D01*
X6734809Y1624990D01*
X6749999Y1624076D01*
X6765188Y1624990D01*
X6780123Y1627733D01*
X6794652Y1632254D01*
X6808520Y1638503D01*
X6821525Y1646377D01*
X6833463Y1655775D01*
X6844233Y1666493D01*
X6853580Y1678482D01*
X6861454Y1691487D01*
X6867804Y1705610D01*
X6870039Y1708759D01*
X6873290Y1710842D01*
X6877100Y1711553D01*
X7122922Y1711553D01*
X7126731Y1710842D01*
X7129932Y1708759D01*
X7132167Y1705610D01*
X7138517Y1691487D01*
X7146391Y1678482D01*
X7155789Y1666493D01*
X7166508Y1655775D01*
X7178497Y1646377D01*
X7191502Y1638503D01*
X7205370Y1632254D01*
X7219848Y1627733D01*
X7234834Y1624990D01*
X7250023Y1624076D01*
X7265162Y1624990D01*
X7280148Y1627733D01*
X7294625Y1632254D01*
X7308494Y1638503D01*
X7321499Y1646377D01*
X7333488Y1655775D01*
X7344206Y1666493D01*
X7353604Y1678482D01*
X7361478Y1691487D01*
X7367828Y1705610D01*
X7370064Y1708759D01*
X7373264Y1710842D01*
X7377074Y1711553D01*
X9349689Y1711553D01*
X9357664Y1712366D01*
X9364827Y1714550D01*
X9371482Y1718106D01*
X9377680Y1723186D01*
X9826904Y2172360D01*
X9831984Y2178558D01*
X9835540Y2185212D01*
X9837724Y2192426D01*
X9838486Y2200402D01*
X9838486Y7999475D01*
X9837724Y8007451D01*
X9835540Y8014665D01*
X9831984Y8021320D01*
X9826701Y8027568D01*
X9446514Y8407806D01*
X9440316Y8412886D01*
X9433661Y8416442D01*
X9426448Y8418626D01*
X9418472Y8419388D01*
X8535670Y8419388D01*
X8532012Y8420049D01*
X8528862Y8421979D01*
X8526627Y8424875D01*
X8525560Y8428431D01*
X8525154Y8431733D01*
X8523274Y8437219D01*
X8522055Y8439099D01*
X8520684Y8442604D01*
X8520684Y8446363D01*
X8522055Y8449919D01*
X8523274Y8451799D01*
X8525154Y8457234D01*
X8525560Y8460536D01*
X8526627Y8464092D01*
X8528862Y8466988D01*
X8532012Y8468918D01*
X8535619Y8469579D01*
X9471863Y8469579D01*
X9475774Y8468817D01*
X9479076Y8466582D01*
X9858603Y8087055D01*
X9860788Y8083753D01*
X9861600Y8079841D01*
X9861600Y2120138D01*
X9860788Y2116226D01*
X9858603Y2112924D01*
X8287156Y541528D01*
X8283854Y539292D01*
X8279993Y538530D01*
X6020003Y538530D01*
X6016091Y539292D01*
X6012789Y541528D01*
X5366867Y1187450D01*
X5364632Y1190853D01*
X5363870Y1194866D01*
X5364784Y1198829D01*
X5367731Y1205331D01*
X5372252Y1219860D01*
X5374995Y1234795D01*
X5375910Y1249984D01*
X5374995Y1265174D01*
X5372252Y1280109D01*
X5367731Y1294638D01*
X5361482Y1308506D01*
X5353608Y1321511D01*
X5344210Y1333449D01*
X5333492Y1344218D01*
X5321503Y1353566D01*
X5308498Y1361440D01*
X5294630Y1367688D01*
X5280152Y1372209D01*
X5265166Y1374952D01*
X5250027Y1375867D01*
X5234838Y1374952D01*
X5219852Y1372209D01*
X5205374Y1367688D01*
X5191506Y1361440D01*
X5178501Y1353566D01*
X5166512Y1344218D01*
X5155793Y1333449D01*
X5146395Y1321511D01*
X5138521Y1308506D01*
X5132171Y1294384D01*
X5129936Y1291234D01*
X5126736Y1289151D01*
X5122926Y1288389D01*
X4877104Y1288389D01*
X4873294Y1289151D01*
X4870043Y1291234D01*
X4867808Y1294384D01*
X4861458Y1308506D01*
X4853584Y1321511D01*
X4844237Y1333449D01*
X4833467Y1344218D01*
X4821529Y1353566D01*
X4808524Y1361440D01*
X4794656Y1367688D01*
X4780127Y1372209D01*
X4765192Y1374952D01*
X4750003Y1375867D01*
X4734814Y1374952D01*
X4719878Y1372209D01*
X4705350Y1367688D01*
X4691481Y1361440D01*
X4678476Y1353566D01*
X4666538Y1344218D01*
X4655769Y1333449D01*
X4646422Y1321511D01*
X4638548Y1308506D01*
X4632299Y1294638D01*
X4627778Y1280109D01*
X4625035Y1265174D01*
X4624120Y1249984D01*
X4625035Y1234795D01*
X4627778Y1219860D01*
X4632299Y1205331D01*
X4638548Y1191463D01*
X4646422Y1178458D01*
X4655769Y1166520D01*
X4666538Y1155750D01*
X4678476Y1146403D01*
X4691481Y1138529D01*
X4705350Y1132281D01*
X4719878Y1127760D01*
X4734814Y1125016D01*
X4750003Y1124102D01*
X4765192Y1125016D01*
X4780127Y1127760D01*
X4794656Y1132281D01*
X4808524Y1138529D01*
X4821529Y1146403D01*
X4833467Y1155750D01*
X4844237Y1166520D01*
X4853584Y1178458D01*
X4861458Y1191463D01*
X4867808Y1205585D01*
X4870043Y1208735D01*
X4873294Y1210818D01*
X4877104Y1211580D01*
X5122926Y1211580D01*
X5126736Y1210818D01*
X5129936Y1208735D01*
X5132171Y1205585D01*
X5138521Y1191463D01*
X5146395Y1178458D01*
X5155793Y1166520D01*
X5166512Y1155750D01*
X5178501Y1146403D01*
X5191506Y1138529D01*
X5205374Y1132281D01*
X5219852Y1127760D01*
X5234838Y1125016D01*
X5250027Y1124102D01*
X5265166Y1125016D01*
X5280152Y1127760D01*
X5294630Y1132281D01*
X5301183Y1135227D01*
X5305145Y1136091D01*
X5309158Y1135380D01*
X5312511Y1133144D01*
X5972352Y473303D01*
X5978550Y468223D01*
X5985205Y464667D01*
X5992368Y462483D01*
G37*
G36*
X4121353Y8351367D02*
G01*
X4173728Y8351367D01*
X4167835Y8362086D01*
X4159300Y8373872D01*
X4149344Y8384489D01*
X4138117Y8393734D01*
X4125823Y8401558D01*
X4121353Y8403640D01*
G37*
G36*
X3781348Y8351367D02*
G01*
X3833723Y8351367D01*
X3827830Y8362086D01*
X3819296Y8373872D01*
X3809339Y8384489D01*
X3798112Y8393734D01*
X3785819Y8401558D01*
X3781348Y8403640D01*
G37*
G36*
X209194Y8350758D02*
G01*
X217373Y8352485D01*
X229057Y8356650D01*
X240080Y8362340D01*
X250240Y8369503D01*
X259283Y8377936D01*
X267106Y8387588D01*
X273558Y8398154D01*
X274828Y8401151D01*
X209194Y8401151D01*
G37*
G36*
X5134660Y8320735D02*
G01*
X5182514Y8320735D01*
X5182514Y8348268D01*
X5181803Y8354568D01*
X5179923Y8360054D01*
X5176824Y8364931D01*
X5172710Y8369046D01*
X5167833Y8372094D01*
X5162397Y8374024D01*
X5156047Y8374735D01*
X5137861Y8374735D01*
X5133898Y8375446D01*
X5134660Y8371535D01*
G37*
G36*
X4633061Y8253577D02*
G01*
X4659884Y8253577D01*
X4659884Y8308390D01*
X4606594Y8308390D01*
X4606594Y8280044D01*
X4607306Y8273745D01*
X4609185Y8268258D01*
X4612284Y8263381D01*
X4616399Y8259267D01*
X4621276Y8256219D01*
X4626762Y8254288D01*
G37*
G36*
X4740097Y8253577D02*
G01*
X4766919Y8253577D01*
X4773218Y8254288D01*
X4778705Y8256219D01*
X4783582Y8259267D01*
X4787696Y8263381D01*
X4790795Y8268258D01*
X4792675Y8273745D01*
X4793386Y8280044D01*
X4793386Y8308390D01*
X4740097Y8308390D01*
G37*
G36*
X7639608Y8249107D02*
G01*
X7743901Y8249107D01*
X7743901Y8353399D01*
X7639608Y8353399D01*
G37*
G36*
X209194Y7630769D02*
G01*
X217373Y7632496D01*
X229057Y7636611D01*
X240080Y7642352D01*
X250240Y7649514D01*
X259283Y7657947D01*
X267106Y7667599D01*
X273558Y7678166D01*
X274828Y7681163D01*
X209194Y7681163D01*
G37*
G36*
X7456119Y8249107D02*
G01*
X7560360Y8249107D01*
X7560360Y8353399D01*
X7456119Y8353399D01*
G37*
G36*
X7823098Y8249107D02*
G01*
X7875879Y8249107D01*
X7875879Y8275421D01*
X7875168Y8281771D01*
X7873288Y8287207D01*
X7870190Y8292134D01*
X7868208Y8294065D01*
X7866024Y8297367D01*
X7865262Y8301278D01*
X7866024Y8305139D01*
X7868208Y8308441D01*
X7870190Y8310372D01*
X7873288Y8315299D01*
X7875168Y8320735D01*
X7875879Y8327085D01*
X7875879Y8353399D01*
X7823098Y8353399D01*
G37*
G36*
X453745Y7755483D02*
G01*
X463042Y7760411D01*
X473303Y7767878D01*
X482396Y7776667D01*
X490220Y7786674D01*
X496570Y7797647D01*
X496976Y7798663D01*
X453745Y7798663D01*
G37*
G36*
X376021Y7755483D02*
G01*
X376021Y7798663D01*
X332790Y7798663D01*
X333197Y7797647D01*
X339547Y7786674D01*
X347319Y7776667D01*
X356463Y7767878D01*
X366725Y7760411D01*
G37*
G36*
X209194Y7758836D02*
G01*
X274828Y7758836D01*
X273558Y7761782D01*
X267106Y7772400D01*
X259283Y7782001D01*
X250240Y7790484D01*
X240080Y7797647D01*
X229057Y7803337D01*
X217373Y7807502D01*
X209194Y7809179D01*
G37*
G36*
X7324090Y8249107D02*
G01*
X7376922Y8249107D01*
X7376922Y8353399D01*
X7324090Y8353399D01*
X7324090Y8327085D01*
X7324801Y8320735D01*
X7326731Y8315299D01*
X7329779Y8310372D01*
X7331760Y8308441D01*
X7333945Y8305139D01*
X7334707Y8301278D01*
X7333945Y8297367D01*
X7331760Y8294065D01*
X7329779Y8292134D01*
X7326731Y8287207D01*
X7324801Y8281771D01*
X7324090Y8275421D01*
G37*
G36*
X376021Y8240471D02*
G01*
X376021Y8283651D01*
X332790Y8283651D01*
X333197Y8282635D01*
X339547Y8271662D01*
X347319Y8261654D01*
X356463Y8252866D01*
X366725Y8245398D01*
G37*
G36*
X332943Y7876336D02*
G01*
X376021Y7876336D01*
X376021Y7919415D01*
X372211Y7917738D01*
X361442Y7911033D01*
X351739Y7902854D01*
X343255Y7893456D01*
X336194Y7882940D01*
G37*
G36*
X453745Y7876336D02*
G01*
X496773Y7876336D01*
X493572Y7882940D01*
X486511Y7893456D01*
X478028Y7902854D01*
X468274Y7911033D01*
X457555Y7917738D01*
X453745Y7919415D01*
G37*
G36*
X453745Y8240471D02*
G01*
X463042Y8245398D01*
X473303Y8252866D01*
X482396Y8261654D01*
X490220Y8271662D01*
X496570Y8282635D01*
X496976Y8283651D01*
X453745Y8283651D01*
G37*
G36*
X4121353Y8196325D02*
G01*
X4125823Y8198459D01*
X4138117Y8206231D01*
X4149344Y8215528D01*
X4159300Y8226145D01*
X4167835Y8237880D01*
X4173728Y8248650D01*
X4121353Y8248650D01*
G37*
G36*
X3678631Y8196325D02*
G01*
X3678631Y8248650D01*
X3626256Y8248650D01*
X3632149Y8237880D01*
X3640683Y8226145D01*
X3650640Y8215528D01*
X3661867Y8206231D01*
X3674160Y8198459D01*
G37*
G36*
X3781348Y8196325D02*
G01*
X3785819Y8198459D01*
X3798112Y8206231D01*
X3809339Y8215528D01*
X3819296Y8226145D01*
X3827830Y8237880D01*
X3833723Y8248650D01*
X3781348Y8248650D01*
G37*
G36*
X4018635Y8196325D02*
G01*
X4018635Y8248650D01*
X3966260Y8248650D01*
X3972153Y8237880D01*
X3980687Y8226145D01*
X3990644Y8215528D01*
X4001871Y8206231D01*
X4014165Y8198459D01*
G37*
G36*
X7350556Y8117078D02*
G01*
X7376922Y8117078D01*
X7376922Y8169909D01*
X7324090Y8169909D01*
X7324090Y8143595D01*
X7324801Y8137245D01*
X7326731Y8131809D01*
X7329779Y8126882D01*
X7333894Y8122818D01*
X7338771Y8119719D01*
X7344257Y8117789D01*
G37*
G36*
X7823098Y8117078D02*
G01*
X7849412Y8117078D01*
X7855712Y8117789D01*
X7861198Y8119719D01*
X7866075Y8122818D01*
X7870190Y8126882D01*
X7873288Y8131809D01*
X7875168Y8137245D01*
X7875879Y8143595D01*
X7875879Y8169909D01*
X7823098Y8169909D01*
G37*
G36*
X7456119Y8117078D02*
G01*
X7482433Y8117078D01*
X7488732Y8117789D01*
X7494219Y8119719D01*
X7499096Y8122818D01*
X7501077Y8124748D01*
X7504379Y8126933D01*
X7508240Y8127746D01*
X7512151Y8126933D01*
X7515402Y8124748D01*
X7517384Y8122818D01*
X7522260Y8119719D01*
X7527747Y8117789D01*
X7534046Y8117078D01*
X7560360Y8117078D01*
X7560360Y8169909D01*
X7456119Y8169909D01*
G37*
G36*
X5043932Y8185200D02*
G01*
X5065318Y8185200D01*
X5065318Y8239201D01*
X5017465Y8239201D01*
X5017465Y8211718D01*
X5018176Y8205368D01*
X5020106Y8199932D01*
X5023154Y8195005D01*
X5027269Y8190941D01*
X5032146Y8187842D01*
X5037632Y8185912D01*
G37*
G36*
X7639608Y8117078D02*
G01*
X7665923Y8117078D01*
X7672222Y8117789D01*
X7677708Y8119719D01*
X7682585Y8122818D01*
X7684566Y8124748D01*
X7687868Y8126933D01*
X7691729Y8127746D01*
X7695641Y8126933D01*
X7698892Y8124748D01*
X7700873Y8122818D01*
X7705750Y8119719D01*
X7711236Y8117789D01*
X7717536Y8117078D01*
X7743901Y8117078D01*
X7743901Y8169909D01*
X7639608Y8169909D01*
G37*
G36*
X5134660Y8185200D02*
G01*
X5156047Y8185200D01*
X5162397Y8185912D01*
X5167833Y8187842D01*
X5172710Y8190941D01*
X5176824Y8195005D01*
X5179923Y8199932D01*
X5181803Y8205368D01*
X5182514Y8211718D01*
X5182514Y8239201D01*
X5134660Y8239201D01*
G37*

%LPD*%
G36*
X1798218Y8026552D02*
G01*
X1795272Y8027009D01*
X1788769Y8028990D01*
X1780336Y8029803D01*
X1776272Y8031124D01*
X1773123Y8033918D01*
X1771396Y8037779D01*
X1771396Y8042046D01*
X1773123Y8045907D01*
X1776272Y8048752D01*
X1780336Y8050022D01*
X1788769Y8050885D01*
X1795272Y8052816D01*
X1798218Y8053273D01*
X1803907Y8053273D01*
X1807819Y8052511D01*
X1811121Y8050275D01*
X1813306Y8047024D01*
X1814068Y8043113D01*
X1814068Y8036712D01*
X1813306Y8032851D01*
X1811121Y8029549D01*
X1807819Y8027365D01*
X1803907Y8026552D01*
G37*

%LPD*%
G36*
X9459874Y4819040D02*
G01*
X9455759Y4820158D01*
X9452508Y4822901D01*
X9444228Y4833467D01*
X9433458Y4844186D01*
X9421520Y4853584D01*
X9408515Y4861458D01*
X9394647Y4867706D01*
X9380118Y4872228D01*
X9365183Y4874971D01*
X9349994Y4875885D01*
X9334804Y4874971D01*
X9319869Y4872228D01*
X9305340Y4867706D01*
X9291472Y4861458D01*
X9278467Y4853584D01*
X9266529Y4844186D01*
X9255607Y4833315D01*
X9252356Y4831130D01*
X9248444Y4830368D01*
X9244584Y4831130D01*
X9241282Y4833315D01*
X9239046Y4836617D01*
X9238284Y4840528D01*
X9238284Y5659424D01*
X9239046Y5663336D01*
X9241282Y5666638D01*
X9244584Y5668822D01*
X9248444Y5669584D01*
X9252356Y5668822D01*
X9255607Y5666638D01*
X9266529Y5655716D01*
X9278467Y5646369D01*
X9291472Y5638495D01*
X9293656Y5637530D01*
X9293656Y5693613D01*
X9248444Y5693613D01*
X9244584Y5694375D01*
X9241282Y5696610D01*
X9239046Y5699861D01*
X9238284Y5703773D01*
X9238284Y5796127D01*
X9239046Y5800039D01*
X9241282Y5803341D01*
X9244584Y5805525D01*
X9248444Y5806287D01*
X9293656Y5806287D01*
X9293656Y5862421D01*
X9291472Y5861456D01*
X9278467Y5853582D01*
X9266529Y5844184D01*
X9255607Y5833313D01*
X9252356Y5831128D01*
X9248444Y5830316D01*
X9244584Y5831128D01*
X9241282Y5833313D01*
X9239046Y5836615D01*
X9238284Y5840476D01*
X9238284Y6159449D01*
X9239046Y6163310D01*
X9241282Y6166612D01*
X9244584Y6168847D01*
X9248444Y6169609D01*
X9252356Y6168847D01*
X9255607Y6166612D01*
X9266529Y6155740D01*
X9278467Y6146393D01*
X9291472Y6138519D01*
X9305340Y6132271D01*
X9319869Y6127750D01*
X9334804Y6125006D01*
X9349994Y6124092D01*
X9365183Y6125006D01*
X9380118Y6127750D01*
X9394647Y6132271D01*
X9408515Y6138519D01*
X9421520Y6146393D01*
X9433458Y6155740D01*
X9444228Y6166510D01*
X9453575Y6178448D01*
X9461449Y6191453D01*
X9467697Y6205321D01*
X9472218Y6219850D01*
X9474962Y6234785D01*
X9475876Y6249974D01*
X9474962Y6265164D01*
X9472218Y6280099D01*
X9467697Y6294628D01*
X9461449Y6308496D01*
X9453575Y6321501D01*
X9444228Y6333439D01*
X9433458Y6344208D01*
X9421520Y6353556D01*
X9408515Y6361430D01*
X9394393Y6367780D01*
X9391243Y6370015D01*
X9389160Y6373266D01*
X9388398Y6377076D01*
X9388398Y7749489D01*
X9387636Y7757464D01*
X9385452Y7764627D01*
X9381896Y7771282D01*
X9376816Y7777480D01*
X9127490Y8026806D01*
X9121292Y8031886D01*
X9114688Y8035442D01*
X9107474Y8037626D01*
X9099499Y8038388D01*
X8535670Y8038388D01*
X8532012Y8039049D01*
X8528862Y8040979D01*
X8526627Y8043875D01*
X8525560Y8047431D01*
X8525154Y8050733D01*
X8523274Y8056219D01*
X8522055Y8058099D01*
X8520684Y8061604D01*
X8520684Y8065363D01*
X8522055Y8068919D01*
X8523274Y8070799D01*
X8525154Y8076234D01*
X8525560Y8079536D01*
X8526627Y8083092D01*
X8528862Y8085988D01*
X8532012Y8087918D01*
X8535619Y8088579D01*
X9252864Y8088579D01*
X9256776Y8087817D01*
X9260027Y8085581D01*
X9558578Y7787030D01*
X9560814Y7783728D01*
X9561576Y7779867D01*
X9561525Y4920030D01*
X9560763Y4916119D01*
X9558528Y4912868D01*
X9467697Y4821986D01*
X9464090Y4819650D01*
G37*

%LPC*%
G36*
X9406331Y5806287D02*
G01*
X9462414Y5806287D01*
X9461449Y5808472D01*
X9453575Y5821476D01*
X9444228Y5833465D01*
X9433458Y5844184D01*
X9421520Y5853582D01*
X9408515Y5861456D01*
X9406331Y5862421D01*
G37*
G36*
X9406331Y5637530D02*
G01*
X9408515Y5638495D01*
X9421520Y5646369D01*
X9433458Y5655716D01*
X9444228Y5666486D01*
X9453575Y5678474D01*
X9461449Y5691479D01*
X9462414Y5693613D01*
X9406331Y5693613D01*
G37*

%LPD*%
G36*
X8377072Y3288385D02*
G01*
X8373262Y3289147D01*
X8370062Y3291230D01*
X8367826Y3294379D01*
X8361476Y3308502D01*
X8353602Y3321507D01*
X8344204Y3333445D01*
X8333384Y3344316D01*
X8331200Y3347567D01*
X8330438Y3351479D01*
X8331200Y3355340D01*
X8333384Y3358642D01*
X8336686Y3360877D01*
X8340598Y3361639D01*
X8799576Y3361639D01*
X8807551Y3362401D01*
X8814765Y3364585D01*
X8821420Y3368141D01*
X8827617Y3373221D01*
X9226702Y3772611D01*
X9231782Y3778758D01*
X9235338Y3785412D01*
X9237522Y3792626D01*
X9238284Y3800601D01*
X9238284Y4159453D01*
X9239046Y4163314D01*
X9241282Y4166615D01*
X9244584Y4168800D01*
X9248444Y4169613D01*
X9252356Y4168800D01*
X9255607Y4166615D01*
X9266529Y4155744D01*
X9278467Y4146346D01*
X9291472Y4138472D01*
X9293656Y4137507D01*
X9293656Y4193590D01*
X9248444Y4193590D01*
X9244584Y4194403D01*
X9241282Y4196588D01*
X9239046Y4199890D01*
X9238284Y4203750D01*
X9238284Y4296156D01*
X9239046Y4300067D01*
X9241282Y4303318D01*
X9244584Y4305554D01*
X9248444Y4306316D01*
X9293656Y4306316D01*
X9293656Y4362399D01*
X9291472Y4361434D01*
X9278467Y4353560D01*
X9266529Y4344212D01*
X9255607Y4333290D01*
X9252356Y4331106D01*
X9248444Y4330344D01*
X9244584Y4331106D01*
X9241282Y4333290D01*
X9239046Y4336592D01*
X9238284Y4340504D01*
X9238284Y4659426D01*
X9239046Y4663338D01*
X9241282Y4666640D01*
X9244584Y4668824D01*
X9248444Y4669586D01*
X9252356Y4668824D01*
X9255607Y4666640D01*
X9266529Y4655769D01*
X9278467Y4646371D01*
X9291472Y4638497D01*
X9305340Y4632248D01*
X9319869Y4627727D01*
X9334804Y4624984D01*
X9349994Y4624070D01*
X9365183Y4624984D01*
X9380118Y4627727D01*
X9394647Y4632248D01*
X9408515Y4638497D01*
X9421520Y4646371D01*
X9433458Y4655769D01*
X9444228Y4666488D01*
X9453575Y4678476D01*
X9461449Y4691481D01*
X9467697Y4705350D01*
X9470898Y4715611D01*
X9472168Y4718253D01*
X9474149Y4720437D01*
X9477603Y4723231D01*
X9626752Y4872380D01*
X9631832Y4878578D01*
X9635388Y4885232D01*
X9637572Y4892446D01*
X9638334Y4900422D01*
X9638385Y7799476D01*
X9637623Y7807452D01*
X9635439Y7814665D01*
X9631883Y7821269D01*
X9626803Y7827518D01*
X9300514Y8153806D01*
X9294317Y8158886D01*
X9287662Y8162442D01*
X9280448Y8164626D01*
X9272473Y8165388D01*
X8535670Y8165388D01*
X8532012Y8166049D01*
X8528862Y8167979D01*
X8526627Y8170875D01*
X8525560Y8174431D01*
X8525154Y8177733D01*
X8523274Y8183219D01*
X8522055Y8185099D01*
X8520684Y8188604D01*
X8520684Y8192363D01*
X8522055Y8195919D01*
X8523274Y8197799D01*
X8525154Y8203234D01*
X8525560Y8206536D01*
X8526627Y8210092D01*
X8528862Y8212988D01*
X8532012Y8214918D01*
X8535619Y8215579D01*
X9325864Y8215579D01*
X9329775Y8214817D01*
X9333026Y8212581D01*
X9658604Y7887055D01*
X9660788Y7883753D01*
X9661601Y7879842D01*
X9661601Y3820210D01*
X9660839Y3816299D01*
X9658604Y3813048D01*
X9136938Y3291382D01*
X9133687Y3289147D01*
X9129776Y3288385D01*
G37*

%LPC*%
G36*
X9406331Y4306316D02*
G01*
X9462414Y4306316D01*
X9461449Y4308449D01*
X9453575Y4321454D01*
X9444228Y4333443D01*
X9433458Y4344212D01*
X9421520Y4353560D01*
X9408515Y4361434D01*
X9406331Y4362399D01*
G37*
G36*
X9406331Y4137507D02*
G01*
X9408515Y4138472D01*
X9421520Y4146346D01*
X9433458Y4155744D01*
X9444228Y4166463D01*
X9453575Y4178452D01*
X9461449Y4191457D01*
X9462414Y4193590D01*
X9406331Y4193590D01*
G37*

%LPD*%
D10*
X2105025Y9420001D02*
G01*
X1999995Y9525030D01*
X1999995Y9594951D01*
D11*
X2799994Y9299981D02*
G01*
X2794993Y9294980D01*
X2794993Y9159974D01*
D10*
X1845002Y9119984D02*
G01*
X2145027Y9420004D01*
X2604998Y9420004D01*
D11*
X2794990Y9420004D02*
G01*
X2794990Y9655032D01*
X2799890Y9659932D01*
D10*
X1750009Y8240090D02*
G01*
X1660121Y8329978D01*
X1499994Y8329978D01*
X1670105Y8329980D02*
G01*
X1845002Y8504877D01*
X1845002Y9119984D01*
X1899726Y8814706D02*
G01*
X1845002Y8814706D01*
X2094989Y8819984D02*
G01*
X2154986Y8879979D01*
X2154986Y9119984D01*
D12*
X2599994Y8699042D02*
G01*
X2605001Y8704049D01*
X2605001Y9159986D01*
D10*
X909995Y8329980D02*
G01*
X1499994Y8329980D01*
X599998Y8299983D02*
G01*
X629996Y8329980D01*
X909995Y8329980D01*
D13*
X1399994Y8144984D02*
G01*
X1404965Y8140014D01*
X1750009Y8140014D01*
X1704992Y7144959D02*
G01*
X1799996Y7239962D01*
X1799996Y7339990D01*
X1894984Y7144959D02*
G01*
X1894984Y7294973D01*
X2099995Y7499985D01*
X2104999Y7144966D02*
G01*
X2099995Y7149970D01*
X2099995Y7339964D01*
X2294991Y7144966D02*
G01*
X2150010Y6999986D01*
X1699996Y6999986D01*
X1599996Y7099985D01*
X1599996Y7399985D01*
X1699996Y7499985D01*
X1799996Y7499985D01*
X1849881Y7839989D02*
G01*
X1799996Y7790103D01*
X1799996Y7499982D01*
D10*
X8399957Y9015984D02*
G01*
X8405949Y9009992D01*
X8899984Y9009992D01*
X2004999Y9800003D02*
G01*
X2300013Y9800003D01*
D11*
X2300020Y9600006D02*
G01*
X2459964Y9600006D01*
X2499989Y9559980D01*
D14*
X1749996Y8199983D02*
G01*
X1750009Y8250120D01*
X1849869Y8339983D01*
D13*
X1299971Y8079994D02*
G01*
X1750060Y8089900D01*
X1949958Y7839989D02*
G01*
X1949958Y7764551D01*
X1929996Y7744589D01*
X1929996Y7649984D01*
X2050021Y7839986D02*
G01*
X2050021Y7779959D01*
X2079995Y7749981D01*
X2079995Y7519984D01*
X2099995Y7499985D01*
X1999995Y7729984D02*
G01*
X1999983Y7839984D01*
D15*
X1800097Y6895084D02*
G01*
X1800097Y6800087D01*
X1899920Y6700012D01*
X2400045Y6700012D01*
X2599943Y6899910D01*
X2599943Y7549895D01*
X2750058Y7700010D01*
X6100063Y7700010D01*
D13*
X5850000Y9394952D02*
G01*
X5999988Y9244939D01*
X5999988Y9099981D01*
X5999988Y8899905D02*
G01*
X6599936Y8888984D01*
D10*
X5359908Y8769858D02*
G01*
X5359908Y8869934D01*
X5489958Y8999981D01*
X6399987Y8999981D01*
D15*
X5849988Y9605010D02*
G01*
X5855017Y9599980D01*
X6149987Y9599980D01*
D10*
X2599943Y8698992D02*
G01*
X2710941Y8530081D01*
D16*
X5024991Y8549982D02*
G01*
X4899990Y8549982D01*
D14*
X5049989Y8549982D02*
G01*
X5134241Y8549982D01*
D15*
X4999990Y8459978D02*
G01*
X5099989Y8499983D01*
X5134241Y8499970D01*
X5134356Y8500110D01*
D13*
X2150109Y7649971D02*
G01*
X2350008Y7649971D01*
X2600197Y7899908D01*
X2800095Y7899908D01*
X2150109Y7729981D02*
G01*
X2299970Y7729981D01*
X2569972Y7999984D01*
X2800095Y7999984D01*
D15*
X8199983Y8899984D02*
G01*
X8210984Y8888984D01*
X8399957Y8888984D01*
X2800101Y7999984D02*
G01*
X6199992Y7999984D01*
X6299982Y8099983D01*
X6299956Y8620000D01*
X6441940Y8761984D01*
X6599986Y8761984D01*
X2799989Y7899981D02*
G01*
X6199992Y7899981D01*
X6399982Y8099983D01*
X6399982Y8539980D01*
X6494983Y8634984D01*
X6599986Y8634984D01*
X2199891Y6895084D02*
G01*
X2394965Y6895084D01*
X2499865Y6999988D01*
X2499865Y7599934D01*
X2700014Y7800088D01*
X6199880Y7800088D01*
X6507985Y7491984D01*
X6599986Y7491984D01*
X8249996Y3249980D02*
G01*
X9149892Y3249980D01*
X9700006Y3800094D01*
X8099983Y7181131D02*
G01*
X8099983Y7199988D01*
X7426987Y7872984D01*
X6599986Y7872984D01*
X8099983Y5099989D02*
G01*
X8099983Y5499986D01*
X8099983Y5499986D01*
X8099983Y7199988D01*
X7400030Y6899907D02*
G01*
X7400030Y6999937D01*
X7161987Y7237984D01*
X6599986Y7237984D01*
X1149857Y6249923D02*
G01*
X1799844Y5599937D01*
X6700011Y5599937D01*
X7400036Y6299962D01*
X7400036Y6899910D01*
X7499858Y6899907D02*
G01*
X7499982Y7099988D01*
X7234986Y7364984D01*
X6599986Y7364984D01*
X1149857Y4750054D02*
G01*
X1799844Y5400039D01*
X6700011Y5400039D01*
X7499858Y6199886D01*
X7499858Y6899910D01*
X5249999Y5249974D02*
G01*
X6849976Y5249974D01*
X7699982Y6099987D01*
X7699982Y7099988D01*
X7180986Y7618984D01*
X6599986Y7618984D01*
X4750003Y5249976D02*
G01*
X5250002Y5249976D01*
X3249929Y4750054D02*
G01*
X4100068Y3899915D01*
X7599934Y3899915D01*
X7800086Y4100068D01*
X7800086Y4599939D01*
X7799981Y5099992D02*
G01*
X7799981Y7199988D01*
X7253986Y7745984D01*
X6599986Y7745984D01*
X2750007Y4749977D02*
G01*
X3250006Y4749977D01*
X4249927Y3249929D02*
G01*
X4700015Y3700018D01*
X7999984Y3700018D01*
X8400034Y4100068D01*
X8400034Y4700015D01*
X2249931Y3251200D02*
G01*
X2800095Y3800094D01*
X7900161Y3800094D01*
X8100059Y3999992D01*
X8100059Y4599939D01*
X8399983Y5199992D02*
G01*
X8700008Y5500011D01*
X8700008Y7100062D01*
X8562086Y7237984D01*
X8399957Y7237984D01*
X8999981Y5599988D02*
G01*
X8249970Y4749977D01*
X7249998Y4749977D01*
X8999981Y7399985D02*
G01*
X8999981Y5599988D01*
X9349991Y7028779D02*
G01*
X9349991Y7749969D01*
X9099984Y7999984D01*
X9099984Y7999984D01*
X8399957Y7999984D01*
X9349993Y6249923D02*
G01*
X9349993Y7040118D01*
X6249924Y3249929D02*
G01*
X6500113Y3499865D01*
X8700008Y3499865D01*
X9100058Y3899915D01*
X9099981Y7484201D01*
X8999984Y7399982D02*
G01*
X8780983Y7618984D01*
X8399957Y7618984D01*
X9099984Y7484201D02*
G01*
X8838201Y7745984D01*
X8399957Y7745984D01*
X9199885Y7599934D02*
G01*
X8926835Y7872984D01*
X8399957Y7872984D01*
X9199879Y7599934D02*
G01*
X9199879Y3800094D01*
X8800084Y3400044D01*
X7299959Y3400044D01*
X6999986Y3100070D01*
X6999986Y2500121D01*
X6249924Y1750060D01*
X3250006Y1749983D01*
X5750001Y3249980D02*
G01*
X6250000Y3249980D01*
X7749997Y3249980D02*
G01*
X8249996Y3249980D01*
X9700006Y5100065D02*
G01*
X9700006Y3800094D01*
X649935Y6249949D02*
G01*
X1149934Y6249949D01*
X6599930Y7599934D02*
G01*
X6599986Y7599987D01*
X6599986Y7618984D01*
X9599929Y6499860D02*
G01*
X9599929Y4899913D01*
X9450070Y4750054D01*
X9349993Y4750054D01*
X9599983Y6499964D02*
G01*
X9599983Y7799981D01*
X9272983Y8126984D01*
X8399957Y8126984D01*
X9699985Y5099961D02*
G01*
X9699985Y7899981D01*
X9345983Y8253984D01*
X8399957Y8253984D01*
X9800081Y2199894D02*
G01*
X9350171Y1749983D01*
X7249998Y1749983D01*
X9800081Y7999984D02*
G01*
X9800081Y2199894D01*
X7799981Y500123D02*
G01*
X8300107Y500123D01*
X9899985Y2099995D01*
X9899985Y8099983D01*
X9491985Y8507984D01*
X8399957Y8507984D01*
X5250002Y1249984D02*
G01*
X5999861Y500126D01*
X7799984Y500126D01*
X649935Y4750079D02*
G01*
X1149934Y4750079D01*
X6749999Y4749977D02*
G01*
X7249998Y4749977D01*
X3750005Y3249980D02*
G01*
X4250004Y3249980D01*
X1750009Y3249980D02*
G01*
X2250008Y3249980D01*
X2750007Y1749983D02*
G01*
X3250006Y1749983D01*
X4750003Y1249984D02*
G01*
X5250002Y1249984D01*
X9799985Y7999984D02*
G01*
X9418982Y8380984D01*
X8399957Y8380984D01*
X6749999Y1749983D02*
G01*
X7249998Y1749983D01*
X5134241Y8449983D02*
G01*
X5084292Y8400034D01*
X4999990Y8400034D01*
X4809997Y8450071D02*
G01*
X4860036Y8400034D01*
X4999990Y8400034D01*
X4809990Y8449983D02*
G01*
X4459986Y8450071D01*
X4359909Y8549894D01*
X4070095Y8549894D01*
D16*
X4899990Y8549970D02*
G01*
X4700005Y8549970D01*
X4699993Y8549982D01*
D15*
X4069994Y8549982D02*
G01*
X3729990Y8549982D01*
D10*
X8399957Y9015984D02*
G01*
X8383958Y8999984D01*
X7899981Y8999984D01*
D15*
X5359908Y8769858D02*
G01*
X5359908Y8930131D01*
X5240020Y9050020D01*
X5199888Y9050020D01*
D11*
X5359908Y8655812D02*
G01*
X5359908Y8769858D01*
D10*
X4069994Y8799969D02*
G01*
X3729990Y8799969D01*
X4699990Y8549982D02*
G01*
X4450003Y8799969D01*
X4069994Y8799969D01*
D14*
X5399989Y8349983D02*
G01*
X5365737Y8384235D01*
X5365737Y8449983D01*
D10*
X2450084Y8999981D02*
G01*
X2389144Y9060921D01*
X2389144Y9060921D02*
G01*
X2330094Y9119971D01*
X2330094Y9119971D02*
G01*
X2330094Y9119971D01*
X2154986Y9119971D01*
D15*
X5134241Y8649982D02*
G01*
X5199989Y8715730D01*
X5199989Y8849982D01*
X4699990Y8849982D02*
G01*
X5199989Y8849982D01*
D10*
X2599994Y8699042D02*
G01*
X2239053Y8699042D01*
X2159993Y8619982D01*
X2000001Y8619982D01*
D15*
X5365739Y8599972D02*
G01*
X5565688Y8599972D01*
X5723348Y8757630D01*
X5365739Y8499972D02*
G01*
X5550199Y8499972D01*
X5723348Y8326823D01*
D17*
G01*
X5365737Y8649982D03*
G01*
X5365737Y8599970D03*
G01*
X5365737Y8549982D03*
G01*
X5365737Y8499970D03*
G01*
X5365737Y8449983D03*
D18*
G01*
X5134240Y8649982D03*
G01*
X5134240Y8599982D03*
G01*
X5134240Y8549982D03*
G01*
X5134240Y8499983D03*
G01*
X5134240Y8449983D03*
D19*
G01*
X5249989Y8549982D03*
D20*
G01*
X4899985Y8279983D03*
G01*
X5099994Y8279983D03*
D21*
G01*
X4699990Y8849982D03*
D22*
G01*
X4699990Y9049986D03*
D21*
G01*
X4949990Y8849982D03*
D22*
G01*
X4949990Y9049986D03*
D21*
G01*
X5199989Y9049981D03*
D22*
G01*
X5199989Y8849977D03*
D23*
G01*
X5723346Y8326821D03*
G01*
X5723346Y8757630D03*
D24*
G01*
X4699990Y8549982D03*
D25*
G01*
X4699990Y8349980D03*
D26*
G01*
X5849988Y9394952D03*
G01*
X5849988Y9605010D03*
D21*
G01*
X6149987Y9599980D03*
D22*
G01*
X6149987Y9399976D03*
D27*
G01*
X1999983Y8089971D03*
D28*
G01*
X1849881Y7839989D03*
G01*
X1899920Y7839989D03*
G01*
X1949958Y7839989D03*
G01*
X1999970Y7839989D03*
G01*
X2050034Y7839989D03*
G01*
X2100072Y7839989D03*
G01*
X2150109Y7839989D03*
D29*
G01*
X2250008Y7939862D03*
G01*
X2250008Y7989900D03*
G01*
X2250008Y8039938D03*
G01*
X2250008Y8089976D03*
G01*
X2250008Y8140014D03*
G01*
X2250008Y8190052D03*
G01*
X2250008Y8240090D03*
D28*
G01*
X2150109Y8339988D03*
G01*
X2100072Y8339988D03*
G01*
X2050034Y8339988D03*
G01*
X1999970Y8339988D03*
G01*
X1949958Y8339988D03*
G01*
X1899920Y8339988D03*
G01*
X1849881Y8339988D03*
D29*
G01*
X1750009Y8240090D03*
G01*
X1750009Y8190052D03*
G01*
X1750009Y8140014D03*
G01*
X1750009Y8089976D03*
G01*
X1750009Y8039938D03*
G01*
X1750009Y7989900D03*
G01*
X1750009Y7939862D03*
D30*
G01*
X1099997Y8509980D03*
G01*
X1099997Y8329970D03*
G01*
X1300098Y8509980D03*
G01*
X1300098Y8329970D03*
G01*
X1499997Y8509980D03*
G01*
X1499997Y8329970D03*
D31*
G01*
X1845005Y9119981D03*
G01*
X2154986Y9119981D03*
D26*
G01*
X1999996Y9594951D03*
G01*
X1999996Y9805009D03*
D32*
G01*
X1904999Y8819982D03*
G01*
X2094990Y8819982D03*
G01*
X1999994Y8619982D03*
D33*
G01*
X1799996Y6895017D03*
G01*
X1894992Y7144953D03*
G01*
X1705000Y7144953D03*
G01*
X2199995Y6895017D03*
G01*
X2294991Y7144953D03*
G01*
X2104999Y7144953D03*
D21*
G01*
X799998Y8319973D03*
D22*
G01*
X799998Y8519988D03*
D34*
G01*
X2794990Y9419996D03*
G01*
X2604998Y9419996D03*
G01*
X2604998Y9159976D03*
G01*
X2699994Y9159976D03*
G01*
X2794990Y9159976D03*
D21*
G01*
X2300020Y9800005D03*
D22*
G01*
X2300020Y9600001D03*
D21*
G01*
X2799892Y9660001D03*
D22*
G01*
X2799892Y9860015D03*
D30*
G01*
X1799996Y7339977D03*
G01*
X1799996Y7499977D03*
G01*
X2099995Y7339977D03*
G01*
X2099995Y7499977D03*
D35*
G01*
X8899982Y8829984D03*
G01*
X8899982Y9009994D03*
D36*
G01*
X8399975Y9142996D03*
G01*
X8399975Y9015996D03*
G01*
X8399975Y8888996D03*
G01*
X8399975Y8761996D03*
G01*
X8399975Y8634996D03*
G01*
X8399975Y8507996D03*
G01*
X8399975Y8380996D03*
G01*
X8399975Y8253996D03*
G01*
X8399975Y8126996D03*
G01*
X8399975Y7999996D03*
G01*
X8399975Y7872996D03*
G01*
X8399975Y7745996D03*
G01*
X8399975Y7618996D03*
G01*
X8399975Y7491996D03*
G01*
X8399975Y7364996D03*
G01*
X8399975Y7237996D03*
G01*
X8399975Y7110996D03*
G01*
X8399975Y6983996D03*
G01*
X8399975Y6856996D03*
G01*
X6599989Y6856996D03*
G01*
X6599989Y6983996D03*
G01*
X6599989Y7110996D03*
G01*
X6599989Y7237996D03*
G01*
X6599989Y7364996D03*
G01*
X6599989Y7491996D03*
G01*
X6599989Y7618996D03*
G01*
X6599989Y7745996D03*
G01*
X6599989Y7872996D03*
G01*
X6599989Y7999996D03*
G01*
X6599989Y8126996D03*
G01*
X6599989Y8253996D03*
G01*
X6599989Y8380996D03*
G01*
X6599989Y8507996D03*
G01*
X6599989Y8634996D03*
G01*
X6599989Y8761996D03*
G01*
X6599989Y8888996D03*
G01*
X6599989Y9015996D03*
G01*
X6599989Y9142996D03*
D37*
G01*
X7599982Y8393010D03*
G01*
X7783482Y8393008D03*
G01*
X7416497Y8393008D03*
G01*
X7783482Y8576495D03*
G01*
X7599982Y8576497D03*
G01*
X7416474Y8576492D03*
G01*
X7783482Y8209500D03*
G01*
X7599982Y8209503D03*
G01*
X7416497Y8209506D03*
D35*
G01*
X8650058Y8829974D03*
G01*
X8650058Y9009984D03*
D38*
G01*
X4349991Y9549980D03*
G01*
X3879989Y9549980D03*
G01*
X3409988Y9549980D03*
D39*
G01*
X3729990Y8549982D03*
G01*
X3729990Y8299996D03*
G01*
X4069994Y8799969D03*
G01*
X4069994Y8549982D03*
G01*
X4069994Y8299996D03*
G01*
X3729990Y8799969D03*
D40*
G01*
X1149934Y6249949D03*
G01*
X649935Y6249949D03*
G01*
X649935Y5749950D03*
G01*
X1149934Y5749950D03*
G01*
X1149934Y4750079D03*
G01*
X649935Y4750079D03*
G01*
X649935Y4250080D03*
G01*
X1149934Y4250080D03*
D41*
G01*
X147878Y7719999D03*
G01*
X147878Y8439988D03*
D42*
G01*
X414883Y8322487D03*
G01*
X414883Y7837500D03*
D40*
G01*
X3250006Y4749977D03*
G01*
X2750007Y4749977D03*
G01*
X2750007Y4249978D03*
G01*
X3250006Y4249978D03*
G01*
X5250002Y5249976D03*
G01*
X4750003Y5249976D03*
G01*
X4750003Y4749977D03*
G01*
X5250002Y4749977D03*
G01*
X7249998Y4749977D03*
G01*
X6749999Y4749977D03*
G01*
X6749999Y4249978D03*
G01*
X7249998Y4249978D03*
G01*
X9349993Y4749977D03*
G01*
X8849995Y4749977D03*
G01*
X8849995Y4249978D03*
G01*
X9349993Y4249978D03*
G01*
X2250008Y3249980D03*
G01*
X1750009Y3249980D03*
G01*
X1750009Y2749981D03*
G01*
X2250008Y2749981D03*
G01*
X4250004Y3249980D03*
G01*
X3750005Y3249980D03*
G01*
X3750005Y2749981D03*
G01*
X4250004Y2749981D03*
G01*
X6250000Y3249980D03*
G01*
X5750001Y3249980D03*
G01*
X5750001Y2749981D03*
G01*
X6250000Y2749981D03*
G01*
X9349993Y6249974D03*
G01*
X8849995Y6249974D03*
G01*
X8849995Y5749975D03*
G01*
X9349993Y5749975D03*
G01*
X3250006Y1749983D03*
G01*
X2750007Y1749983D03*
G01*
X2750007Y1249984D03*
G01*
X3250006Y1249984D03*
G01*
X5250002Y1249984D03*
G01*
X4750003Y1249984D03*
G01*
X4750003Y749985D03*
G01*
X5250002Y749985D03*
G01*
X7249998Y1749983D03*
G01*
X6749999Y1749983D03*
G01*
X6749999Y1249984D03*
G01*
X7249998Y1249984D03*
G01*
X8249996Y3249980D03*
G01*
X7749997Y3249980D03*
G01*
X7749997Y2749981D03*
G01*
X8249996Y2749981D03*
D43*
G01*
X2909064Y8529982D03*
G01*
X2710944Y8529982D03*
D44*
G01*
X1399997Y8144992D03*
G01*
X1299997Y8079994D03*
G01*
X599998Y8299983D03*
G01*
X2499995Y9559975D03*
G01*
X2799994Y9299981D03*
G01*
X1929993Y7649971D03*
G01*
X2149983Y7649971D03*
G01*
X2149983Y7729981D03*
G01*
X1999995Y7729981D03*
G01*
X2450084Y8999981D03*
G01*
X2330094Y9119971D03*
G01*
X2389144Y9060921D03*
G01*
X4899990Y8549982D03*
G01*
X4999990Y8549982D03*
G01*
X5399989Y8349983D03*
G01*
X8199983Y8999981D03*
G01*
X7899984Y8999981D03*
G01*
X7999984Y8999981D03*
G01*
X8099983Y8999981D03*
G01*
X6399987Y8999981D03*
G01*
X6299987Y8999981D03*
G01*
X6199987Y8999981D03*
G01*
X4999990Y8459983D03*
G01*
X4899990Y8279983D03*
G01*
X8199983Y8899982D03*
G01*
X6099987Y7699984D03*
G01*
X8399983Y4699990D03*
G01*
X8399983Y5199989D03*
G01*
X8099983Y4599990D03*
G01*
X8099983Y5099989D03*
G01*
X7799984Y4599990D03*
G01*
X7799984Y5099989D03*
G01*
X5999988Y8899982D03*
G01*
X5999988Y9099981D03*
D45*
G01*
X9411096Y3730906D03*
G01*
X107205Y8876774D03*
G01*
X107205Y7352776D03*
G01*
X107205Y6844779D03*
G01*
X107205Y6336779D03*
G01*
X107205Y5828781D03*
G01*
X107205Y5320781D03*
G01*
X107205Y4812781D03*
G01*
X107205Y4304784D03*
G01*
X107205Y3796784D03*
G01*
X107205Y3288786D03*
G01*
X107205Y2780786D03*
G01*
X107205Y2272786D03*
G01*
X107205Y1764789D03*
G01*
X107205Y1256789D03*
G01*
X615205Y8876774D03*
G01*
X615205Y7860776D03*
G01*
X615205Y7352776D03*
G01*
X615205Y6844779D03*
G01*
X615205Y5320781D03*
G01*
X615205Y3796784D03*
G01*
X615205Y3288786D03*
G01*
X615205Y2780786D03*
G01*
X615205Y2272786D03*
G01*
X615205Y1764789D03*
G01*
X615205Y1256789D03*
G01*
X1123203Y9892771D03*
G01*
X1123203Y9384774D03*
G01*
X1123203Y8876774D03*
G01*
X1123203Y7860776D03*
G01*
X1123203Y7352776D03*
G01*
X1123203Y6844779D03*
G01*
X1123203Y5320781D03*
G01*
X1123203Y3796784D03*
G01*
X1123203Y3288786D03*
G01*
X1123203Y2780786D03*
G01*
X1123203Y2272786D03*
G01*
X1123203Y1764789D03*
G01*
X1123203Y1256789D03*
G01*
X1123203Y748792D03*
G01*
X1123203Y240792D03*
G01*
X1631203Y9892771D03*
G01*
X1631203Y9384774D03*
G01*
X1631203Y8876774D03*
G01*
X1631203Y7860776D03*
G01*
X1631203Y6844779D03*
G01*
X1631203Y6336779D03*
G01*
X1631203Y4812781D03*
G01*
X1631203Y4304784D03*
G01*
X1631203Y3796784D03*
G01*
X1631203Y2272786D03*
G01*
X1631203Y1764789D03*
G01*
X1631203Y1256789D03*
G01*
X1631203Y748792D03*
G01*
X1631203Y240792D03*
G01*
X2139200Y6336779D03*
G01*
X2139200Y5828781D03*
G01*
X2139200Y4812781D03*
G01*
X2139200Y4304784D03*
G01*
X2139200Y3796784D03*
G01*
X2139200Y2272786D03*
G01*
X2139200Y1764789D03*
G01*
X2139200Y1256789D03*
G01*
X2139200Y748792D03*
G01*
X2139200Y240792D03*
G01*
X2647200Y9892771D03*
G01*
X2647200Y8368776D03*
G01*
X2647200Y3796784D03*
G01*
X2647200Y3288786D03*
G01*
X2647200Y2780786D03*
G01*
X2647200Y2272786D03*
G01*
X2647200Y748792D03*
G01*
X2647200Y240792D03*
G01*
X3155200Y9892771D03*
G01*
X3155200Y9384774D03*
G01*
X3155200Y8876774D03*
G01*
X3155200Y8368776D03*
G01*
X3155200Y3288786D03*
G01*
X3155200Y2780786D03*
G01*
X3155200Y2272786D03*
G01*
X3155200Y748792D03*
G01*
X3155200Y240792D03*
G01*
X3663198Y9892771D03*
G01*
X3663198Y9384774D03*
G01*
X3663198Y4812781D03*
G01*
X3663198Y2272786D03*
G01*
X3663198Y1256789D03*
G01*
X3663198Y748792D03*
G01*
X3663198Y240792D03*
G01*
X4171198Y9892771D03*
G01*
X4171198Y9384774D03*
G01*
X4171198Y4812781D03*
G01*
X4171198Y4304784D03*
G01*
X4171198Y2272786D03*
G01*
X4171198Y1256789D03*
G01*
X4171198Y748792D03*
G01*
X4171198Y240792D03*
G01*
X4679195Y9892771D03*
G01*
X4679195Y9384774D03*
G01*
X4679195Y4304784D03*
G01*
X4679195Y3288786D03*
G01*
X4679195Y2780786D03*
G01*
X4679195Y2272786D03*
G01*
X4679195Y240792D03*
G01*
X5187195Y9892771D03*
G01*
X5187195Y9384774D03*
G01*
X5187195Y4304784D03*
G01*
X5187195Y3288786D03*
G01*
X5187195Y2780786D03*
G01*
X5187195Y2272786D03*
G01*
X5187195Y240792D03*
G01*
X5695195Y9892771D03*
G01*
X5599988Y9199981D03*
G01*
X5695195Y4812781D03*
G01*
X5695195Y4304784D03*
G01*
X5695195Y2272786D03*
G01*
X5695195Y1256789D03*
G01*
X5695195Y240792D03*
G01*
X6203193Y4812781D03*
G01*
X6203193Y4304784D03*
G01*
X6203193Y2272786D03*
G01*
X6203193Y1256789D03*
G01*
X6203193Y748792D03*
G01*
X6203193Y240792D03*
G01*
X6711193Y3288786D03*
G01*
X6711193Y2780786D03*
G01*
X6711193Y748792D03*
G01*
X6711193Y240792D03*
G01*
X7219190Y8368776D03*
G01*
X7219190Y5320781D03*
G01*
X7219190Y2780786D03*
G01*
X7219190Y2272786D03*
G01*
X7219190Y748792D03*
G01*
X7219190Y240792D03*
G01*
X7727190Y7860776D03*
G01*
X7727190Y2272786D03*
G01*
X7727190Y1256789D03*
G01*
X7727190Y748792D03*
G01*
X7727190Y240792D03*
G01*
X8235190Y6336779D03*
G01*
X8235190Y5828781D03*
G01*
X8235190Y5320781D03*
G01*
X8235190Y4304784D03*
G01*
X8235190Y3796784D03*
G01*
X8235190Y2272786D03*
G01*
X8235190Y1256789D03*
G01*
X8235190Y748792D03*
G01*
X8235190Y240792D03*
G01*
X8743188Y9384774D03*
G01*
X8743188Y3796784D03*
G01*
X8743188Y2780786D03*
G01*
X8743188Y2272786D03*
G01*
X8743188Y1256789D03*
G01*
X8743188Y748792D03*
G01*
X8743188Y240792D03*
G01*
X9251188Y8876774D03*
G01*
X9251188Y2780786D03*
G01*
X9251188Y2272786D03*
G01*
X9251188Y1256789D03*
G01*
X9759185Y8876774D03*
G01*
X9759185Y1764789D03*
G01*
X9759185Y1256789D03*
M02*
