G04 Layer: TopLayer*
G04 EasyEDA v6.5.20, 2022-12-02 00:59:29*
G04 a67cddfb3fce44daa9051d46cbbcc19f,10*
G04 Gerber Generator version 0.2*
G04 Scale: 100 percent, Rotated: No, Reflected: No *
G04 Dimensions in millimeters *
G04 leading zeros omitted , absolute positions ,4 integer and 5 decimal *
%FSLAX45Y45*%
%MOMM*%

%ADD10C,0.4000*%
%ADD11C,0.3000*%
%ADD12C,1.0000*%
%ADD13C,0.2500*%
%ADD14C,0.7500*%
%ADD15C,0.5000*%
%ADD16R,1.4000X0.4000*%
%ADD17C,2.8500*%
%ADD18C,1.8000*%
%ADD19C,2.0000*%
%ADD20O,2.1999956000000003X1.2999974*%
%ADD21C,1.3000*%
%ADD22C,1.4224*%
%ADD23C,0.6096*%
%ADD24C,0.6100*%
%ADD25C,0.0105*%

%LPD*%
G36*
X731012Y25908D02*
G01*
X727202Y26670D01*
X723950Y28803D01*
X721715Y32004D01*
X720852Y35864D01*
X721563Y39674D01*
X723595Y43027D01*
X726795Y45313D01*
X730402Y46939D01*
X757834Y61722D01*
X784301Y78130D01*
X809701Y96164D01*
X833932Y115722D01*
X856945Y136702D01*
X878586Y159105D01*
X898855Y182778D01*
X917549Y207670D01*
X934719Y233629D01*
X950264Y260654D01*
X964133Y288544D01*
X976223Y317246D01*
X986485Y346659D01*
X994968Y376631D01*
X1001572Y407060D01*
X1006297Y437845D01*
X1009091Y468884D01*
X1010005Y499973D01*
X1009091Y531114D01*
X1006297Y562152D01*
X1001572Y592937D01*
X994968Y623366D01*
X986485Y653338D01*
X976223Y682752D01*
X964133Y711454D01*
X950264Y739343D01*
X934719Y766368D01*
X917549Y792327D01*
X898855Y817219D01*
X878586Y840892D01*
X856945Y863295D01*
X833932Y884275D01*
X809701Y903833D01*
X784301Y921867D01*
X757834Y938276D01*
X730402Y953058D01*
X702106Y966063D01*
X673049Y977341D01*
X643382Y986790D01*
X613206Y994410D01*
X582574Y1000150D01*
X551637Y1003960D01*
X520547Y1005890D01*
X489407Y1005890D01*
X458317Y1003960D01*
X427431Y1000150D01*
X396798Y994410D01*
X366623Y986790D01*
X336956Y977341D01*
X307898Y966063D01*
X279603Y953058D01*
X252171Y938276D01*
X225704Y921867D01*
X200304Y903833D01*
X176072Y884275D01*
X153060Y863295D01*
X131419Y840892D01*
X111150Y817219D01*
X92405Y792327D01*
X75234Y766368D01*
X59740Y739343D01*
X45872Y711454D01*
X43230Y707085D01*
X39928Y704900D01*
X36017Y704138D01*
X32156Y704951D01*
X28854Y707136D01*
X26670Y710438D01*
X25908Y714298D01*
X25908Y7644384D01*
X26670Y7648244D01*
X28803Y7651496D01*
X32004Y7653731D01*
X35814Y7654544D01*
X39674Y7653883D01*
X43027Y7651851D01*
X45516Y7649514D01*
X55626Y7642352D01*
X66649Y7636611D01*
X78333Y7632496D01*
X86512Y7630769D01*
X86512Y7681163D01*
X36068Y7681163D01*
X32156Y7681925D01*
X28905Y7684109D01*
X26670Y7687411D01*
X25908Y7691323D01*
X25908Y7748676D01*
X26670Y7752588D01*
X28905Y7755839D01*
X32156Y7758074D01*
X36068Y7758836D01*
X86512Y7758836D01*
X86512Y7809179D01*
X78333Y7807502D01*
X66649Y7803337D01*
X55626Y7797647D01*
X45516Y7790484D01*
X43027Y7788148D01*
X39674Y7786065D01*
X35814Y7785404D01*
X32004Y7786268D01*
X28803Y7788452D01*
X26670Y7791754D01*
X25908Y7795564D01*
X25908Y8364423D01*
X26670Y8368233D01*
X28803Y8371484D01*
X32004Y8373719D01*
X35814Y8374583D01*
X39674Y8373922D01*
X43027Y8371840D01*
X45516Y8369503D01*
X55626Y8362340D01*
X66649Y8356650D01*
X78333Y8352485D01*
X86512Y8350758D01*
X86512Y8401151D01*
X36068Y8401151D01*
X32156Y8401913D01*
X28905Y8404098D01*
X26670Y8407400D01*
X25908Y8411311D01*
X25908Y8468664D01*
X26670Y8472576D01*
X28905Y8475878D01*
X32156Y8478062D01*
X36068Y8478824D01*
X86512Y8478824D01*
X86512Y8529218D01*
X78333Y8527491D01*
X66649Y8523325D01*
X55626Y8517636D01*
X45516Y8510473D01*
X43027Y8508136D01*
X39674Y8506053D01*
X35814Y8505393D01*
X32004Y8506256D01*
X28803Y8508492D01*
X26670Y8511743D01*
X25908Y8515553D01*
X25908Y9285681D01*
X26670Y9289542D01*
X28854Y9292844D01*
X32156Y9295028D01*
X36017Y9295841D01*
X39928Y9295079D01*
X43230Y9292894D01*
X45872Y9288526D01*
X59740Y9260636D01*
X75234Y9233611D01*
X92405Y9207652D01*
X111150Y9182760D01*
X131419Y9159087D01*
X153060Y9136684D01*
X176072Y9115704D01*
X200304Y9096146D01*
X225704Y9078112D01*
X252171Y9061704D01*
X279603Y9046921D01*
X307898Y9033916D01*
X336956Y9022638D01*
X366623Y9013190D01*
X396798Y9005570D01*
X427431Y8999829D01*
X458317Y8996019D01*
X489407Y8994089D01*
X520547Y8994089D01*
X551637Y8996019D01*
X582574Y8999829D01*
X613206Y9005570D01*
X643382Y9013190D01*
X673049Y9022638D01*
X702106Y9033916D01*
X730402Y9046921D01*
X757834Y9061704D01*
X784301Y9078112D01*
X809701Y9096146D01*
X833932Y9115704D01*
X856945Y9136684D01*
X878586Y9159087D01*
X898855Y9182760D01*
X917549Y9207652D01*
X934719Y9233611D01*
X950264Y9260636D01*
X964133Y9288526D01*
X976223Y9317228D01*
X986485Y9346641D01*
X994968Y9376613D01*
X1001572Y9407042D01*
X1006297Y9437827D01*
X1009091Y9468866D01*
X1010005Y9499955D01*
X1009091Y9531096D01*
X1006297Y9562134D01*
X1001572Y9592919D01*
X994968Y9623348D01*
X986485Y9653320D01*
X976223Y9682734D01*
X964133Y9711436D01*
X950264Y9739325D01*
X934719Y9766350D01*
X917549Y9792309D01*
X898855Y9817201D01*
X878586Y9840874D01*
X856945Y9863277D01*
X833932Y9884257D01*
X809701Y9903815D01*
X784301Y9921849D01*
X757834Y9938258D01*
X730402Y9953040D01*
X726795Y9954666D01*
X723595Y9956952D01*
X721563Y9960305D01*
X720852Y9964115D01*
X721715Y9967976D01*
X723950Y9971176D01*
X727202Y9973310D01*
X731012Y9974072D01*
X5999429Y9974072D01*
X6030061Y9973106D01*
X6059728Y9970262D01*
X6089142Y9965588D01*
X6118199Y9959086D01*
X6146800Y9950754D01*
X6174790Y9940645D01*
X6202121Y9928809D01*
X6228638Y9915245D01*
X6254292Y9900056D01*
X6278880Y9883343D01*
X6302400Y9865055D01*
X6324752Y9845344D01*
X6345783Y9824262D01*
X6365443Y9801910D01*
X6383680Y9778390D01*
X6400444Y9753752D01*
X6415582Y9728098D01*
X6429095Y9701530D01*
X6440881Y9674199D01*
X6450939Y9646158D01*
X6459220Y9617557D01*
X6465722Y9588500D01*
X6470345Y9559086D01*
X6473139Y9529419D01*
X6474104Y9499447D01*
X6474104Y9200591D01*
X6474866Y9194088D01*
X6476949Y9188551D01*
X6480505Y9183420D01*
X6483553Y9180372D01*
X6487160Y9177731D01*
X6492697Y9175242D01*
X6500164Y9174073D01*
X8499348Y9174073D01*
X8505850Y9174886D01*
X8511387Y9176969D01*
X8516518Y9180525D01*
X8519566Y9183522D01*
X8522208Y9187129D01*
X8524697Y9192666D01*
X8525916Y9200134D01*
X8525916Y9499447D01*
X8526881Y9530080D01*
X8529675Y9559696D01*
X8534349Y9589109D01*
X8540902Y9618167D01*
X8549233Y9646767D01*
X8559342Y9674809D01*
X8571179Y9702139D01*
X8584692Y9728657D01*
X8599881Y9754260D01*
X8616645Y9778898D01*
X8634933Y9802418D01*
X8654643Y9824720D01*
X8675674Y9845802D01*
X8698026Y9865461D01*
X8721598Y9883698D01*
X8746236Y9900412D01*
X8771890Y9915550D01*
X8798407Y9929063D01*
X8825738Y9940899D01*
X8853779Y9950958D01*
X8882380Y9959238D01*
X8911488Y9965690D01*
X8940901Y9970363D01*
X8970518Y9973157D01*
X9000540Y9974072D01*
X9278975Y9974072D01*
X9282785Y9973310D01*
X9286036Y9971176D01*
X9288272Y9967976D01*
X9289084Y9964115D01*
X9288424Y9960305D01*
X9286392Y9956952D01*
X9283192Y9954666D01*
X9279585Y9953040D01*
X9252153Y9938258D01*
X9225686Y9921849D01*
X9200286Y9903815D01*
X9176054Y9884257D01*
X9153042Y9863277D01*
X9131401Y9840874D01*
X9111132Y9817201D01*
X9092387Y9792309D01*
X9075216Y9766350D01*
X9059722Y9739325D01*
X9045854Y9711436D01*
X9033764Y9682734D01*
X9023451Y9653320D01*
X9015018Y9623348D01*
X9008414Y9592919D01*
X9003690Y9562134D01*
X9000896Y9531096D01*
X8999982Y9500006D01*
X9000896Y9468866D01*
X9003690Y9437827D01*
X9008414Y9407042D01*
X9015018Y9376613D01*
X9023451Y9346641D01*
X9033764Y9317228D01*
X9045854Y9288526D01*
X9059722Y9260636D01*
X9075216Y9233611D01*
X9092387Y9207652D01*
X9111132Y9182760D01*
X9131401Y9159087D01*
X9153042Y9136684D01*
X9176054Y9115704D01*
X9200286Y9096146D01*
X9225686Y9078112D01*
X9252153Y9061704D01*
X9279585Y9046921D01*
X9307880Y9033916D01*
X9336938Y9022638D01*
X9366605Y9013190D01*
X9396780Y9005570D01*
X9427413Y8999829D01*
X9458299Y8996019D01*
X9489389Y8994089D01*
X9520529Y8994089D01*
X9551619Y8996019D01*
X9582556Y8999829D01*
X9613188Y9005570D01*
X9643364Y9013190D01*
X9673031Y9022638D01*
X9702088Y9033916D01*
X9730384Y9046921D01*
X9757816Y9061704D01*
X9784283Y9078112D01*
X9809683Y9096146D01*
X9833914Y9115704D01*
X9856927Y9136684D01*
X9878568Y9159087D01*
X9898837Y9182760D01*
X9917531Y9207652D01*
X9934702Y9233611D01*
X9950246Y9260636D01*
X9954818Y9269831D01*
X9957663Y9273286D01*
X9961727Y9275216D01*
X9966248Y9275165D01*
X9970262Y9273235D01*
X9973056Y9269679D01*
X9974072Y9265310D01*
X9974072Y734669D01*
X9973056Y730300D01*
X9970262Y726744D01*
X9966248Y724814D01*
X9961727Y724763D01*
X9957663Y726694D01*
X9954818Y730148D01*
X9950246Y739343D01*
X9934702Y766368D01*
X9917531Y792327D01*
X9898837Y817219D01*
X9878568Y840892D01*
X9856927Y863295D01*
X9833914Y884275D01*
X9809683Y903833D01*
X9784283Y921867D01*
X9757816Y938276D01*
X9730384Y953058D01*
X9702088Y966063D01*
X9673031Y977341D01*
X9643364Y986790D01*
X9613188Y994410D01*
X9582556Y1000150D01*
X9551619Y1003960D01*
X9520529Y1005890D01*
X9489389Y1005890D01*
X9458299Y1003960D01*
X9427413Y1000150D01*
X9396780Y994410D01*
X9366605Y986790D01*
X9336938Y977341D01*
X9307880Y966063D01*
X9279585Y953058D01*
X9252153Y938276D01*
X9225686Y921867D01*
X9200286Y903833D01*
X9176054Y884275D01*
X9153042Y863295D01*
X9131401Y840892D01*
X9111132Y817219D01*
X9092387Y792327D01*
X9075216Y766368D01*
X9059722Y739343D01*
X9045854Y711454D01*
X9033764Y682752D01*
X9023451Y653338D01*
X9015018Y623366D01*
X9008414Y592937D01*
X9003690Y562152D01*
X9000896Y531114D01*
X8999982Y500024D01*
X9000896Y468884D01*
X9003690Y437845D01*
X9008414Y407060D01*
X9015018Y376631D01*
X9023451Y346659D01*
X9033764Y317246D01*
X9045854Y288544D01*
X9059722Y260654D01*
X9075216Y233629D01*
X9092387Y207670D01*
X9111132Y182778D01*
X9131401Y159105D01*
X9153042Y136702D01*
X9176054Y115722D01*
X9200286Y96164D01*
X9225686Y78130D01*
X9252153Y61722D01*
X9279585Y46939D01*
X9283192Y45313D01*
X9286392Y43027D01*
X9288424Y39674D01*
X9289084Y35864D01*
X9288272Y32004D01*
X9286036Y28803D01*
X9282785Y26670D01*
X9278975Y25908D01*
G37*

%LPC*%
G36*
X4427575Y9627565D02*
G01*
X4499457Y9627565D01*
X4490313Y9643059D01*
X4479645Y9657435D01*
X4467453Y9670643D01*
X4453991Y9682429D01*
X4439310Y9692741D01*
X4427575Y9699244D01*
G37*
G36*
X4806340Y637540D02*
G01*
X4808524Y638505D01*
X4821529Y646379D01*
X4833467Y655726D01*
X4844237Y666496D01*
X4853584Y678484D01*
X4861458Y691489D01*
X4862423Y693623D01*
X4806340Y693623D01*
G37*
G36*
X4693666Y637540D02*
G01*
X4693666Y693623D01*
X4637582Y693623D01*
X4638548Y691489D01*
X4646422Y678484D01*
X4655769Y666496D01*
X4666538Y655726D01*
X4678476Y646379D01*
X4691481Y638505D01*
G37*
G36*
X5193639Y637540D02*
G01*
X5193639Y693623D01*
X5137556Y693623D01*
X5138521Y691489D01*
X5146395Y678484D01*
X5155793Y666496D01*
X5166512Y655726D01*
X5178501Y646379D01*
X5191506Y638505D01*
G37*
G36*
X4200804Y9627565D02*
G01*
X4272381Y9627565D01*
X4272381Y9699244D01*
X4268419Y9697262D01*
X4253179Y9687763D01*
X4239107Y9676688D01*
X4226255Y9664192D01*
X4214825Y9650425D01*
X4204919Y9635490D01*
G37*
G36*
X4427575Y9400743D02*
G01*
X4439310Y9407245D01*
X4453991Y9417507D01*
X4467453Y9429343D01*
X4479645Y9442500D01*
X4490313Y9456877D01*
X4499457Y9472371D01*
X4427575Y9472371D01*
G37*
G36*
X4637582Y806297D02*
G01*
X4693666Y806297D01*
X4693666Y862431D01*
X4691481Y861466D01*
X4678476Y853592D01*
X4666538Y844194D01*
X4655769Y833475D01*
X4646422Y821486D01*
X4638548Y808482D01*
G37*
G36*
X5306364Y806297D02*
G01*
X5362448Y806297D01*
X5361482Y808482D01*
X5353608Y821486D01*
X5344210Y833475D01*
X5333492Y844194D01*
X5321503Y853592D01*
X5308498Y861466D01*
X5306364Y862431D01*
G37*
G36*
X4806340Y806297D02*
G01*
X4862423Y806297D01*
X4861458Y808482D01*
X4853584Y821486D01*
X4844237Y833475D01*
X4833467Y844194D01*
X4821529Y853592D01*
X4808524Y861466D01*
X4806340Y862431D01*
G37*
G36*
X5137556Y806297D02*
G01*
X5193639Y806297D01*
X5193639Y862431D01*
X5191506Y861466D01*
X5178501Y853592D01*
X5166512Y844194D01*
X5155793Y833475D01*
X5146395Y821486D01*
X5138521Y808482D01*
G37*
G36*
X5250027Y1124102D02*
G01*
X5265166Y1125016D01*
X5280152Y1127760D01*
X5294630Y1132281D01*
X5308498Y1138529D01*
X5321503Y1146403D01*
X5333492Y1155750D01*
X5344210Y1166520D01*
X5353608Y1178458D01*
X5361482Y1191463D01*
X5367731Y1205331D01*
X5372252Y1219860D01*
X5374995Y1234795D01*
X5375910Y1249984D01*
X5374995Y1265174D01*
X5372252Y1280109D01*
X5367731Y1294638D01*
X5361482Y1308506D01*
X5353608Y1321511D01*
X5344210Y1333449D01*
X5333492Y1344218D01*
X5321503Y1353566D01*
X5308498Y1361440D01*
X5294630Y1367688D01*
X5280152Y1372209D01*
X5265166Y1374952D01*
X5250027Y1375867D01*
X5234838Y1374952D01*
X5219852Y1372209D01*
X5205374Y1367688D01*
X5191506Y1361440D01*
X5178501Y1353566D01*
X5166512Y1344218D01*
X5155793Y1333449D01*
X5146395Y1321511D01*
X5138521Y1308506D01*
X5132273Y1294638D01*
X5127752Y1280109D01*
X5125008Y1265174D01*
X5124094Y1249984D01*
X5125008Y1234795D01*
X5127752Y1219860D01*
X5132273Y1205331D01*
X5138521Y1191463D01*
X5146395Y1178458D01*
X5155793Y1166520D01*
X5166512Y1155750D01*
X5178501Y1146403D01*
X5191506Y1138529D01*
X5205374Y1132281D01*
X5219852Y1127760D01*
X5234838Y1125016D01*
G37*
G36*
X4750003Y1124102D02*
G01*
X4765192Y1125016D01*
X4780127Y1127760D01*
X4794656Y1132281D01*
X4808524Y1138529D01*
X4821529Y1146403D01*
X4833467Y1155750D01*
X4844237Y1166520D01*
X4853584Y1178458D01*
X4861458Y1191463D01*
X4867706Y1205331D01*
X4872228Y1219860D01*
X4874971Y1234795D01*
X4875885Y1249984D01*
X4874971Y1265174D01*
X4872228Y1280109D01*
X4867706Y1294638D01*
X4861458Y1308506D01*
X4853584Y1321511D01*
X4844237Y1333449D01*
X4833467Y1344218D01*
X4821529Y1353566D01*
X4808524Y1361440D01*
X4794656Y1367688D01*
X4780127Y1372209D01*
X4765192Y1374952D01*
X4750003Y1375867D01*
X4734814Y1374952D01*
X4719878Y1372209D01*
X4705350Y1367688D01*
X4691481Y1361440D01*
X4678476Y1353566D01*
X4666538Y1344218D01*
X4655769Y1333449D01*
X4646422Y1321511D01*
X4638548Y1308506D01*
X4632299Y1294638D01*
X4627778Y1280109D01*
X4625035Y1265174D01*
X4624120Y1249984D01*
X4625035Y1234795D01*
X4627778Y1219860D01*
X4632299Y1205331D01*
X4638548Y1191463D01*
X4646422Y1178458D01*
X4655769Y1166520D01*
X4666538Y1155750D01*
X4678476Y1146403D01*
X4691481Y1138529D01*
X4705350Y1132281D01*
X4719878Y1127760D01*
X4734814Y1125016D01*
G37*
G36*
X6806336Y1137513D02*
G01*
X6808520Y1138478D01*
X6821525Y1146352D01*
X6833463Y1155750D01*
X6844233Y1166469D01*
X6853580Y1178458D01*
X6861454Y1191463D01*
X6862419Y1193596D01*
X6806336Y1193596D01*
G37*
G36*
X7306360Y1137513D02*
G01*
X7308494Y1138478D01*
X7321499Y1146352D01*
X7333488Y1155750D01*
X7344206Y1166469D01*
X7353604Y1178458D01*
X7361478Y1191463D01*
X7362444Y1193596D01*
X7306360Y1193596D01*
G37*
G36*
X3306368Y1137513D02*
G01*
X3308502Y1138478D01*
X3321507Y1146352D01*
X3333496Y1155750D01*
X3344214Y1166469D01*
X3353612Y1178458D01*
X3361486Y1191463D01*
X3362451Y1193596D01*
X3306368Y1193596D01*
G37*
G36*
X2806344Y1137513D02*
G01*
X2808528Y1138478D01*
X2821533Y1146352D01*
X2833471Y1155750D01*
X2844241Y1166469D01*
X2853588Y1178458D01*
X2861462Y1191463D01*
X2862427Y1193596D01*
X2806344Y1193596D01*
G37*
G36*
X3193643Y1137513D02*
G01*
X3193643Y1193596D01*
X3137560Y1193596D01*
X3138525Y1191463D01*
X3146399Y1178458D01*
X3155797Y1166469D01*
X3166516Y1155750D01*
X3178505Y1146352D01*
X3191510Y1138478D01*
G37*
G36*
X7193635Y1137513D02*
G01*
X7193635Y1193596D01*
X7137552Y1193596D01*
X7138517Y1191463D01*
X7146391Y1178458D01*
X7155789Y1166469D01*
X7166508Y1155750D01*
X7178497Y1146352D01*
X7191502Y1138478D01*
G37*
G36*
X6693662Y1137513D02*
G01*
X6693662Y1193596D01*
X6637578Y1193596D01*
X6638544Y1191463D01*
X6646418Y1178458D01*
X6655765Y1166469D01*
X6666534Y1155750D01*
X6678472Y1146352D01*
X6691477Y1138478D01*
G37*
G36*
X2693670Y1137513D02*
G01*
X2693670Y1193596D01*
X2637586Y1193596D01*
X2638552Y1191463D01*
X2646426Y1178458D01*
X2655773Y1166469D01*
X2666542Y1155750D01*
X2678480Y1146352D01*
X2691485Y1138478D01*
G37*
G36*
X3137560Y1306322D02*
G01*
X3193643Y1306322D01*
X3193643Y1362405D01*
X3191510Y1361440D01*
X3178505Y1353566D01*
X3166516Y1344218D01*
X3155797Y1333449D01*
X3146399Y1321460D01*
X3138525Y1308455D01*
G37*
G36*
X6637578Y1306322D02*
G01*
X6693662Y1306322D01*
X6693662Y1362405D01*
X6691477Y1361440D01*
X6678472Y1353566D01*
X6666534Y1344218D01*
X6655765Y1333449D01*
X6646418Y1321460D01*
X6638544Y1308455D01*
G37*
G36*
X7306360Y1306322D02*
G01*
X7362444Y1306322D01*
X7361478Y1308455D01*
X7353604Y1321460D01*
X7344206Y1333449D01*
X7333488Y1344218D01*
X7321499Y1353566D01*
X7308494Y1361440D01*
X7306360Y1362405D01*
G37*
G36*
X7137552Y1306322D02*
G01*
X7193635Y1306322D01*
X7193635Y1362405D01*
X7191502Y1361440D01*
X7178497Y1353566D01*
X7166508Y1344218D01*
X7155789Y1333449D01*
X7146391Y1321460D01*
X7138517Y1308455D01*
G37*
G36*
X2637586Y1306322D02*
G01*
X2693670Y1306322D01*
X2693670Y1362405D01*
X2691485Y1361440D01*
X2678480Y1353566D01*
X2666542Y1344218D01*
X2655773Y1333449D01*
X2646426Y1321460D01*
X2638552Y1308455D01*
G37*
G36*
X2806344Y1306322D02*
G01*
X2862427Y1306322D01*
X2861462Y1308455D01*
X2853588Y1321460D01*
X2844241Y1333449D01*
X2833471Y1344218D01*
X2821533Y1353566D01*
X2808528Y1361440D01*
X2806344Y1362405D01*
G37*
G36*
X6806336Y1306322D02*
G01*
X6862419Y1306322D01*
X6861454Y1308455D01*
X6853580Y1321460D01*
X6844233Y1333449D01*
X6833463Y1344218D01*
X6821525Y1353566D01*
X6808520Y1361440D01*
X6806336Y1362405D01*
G37*
G36*
X3306368Y1306322D02*
G01*
X3362451Y1306322D01*
X3361486Y1308455D01*
X3353612Y1321460D01*
X3344214Y1333449D01*
X3333496Y1344218D01*
X3321507Y1353566D01*
X3308502Y1361440D01*
X3306368Y1362405D01*
G37*
G36*
X3250031Y1624076D02*
G01*
X3265170Y1624990D01*
X3280156Y1627733D01*
X3294634Y1632254D01*
X3308502Y1638503D01*
X3321507Y1646377D01*
X3333496Y1655775D01*
X3344214Y1666493D01*
X3353612Y1678482D01*
X3361486Y1691487D01*
X3367735Y1705356D01*
X3372256Y1719834D01*
X3374999Y1734820D01*
X3375914Y1749958D01*
X3374999Y1765147D01*
X3372256Y1780133D01*
X3367735Y1794611D01*
X3361486Y1808480D01*
X3353612Y1821484D01*
X3344214Y1833473D01*
X3333496Y1844192D01*
X3321507Y1853590D01*
X3308502Y1861464D01*
X3294634Y1867712D01*
X3280156Y1872234D01*
X3265170Y1874977D01*
X3250031Y1875891D01*
X3234842Y1874977D01*
X3219856Y1872234D01*
X3205378Y1867712D01*
X3191510Y1861464D01*
X3178505Y1853590D01*
X3166516Y1844192D01*
X3155797Y1833473D01*
X3146399Y1821484D01*
X3138525Y1808480D01*
X3132277Y1794611D01*
X3127756Y1780133D01*
X3125012Y1765147D01*
X3124098Y1749958D01*
X3125012Y1734820D01*
X3127756Y1719834D01*
X3132277Y1705356D01*
X3138525Y1691487D01*
X3146399Y1678482D01*
X3155797Y1666493D01*
X3166516Y1655775D01*
X3178505Y1646377D01*
X3191510Y1638503D01*
X3205378Y1632254D01*
X3219856Y1627733D01*
X3234842Y1624990D01*
G37*
G36*
X7250023Y1624076D02*
G01*
X7265162Y1624990D01*
X7280148Y1627733D01*
X7294625Y1632254D01*
X7308494Y1638503D01*
X7321499Y1646377D01*
X7333488Y1655775D01*
X7344206Y1666493D01*
X7353604Y1678482D01*
X7361478Y1691487D01*
X7367727Y1705356D01*
X7372248Y1719834D01*
X7374991Y1734820D01*
X7375906Y1749958D01*
X7374991Y1765147D01*
X7372248Y1780133D01*
X7367727Y1794611D01*
X7361478Y1808480D01*
X7353604Y1821484D01*
X7344206Y1833473D01*
X7333488Y1844192D01*
X7321499Y1853590D01*
X7308494Y1861464D01*
X7294625Y1867712D01*
X7280148Y1872234D01*
X7265162Y1874977D01*
X7250023Y1875891D01*
X7234834Y1874977D01*
X7219848Y1872234D01*
X7205370Y1867712D01*
X7191502Y1861464D01*
X7178497Y1853590D01*
X7166508Y1844192D01*
X7155789Y1833473D01*
X7146391Y1821484D01*
X7138517Y1808480D01*
X7132269Y1794611D01*
X7127748Y1780133D01*
X7125004Y1765147D01*
X7124090Y1749958D01*
X7125004Y1734820D01*
X7127748Y1719834D01*
X7132269Y1705356D01*
X7138517Y1691487D01*
X7146391Y1678482D01*
X7155789Y1666493D01*
X7166508Y1655775D01*
X7178497Y1646377D01*
X7191502Y1638503D01*
X7205370Y1632254D01*
X7219848Y1627733D01*
X7234834Y1624990D01*
G37*
G36*
X2750007Y1624076D02*
G01*
X2765196Y1624990D01*
X2780131Y1627733D01*
X2794660Y1632254D01*
X2808528Y1638503D01*
X2821533Y1646377D01*
X2833471Y1655775D01*
X2844241Y1666493D01*
X2853588Y1678482D01*
X2861462Y1691487D01*
X2867710Y1705356D01*
X2872232Y1719834D01*
X2874975Y1734820D01*
X2875889Y1749958D01*
X2874975Y1765147D01*
X2872232Y1780133D01*
X2867710Y1794611D01*
X2861462Y1808480D01*
X2853588Y1821484D01*
X2844241Y1833473D01*
X2833471Y1844192D01*
X2821533Y1853590D01*
X2808528Y1861464D01*
X2794660Y1867712D01*
X2780131Y1872234D01*
X2765196Y1874977D01*
X2750007Y1875891D01*
X2734818Y1874977D01*
X2719882Y1872234D01*
X2705354Y1867712D01*
X2691485Y1861464D01*
X2678480Y1853590D01*
X2666542Y1844192D01*
X2655773Y1833473D01*
X2646426Y1821484D01*
X2638552Y1808480D01*
X2632303Y1794611D01*
X2627782Y1780133D01*
X2625039Y1765147D01*
X2624124Y1749958D01*
X2625039Y1734820D01*
X2627782Y1719834D01*
X2632303Y1705356D01*
X2638552Y1691487D01*
X2646426Y1678482D01*
X2655773Y1666493D01*
X2666542Y1655775D01*
X2678480Y1646377D01*
X2691485Y1638503D01*
X2705354Y1632254D01*
X2719882Y1627733D01*
X2734818Y1624990D01*
G37*
G36*
X6749999Y1624076D02*
G01*
X6765188Y1624990D01*
X6780123Y1627733D01*
X6794652Y1632254D01*
X6808520Y1638503D01*
X6821525Y1646377D01*
X6833463Y1655775D01*
X6844233Y1666493D01*
X6853580Y1678482D01*
X6861454Y1691487D01*
X6867702Y1705356D01*
X6872224Y1719834D01*
X6874967Y1734820D01*
X6875881Y1749958D01*
X6874967Y1765147D01*
X6872224Y1780133D01*
X6867702Y1794611D01*
X6861454Y1808480D01*
X6853580Y1821484D01*
X6844233Y1833473D01*
X6833463Y1844192D01*
X6821525Y1853590D01*
X6808520Y1861464D01*
X6794652Y1867712D01*
X6780123Y1872234D01*
X6765188Y1874977D01*
X6749999Y1875891D01*
X6734809Y1874977D01*
X6719874Y1872234D01*
X6705346Y1867712D01*
X6691477Y1861464D01*
X6678472Y1853590D01*
X6666534Y1844192D01*
X6655765Y1833473D01*
X6646418Y1821484D01*
X6638544Y1808480D01*
X6632295Y1794611D01*
X6627774Y1780133D01*
X6625031Y1765147D01*
X6624116Y1749958D01*
X6625031Y1734820D01*
X6627774Y1719834D01*
X6632295Y1705356D01*
X6638544Y1691487D01*
X6646418Y1678482D01*
X6655765Y1666493D01*
X6666534Y1655775D01*
X6678472Y1646377D01*
X6691477Y1638503D01*
X6705346Y1632254D01*
X6719874Y1627733D01*
X6734809Y1624990D01*
G37*
G36*
X5806338Y2637536D02*
G01*
X5808522Y2638501D01*
X5821527Y2646375D01*
X5833465Y2655722D01*
X5844235Y2666492D01*
X5853582Y2678480D01*
X5861456Y2691485D01*
X5862421Y2693619D01*
X5806338Y2693619D01*
G37*
G36*
X4306366Y2637536D02*
G01*
X4308500Y2638501D01*
X4321505Y2646375D01*
X4333494Y2655722D01*
X4344212Y2666492D01*
X4353610Y2678480D01*
X4361484Y2691485D01*
X4362450Y2693619D01*
X4306366Y2693619D01*
G37*
G36*
X3806342Y2637536D02*
G01*
X3808526Y2638501D01*
X3821531Y2646375D01*
X3833469Y2655722D01*
X3844239Y2666492D01*
X3853586Y2678480D01*
X3861460Y2691485D01*
X3862425Y2693619D01*
X3806342Y2693619D01*
G37*
G36*
X2306370Y2637536D02*
G01*
X2308504Y2638501D01*
X2321509Y2646375D01*
X2333498Y2655722D01*
X2344216Y2666492D01*
X2353614Y2678480D01*
X2361488Y2691485D01*
X2362454Y2693619D01*
X2306370Y2693619D01*
G37*
G36*
X7806334Y2637536D02*
G01*
X7808518Y2638501D01*
X7821523Y2646375D01*
X7833461Y2655722D01*
X7844231Y2666492D01*
X7853578Y2678480D01*
X7861452Y2691485D01*
X7862417Y2693619D01*
X7806334Y2693619D01*
G37*
G36*
X6306362Y2637536D02*
G01*
X6308496Y2638501D01*
X6321501Y2646375D01*
X6333490Y2655722D01*
X6344208Y2666492D01*
X6353606Y2678480D01*
X6361480Y2691485D01*
X6362446Y2693619D01*
X6306362Y2693619D01*
G37*
G36*
X8306358Y2637536D02*
G01*
X8308492Y2638501D01*
X8321497Y2646375D01*
X8333486Y2655722D01*
X8344204Y2666492D01*
X8353602Y2678480D01*
X8361476Y2691485D01*
X8362442Y2693619D01*
X8306358Y2693619D01*
G37*
G36*
X1806346Y2637536D02*
G01*
X1808530Y2638501D01*
X1821535Y2646375D01*
X1833473Y2655722D01*
X1844243Y2666492D01*
X1853590Y2678480D01*
X1861464Y2691485D01*
X1862429Y2693619D01*
X1806346Y2693619D01*
G37*
G36*
X3693668Y2637536D02*
G01*
X3693668Y2693619D01*
X3637584Y2693619D01*
X3638550Y2691485D01*
X3646424Y2678480D01*
X3655771Y2666492D01*
X3666540Y2655722D01*
X3678478Y2646375D01*
X3691483Y2638501D01*
G37*
G36*
X8193633Y2637536D02*
G01*
X8193633Y2693619D01*
X8137550Y2693619D01*
X8138515Y2691485D01*
X8146389Y2678480D01*
X8155787Y2666492D01*
X8166506Y2655722D01*
X8178495Y2646375D01*
X8191500Y2638501D01*
G37*
G36*
X7693659Y2637536D02*
G01*
X7693659Y2693619D01*
X7637576Y2693619D01*
X7638542Y2691485D01*
X7646416Y2678480D01*
X7655763Y2666492D01*
X7666532Y2655722D01*
X7678470Y2646375D01*
X7691475Y2638501D01*
G37*
G36*
X2193645Y2637536D02*
G01*
X2193645Y2693619D01*
X2137562Y2693619D01*
X2138527Y2691485D01*
X2146401Y2678480D01*
X2155799Y2666492D01*
X2166518Y2655722D01*
X2178507Y2646375D01*
X2191512Y2638501D01*
G37*
G36*
X1693672Y2637536D02*
G01*
X1693672Y2693619D01*
X1637588Y2693619D01*
X1638554Y2691485D01*
X1646428Y2678480D01*
X1655775Y2666492D01*
X1666544Y2655722D01*
X1678482Y2646375D01*
X1691487Y2638501D01*
G37*
G36*
X6193637Y2637536D02*
G01*
X6193637Y2693619D01*
X6137554Y2693619D01*
X6138519Y2691485D01*
X6146393Y2678480D01*
X6155791Y2666492D01*
X6166510Y2655722D01*
X6178499Y2646375D01*
X6191504Y2638501D01*
G37*
G36*
X4193641Y2637536D02*
G01*
X4193641Y2693619D01*
X4137558Y2693619D01*
X4138523Y2691485D01*
X4146397Y2678480D01*
X4155795Y2666492D01*
X4166514Y2655722D01*
X4178503Y2646375D01*
X4191508Y2638501D01*
G37*
G36*
X5693664Y2637536D02*
G01*
X5693664Y2693619D01*
X5637580Y2693619D01*
X5638546Y2691485D01*
X5646420Y2678480D01*
X5655767Y2666492D01*
X5666536Y2655722D01*
X5678474Y2646375D01*
X5691479Y2638501D01*
G37*
G36*
X5806338Y2806293D02*
G01*
X5862421Y2806293D01*
X5861456Y2808478D01*
X5853582Y2821482D01*
X5844235Y2833471D01*
X5833465Y2844190D01*
X5821527Y2853588D01*
X5808522Y2861462D01*
X5806338Y2862427D01*
G37*
G36*
X4137558Y2806293D02*
G01*
X4193641Y2806293D01*
X4193641Y2862427D01*
X4191508Y2861462D01*
X4178503Y2853588D01*
X4166514Y2844190D01*
X4155795Y2833471D01*
X4146397Y2821482D01*
X4138523Y2808478D01*
G37*
G36*
X4306366Y2806293D02*
G01*
X4362450Y2806293D01*
X4361484Y2808478D01*
X4353610Y2821482D01*
X4344212Y2833471D01*
X4333494Y2844190D01*
X4321505Y2853588D01*
X4308500Y2861462D01*
X4306366Y2862427D01*
G37*
G36*
X6137554Y2806293D02*
G01*
X6193637Y2806293D01*
X6193637Y2862427D01*
X6191504Y2861462D01*
X6178499Y2853588D01*
X6166510Y2844190D01*
X6155791Y2833471D01*
X6146393Y2821482D01*
X6138519Y2808478D01*
G37*
G36*
X3806342Y2806293D02*
G01*
X3862425Y2806293D01*
X3861460Y2808478D01*
X3853586Y2821482D01*
X3844239Y2833471D01*
X3833469Y2844190D01*
X3821531Y2853588D01*
X3808526Y2861462D01*
X3806342Y2862427D01*
G37*
G36*
X5637580Y2806293D02*
G01*
X5693664Y2806293D01*
X5693664Y2862427D01*
X5691479Y2861462D01*
X5678474Y2853588D01*
X5666536Y2844190D01*
X5655767Y2833471D01*
X5646420Y2821482D01*
X5638546Y2808478D01*
G37*
G36*
X7637576Y2806293D02*
G01*
X7693659Y2806293D01*
X7693659Y2862427D01*
X7691475Y2861462D01*
X7678470Y2853588D01*
X7666532Y2844190D01*
X7655763Y2833471D01*
X7646416Y2821482D01*
X7638542Y2808478D01*
G37*
G36*
X2137562Y2806293D02*
G01*
X2193645Y2806293D01*
X2193645Y2862427D01*
X2191512Y2861462D01*
X2178507Y2853588D01*
X2166518Y2844190D01*
X2155799Y2833471D01*
X2146401Y2821482D01*
X2138527Y2808478D01*
G37*
G36*
X6306362Y2806293D02*
G01*
X6362446Y2806293D01*
X6361480Y2808478D01*
X6353606Y2821482D01*
X6344208Y2833471D01*
X6333490Y2844190D01*
X6321501Y2853588D01*
X6308496Y2861462D01*
X6306362Y2862427D01*
G37*
G36*
X7806334Y2806293D02*
G01*
X7862417Y2806293D01*
X7861452Y2808478D01*
X7853578Y2821482D01*
X7844231Y2833471D01*
X7833461Y2844190D01*
X7821523Y2853588D01*
X7808518Y2861462D01*
X7806334Y2862427D01*
G37*
G36*
X3637584Y2806293D02*
G01*
X3693668Y2806293D01*
X3693668Y2862427D01*
X3691483Y2861462D01*
X3678478Y2853588D01*
X3666540Y2844190D01*
X3655771Y2833471D01*
X3646424Y2821482D01*
X3638550Y2808478D01*
G37*
G36*
X8137550Y2806293D02*
G01*
X8193633Y2806293D01*
X8193633Y2862427D01*
X8191500Y2861462D01*
X8178495Y2853588D01*
X8166506Y2844190D01*
X8155787Y2833471D01*
X8146389Y2821482D01*
X8138515Y2808478D01*
G37*
G36*
X8306358Y2806293D02*
G01*
X8362442Y2806293D01*
X8361476Y2808478D01*
X8353602Y2821482D01*
X8344204Y2833471D01*
X8333486Y2844190D01*
X8321497Y2853588D01*
X8308492Y2861462D01*
X8306358Y2862427D01*
G37*
G36*
X1806346Y2806293D02*
G01*
X1862429Y2806293D01*
X1861464Y2808478D01*
X1853590Y2821482D01*
X1844243Y2833471D01*
X1833473Y2844190D01*
X1821535Y2853588D01*
X1808530Y2861462D01*
X1806346Y2862427D01*
G37*
G36*
X2306370Y2806293D02*
G01*
X2362454Y2806293D01*
X2361488Y2808478D01*
X2353614Y2821482D01*
X2344216Y2833471D01*
X2333498Y2844190D01*
X2321509Y2853588D01*
X2308504Y2861462D01*
X2306370Y2862427D01*
G37*
G36*
X1637588Y2806293D02*
G01*
X1693672Y2806293D01*
X1693672Y2862427D01*
X1691487Y2861462D01*
X1678482Y2853588D01*
X1666544Y2844190D01*
X1655775Y2833471D01*
X1646428Y2821482D01*
X1638554Y2808478D01*
G37*
G36*
X8250021Y3124098D02*
G01*
X8265159Y3125012D01*
X8280146Y3127756D01*
X8294624Y3132277D01*
X8308492Y3138525D01*
X8321497Y3146399D01*
X8333486Y3155746D01*
X8344204Y3166516D01*
X8353602Y3178454D01*
X8361476Y3191459D01*
X8367725Y3205327D01*
X8372246Y3219856D01*
X8374989Y3234791D01*
X8375903Y3249980D01*
X8374989Y3265170D01*
X8372246Y3280105D01*
X8367725Y3294634D01*
X8361476Y3308502D01*
X8353602Y3321507D01*
X8344204Y3333445D01*
X8333486Y3344214D01*
X8321497Y3353562D01*
X8308492Y3361436D01*
X8294624Y3367684D01*
X8280146Y3372205D01*
X8265159Y3374948D01*
X8250021Y3375863D01*
X8234832Y3374948D01*
X8219846Y3372205D01*
X8205368Y3367684D01*
X8191500Y3361436D01*
X8178495Y3353562D01*
X8166506Y3344214D01*
X8155787Y3333445D01*
X8146389Y3321507D01*
X8138515Y3308502D01*
X8132267Y3294634D01*
X8127746Y3280105D01*
X8125002Y3265170D01*
X8124088Y3249980D01*
X8125002Y3234791D01*
X8127746Y3219856D01*
X8132267Y3205327D01*
X8138515Y3191459D01*
X8146389Y3178454D01*
X8155787Y3166516D01*
X8166506Y3155746D01*
X8178495Y3146399D01*
X8191500Y3138525D01*
X8205368Y3132277D01*
X8219846Y3127756D01*
X8234832Y3125012D01*
G37*
G36*
X6250025Y3124098D02*
G01*
X6265164Y3125012D01*
X6280150Y3127756D01*
X6294628Y3132277D01*
X6308496Y3138525D01*
X6321501Y3146399D01*
X6333490Y3155746D01*
X6344208Y3166516D01*
X6353606Y3178454D01*
X6361480Y3191459D01*
X6367729Y3205327D01*
X6372250Y3219856D01*
X6374993Y3234791D01*
X6375908Y3249980D01*
X6374993Y3265170D01*
X6372250Y3280105D01*
X6367729Y3294634D01*
X6361480Y3308502D01*
X6353606Y3321507D01*
X6344208Y3333445D01*
X6333490Y3344214D01*
X6321501Y3353562D01*
X6308496Y3361436D01*
X6294628Y3367684D01*
X6280150Y3372205D01*
X6265164Y3374948D01*
X6250025Y3375863D01*
X6234836Y3374948D01*
X6219850Y3372205D01*
X6205372Y3367684D01*
X6191504Y3361436D01*
X6178499Y3353562D01*
X6166510Y3344214D01*
X6155791Y3333445D01*
X6146393Y3321507D01*
X6138519Y3308502D01*
X6132271Y3294634D01*
X6127750Y3280105D01*
X6125006Y3265170D01*
X6124092Y3249980D01*
X6125006Y3234791D01*
X6127750Y3219856D01*
X6132271Y3205327D01*
X6138519Y3191459D01*
X6146393Y3178454D01*
X6155791Y3166516D01*
X6166510Y3155746D01*
X6178499Y3146399D01*
X6191504Y3138525D01*
X6205372Y3132277D01*
X6219850Y3127756D01*
X6234836Y3125012D01*
G37*
G36*
X7749997Y3124098D02*
G01*
X7765186Y3125012D01*
X7780121Y3127756D01*
X7794650Y3132277D01*
X7808518Y3138525D01*
X7821523Y3146399D01*
X7833461Y3155746D01*
X7844231Y3166516D01*
X7853578Y3178454D01*
X7861452Y3191459D01*
X7867700Y3205327D01*
X7872222Y3219856D01*
X7874965Y3234791D01*
X7875879Y3249980D01*
X7874965Y3265170D01*
X7872222Y3280105D01*
X7867700Y3294634D01*
X7861452Y3308502D01*
X7853578Y3321507D01*
X7844231Y3333445D01*
X7833461Y3344214D01*
X7821523Y3353562D01*
X7808518Y3361436D01*
X7794650Y3367684D01*
X7780121Y3372205D01*
X7765186Y3374948D01*
X7749997Y3375863D01*
X7734808Y3374948D01*
X7719872Y3372205D01*
X7705344Y3367684D01*
X7691475Y3361436D01*
X7678470Y3353562D01*
X7666532Y3344214D01*
X7655763Y3333445D01*
X7646416Y3321507D01*
X7638542Y3308502D01*
X7632293Y3294634D01*
X7627772Y3280105D01*
X7625029Y3265170D01*
X7624114Y3249980D01*
X7625029Y3234791D01*
X7627772Y3219856D01*
X7632293Y3205327D01*
X7638542Y3191459D01*
X7646416Y3178454D01*
X7655763Y3166516D01*
X7666532Y3155746D01*
X7678470Y3146399D01*
X7691475Y3138525D01*
X7705344Y3132277D01*
X7719872Y3127756D01*
X7734808Y3125012D01*
G37*
G36*
X4250029Y3124098D02*
G01*
X4265168Y3125012D01*
X4280154Y3127756D01*
X4294632Y3132277D01*
X4308500Y3138525D01*
X4321505Y3146399D01*
X4333494Y3155746D01*
X4344212Y3166516D01*
X4353610Y3178454D01*
X4361484Y3191459D01*
X4367733Y3205327D01*
X4372254Y3219856D01*
X4374997Y3234791D01*
X4375912Y3249980D01*
X4374997Y3265170D01*
X4372254Y3280105D01*
X4367733Y3294634D01*
X4361484Y3308502D01*
X4353610Y3321507D01*
X4344212Y3333445D01*
X4333494Y3344214D01*
X4321505Y3353562D01*
X4308500Y3361436D01*
X4294632Y3367684D01*
X4280154Y3372205D01*
X4265168Y3374948D01*
X4250029Y3375863D01*
X4234840Y3374948D01*
X4219854Y3372205D01*
X4205376Y3367684D01*
X4191508Y3361436D01*
X4178503Y3353562D01*
X4166514Y3344214D01*
X4155795Y3333445D01*
X4146397Y3321507D01*
X4138523Y3308502D01*
X4132275Y3294634D01*
X4127754Y3280105D01*
X4125010Y3265170D01*
X4124096Y3249980D01*
X4125010Y3234791D01*
X4127754Y3219856D01*
X4132275Y3205327D01*
X4138523Y3191459D01*
X4146397Y3178454D01*
X4155795Y3166516D01*
X4166514Y3155746D01*
X4178503Y3146399D01*
X4191508Y3138525D01*
X4205376Y3132277D01*
X4219854Y3127756D01*
X4234840Y3125012D01*
G37*
G36*
X3750005Y3124098D02*
G01*
X3765194Y3125012D01*
X3780129Y3127756D01*
X3794658Y3132277D01*
X3808526Y3138525D01*
X3821531Y3146399D01*
X3833469Y3155746D01*
X3844239Y3166516D01*
X3853586Y3178454D01*
X3861460Y3191459D01*
X3867708Y3205327D01*
X3872229Y3219856D01*
X3874973Y3234791D01*
X3875887Y3249980D01*
X3874973Y3265170D01*
X3872229Y3280105D01*
X3867708Y3294634D01*
X3861460Y3308502D01*
X3853586Y3321507D01*
X3844239Y3333445D01*
X3833469Y3344214D01*
X3821531Y3353562D01*
X3808526Y3361436D01*
X3794658Y3367684D01*
X3780129Y3372205D01*
X3765194Y3374948D01*
X3750005Y3375863D01*
X3734815Y3374948D01*
X3719880Y3372205D01*
X3705351Y3367684D01*
X3691483Y3361436D01*
X3678478Y3353562D01*
X3666540Y3344214D01*
X3655771Y3333445D01*
X3646424Y3321507D01*
X3638550Y3308502D01*
X3632301Y3294634D01*
X3627780Y3280105D01*
X3625037Y3265170D01*
X3624122Y3249980D01*
X3625037Y3234791D01*
X3627780Y3219856D01*
X3632301Y3205327D01*
X3638550Y3191459D01*
X3646424Y3178454D01*
X3655771Y3166516D01*
X3666540Y3155746D01*
X3678478Y3146399D01*
X3691483Y3138525D01*
X3705351Y3132277D01*
X3719880Y3127756D01*
X3734815Y3125012D01*
G37*
G36*
X5750001Y3124098D02*
G01*
X5765190Y3125012D01*
X5780125Y3127756D01*
X5794654Y3132277D01*
X5808522Y3138525D01*
X5821527Y3146399D01*
X5833465Y3155746D01*
X5844235Y3166516D01*
X5853582Y3178454D01*
X5861456Y3191459D01*
X5867704Y3205327D01*
X5872226Y3219856D01*
X5874969Y3234791D01*
X5875883Y3249980D01*
X5874969Y3265170D01*
X5872226Y3280105D01*
X5867704Y3294634D01*
X5861456Y3308502D01*
X5853582Y3321507D01*
X5844235Y3333445D01*
X5833465Y3344214D01*
X5821527Y3353562D01*
X5808522Y3361436D01*
X5794654Y3367684D01*
X5780125Y3372205D01*
X5765190Y3374948D01*
X5750001Y3375863D01*
X5734812Y3374948D01*
X5719876Y3372205D01*
X5705348Y3367684D01*
X5691479Y3361436D01*
X5678474Y3353562D01*
X5666536Y3344214D01*
X5655767Y3333445D01*
X5646420Y3321507D01*
X5638546Y3308502D01*
X5632297Y3294634D01*
X5627776Y3280105D01*
X5625033Y3265170D01*
X5624118Y3249980D01*
X5625033Y3234791D01*
X5627776Y3219856D01*
X5632297Y3205327D01*
X5638546Y3191459D01*
X5646420Y3178454D01*
X5655767Y3166516D01*
X5666536Y3155746D01*
X5678474Y3146399D01*
X5691479Y3138525D01*
X5705348Y3132277D01*
X5719876Y3127756D01*
X5734812Y3125012D01*
G37*
G36*
X1750009Y3124098D02*
G01*
X1765198Y3125012D01*
X1780133Y3127756D01*
X1794662Y3132277D01*
X1808530Y3138525D01*
X1821535Y3146399D01*
X1833473Y3155746D01*
X1844243Y3166516D01*
X1853590Y3178454D01*
X1861464Y3191459D01*
X1867814Y3205581D01*
X1870049Y3208731D01*
X1873300Y3210814D01*
X1877110Y3211576D01*
X2122932Y3211576D01*
X2126742Y3210814D01*
X2129942Y3208731D01*
X2132177Y3205581D01*
X2138527Y3191459D01*
X2146401Y3178454D01*
X2155799Y3166516D01*
X2166518Y3155746D01*
X2178507Y3146399D01*
X2191512Y3138525D01*
X2205380Y3132277D01*
X2219858Y3127756D01*
X2234844Y3125012D01*
X2249982Y3124098D01*
X2265172Y3125012D01*
X2280158Y3127756D01*
X2294636Y3132277D01*
X2308504Y3138525D01*
X2321509Y3146399D01*
X2333498Y3155746D01*
X2344216Y3166516D01*
X2353614Y3178454D01*
X2361488Y3191459D01*
X2367737Y3205327D01*
X2372258Y3219856D01*
X2375001Y3234791D01*
X2375916Y3249980D01*
X2375001Y3265170D01*
X2372258Y3280105D01*
X2367737Y3294634D01*
X2361488Y3308502D01*
X2353614Y3321507D01*
X2344216Y3333445D01*
X2333498Y3344214D01*
X2321509Y3353562D01*
X2308504Y3361436D01*
X2294636Y3367684D01*
X2280158Y3372205D01*
X2265172Y3374948D01*
X2249982Y3375863D01*
X2234844Y3374948D01*
X2219858Y3372205D01*
X2205380Y3367684D01*
X2191512Y3361436D01*
X2178507Y3353562D01*
X2166518Y3344214D01*
X2155799Y3333445D01*
X2146401Y3321507D01*
X2138527Y3308502D01*
X2132177Y3294379D01*
X2129942Y3291230D01*
X2126742Y3289147D01*
X2122932Y3288385D01*
X1877110Y3288385D01*
X1873300Y3289147D01*
X1870049Y3291230D01*
X1867814Y3294379D01*
X1861464Y3308502D01*
X1853590Y3321507D01*
X1844243Y3333445D01*
X1833473Y3344214D01*
X1821535Y3353562D01*
X1808530Y3361436D01*
X1794662Y3367684D01*
X1780133Y3372205D01*
X1765198Y3374948D01*
X1750009Y3375863D01*
X1734820Y3374948D01*
X1719884Y3372205D01*
X1705356Y3367684D01*
X1691487Y3361436D01*
X1678482Y3353562D01*
X1666544Y3344214D01*
X1655775Y3333445D01*
X1646428Y3321507D01*
X1638554Y3308502D01*
X1632305Y3294634D01*
X1627784Y3280105D01*
X1625041Y3265170D01*
X1624126Y3249980D01*
X1625041Y3234791D01*
X1627784Y3219856D01*
X1632305Y3205327D01*
X1638554Y3191459D01*
X1646428Y3178454D01*
X1655775Y3166516D01*
X1666544Y3155746D01*
X1678482Y3146399D01*
X1691487Y3138525D01*
X1705356Y3132277D01*
X1719884Y3127756D01*
X1734820Y3125012D01*
G37*
G36*
X4272381Y9400743D02*
G01*
X4272381Y9472371D01*
X4200804Y9472371D01*
X4204919Y9464497D01*
X4214825Y9449562D01*
X4226255Y9435744D01*
X4239107Y9423247D01*
X4253179Y9412173D01*
X4268419Y9402673D01*
G37*
G36*
X2799994Y9243618D02*
G01*
X2809798Y9244482D01*
X2819247Y9247022D01*
X2828188Y9251188D01*
X2836214Y9256826D01*
X2843174Y9263735D01*
X2848813Y9271812D01*
X2852928Y9280702D01*
X2855468Y9290202D01*
X2856331Y9299956D01*
X2855468Y9309760D01*
X2852928Y9319260D01*
X2848813Y9328150D01*
X2843174Y9336227D01*
X2836214Y9343136D01*
X2828188Y9348774D01*
X2819247Y9352940D01*
X2809798Y9355480D01*
X2799994Y9356344D01*
X2790190Y9355480D01*
X2780741Y9352940D01*
X2778353Y9351822D01*
X2774035Y9350857D01*
X2575255Y9350908D01*
X2571343Y9351670D01*
X2568092Y9353854D01*
X2553766Y9368129D01*
X2551531Y9371431D01*
X2550769Y9375343D01*
X2550769Y9533788D01*
X2551734Y9538106D01*
X2552954Y9540697D01*
X2555494Y9550196D01*
X2556357Y9559950D01*
X2555494Y9569754D01*
X2552954Y9579254D01*
X2548788Y9588144D01*
X2543149Y9596221D01*
X2536240Y9603130D01*
X2528163Y9608769D01*
X2519273Y9612934D01*
X2509774Y9615474D01*
X2500020Y9616338D01*
X2490216Y9615474D01*
X2480716Y9612934D01*
X2471826Y9608769D01*
X2463749Y9603130D01*
X2456840Y9596221D01*
X2451201Y9588144D01*
X2447036Y9579254D01*
X2444496Y9569754D01*
X2443632Y9559950D01*
X2444496Y9550196D01*
X2447036Y9540697D01*
X2448001Y9538614D01*
X2448966Y9534347D01*
X2448966Y9350197D01*
X2449169Y9345472D01*
X2449728Y9341154D01*
X2450744Y9336735D01*
X2452014Y9332569D01*
X2453741Y9328404D01*
X2455773Y9324543D01*
X2458212Y9320733D01*
X2460853Y9317278D01*
X2464054Y9313773D01*
X2513888Y9264091D01*
X2517292Y9260992D01*
X2520848Y9258249D01*
X2524556Y9255912D01*
X2528519Y9253829D01*
X2532583Y9252153D01*
X2536901Y9250781D01*
X2541168Y9249867D01*
X2545638Y9249257D01*
X2550210Y9249054D01*
X2774137Y9249054D01*
X2778455Y9248089D01*
X2780741Y9247022D01*
X2790190Y9244482D01*
G37*
G36*
X6806336Y4137507D02*
G01*
X6808520Y4138472D01*
X6821525Y4146346D01*
X6833463Y4155744D01*
X6844233Y4166463D01*
X6853580Y4178452D01*
X6861454Y4191457D01*
X6862419Y4193590D01*
X6806336Y4193590D01*
G37*
G36*
X7306360Y4137507D02*
G01*
X7308494Y4138472D01*
X7321499Y4146346D01*
X7333488Y4155744D01*
X7344206Y4166463D01*
X7353604Y4178452D01*
X7361478Y4191457D01*
X7362444Y4193590D01*
X7306360Y4193590D01*
G37*
G36*
X2806344Y4137507D02*
G01*
X2808528Y4138472D01*
X2821533Y4146346D01*
X2833471Y4155744D01*
X2844241Y4166463D01*
X2853588Y4178452D01*
X2861462Y4191457D01*
X2862427Y4193590D01*
X2806344Y4193590D01*
G37*
G36*
X3306368Y4137507D02*
G01*
X3308502Y4138472D01*
X3321507Y4146346D01*
X3333496Y4155744D01*
X3344214Y4166463D01*
X3353612Y4178452D01*
X3361486Y4191457D01*
X3362451Y4193590D01*
X3306368Y4193590D01*
G37*
G36*
X8906357Y4137507D02*
G01*
X8908491Y4138472D01*
X8921496Y4146346D01*
X8933484Y4155744D01*
X8944203Y4166463D01*
X8953601Y4178452D01*
X8961475Y4191457D01*
X8962440Y4193590D01*
X8906357Y4193590D01*
G37*
G36*
X9406331Y4137507D02*
G01*
X9408515Y4138472D01*
X9421520Y4146346D01*
X9433458Y4155744D01*
X9444228Y4166463D01*
X9453575Y4178452D01*
X9461449Y4191457D01*
X9462414Y4193590D01*
X9406331Y4193590D01*
G37*
G36*
X8793632Y4137507D02*
G01*
X8793632Y4193590D01*
X8737549Y4193590D01*
X8738514Y4191457D01*
X8746388Y4178452D01*
X8755786Y4166463D01*
X8766505Y4155744D01*
X8778494Y4146346D01*
X8791498Y4138472D01*
G37*
G36*
X3193643Y4137507D02*
G01*
X3193643Y4193590D01*
X3137560Y4193590D01*
X3138525Y4191457D01*
X3146399Y4178452D01*
X3155797Y4166463D01*
X3166516Y4155744D01*
X3178505Y4146346D01*
X3191510Y4138472D01*
G37*
G36*
X6693662Y4137507D02*
G01*
X6693662Y4193590D01*
X6637578Y4193590D01*
X6638544Y4191457D01*
X6646418Y4178452D01*
X6655765Y4166463D01*
X6666534Y4155744D01*
X6678472Y4146346D01*
X6691477Y4138472D01*
G37*
G36*
X7193635Y4137507D02*
G01*
X7193635Y4193590D01*
X7137552Y4193590D01*
X7138517Y4191457D01*
X7146391Y4178452D01*
X7155789Y4166463D01*
X7166508Y4155744D01*
X7178497Y4146346D01*
X7191502Y4138472D01*
G37*
G36*
X9293656Y4137507D02*
G01*
X9293656Y4193590D01*
X9237573Y4193590D01*
X9238538Y4191457D01*
X9246412Y4178452D01*
X9255760Y4166463D01*
X9266529Y4155744D01*
X9278467Y4146346D01*
X9291472Y4138472D01*
G37*
G36*
X2693670Y4137507D02*
G01*
X2693670Y4193590D01*
X2637586Y4193590D01*
X2638552Y4191457D01*
X2646426Y4178452D01*
X2655773Y4166463D01*
X2666542Y4155744D01*
X2678480Y4146346D01*
X2691485Y4138472D01*
G37*
G36*
X1093622Y4137609D02*
G01*
X1093622Y4193692D01*
X1037488Y4193692D01*
X1038453Y4191558D01*
X1046327Y4178554D01*
X1055725Y4166565D01*
X1066444Y4155846D01*
X1078433Y4146448D01*
X1091438Y4138574D01*
G37*
G36*
X706323Y4137609D02*
G01*
X708456Y4138574D01*
X721461Y4146448D01*
X733450Y4155846D01*
X744169Y4166565D01*
X753567Y4178554D01*
X761441Y4191558D01*
X762406Y4193692D01*
X706323Y4193692D01*
G37*
G36*
X1206296Y4137609D02*
G01*
X1208430Y4138574D01*
X1221435Y4146448D01*
X1233424Y4155846D01*
X1244193Y4166565D01*
X1253540Y4178554D01*
X1261414Y4191558D01*
X1262380Y4193692D01*
X1206296Y4193692D01*
G37*
G36*
X593598Y4137609D02*
G01*
X593598Y4193692D01*
X537514Y4193692D01*
X538480Y4191558D01*
X546354Y4178554D01*
X555701Y4166565D01*
X566470Y4155846D01*
X578459Y4146448D01*
X591464Y4138574D01*
G37*
G36*
X6806336Y4306316D02*
G01*
X6862419Y4306316D01*
X6861454Y4308449D01*
X6853580Y4321454D01*
X6844233Y4333443D01*
X6833463Y4344212D01*
X6821525Y4353560D01*
X6808520Y4361434D01*
X6806336Y4362399D01*
G37*
G36*
X7137552Y4306316D02*
G01*
X7193635Y4306316D01*
X7193635Y4362399D01*
X7191502Y4361434D01*
X7178497Y4353560D01*
X7166508Y4344212D01*
X7155789Y4333443D01*
X7146391Y4321454D01*
X7138517Y4308449D01*
G37*
G36*
X6637578Y4306316D02*
G01*
X6693662Y4306316D01*
X6693662Y4362399D01*
X6691477Y4361434D01*
X6678472Y4353560D01*
X6666534Y4344212D01*
X6655765Y4333443D01*
X6646418Y4321454D01*
X6638544Y4308449D01*
G37*
G36*
X7306360Y4306316D02*
G01*
X7362444Y4306316D01*
X7361478Y4308449D01*
X7353604Y4321454D01*
X7344206Y4333443D01*
X7333488Y4344212D01*
X7321499Y4353560D01*
X7308494Y4361434D01*
X7306360Y4362399D01*
G37*
G36*
X9237573Y4306316D02*
G01*
X9293656Y4306316D01*
X9293656Y4362399D01*
X9291472Y4361434D01*
X9278467Y4353560D01*
X9266529Y4344212D01*
X9255760Y4333443D01*
X9246412Y4321454D01*
X9238538Y4308449D01*
G37*
G36*
X2806344Y4306316D02*
G01*
X2862427Y4306316D01*
X2861462Y4308449D01*
X2853588Y4321454D01*
X2844241Y4333443D01*
X2833471Y4344212D01*
X2821533Y4353560D01*
X2808528Y4361434D01*
X2806344Y4362399D01*
G37*
G36*
X2637586Y4306316D02*
G01*
X2693670Y4306316D01*
X2693670Y4362399D01*
X2691485Y4361434D01*
X2678480Y4353560D01*
X2666542Y4344212D01*
X2655773Y4333443D01*
X2646426Y4321454D01*
X2638552Y4308449D01*
G37*
G36*
X9406331Y4306316D02*
G01*
X9462414Y4306316D01*
X9461449Y4308449D01*
X9453575Y4321454D01*
X9444228Y4333443D01*
X9433458Y4344212D01*
X9421520Y4353560D01*
X9408515Y4361434D01*
X9406331Y4362399D01*
G37*
G36*
X8906357Y4306316D02*
G01*
X8962440Y4306316D01*
X8961475Y4308449D01*
X8953601Y4321454D01*
X8944203Y4333443D01*
X8933484Y4344212D01*
X8921496Y4353560D01*
X8908491Y4361434D01*
X8906357Y4362399D01*
G37*
G36*
X3137560Y4306316D02*
G01*
X3193643Y4306316D01*
X3193643Y4362399D01*
X3191510Y4361434D01*
X3178505Y4353560D01*
X3166516Y4344212D01*
X3155797Y4333443D01*
X3146399Y4321454D01*
X3138525Y4308449D01*
G37*
G36*
X3306368Y4306316D02*
G01*
X3362451Y4306316D01*
X3361486Y4308449D01*
X3353612Y4321454D01*
X3344214Y4333443D01*
X3333496Y4344212D01*
X3321507Y4353560D01*
X3308502Y4361434D01*
X3306368Y4362399D01*
G37*
G36*
X8737549Y4306316D02*
G01*
X8793632Y4306316D01*
X8793632Y4362399D01*
X8791498Y4361434D01*
X8778494Y4353560D01*
X8766505Y4344212D01*
X8755786Y4333443D01*
X8746388Y4321454D01*
X8738514Y4308449D01*
G37*
G36*
X706323Y4306417D02*
G01*
X762406Y4306417D01*
X761441Y4308551D01*
X753567Y4321556D01*
X744169Y4333544D01*
X733450Y4344263D01*
X721461Y4353661D01*
X708456Y4361535D01*
X706323Y4362500D01*
G37*
G36*
X1206296Y4306417D02*
G01*
X1262380Y4306417D01*
X1261414Y4308551D01*
X1253540Y4321556D01*
X1244193Y4333544D01*
X1233424Y4344263D01*
X1221435Y4353661D01*
X1208430Y4361535D01*
X1206296Y4362500D01*
G37*
G36*
X5306364Y637540D02*
G01*
X5308498Y638505D01*
X5321503Y646379D01*
X5333492Y655726D01*
X5344210Y666496D01*
X5353608Y678484D01*
X5361482Y691489D01*
X5362448Y693623D01*
X5306364Y693623D01*
G37*
G36*
X1037488Y4306417D02*
G01*
X1093622Y4306417D01*
X1093622Y4362500D01*
X1091438Y4361535D01*
X1078433Y4353661D01*
X1066444Y4344263D01*
X1055725Y4333544D01*
X1046327Y4321556D01*
X1038453Y4308551D01*
G37*
G36*
X8100009Y4543653D02*
G01*
X8109762Y4544517D01*
X8119262Y4547057D01*
X8128152Y4551172D01*
X8136229Y4556810D01*
X8143138Y4563770D01*
X8148777Y4571796D01*
X8152942Y4580737D01*
X8155482Y4590186D01*
X8156346Y4599990D01*
X8155482Y4609795D01*
X8152942Y4619244D01*
X8148777Y4628184D01*
X8143138Y4636211D01*
X8141462Y4637938D01*
X8139226Y4641189D01*
X8138464Y4645101D01*
X8138464Y5054904D01*
X8139226Y5058765D01*
X8141462Y5062067D01*
X8143138Y5063744D01*
X8148777Y5071821D01*
X8152942Y5080711D01*
X8155482Y5090210D01*
X8156346Y5099964D01*
X8155482Y5109768D01*
X8152942Y5119268D01*
X8148777Y5128158D01*
X8143138Y5136235D01*
X8136229Y5143144D01*
X8128152Y5148783D01*
X8119262Y5152948D01*
X8109762Y5155488D01*
X8100009Y5156352D01*
X8090204Y5155488D01*
X8080705Y5152948D01*
X8071815Y5148783D01*
X8063738Y5143144D01*
X8056829Y5136235D01*
X8051190Y5128158D01*
X8047024Y5119268D01*
X8044484Y5109768D01*
X8043621Y5099964D01*
X8044484Y5090210D01*
X8047024Y5080711D01*
X8051190Y5071821D01*
X8056829Y5063744D01*
X8058658Y5061915D01*
X8060893Y5058613D01*
X8061655Y5054752D01*
X8061655Y4645253D01*
X8060893Y4641342D01*
X8058658Y4638090D01*
X8056829Y4636211D01*
X8051190Y4628184D01*
X8047024Y4619244D01*
X8044484Y4609795D01*
X8043621Y4599990D01*
X8044484Y4590186D01*
X8047024Y4580737D01*
X8051190Y4571796D01*
X8056829Y4563770D01*
X8063738Y4556810D01*
X8071815Y4551172D01*
X8080705Y4547057D01*
X8090204Y4544517D01*
G37*
G36*
X7799984Y4543653D02*
G01*
X7809788Y4544517D01*
X7819237Y4547057D01*
X7828178Y4551172D01*
X7836204Y4556810D01*
X7843164Y4563770D01*
X7848803Y4571796D01*
X7852918Y4580737D01*
X7855458Y4590186D01*
X7856321Y4599990D01*
X7855458Y4609795D01*
X7852918Y4619244D01*
X7848803Y4628184D01*
X7843164Y4636211D01*
X7841386Y4637989D01*
X7839151Y4641291D01*
X7838389Y4645152D01*
X7838389Y5054803D01*
X7839151Y5058714D01*
X7841386Y5061966D01*
X7843164Y5063744D01*
X7848803Y5071821D01*
X7852918Y5080711D01*
X7855458Y5090210D01*
X7856321Y5099964D01*
X7855458Y5109768D01*
X7852918Y5119268D01*
X7848803Y5128158D01*
X7843164Y5136235D01*
X7836204Y5143144D01*
X7828178Y5148783D01*
X7819237Y5152948D01*
X7809788Y5155488D01*
X7799984Y5156352D01*
X7790180Y5155488D01*
X7780731Y5152948D01*
X7771790Y5148783D01*
X7763764Y5143144D01*
X7756804Y5136235D01*
X7751165Y5128158D01*
X7747050Y5119268D01*
X7744510Y5109768D01*
X7743647Y5099964D01*
X7744510Y5090210D01*
X7747050Y5080711D01*
X7751165Y5071821D01*
X7756804Y5063744D01*
X7758582Y5061966D01*
X7760817Y5058714D01*
X7761579Y5054803D01*
X7761579Y4645152D01*
X7760817Y4641291D01*
X7758582Y4637989D01*
X7756804Y4636211D01*
X7751165Y4628184D01*
X7747050Y4619244D01*
X7744510Y4609795D01*
X7743647Y4599990D01*
X7744510Y4590186D01*
X7747050Y4580737D01*
X7751165Y4571796D01*
X7756804Y4563770D01*
X7763764Y4556810D01*
X7771790Y4551172D01*
X7780731Y4547057D01*
X7790180Y4544517D01*
G37*
G36*
X2750007Y4624070D02*
G01*
X2765196Y4624984D01*
X2780131Y4627727D01*
X2794660Y4632248D01*
X2808528Y4638497D01*
X2821533Y4646371D01*
X2833471Y4655769D01*
X2844241Y4666488D01*
X2853588Y4678476D01*
X2861462Y4691481D01*
X2867710Y4705350D01*
X2872232Y4719828D01*
X2874975Y4734814D01*
X2875889Y4749952D01*
X2874975Y4765141D01*
X2872232Y4780127D01*
X2867710Y4794605D01*
X2861462Y4808474D01*
X2853588Y4821478D01*
X2844241Y4833467D01*
X2833471Y4844186D01*
X2821533Y4853584D01*
X2808528Y4861458D01*
X2794660Y4867706D01*
X2780131Y4872228D01*
X2765196Y4874971D01*
X2750007Y4875885D01*
X2734818Y4874971D01*
X2719882Y4872228D01*
X2705354Y4867706D01*
X2691485Y4861458D01*
X2678480Y4853584D01*
X2666542Y4844186D01*
X2655773Y4833467D01*
X2646426Y4821478D01*
X2638552Y4808474D01*
X2632303Y4794605D01*
X2627782Y4780127D01*
X2625039Y4765141D01*
X2624124Y4749952D01*
X2625039Y4734814D01*
X2627782Y4719828D01*
X2632303Y4705350D01*
X2638552Y4691481D01*
X2646426Y4678476D01*
X2655773Y4666488D01*
X2666542Y4655769D01*
X2678480Y4646371D01*
X2691485Y4638497D01*
X2705354Y4632248D01*
X2719882Y4627727D01*
X2734818Y4624984D01*
G37*
G36*
X6749999Y4624070D02*
G01*
X6765188Y4624984D01*
X6780123Y4627727D01*
X6794652Y4632248D01*
X6808520Y4638497D01*
X6821525Y4646371D01*
X6833463Y4655769D01*
X6844233Y4666488D01*
X6853580Y4678476D01*
X6861454Y4691481D01*
X6867702Y4705350D01*
X6872224Y4719828D01*
X6874967Y4734814D01*
X6875881Y4749952D01*
X6874967Y4765141D01*
X6872224Y4780127D01*
X6867702Y4794605D01*
X6861454Y4808474D01*
X6853580Y4821478D01*
X6844233Y4833467D01*
X6833463Y4844186D01*
X6821525Y4853584D01*
X6808520Y4861458D01*
X6794652Y4867706D01*
X6780123Y4872228D01*
X6765188Y4874971D01*
X6749999Y4875885D01*
X6734809Y4874971D01*
X6719874Y4872228D01*
X6705346Y4867706D01*
X6691477Y4861458D01*
X6678472Y4853584D01*
X6666534Y4844186D01*
X6655765Y4833467D01*
X6646418Y4821478D01*
X6638544Y4808474D01*
X6632295Y4794605D01*
X6627774Y4780127D01*
X6625031Y4765141D01*
X6624116Y4749952D01*
X6625031Y4734814D01*
X6627774Y4719828D01*
X6632295Y4705350D01*
X6638544Y4691481D01*
X6646418Y4678476D01*
X6655765Y4666488D01*
X6666534Y4655769D01*
X6678472Y4646371D01*
X6691477Y4638497D01*
X6705346Y4632248D01*
X6719874Y4627727D01*
X6734809Y4624984D01*
G37*
G36*
X7250023Y4624070D02*
G01*
X7265162Y4624984D01*
X7280148Y4627727D01*
X7294625Y4632248D01*
X7308494Y4638497D01*
X7321499Y4646371D01*
X7333488Y4655769D01*
X7344206Y4666488D01*
X7353604Y4678476D01*
X7361478Y4691481D01*
X7367727Y4705350D01*
X7372248Y4719828D01*
X7374991Y4734814D01*
X7375906Y4749952D01*
X7374991Y4765141D01*
X7372248Y4780127D01*
X7367727Y4794605D01*
X7361478Y4808474D01*
X7353604Y4821478D01*
X7344206Y4833467D01*
X7333488Y4844186D01*
X7321499Y4853584D01*
X7308494Y4861458D01*
X7294625Y4867706D01*
X7280148Y4872228D01*
X7265162Y4874971D01*
X7250023Y4875885D01*
X7234834Y4874971D01*
X7219848Y4872228D01*
X7205370Y4867706D01*
X7191502Y4861458D01*
X7178497Y4853584D01*
X7166508Y4844186D01*
X7155789Y4833467D01*
X7146391Y4821478D01*
X7138517Y4808474D01*
X7132269Y4794605D01*
X7127748Y4780127D01*
X7125004Y4765141D01*
X7124090Y4749952D01*
X7125004Y4734814D01*
X7127748Y4719828D01*
X7132269Y4705350D01*
X7138517Y4691481D01*
X7146391Y4678476D01*
X7155789Y4666488D01*
X7166508Y4655769D01*
X7178497Y4646371D01*
X7191502Y4638497D01*
X7205370Y4632248D01*
X7219848Y4627727D01*
X7234834Y4624984D01*
G37*
G36*
X3250031Y4624070D02*
G01*
X3265170Y4624984D01*
X3280156Y4627727D01*
X3294634Y4632248D01*
X3308502Y4638497D01*
X3321507Y4646371D01*
X3333496Y4655769D01*
X3344214Y4666488D01*
X3353612Y4678476D01*
X3361486Y4691481D01*
X3367735Y4705350D01*
X3372256Y4719828D01*
X3374999Y4734814D01*
X3375914Y4749952D01*
X3374999Y4765141D01*
X3372256Y4780127D01*
X3367735Y4794605D01*
X3361486Y4808474D01*
X3353612Y4821478D01*
X3344214Y4833467D01*
X3333496Y4844186D01*
X3321507Y4853584D01*
X3308502Y4861458D01*
X3294634Y4867706D01*
X3280156Y4872228D01*
X3265170Y4874971D01*
X3250031Y4875885D01*
X3234842Y4874971D01*
X3219856Y4872228D01*
X3205378Y4867706D01*
X3191510Y4861458D01*
X3178505Y4853584D01*
X3166516Y4844186D01*
X3155797Y4833467D01*
X3146399Y4821478D01*
X3138525Y4808474D01*
X3132277Y4794605D01*
X3127756Y4780127D01*
X3125012Y4765141D01*
X3124098Y4749952D01*
X3125012Y4734814D01*
X3127756Y4719828D01*
X3132277Y4705350D01*
X3138525Y4691481D01*
X3146399Y4678476D01*
X3155797Y4666488D01*
X3166516Y4655769D01*
X3178505Y4646371D01*
X3191510Y4638497D01*
X3205378Y4632248D01*
X3219856Y4627727D01*
X3234842Y4624984D01*
G37*
G36*
X8850020Y4624070D02*
G01*
X8865158Y4624984D01*
X8880144Y4627727D01*
X8894622Y4632248D01*
X8908491Y4638497D01*
X8921496Y4646371D01*
X8933484Y4655769D01*
X8944203Y4666488D01*
X8953601Y4678476D01*
X8961475Y4691481D01*
X8967825Y4705604D01*
X8970060Y4708753D01*
X8973261Y4710836D01*
X8977071Y4711547D01*
X9222892Y4711547D01*
X9226702Y4710836D01*
X9229953Y4708753D01*
X9232188Y4705604D01*
X9238538Y4691481D01*
X9246412Y4678476D01*
X9255760Y4666488D01*
X9266529Y4655769D01*
X9278467Y4646371D01*
X9291472Y4638497D01*
X9305340Y4632248D01*
X9319869Y4627727D01*
X9334804Y4624984D01*
X9349994Y4624070D01*
X9365183Y4624984D01*
X9380118Y4627727D01*
X9394647Y4632248D01*
X9408515Y4638497D01*
X9421520Y4646371D01*
X9433458Y4655769D01*
X9444228Y4666488D01*
X9453575Y4678476D01*
X9461449Y4691481D01*
X9467697Y4705350D01*
X9472218Y4719828D01*
X9474962Y4734814D01*
X9475876Y4749952D01*
X9474962Y4765141D01*
X9472218Y4780127D01*
X9467697Y4794605D01*
X9461449Y4808474D01*
X9453575Y4821478D01*
X9444228Y4833467D01*
X9433458Y4844186D01*
X9421520Y4853584D01*
X9408515Y4861458D01*
X9394647Y4867706D01*
X9380118Y4872228D01*
X9365183Y4874971D01*
X9349994Y4875885D01*
X9334804Y4874971D01*
X9319869Y4872228D01*
X9305340Y4867706D01*
X9291472Y4861458D01*
X9278467Y4853584D01*
X9266529Y4844186D01*
X9255760Y4833467D01*
X9246412Y4821478D01*
X9238538Y4808474D01*
X9232188Y4794351D01*
X9229953Y4791202D01*
X9226702Y4789119D01*
X9222892Y4788408D01*
X8977071Y4788408D01*
X8973261Y4789119D01*
X8970060Y4791202D01*
X8967825Y4794351D01*
X8961475Y4808474D01*
X8953601Y4821478D01*
X8944203Y4833467D01*
X8933484Y4844186D01*
X8921496Y4853584D01*
X8908491Y4861458D01*
X8894622Y4867706D01*
X8880144Y4872228D01*
X8865158Y4874971D01*
X8850020Y4875885D01*
X8834831Y4874971D01*
X8819845Y4872228D01*
X8805367Y4867706D01*
X8791498Y4861458D01*
X8778494Y4853584D01*
X8766505Y4844186D01*
X8755786Y4833467D01*
X8746388Y4821478D01*
X8738514Y4808474D01*
X8732266Y4794605D01*
X8727744Y4780127D01*
X8725001Y4765141D01*
X8724087Y4749952D01*
X8725001Y4734814D01*
X8727744Y4719828D01*
X8732266Y4705350D01*
X8738514Y4691481D01*
X8746388Y4678476D01*
X8755786Y4666488D01*
X8766505Y4655769D01*
X8778494Y4646371D01*
X8791498Y4638497D01*
X8805367Y4632248D01*
X8819845Y4627727D01*
X8834831Y4624984D01*
G37*
G36*
X5999988Y8843619D02*
G01*
X6009792Y8844483D01*
X6019241Y8847023D01*
X6028182Y8851188D01*
X6036208Y8856827D01*
X6043168Y8863736D01*
X6048806Y8871813D01*
X6052921Y8880703D01*
X6055461Y8890203D01*
X6056325Y8899956D01*
X6055461Y8909761D01*
X6052921Y8919260D01*
X6048806Y8928150D01*
X6042710Y8936786D01*
X6041390Y8939580D01*
X6040882Y8942628D01*
X6040882Y9057335D01*
X6041390Y9060383D01*
X6042710Y9063177D01*
X6048806Y9071813D01*
X6052921Y9080703D01*
X6055461Y9090202D01*
X6056325Y9099956D01*
X6055461Y9109760D01*
X6052921Y9119260D01*
X6048806Y9128150D01*
X6043168Y9136227D01*
X6036208Y9143136D01*
X6028182Y9148775D01*
X6019241Y9152940D01*
X6009792Y9155480D01*
X5999988Y9156344D01*
X5990183Y9155480D01*
X5980734Y9152940D01*
X5971794Y9148775D01*
X5963767Y9143136D01*
X5956808Y9136227D01*
X5951169Y9128150D01*
X5947054Y9119260D01*
X5944514Y9109760D01*
X5943650Y9099956D01*
X5944514Y9090202D01*
X5947054Y9080703D01*
X5951169Y9071813D01*
X5957265Y9063177D01*
X5958586Y9060383D01*
X5959094Y9057335D01*
X5959094Y8942628D01*
X5958586Y8939580D01*
X5957265Y8936786D01*
X5951169Y8928150D01*
X5947054Y8919260D01*
X5944514Y8909761D01*
X5943650Y8899956D01*
X5944514Y8890203D01*
X5947054Y8880703D01*
X5951169Y8871813D01*
X5956808Y8863736D01*
X5963767Y8856827D01*
X5971794Y8851188D01*
X5980734Y8847023D01*
X5990183Y8844483D01*
G37*
G36*
X649935Y4624171D02*
G01*
X665124Y4625086D01*
X680059Y4627829D01*
X694588Y4632350D01*
X708456Y4638598D01*
X721461Y4646472D01*
X733450Y4655820D01*
X744169Y4666589D01*
X753567Y4678578D01*
X761441Y4691583D01*
X767791Y4705705D01*
X769975Y4708855D01*
X773226Y4710938D01*
X777036Y4711649D01*
X1022858Y4711649D01*
X1026668Y4710938D01*
X1029919Y4708855D01*
X1032103Y4705705D01*
X1038453Y4691583D01*
X1046327Y4678578D01*
X1055725Y4666589D01*
X1066444Y4655820D01*
X1078433Y4646472D01*
X1091438Y4638598D01*
X1105306Y4632350D01*
X1119835Y4627829D01*
X1134770Y4625086D01*
X1149959Y4624171D01*
X1165098Y4625086D01*
X1180084Y4627829D01*
X1194612Y4632350D01*
X1208430Y4638598D01*
X1221435Y4646472D01*
X1233424Y4655820D01*
X1244193Y4666589D01*
X1253540Y4678578D01*
X1261414Y4691583D01*
X1267663Y4705400D01*
X1272184Y4719929D01*
X1274927Y4734915D01*
X1275842Y4750054D01*
X1274927Y4765243D01*
X1272184Y4780178D01*
X1267663Y4794707D01*
X1261414Y4808575D01*
X1253540Y4821580D01*
X1244193Y4833569D01*
X1233424Y4844288D01*
X1221435Y4853686D01*
X1208430Y4861560D01*
X1194612Y4867757D01*
X1180084Y4872278D01*
X1165098Y4875022D01*
X1149959Y4875936D01*
X1134770Y4875022D01*
X1119835Y4872278D01*
X1105306Y4867757D01*
X1091438Y4861560D01*
X1078433Y4853686D01*
X1066444Y4844288D01*
X1055725Y4833569D01*
X1046327Y4821580D01*
X1038453Y4808575D01*
X1032154Y4794453D01*
X1029919Y4791303D01*
X1026668Y4789220D01*
X1022858Y4788509D01*
X777036Y4788509D01*
X773226Y4789220D01*
X769975Y4791303D01*
X767740Y4794453D01*
X761441Y4808575D01*
X753567Y4821580D01*
X744169Y4833569D01*
X733450Y4844288D01*
X721461Y4853686D01*
X708456Y4861560D01*
X694588Y4867757D01*
X680059Y4872278D01*
X665124Y4875022D01*
X649935Y4875936D01*
X634796Y4875022D01*
X619810Y4872278D01*
X605282Y4867757D01*
X591464Y4861560D01*
X578459Y4853686D01*
X566470Y4844288D01*
X555701Y4833569D01*
X546354Y4821580D01*
X538480Y4808575D01*
X532231Y4794707D01*
X527710Y4780178D01*
X524967Y4765243D01*
X524052Y4750054D01*
X524967Y4734915D01*
X527710Y4719929D01*
X532231Y4705400D01*
X538480Y4691583D01*
X546354Y4678578D01*
X555701Y4666589D01*
X566470Y4655820D01*
X578459Y4646472D01*
X591464Y4638598D01*
X605282Y4632350D01*
X619810Y4627829D01*
X634796Y4625086D01*
G37*
G36*
X2821787Y8571890D02*
G01*
X2867152Y8571890D01*
X2867152Y8617305D01*
X2864408Y8616086D01*
X2853131Y8609228D01*
X2842818Y8600897D01*
X2833827Y8591194D01*
X2826156Y8580374D01*
G37*
G36*
X4806340Y4637532D02*
G01*
X4808524Y4638497D01*
X4821529Y4646371D01*
X4833467Y4655718D01*
X4844237Y4666488D01*
X4853584Y4678476D01*
X4861458Y4691481D01*
X4862423Y4693615D01*
X4806340Y4693615D01*
G37*
G36*
X5306364Y4637532D02*
G01*
X5308498Y4638497D01*
X5321503Y4646371D01*
X5333492Y4655718D01*
X5344210Y4666488D01*
X5353608Y4678476D01*
X5361482Y4691481D01*
X5362448Y4693615D01*
X5306364Y4693615D01*
G37*
G36*
X4693666Y4637532D02*
G01*
X4693666Y4693615D01*
X4637582Y4693615D01*
X4638548Y4691481D01*
X4646422Y4678476D01*
X4655769Y4666488D01*
X4666538Y4655718D01*
X4678476Y4646371D01*
X4691481Y4638497D01*
G37*
G36*
X5193639Y4637532D02*
G01*
X5193639Y4693615D01*
X5137556Y4693615D01*
X5138521Y4691481D01*
X5146395Y4678476D01*
X5155793Y4666488D01*
X5166512Y4655718D01*
X5178501Y4646371D01*
X5191506Y4638497D01*
G37*
G36*
X8399983Y4643628D02*
G01*
X8409787Y4644491D01*
X8419236Y4647031D01*
X8428177Y4651197D01*
X8436203Y4656836D01*
X8443163Y4663744D01*
X8448802Y4671822D01*
X8452916Y4680712D01*
X8455456Y4690211D01*
X8456320Y4699965D01*
X8455456Y4709769D01*
X8452916Y4719269D01*
X8448802Y4728159D01*
X8443163Y4736236D01*
X8441385Y4738014D01*
X8439150Y4741265D01*
X8438388Y4745177D01*
X8438388Y5154828D01*
X8439150Y5158689D01*
X8441385Y5161991D01*
X8443163Y5163769D01*
X8448802Y5171795D01*
X8452916Y5180736D01*
X8455456Y5190185D01*
X8456320Y5199989D01*
X8455456Y5209794D01*
X8452916Y5219242D01*
X8448802Y5228183D01*
X8443163Y5236210D01*
X8436203Y5243169D01*
X8428177Y5248808D01*
X8419236Y5252923D01*
X8409787Y5255463D01*
X8399983Y5256326D01*
X8390178Y5255463D01*
X8380730Y5252923D01*
X8371789Y5248808D01*
X8363762Y5243169D01*
X8356803Y5236210D01*
X8351164Y5228183D01*
X8347049Y5219242D01*
X8344509Y5209794D01*
X8343646Y5199989D01*
X8344509Y5190185D01*
X8347049Y5180736D01*
X8351164Y5171795D01*
X8356803Y5163769D01*
X8358581Y5161991D01*
X8360816Y5158689D01*
X8361578Y5154828D01*
X8361578Y4745177D01*
X8360816Y4741265D01*
X8358581Y4738014D01*
X8356803Y4736236D01*
X8351164Y4728159D01*
X8347049Y4719269D01*
X8344509Y4709769D01*
X8343646Y4699965D01*
X8344509Y4690211D01*
X8347049Y4680712D01*
X8351164Y4671822D01*
X8356803Y4663744D01*
X8363762Y4656836D01*
X8371789Y4651197D01*
X8380730Y4647031D01*
X8390178Y4644491D01*
G37*
G36*
X2950972Y8571890D02*
G01*
X2996336Y8571890D01*
X2991916Y8580374D01*
X2984296Y8591194D01*
X2975254Y8600897D01*
X2964992Y8609228D01*
X2953664Y8616086D01*
X2950972Y8617305D01*
G37*
G36*
X209194Y8478824D02*
G01*
X274828Y8478824D01*
X273558Y8481822D01*
X267106Y8492388D01*
X259283Y8502040D01*
X250240Y8510473D01*
X240080Y8517636D01*
X229057Y8523325D01*
X217373Y8527491D01*
X209194Y8529218D01*
G37*
G36*
X5137556Y4806289D02*
G01*
X5193639Y4806289D01*
X5193639Y4862423D01*
X5191506Y4861458D01*
X5178501Y4853584D01*
X5166512Y4844186D01*
X5155793Y4833467D01*
X5146395Y4821478D01*
X5138521Y4808474D01*
G37*
G36*
X5306364Y4806289D02*
G01*
X5362448Y4806289D01*
X5361482Y4808474D01*
X5353608Y4821478D01*
X5344210Y4833467D01*
X5333492Y4844186D01*
X5321503Y4853584D01*
X5308498Y4861458D01*
X5306364Y4862423D01*
G37*
G36*
X4637582Y4806289D02*
G01*
X4693666Y4806289D01*
X4693666Y4862423D01*
X4691481Y4861458D01*
X4678476Y4853584D01*
X4666538Y4844186D01*
X4655769Y4833467D01*
X4646422Y4821478D01*
X4638548Y4808474D01*
G37*
G36*
X4806340Y4806289D02*
G01*
X4862423Y4806289D01*
X4861458Y4808474D01*
X4853584Y4821478D01*
X4844237Y4833467D01*
X4833467Y4844186D01*
X4821529Y4853584D01*
X4808524Y4861458D01*
X4806340Y4862423D01*
G37*
G36*
X5250027Y5124094D02*
G01*
X5265166Y5125008D01*
X5280152Y5127752D01*
X5294630Y5132273D01*
X5308498Y5138521D01*
X5321503Y5146395D01*
X5333492Y5155742D01*
X5344210Y5166512D01*
X5353608Y5178450D01*
X5361482Y5191455D01*
X5367731Y5205323D01*
X5372252Y5219852D01*
X5374995Y5234787D01*
X5375910Y5249976D01*
X5374995Y5265166D01*
X5372252Y5280101D01*
X5367731Y5294630D01*
X5361482Y5308498D01*
X5353608Y5321503D01*
X5344210Y5333441D01*
X5333492Y5344210D01*
X5321503Y5353558D01*
X5308498Y5361432D01*
X5294630Y5367680D01*
X5280152Y5372201D01*
X5265166Y5374944D01*
X5250027Y5375859D01*
X5234838Y5374944D01*
X5219852Y5372201D01*
X5205374Y5367680D01*
X5191506Y5361432D01*
X5178501Y5353558D01*
X5166512Y5344210D01*
X5155793Y5333441D01*
X5146395Y5321503D01*
X5138521Y5308498D01*
X5132273Y5294630D01*
X5127752Y5280101D01*
X5125008Y5265166D01*
X5124094Y5249976D01*
X5125008Y5234787D01*
X5127752Y5219852D01*
X5132273Y5205323D01*
X5138521Y5191455D01*
X5146395Y5178450D01*
X5155793Y5166512D01*
X5166512Y5155742D01*
X5178501Y5146395D01*
X5191506Y5138521D01*
X5205374Y5132273D01*
X5219852Y5127752D01*
X5234838Y5125008D01*
G37*
G36*
X4750003Y5124094D02*
G01*
X4765192Y5125008D01*
X4780127Y5127752D01*
X4794656Y5132273D01*
X4808524Y5138521D01*
X4821529Y5146395D01*
X4833467Y5155742D01*
X4844237Y5166512D01*
X4853584Y5178450D01*
X4861458Y5191455D01*
X4867706Y5205323D01*
X4872228Y5219852D01*
X4874971Y5234787D01*
X4875885Y5249976D01*
X4874971Y5265166D01*
X4872228Y5280101D01*
X4867706Y5294630D01*
X4861458Y5308498D01*
X4853584Y5321503D01*
X4844237Y5333441D01*
X4833467Y5344210D01*
X4821529Y5353558D01*
X4808524Y5361432D01*
X4794656Y5367680D01*
X4780127Y5372201D01*
X4765192Y5374944D01*
X4750003Y5375859D01*
X4734814Y5374944D01*
X4719878Y5372201D01*
X4705350Y5367680D01*
X4691481Y5361432D01*
X4678476Y5353558D01*
X4666538Y5344210D01*
X4655769Y5333441D01*
X4646422Y5321503D01*
X4638548Y5308498D01*
X4632299Y5294630D01*
X4627778Y5280101D01*
X4625035Y5265166D01*
X4624120Y5249976D01*
X4625035Y5234787D01*
X4627778Y5219852D01*
X4632299Y5205323D01*
X4638548Y5191455D01*
X4646422Y5178450D01*
X4655769Y5166512D01*
X4666538Y5155742D01*
X4678476Y5146395D01*
X4691481Y5138521D01*
X4705350Y5132273D01*
X4719878Y5127752D01*
X4734814Y5125008D01*
G37*
G36*
X1206296Y5637479D02*
G01*
X1208430Y5638444D01*
X1221435Y5646318D01*
X1233424Y5655716D01*
X1244193Y5666435D01*
X1253540Y5678424D01*
X1261414Y5691428D01*
X1262380Y5693562D01*
X1206296Y5693562D01*
G37*
G36*
X593598Y5637479D02*
G01*
X593598Y5693562D01*
X537514Y5693562D01*
X538480Y5691428D01*
X546354Y5678424D01*
X555701Y5666435D01*
X566470Y5655716D01*
X578459Y5646318D01*
X591464Y5638444D01*
G37*
G36*
X1093622Y5637479D02*
G01*
X1093622Y5693562D01*
X1037488Y5693562D01*
X1038453Y5691428D01*
X1046327Y5678424D01*
X1055725Y5666435D01*
X1066444Y5655716D01*
X1078433Y5646318D01*
X1091438Y5638444D01*
G37*
G36*
X706323Y5637479D02*
G01*
X708456Y5638444D01*
X721461Y5646318D01*
X733450Y5655716D01*
X744169Y5666435D01*
X753567Y5678424D01*
X761441Y5691428D01*
X762406Y5693562D01*
X706323Y5693562D01*
G37*
G36*
X9406331Y5637530D02*
G01*
X9408515Y5638495D01*
X9421520Y5646369D01*
X9433458Y5655716D01*
X9444228Y5666486D01*
X9453575Y5678474D01*
X9461449Y5691479D01*
X9462414Y5693613D01*
X9406331Y5693613D01*
G37*
G36*
X8906357Y5637530D02*
G01*
X8908491Y5638495D01*
X8921496Y5646369D01*
X8933484Y5655716D01*
X8944203Y5666486D01*
X8953601Y5678474D01*
X8961475Y5691479D01*
X8962440Y5693613D01*
X8906357Y5693613D01*
G37*
G36*
X8793632Y5637530D02*
G01*
X8793632Y5693613D01*
X8737549Y5693613D01*
X8738514Y5691479D01*
X8746388Y5678474D01*
X8755786Y5666486D01*
X8766505Y5655716D01*
X8778494Y5646369D01*
X8791498Y5638495D01*
G37*
G36*
X9293656Y5637530D02*
G01*
X9293656Y5693613D01*
X9237573Y5693613D01*
X9238538Y5691479D01*
X9246412Y5678474D01*
X9255760Y5666486D01*
X9266529Y5655716D01*
X9278467Y5646369D01*
X9291472Y5638495D01*
G37*
G36*
X2700477Y5661355D02*
G01*
X6299504Y5661355D01*
X6307531Y5662168D01*
X6314744Y5664352D01*
X6321399Y5667908D01*
X6327241Y5672734D01*
X6332067Y5678576D01*
X6335623Y5685231D01*
X6337808Y5692444D01*
X6338620Y5700471D01*
X6338620Y7499502D01*
X6337808Y7507528D01*
X6335623Y7514742D01*
X6332067Y7521397D01*
X6327241Y7527239D01*
X6321399Y7532065D01*
X6314744Y7535621D01*
X6307531Y7537805D01*
X6299504Y7538567D01*
X2700528Y7538466D01*
X2692501Y7537653D01*
X2685288Y7535468D01*
X2678582Y7531912D01*
X2672740Y7527137D01*
X2667965Y7521295D01*
X2664409Y7514590D01*
X2662224Y7507376D01*
X2661412Y7499350D01*
X2661412Y5700471D01*
X2662174Y5692444D01*
X2664358Y5685231D01*
X2667914Y5678576D01*
X2672740Y5672734D01*
X2678582Y5667908D01*
X2685237Y5664352D01*
X2692450Y5662168D01*
G37*
G36*
X9406331Y5806287D02*
G01*
X9462414Y5806287D01*
X9461449Y5808472D01*
X9453575Y5821476D01*
X9444228Y5833465D01*
X9433458Y5844184D01*
X9421520Y5853582D01*
X9408515Y5861456D01*
X9406331Y5862421D01*
G37*
G36*
X8906357Y5806287D02*
G01*
X8962440Y5806287D01*
X8961475Y5808472D01*
X8953601Y5821476D01*
X8944203Y5833465D01*
X8933484Y5844184D01*
X8921496Y5853582D01*
X8908491Y5861456D01*
X8906357Y5862421D01*
G37*
G36*
X9237573Y5806287D02*
G01*
X9293656Y5806287D01*
X9293656Y5862421D01*
X9291472Y5861456D01*
X9278467Y5853582D01*
X9266529Y5844184D01*
X9255760Y5833465D01*
X9246412Y5821476D01*
X9238538Y5808472D01*
G37*
G36*
X8737549Y5806287D02*
G01*
X8793632Y5806287D01*
X8793632Y5862421D01*
X8791498Y5861456D01*
X8778494Y5853582D01*
X8766505Y5844184D01*
X8755786Y5833465D01*
X8746388Y5821476D01*
X8738514Y5808472D01*
G37*
G36*
X537514Y5806287D02*
G01*
X593598Y5806287D01*
X593598Y5862370D01*
X591464Y5861405D01*
X578459Y5853531D01*
X566470Y5844133D01*
X555701Y5833414D01*
X546354Y5821426D01*
X538480Y5808421D01*
G37*
G36*
X1206296Y5806287D02*
G01*
X1262380Y5806287D01*
X1261414Y5808421D01*
X1253540Y5821426D01*
X1244193Y5833414D01*
X1233424Y5844133D01*
X1221435Y5853531D01*
X1208430Y5861405D01*
X1206296Y5862370D01*
G37*
G36*
X1037488Y5806287D02*
G01*
X1093622Y5806287D01*
X1093622Y5862370D01*
X1091438Y5861405D01*
X1078433Y5853531D01*
X1066444Y5844133D01*
X1055725Y5833414D01*
X1046327Y5821426D01*
X1038453Y5808421D01*
G37*
G36*
X706323Y5806287D02*
G01*
X762406Y5806287D01*
X761441Y5808421D01*
X753567Y5821426D01*
X744169Y5833414D01*
X733450Y5844133D01*
X721461Y5853531D01*
X708456Y5861405D01*
X706323Y5862370D01*
G37*
G36*
X649935Y6124041D02*
G01*
X665124Y6124956D01*
X680059Y6127699D01*
X694588Y6132220D01*
X708456Y6138468D01*
X721461Y6146342D01*
X733450Y6155690D01*
X744169Y6166459D01*
X753567Y6178448D01*
X761441Y6191453D01*
X767638Y6205270D01*
X772160Y6219799D01*
X774903Y6234785D01*
X775817Y6249924D01*
X774903Y6265113D01*
X772160Y6280048D01*
X767638Y6294577D01*
X761441Y6308445D01*
X753567Y6321450D01*
X744169Y6333439D01*
X733450Y6344158D01*
X721461Y6353556D01*
X708456Y6361430D01*
X694588Y6367627D01*
X680059Y6372148D01*
X665124Y6374892D01*
X649935Y6375806D01*
X634796Y6374892D01*
X619810Y6372148D01*
X605282Y6367627D01*
X591464Y6361430D01*
X578459Y6353556D01*
X566470Y6344158D01*
X555701Y6333439D01*
X546354Y6321450D01*
X538480Y6308445D01*
X532231Y6294577D01*
X527710Y6280048D01*
X524967Y6265113D01*
X524052Y6249924D01*
X524967Y6234785D01*
X527710Y6219799D01*
X532231Y6205270D01*
X538480Y6191453D01*
X546354Y6178448D01*
X555701Y6166459D01*
X566470Y6155690D01*
X578459Y6146342D01*
X591464Y6138468D01*
X605282Y6132220D01*
X619810Y6127699D01*
X634796Y6124956D01*
G37*
G36*
X1149959Y6124041D02*
G01*
X1165098Y6124956D01*
X1180084Y6127699D01*
X1194612Y6132220D01*
X1208430Y6138468D01*
X1221435Y6146342D01*
X1233424Y6155690D01*
X1244193Y6166459D01*
X1253540Y6178448D01*
X1261414Y6191453D01*
X1267663Y6205270D01*
X1272184Y6219799D01*
X1274927Y6234785D01*
X1275842Y6249924D01*
X1274927Y6265113D01*
X1272184Y6280048D01*
X1267663Y6294577D01*
X1261414Y6308445D01*
X1253540Y6321450D01*
X1244193Y6333439D01*
X1233424Y6344158D01*
X1221435Y6353556D01*
X1208430Y6361430D01*
X1194612Y6367627D01*
X1180084Y6372148D01*
X1165098Y6374892D01*
X1149959Y6375806D01*
X1134770Y6374892D01*
X1119835Y6372148D01*
X1105306Y6367627D01*
X1091438Y6361430D01*
X1078433Y6353556D01*
X1066444Y6344158D01*
X1055725Y6333439D01*
X1046327Y6321450D01*
X1038453Y6308445D01*
X1032256Y6294577D01*
X1027734Y6280048D01*
X1024991Y6265113D01*
X1024077Y6249924D01*
X1024991Y6234785D01*
X1027734Y6219799D01*
X1032256Y6205270D01*
X1038453Y6191453D01*
X1046327Y6178448D01*
X1055725Y6166459D01*
X1066444Y6155690D01*
X1078433Y6146342D01*
X1091438Y6138468D01*
X1105306Y6132220D01*
X1119835Y6127699D01*
X1134770Y6124956D01*
G37*
G36*
X8850020Y6124092D02*
G01*
X8865158Y6125006D01*
X8880144Y6127750D01*
X8894622Y6132271D01*
X8908491Y6138519D01*
X8921496Y6146393D01*
X8933484Y6155740D01*
X8944203Y6166510D01*
X8953601Y6178448D01*
X8961475Y6191453D01*
X8967825Y6205575D01*
X8970060Y6208725D01*
X8973261Y6210808D01*
X8977071Y6211570D01*
X9222892Y6211570D01*
X9226702Y6210808D01*
X9229953Y6208725D01*
X9232188Y6205575D01*
X9238538Y6191453D01*
X9246412Y6178448D01*
X9255760Y6166510D01*
X9266529Y6155740D01*
X9278467Y6146393D01*
X9291472Y6138519D01*
X9305340Y6132271D01*
X9319869Y6127750D01*
X9334804Y6125006D01*
X9349994Y6124092D01*
X9365183Y6125006D01*
X9380118Y6127750D01*
X9394647Y6132271D01*
X9408515Y6138519D01*
X9421520Y6146393D01*
X9433458Y6155740D01*
X9444228Y6166510D01*
X9453575Y6178448D01*
X9461449Y6191453D01*
X9467697Y6205321D01*
X9472218Y6219850D01*
X9474962Y6234785D01*
X9475876Y6249974D01*
X9474962Y6265164D01*
X9472218Y6280099D01*
X9467697Y6294628D01*
X9461449Y6308496D01*
X9453575Y6321501D01*
X9444228Y6333439D01*
X9433458Y6344208D01*
X9421520Y6353556D01*
X9408515Y6361430D01*
X9394647Y6367678D01*
X9380118Y6372199D01*
X9365183Y6374942D01*
X9349994Y6375857D01*
X9334804Y6374942D01*
X9319869Y6372199D01*
X9305340Y6367678D01*
X9291472Y6361430D01*
X9278467Y6353556D01*
X9266529Y6344208D01*
X9255760Y6333439D01*
X9246412Y6321501D01*
X9238538Y6308496D01*
X9232188Y6294374D01*
X9229953Y6291224D01*
X9226702Y6289141D01*
X9222892Y6288379D01*
X8977071Y6288379D01*
X8973261Y6289141D01*
X8970060Y6291224D01*
X8967825Y6294374D01*
X8961475Y6308496D01*
X8953601Y6321501D01*
X8944203Y6333439D01*
X8933484Y6344208D01*
X8921496Y6353556D01*
X8908491Y6361430D01*
X8894622Y6367678D01*
X8880144Y6372199D01*
X8865158Y6374942D01*
X8850020Y6375857D01*
X8834831Y6374942D01*
X8819845Y6372199D01*
X8805367Y6367678D01*
X8791498Y6361430D01*
X8778494Y6353556D01*
X8766505Y6344208D01*
X8755786Y6333439D01*
X8746388Y6321501D01*
X8738514Y6308496D01*
X8732266Y6294628D01*
X8727744Y6280099D01*
X8725001Y6265164D01*
X8724087Y6249974D01*
X8725001Y6234785D01*
X8727744Y6219850D01*
X8732266Y6205321D01*
X8738514Y6191453D01*
X8746388Y6178448D01*
X8755786Y6166510D01*
X8766505Y6155740D01*
X8778494Y6146393D01*
X8791498Y6138519D01*
X8805367Y6132271D01*
X8819845Y6127750D01*
X8834831Y6125006D01*
G37*
G36*
X2867152Y8442655D02*
G01*
X2867152Y8488070D01*
X2821787Y8488070D01*
X2826156Y8479586D01*
X2833827Y8468766D01*
X2842818Y8459063D01*
X2853131Y8450732D01*
X2864408Y8443874D01*
G37*
G36*
X2950972Y8442655D02*
G01*
X2953664Y8443874D01*
X2964992Y8450732D01*
X2975254Y8459063D01*
X2984296Y8468766D01*
X2991916Y8479586D01*
X2996336Y8488070D01*
X2950972Y8488070D01*
G37*
G36*
X1929993Y7593634D02*
G01*
X1939798Y7594498D01*
X1949246Y7597038D01*
X1958187Y7601153D01*
X1966823Y7607249D01*
X1969566Y7608570D01*
X1972665Y7609078D01*
X2107336Y7609078D01*
X2110384Y7608570D01*
X2113178Y7607249D01*
X2121814Y7601153D01*
X2130704Y7597038D01*
X2140204Y7594498D01*
X2150008Y7593634D01*
X2159762Y7594498D01*
X2169261Y7597038D01*
X2178151Y7601153D01*
X2186228Y7606792D01*
X2193137Y7613751D01*
X2198776Y7621778D01*
X2202942Y7630718D01*
X2205482Y7640167D01*
X2206345Y7649972D01*
X2205482Y7659776D01*
X2202942Y7669225D01*
X2198776Y7678166D01*
X2194560Y7684160D01*
X2192934Y7687919D01*
X2192934Y7692034D01*
X2194560Y7695793D01*
X2198776Y7701788D01*
X2202942Y7710728D01*
X2205482Y7720177D01*
X2206345Y7729981D01*
X2205482Y7739786D01*
X2202942Y7749235D01*
X2198776Y7758175D01*
X2193137Y7766202D01*
X2186228Y7773162D01*
X2178151Y7778800D01*
X2169261Y7782915D01*
X2159762Y7785455D01*
X2150008Y7786319D01*
X2140204Y7785455D01*
X2130704Y7782915D01*
X2121814Y7778800D01*
X2113178Y7772704D01*
X2110384Y7771384D01*
X2107336Y7770875D01*
X2042617Y7770875D01*
X2039569Y7771384D01*
X2036825Y7772704D01*
X2028189Y7778800D01*
X2019249Y7782915D01*
X2009800Y7785455D01*
X1999996Y7786319D01*
X1990191Y7785455D01*
X1980742Y7782915D01*
X1971802Y7778800D01*
X1963775Y7773162D01*
X1956816Y7766202D01*
X1951177Y7758175D01*
X1947062Y7749235D01*
X1944522Y7739786D01*
X1943658Y7729981D01*
X1945182Y7714843D01*
X1943963Y7711135D01*
X1941474Y7708188D01*
X1938070Y7706359D01*
X1934210Y7705953D01*
X1929993Y7706309D01*
X1920189Y7705445D01*
X1910740Y7702905D01*
X1901799Y7698790D01*
X1893773Y7693152D01*
X1886813Y7686192D01*
X1881174Y7678166D01*
X1877060Y7669225D01*
X1874520Y7659776D01*
X1873656Y7649972D01*
X1874520Y7640167D01*
X1877060Y7630718D01*
X1881174Y7621778D01*
X1886813Y7613751D01*
X1893773Y7606792D01*
X1901799Y7601153D01*
X1910740Y7597038D01*
X1920189Y7594498D01*
G37*
G36*
X3729990Y8434120D02*
G01*
X3744925Y8435086D01*
X3758793Y8437727D01*
X3772662Y8442248D01*
X3785819Y8448446D01*
X3798112Y8456218D01*
X3809339Y8465515D01*
X3819296Y8476132D01*
X3827830Y8487867D01*
X3834841Y8500618D01*
X3840226Y8514181D01*
X3843832Y8528253D01*
X3845661Y8542731D01*
X3845661Y8557260D01*
X3843832Y8571687D01*
X3840226Y8585809D01*
X3836974Y8593988D01*
X3836263Y8597798D01*
X3837025Y8601659D01*
X3839210Y8604910D01*
X3906824Y8672474D01*
X3911904Y8678672D01*
X3915460Y8685326D01*
X3917645Y8692489D01*
X3918407Y8700465D01*
X3918407Y9378391D01*
X3919321Y9382556D01*
X3921861Y9386011D01*
X3925620Y9388094D01*
X3937101Y9391548D01*
X3953611Y9398558D01*
X3969308Y9407245D01*
X3983990Y9417507D01*
X3997451Y9429343D01*
X4009644Y9442500D01*
X4020312Y9456877D01*
X4029405Y9472320D01*
X4036822Y9488678D01*
X4042460Y9505696D01*
X4046220Y9523171D01*
X4048150Y9541002D01*
X4048150Y9558934D01*
X4046220Y9576765D01*
X4042460Y9594291D01*
X4036822Y9611309D01*
X4029405Y9627616D01*
X4020312Y9643059D01*
X4009644Y9657435D01*
X3997451Y9670643D01*
X3983990Y9682429D01*
X3969308Y9692741D01*
X3953611Y9701428D01*
X3937101Y9708388D01*
X3919931Y9713569D01*
X3902354Y9716871D01*
X3884472Y9718294D01*
X3866540Y9717836D01*
X3848811Y9715449D01*
X3831386Y9711182D01*
X3814521Y9705136D01*
X3798417Y9697262D01*
X3783177Y9687763D01*
X3769106Y9676688D01*
X3756253Y9664192D01*
X3744823Y9650425D01*
X3734917Y9635490D01*
X3726637Y9619538D01*
X3720134Y9602876D01*
X3715410Y9585553D01*
X3712565Y9567875D01*
X3711600Y9549993D01*
X3712565Y9532061D01*
X3715410Y9514382D01*
X3720134Y9497110D01*
X3726637Y9480397D01*
X3734917Y9464497D01*
X3744823Y9449562D01*
X3756253Y9435744D01*
X3769106Y9423247D01*
X3783177Y9412173D01*
X3798417Y9402673D01*
X3814521Y9394850D01*
X3831386Y9388754D01*
X3833825Y9388144D01*
X3837838Y9386163D01*
X3840581Y9382658D01*
X3841597Y9378289D01*
X3841597Y8874404D01*
X3840734Y8870289D01*
X3838244Y8866835D01*
X3834587Y8864752D01*
X3830370Y8864295D01*
X3826357Y8865616D01*
X3823208Y8868410D01*
X3819296Y8873845D01*
X3809339Y8884462D01*
X3798112Y8893708D01*
X3785819Y8901531D01*
X3772662Y8907729D01*
X3758793Y8912199D01*
X3744518Y8914942D01*
X3729990Y8915857D01*
X3726637Y8915654D01*
X3722420Y8916263D01*
X3718814Y8918600D01*
X3488893Y9148419D01*
X3486658Y9151721D01*
X3485896Y9155633D01*
X3485896Y9393834D01*
X3486505Y9397339D01*
X3488334Y9400438D01*
X3491128Y9402673D01*
X3499307Y9407245D01*
X3513988Y9417507D01*
X3527450Y9429343D01*
X3539642Y9442500D01*
X3550310Y9456877D01*
X3559403Y9472320D01*
X3566820Y9488678D01*
X3572459Y9505696D01*
X3576218Y9523171D01*
X3578148Y9541002D01*
X3578148Y9558934D01*
X3576218Y9576765D01*
X3572459Y9594291D01*
X3566820Y9611309D01*
X3559403Y9627616D01*
X3550310Y9643059D01*
X3539642Y9657435D01*
X3527450Y9670643D01*
X3513988Y9682429D01*
X3499307Y9692741D01*
X3483610Y9701428D01*
X3467100Y9708388D01*
X3449980Y9713569D01*
X3432352Y9716871D01*
X3414471Y9718294D01*
X3396538Y9717836D01*
X3378809Y9715449D01*
X3361385Y9711182D01*
X3344519Y9705136D01*
X3328415Y9697262D01*
X3313176Y9687763D01*
X3299104Y9676688D01*
X3286251Y9664192D01*
X3274822Y9650425D01*
X3264915Y9635490D01*
X3256635Y9619538D01*
X3250133Y9602876D01*
X3245408Y9585553D01*
X3242564Y9567875D01*
X3241598Y9549993D01*
X3242564Y9532061D01*
X3245408Y9514382D01*
X3250133Y9497110D01*
X3256635Y9480397D01*
X3264915Y9464497D01*
X3274822Y9449562D01*
X3286251Y9435744D01*
X3299104Y9423247D01*
X3313176Y9412173D01*
X3329279Y9402165D01*
X3331819Y9399930D01*
X3333496Y9396933D01*
X3334105Y9393529D01*
X3334156Y9117330D01*
X3334969Y9108490D01*
X3335375Y9106052D01*
X3337509Y9097416D01*
X3340455Y9090050D01*
X3341268Y9086138D01*
X3340506Y9082227D01*
X3338322Y9078874D01*
X3335020Y9076690D01*
X3331108Y9075877D01*
X2485745Y9075877D01*
X2481834Y9076639D01*
X2478532Y9078874D01*
X2384044Y9173362D01*
X2375154Y9181033D01*
X2365552Y9187078D01*
X2355138Y9191599D01*
X2344216Y9194546D01*
X2332939Y9195816D01*
X2321610Y9195358D01*
X2310434Y9193276D01*
X2299766Y9189516D01*
X2289708Y9184233D01*
X2280615Y9177477D01*
X2272588Y9169450D01*
X2265832Y9160357D01*
X2260549Y9150299D01*
X2256790Y9139631D01*
X2254707Y9128455D01*
X2254250Y9117126D01*
X2255520Y9105849D01*
X2258466Y9094927D01*
X2262987Y9084513D01*
X2269032Y9074912D01*
X2276703Y9066022D01*
X2398318Y8944457D01*
X2407158Y8937396D01*
X2414778Y8932773D01*
X2416962Y8931656D01*
X2425192Y8928252D01*
X2427528Y8927490D01*
X2436164Y8925356D01*
X2438603Y8924950D01*
X2447442Y8924137D01*
X3494328Y8924086D01*
X3498240Y8923324D01*
X3501491Y8921089D01*
X3611372Y8811260D01*
X3613556Y8807958D01*
X3614318Y8804046D01*
X3614318Y8792718D01*
X3616147Y8778240D01*
X3619754Y8764168D01*
X3625138Y8750604D01*
X3632149Y8737854D01*
X3640683Y8726119D01*
X3650640Y8715502D01*
X3661867Y8706205D01*
X3674160Y8698433D01*
X3687318Y8692235D01*
X3701186Y8687714D01*
X3715664Y8684971D01*
X3719372Y8683447D01*
X3722217Y8680653D01*
X3723741Y8676944D01*
X3723741Y8672982D01*
X3722217Y8669324D01*
X3719372Y8666480D01*
X3715664Y8665006D01*
X3701186Y8662212D01*
X3687318Y8657742D01*
X3674160Y8651544D01*
X3661867Y8643721D01*
X3650640Y8634476D01*
X3640683Y8623858D01*
X3632149Y8612073D01*
X3625138Y8599322D01*
X3619754Y8585809D01*
X3616147Y8571687D01*
X3614318Y8557260D01*
X3614318Y8542731D01*
X3616147Y8528253D01*
X3619754Y8514181D01*
X3625138Y8500618D01*
X3632149Y8487867D01*
X3640683Y8476132D01*
X3650640Y8465515D01*
X3661867Y8456218D01*
X3674160Y8448446D01*
X3687318Y8442248D01*
X3701186Y8437727D01*
X3715461Y8434984D01*
G37*
G36*
X209194Y7630769D02*
G01*
X217373Y7632496D01*
X229057Y7636611D01*
X240080Y7642352D01*
X250240Y7649514D01*
X259283Y7657947D01*
X267106Y7667599D01*
X273558Y7678166D01*
X274828Y7681163D01*
X209194Y7681163D01*
G37*
G36*
X4069994Y8434120D02*
G01*
X4084929Y8435086D01*
X4098798Y8437727D01*
X4112666Y8442248D01*
X4125823Y8448446D01*
X4138117Y8456218D01*
X4149344Y8465515D01*
X4159300Y8476132D01*
X4167835Y8487867D01*
X4174845Y8500618D01*
X4180230Y8514181D01*
X4183837Y8528253D01*
X4185665Y8542731D01*
X4185665Y8557260D01*
X4183837Y8571687D01*
X4180230Y8585809D01*
X4174845Y8599322D01*
X4167835Y8612073D01*
X4159300Y8623858D01*
X4149344Y8634476D01*
X4138117Y8643721D01*
X4125823Y8651544D01*
X4112666Y8657742D01*
X4098798Y8662212D01*
X4084320Y8665006D01*
X4080611Y8666480D01*
X4077766Y8669324D01*
X4076242Y8672982D01*
X4076242Y8676944D01*
X4077766Y8680653D01*
X4080611Y8683447D01*
X4084320Y8684971D01*
X4098798Y8687714D01*
X4112666Y8692235D01*
X4125823Y8698433D01*
X4138117Y8706205D01*
X4149344Y8715502D01*
X4159300Y8726119D01*
X4167835Y8737854D01*
X4174845Y8750604D01*
X4180230Y8764168D01*
X4183837Y8778240D01*
X4185665Y8792718D01*
X4185665Y8807246D01*
X4183837Y8821674D01*
X4180230Y8835796D01*
X4174845Y8849309D01*
X4167835Y8862060D01*
X4159300Y8873845D01*
X4149344Y8884462D01*
X4138117Y8893708D01*
X4125823Y8901531D01*
X4112666Y8907729D01*
X4098798Y8912199D01*
X4084523Y8914942D01*
X4069994Y8915857D01*
X4055465Y8914942D01*
X4041190Y8912199D01*
X4027322Y8907729D01*
X4014165Y8901531D01*
X4001871Y8893708D01*
X3990644Y8884462D01*
X3980687Y8873845D01*
X3972153Y8862060D01*
X3965143Y8849309D01*
X3959758Y8835796D01*
X3956151Y8821674D01*
X3954322Y8807246D01*
X3954322Y8792718D01*
X3956151Y8778240D01*
X3959758Y8764168D01*
X3965143Y8750604D01*
X3972153Y8737854D01*
X3980687Y8726119D01*
X3990644Y8715502D01*
X4001871Y8706205D01*
X4014165Y8698433D01*
X4027322Y8692235D01*
X4041190Y8687714D01*
X4055668Y8684971D01*
X4059377Y8683447D01*
X4062222Y8680653D01*
X4063746Y8676944D01*
X4063746Y8672982D01*
X4062222Y8669324D01*
X4059377Y8666480D01*
X4055668Y8665006D01*
X4041190Y8662212D01*
X4027322Y8657742D01*
X4014165Y8651544D01*
X4001871Y8643721D01*
X3990644Y8634476D01*
X3980687Y8623858D01*
X3972153Y8612073D01*
X3965143Y8599322D01*
X3959758Y8585809D01*
X3956151Y8571687D01*
X3954322Y8557260D01*
X3954322Y8542731D01*
X3956151Y8528253D01*
X3959758Y8514181D01*
X3965143Y8500618D01*
X3972153Y8487867D01*
X3980687Y8476132D01*
X3990644Y8465515D01*
X4001871Y8456218D01*
X4014165Y8448446D01*
X4027322Y8442248D01*
X4041190Y8437727D01*
X4055465Y8434984D01*
G37*
G36*
X6100013Y7643622D02*
G01*
X6109766Y7644485D01*
X6119266Y7647025D01*
X6128156Y7651191D01*
X6136233Y7656830D01*
X6143142Y7663738D01*
X6148781Y7671816D01*
X6152946Y7680706D01*
X6155486Y7690205D01*
X6156198Y7698536D01*
X6157112Y7701940D01*
X6159144Y7704836D01*
X6226759Y7772450D01*
X6231890Y7778699D01*
X6235446Y7785303D01*
X6237630Y7792516D01*
X6238392Y7800492D01*
X6238392Y8679891D01*
X6239154Y8683752D01*
X6241389Y8687054D01*
X6412890Y8858605D01*
X6416192Y8860790D01*
X6420104Y8861552D01*
X8154822Y8861552D01*
X8158683Y8860790D01*
X8161985Y8858605D01*
X8163763Y8856827D01*
X8171789Y8851188D01*
X8180730Y8847023D01*
X8190179Y8844483D01*
X8199983Y8843619D01*
X8209788Y8844483D01*
X8219236Y8847023D01*
X8228177Y8851188D01*
X8236203Y8856827D01*
X8243163Y8863736D01*
X8248802Y8871813D01*
X8252917Y8880703D01*
X8255457Y8890203D01*
X8256320Y8899956D01*
X8255457Y8909761D01*
X8254796Y8914993D01*
X8255812Y8918549D01*
X8258098Y8921445D01*
X8261248Y8923375D01*
X8264906Y8924086D01*
X8299602Y8924086D01*
X8311286Y8924950D01*
X8322360Y8927490D01*
X8332927Y8931605D01*
X8342731Y8937294D01*
X8351570Y8944356D01*
X8359292Y8952687D01*
X8365693Y8962034D01*
X8370620Y8972245D01*
X8373973Y8983116D01*
X8375650Y8994292D01*
X8375650Y9005671D01*
X8373973Y9016847D01*
X8370620Y9027718D01*
X8365693Y9037929D01*
X8359292Y9047276D01*
X8351570Y9055608D01*
X8342731Y9062669D01*
X8332927Y9068358D01*
X8322360Y9072473D01*
X8311286Y9075013D01*
X8299602Y9075877D01*
X6200343Y9075877D01*
X6188659Y9075013D01*
X6177635Y9072473D01*
X6167069Y9068358D01*
X6157264Y9062669D01*
X6148374Y9055608D01*
X6140653Y9047276D01*
X6134252Y9037929D01*
X6129375Y9027718D01*
X6126022Y9016847D01*
X6124295Y9005671D01*
X6124295Y8994292D01*
X6126022Y8983116D01*
X6129375Y8972245D01*
X6134252Y8962034D01*
X6140653Y8952687D01*
X6148374Y8944356D01*
X6157264Y8937294D01*
X6167069Y8931605D01*
X6177635Y8927490D01*
X6188659Y8924950D01*
X6200343Y8924086D01*
X6345224Y8924086D01*
X6349136Y8923324D01*
X6352387Y8921089D01*
X6354622Y8917787D01*
X6355384Y8913926D01*
X6354622Y8910015D01*
X6352387Y8906713D01*
X6173165Y8727490D01*
X6168085Y8721293D01*
X6164529Y8714638D01*
X6162395Y8707475D01*
X6161582Y8699500D01*
X6161582Y7820101D01*
X6160820Y7816240D01*
X6158585Y7812938D01*
X6104839Y7759141D01*
X6101943Y7757109D01*
X6098540Y7756194D01*
X6090208Y7755483D01*
X6080709Y7752943D01*
X6071819Y7748778D01*
X6063742Y7743139D01*
X6056833Y7736230D01*
X6051194Y7728153D01*
X6047028Y7719263D01*
X6044488Y7709763D01*
X6043625Y7699959D01*
X6044488Y7690205D01*
X6047028Y7680706D01*
X6051194Y7671816D01*
X6056833Y7663738D01*
X6063742Y7656830D01*
X6071819Y7651191D01*
X6080709Y7647025D01*
X6090208Y7644485D01*
G37*
G36*
X2704338Y8433206D02*
G01*
X2717546Y8433206D01*
X2730652Y8434984D01*
X2743403Y8438591D01*
X2755544Y8443874D01*
X2766872Y8450732D01*
X2777134Y8459063D01*
X2786176Y8468766D01*
X2793796Y8479586D01*
X2802585Y8496300D01*
X2803550Y8501634D01*
X2804363Y8503818D01*
X2807055Y8516772D01*
X2807919Y8529980D01*
X2807055Y8543188D01*
X2804363Y8556142D01*
X2803550Y8558326D01*
X2802991Y8562136D01*
X2802585Y8563660D01*
X2793796Y8580374D01*
X2786176Y8591194D01*
X2777134Y8600897D01*
X2766872Y8609228D01*
X2755544Y8616086D01*
X2743403Y8621369D01*
X2730652Y8624976D01*
X2717546Y8626754D01*
X2704338Y8626754D01*
X2691180Y8624976D01*
X2678430Y8621369D01*
X2666288Y8616086D01*
X2655011Y8609228D01*
X2644698Y8600897D01*
X2635707Y8591194D01*
X2628036Y8580374D01*
X2621940Y8568639D01*
X2617520Y8556142D01*
X2614828Y8543188D01*
X2613914Y8529980D01*
X2614828Y8516772D01*
X2617520Y8503818D01*
X2621940Y8491321D01*
X2628036Y8479586D01*
X2635707Y8468766D01*
X2644698Y8459063D01*
X2655011Y8450732D01*
X2666288Y8443874D01*
X2678430Y8438591D01*
X2691180Y8434984D01*
G37*
G36*
X453745Y7755483D02*
G01*
X463042Y7760411D01*
X473303Y7767878D01*
X482396Y7776667D01*
X490220Y7786674D01*
X496570Y7797647D01*
X496976Y7798663D01*
X453745Y7798663D01*
G37*
G36*
X376021Y7755483D02*
G01*
X376021Y7798663D01*
X332790Y7798663D01*
X333197Y7797647D01*
X339547Y7786674D01*
X347319Y7776667D01*
X356463Y7767878D01*
X366725Y7760411D01*
G37*
G36*
X209194Y7758836D02*
G01*
X274828Y7758836D01*
X273558Y7761782D01*
X267106Y7772400D01*
X259283Y7782001D01*
X250240Y7790484D01*
X240080Y7797647D01*
X229057Y7803337D01*
X217373Y7807502D01*
X209194Y7809179D01*
G37*
G36*
X453745Y8361324D02*
G01*
X496773Y8361324D01*
X493572Y8367928D01*
X486511Y8378444D01*
X478028Y8387842D01*
X468274Y8396020D01*
X457555Y8402726D01*
X453745Y8404453D01*
G37*
G36*
X332943Y8361324D02*
G01*
X376021Y8361324D01*
X376021Y8404453D01*
X372211Y8402726D01*
X361442Y8396020D01*
X351739Y8387842D01*
X343255Y8378444D01*
X336194Y8367928D01*
G37*
G36*
X453745Y7876336D02*
G01*
X496773Y7876336D01*
X493572Y7882940D01*
X490778Y7887106D01*
X487222Y7884515D01*
X483311Y7883753D01*
X453745Y7883753D01*
G37*
G36*
X332943Y7876336D02*
G01*
X376021Y7876336D01*
X376021Y7933639D01*
X356209Y7933639D01*
X356209Y7930540D01*
X356920Y7924241D01*
X359206Y7917688D01*
X359765Y7913674D01*
X358698Y7909763D01*
X356158Y7906562D01*
X351739Y7902854D01*
X343255Y7893456D01*
X336194Y7882940D01*
G37*
G36*
X493471Y7902651D02*
G01*
X494182Y7903159D01*
X498449Y7904073D01*
X521563Y7904073D01*
X527862Y7904784D01*
X533349Y7906715D01*
X538226Y7909763D01*
X542340Y7913878D01*
X545439Y7918754D01*
X547319Y7924241D01*
X548030Y7930540D01*
X548030Y7933639D01*
X493471Y7933639D01*
G37*
G36*
X356209Y7966354D02*
G01*
X414020Y7966354D01*
X417220Y7968386D01*
X420928Y7969097D01*
X483311Y7969097D01*
X487070Y7968386D01*
X490270Y7966354D01*
X548030Y7966354D01*
X548030Y7969402D01*
X547319Y7975752D01*
X546150Y7979156D01*
X545592Y7982508D01*
X546150Y7985861D01*
X547319Y7989214D01*
X548030Y7995564D01*
X548030Y8028940D01*
X548792Y8032800D01*
X551027Y8036102D01*
X554329Y8038287D01*
X558190Y8039100D01*
X1257350Y8039100D01*
X1260398Y8038592D01*
X1263192Y8037220D01*
X1271828Y8031175D01*
X1280718Y8027060D01*
X1290218Y8024520D01*
X1300022Y8023656D01*
X1309776Y8024520D01*
X1319276Y8027060D01*
X1328166Y8031175D01*
X1336243Y8036814D01*
X1343152Y8043773D01*
X1348790Y8051800D01*
X1352956Y8060740D01*
X1355496Y8070189D01*
X1356360Y8079994D01*
X1355750Y8087106D01*
X1356106Y8090865D01*
X1357884Y8094268D01*
X1360779Y8096758D01*
X1364386Y8098028D01*
X1368196Y8097875D01*
X1380744Y8092033D01*
X1390192Y8089493D01*
X1399997Y8088630D01*
X1409801Y8089493D01*
X1419250Y8092033D01*
X1428191Y8096199D01*
X1436217Y8101838D01*
X1443177Y8108746D01*
X1448816Y8116824D01*
X1452930Y8125714D01*
X1455470Y8135213D01*
X1456334Y8144967D01*
X1455470Y8154771D01*
X1452930Y8164271D01*
X1448816Y8173161D01*
X1443177Y8181238D01*
X1436217Y8188147D01*
X1428191Y8193786D01*
X1419250Y8197951D01*
X1409801Y8200491D01*
X1399997Y8201355D01*
X1390192Y8200491D01*
X1380744Y8197951D01*
X1371854Y8193786D01*
X1362913Y8187537D01*
X1360170Y8186166D01*
X1357122Y8185658D01*
X570992Y8181492D01*
X567131Y8182254D01*
X563778Y8184438D01*
X561594Y8187740D01*
X560781Y8191652D01*
X561594Y8195513D01*
X563778Y8198815D01*
X607364Y8242452D01*
X609498Y8244027D01*
X611936Y8245043D01*
X619252Y8247024D01*
X628192Y8251190D01*
X636219Y8256828D01*
X643178Y8263737D01*
X648817Y8271814D01*
X652932Y8280704D01*
X655472Y8290204D01*
X656336Y8299958D01*
X655472Y8309762D01*
X652932Y8319262D01*
X648817Y8328152D01*
X643178Y8336229D01*
X636219Y8343138D01*
X628192Y8348776D01*
X619252Y8352942D01*
X609803Y8355482D01*
X599998Y8356346D01*
X590194Y8355482D01*
X580745Y8352942D01*
X571804Y8348776D01*
X563778Y8343138D01*
X556818Y8336229D01*
X551180Y8328152D01*
X547065Y8319262D01*
X545084Y8311896D01*
X544068Y8309457D01*
X542442Y8307374D01*
X517499Y8282431D01*
X513842Y8280095D01*
X509524Y8279485D01*
X505358Y8280755D01*
X502107Y8283651D01*
X453745Y8283651D01*
X453745Y8266074D01*
X452932Y8262162D01*
X450748Y8258860D01*
X447446Y8256676D01*
X443585Y8255914D01*
X386181Y8255914D01*
X382320Y8256676D01*
X379018Y8258860D01*
X376783Y8262162D01*
X376021Y8266074D01*
X376021Y8283651D01*
X332790Y8283651D01*
X333197Y8282635D01*
X339547Y8271662D01*
X347319Y8261654D01*
X356616Y8252714D01*
X358800Y8249564D01*
X359714Y8245856D01*
X359156Y8242046D01*
X356920Y8235746D01*
X356209Y8229396D01*
X356209Y8190534D01*
X356920Y8184235D01*
X358140Y8180831D01*
X358698Y8177479D01*
X358140Y8174126D01*
X356920Y8170722D01*
X356209Y8164423D01*
X356209Y8125561D01*
X356920Y8119262D01*
X358140Y8115858D01*
X358698Y8112506D01*
X358140Y8109153D01*
X356920Y8105749D01*
X356209Y8099399D01*
X356209Y8060537D01*
X356920Y8054238D01*
X358140Y8050834D01*
X358698Y8047481D01*
X358140Y8044129D01*
X356920Y8040725D01*
X356209Y8034426D01*
X356209Y7995564D01*
X356920Y7989214D01*
X358140Y7985861D01*
X358698Y7982508D01*
X358140Y7979156D01*
X356920Y7975752D01*
X356209Y7969402D01*
G37*
G36*
X3781348Y8351367D02*
G01*
X3833723Y8351367D01*
X3827830Y8362086D01*
X3819296Y8373872D01*
X3809339Y8384489D01*
X3798112Y8393734D01*
X3785819Y8401558D01*
X3781348Y8403640D01*
G37*
G36*
X3626256Y8351367D02*
G01*
X3678631Y8351367D01*
X3678631Y8403640D01*
X3674160Y8401558D01*
X3661867Y8393734D01*
X3650640Y8384489D01*
X3640683Y8373872D01*
X3632149Y8362086D01*
G37*
G36*
X4121353Y8351367D02*
G01*
X4173728Y8351367D01*
X4167835Y8362086D01*
X4159300Y8373872D01*
X4149344Y8384489D01*
X4138117Y8393734D01*
X4125823Y8401558D01*
X4121353Y8403640D01*
G37*
G36*
X3966260Y8351367D02*
G01*
X4018635Y8351367D01*
X4018635Y8403640D01*
X4014165Y8401558D01*
X4001871Y8393734D01*
X3990644Y8384489D01*
X3980687Y8373872D01*
X3972153Y8362086D01*
G37*
G36*
X4018635Y8196325D02*
G01*
X4018635Y8248650D01*
X3966260Y8248650D01*
X3972153Y8237880D01*
X3980687Y8226145D01*
X3990644Y8215528D01*
X4001871Y8206231D01*
X4014165Y8198459D01*
G37*
G36*
X4121353Y8196325D02*
G01*
X4125823Y8198459D01*
X4138117Y8206231D01*
X4149344Y8215528D01*
X4159300Y8226145D01*
X4167835Y8237880D01*
X4173728Y8248650D01*
X4121353Y8248650D01*
G37*
G36*
X3781348Y8196325D02*
G01*
X3785819Y8198459D01*
X3798112Y8206231D01*
X3809339Y8215528D01*
X3819296Y8226145D01*
X3827830Y8237880D01*
X3833723Y8248650D01*
X3781348Y8248650D01*
G37*
G36*
X3678631Y8196325D02*
G01*
X3678631Y8248650D01*
X3626256Y8248650D01*
X3632149Y8237880D01*
X3640683Y8226145D01*
X3650640Y8215528D01*
X3661867Y8206231D01*
X3674160Y8198459D01*
G37*
G36*
X4900015Y8223656D02*
G01*
X4909769Y8224469D01*
X4919268Y8227009D01*
X4928158Y8231174D01*
X4936236Y8236813D01*
X4943144Y8243773D01*
X4948783Y8251799D01*
X4952949Y8260689D01*
X4955489Y8270189D01*
X4956352Y8279993D01*
X4955489Y8289747D01*
X4952949Y8299246D01*
X4948783Y8308136D01*
X4943144Y8316214D01*
X4941366Y8317992D01*
X4939182Y8321294D01*
X4938420Y8325154D01*
X4938420Y8339886D01*
X4939182Y8343747D01*
X4941366Y8347049D01*
X4995164Y8400846D01*
X4998059Y8402828D01*
X5001463Y8403742D01*
X5009794Y8404504D01*
X5019243Y8407044D01*
X5028184Y8411159D01*
X5036210Y8416798D01*
X5043170Y8423757D01*
X5048808Y8431784D01*
X5052923Y8440724D01*
X5055463Y8450173D01*
X5056327Y8459978D01*
X5055463Y8469782D01*
X5054396Y8473795D01*
X5054092Y8477453D01*
X5055158Y8481009D01*
X5057444Y8483955D01*
X5060594Y8485886D01*
X5064201Y8486597D01*
X5229504Y8486597D01*
X5233416Y8485784D01*
X5236718Y8483600D01*
X5333593Y8386673D01*
X5335828Y8383422D01*
X5336590Y8379510D01*
X5336590Y8350402D01*
X5337505Y8339531D01*
X5340045Y8329422D01*
X5344261Y8319820D01*
X5350002Y8311083D01*
X5357063Y8303361D01*
X5365343Y8296909D01*
X5374538Y8291931D01*
X5384444Y8288528D01*
X5394756Y8286800D01*
X5405221Y8286800D01*
X5415534Y8288528D01*
X5425440Y8291931D01*
X5434634Y8296909D01*
X5442915Y8303361D01*
X5449976Y8311083D01*
X5455716Y8319820D01*
X5459933Y8329422D01*
X5462524Y8339531D01*
X5463387Y8350402D01*
X5463387Y8409686D01*
X5462879Y8418017D01*
X5462574Y8420201D01*
X5460695Y8428278D01*
X5460034Y8430361D01*
X5455869Y8439962D01*
X5451449Y8446973D01*
X5450128Y8448751D01*
X5444591Y8455050D01*
X5305044Y8594598D01*
X5297017Y8601456D01*
X5288026Y8606840D01*
X5280355Y8610041D01*
X5278272Y8610701D01*
X5268061Y8612886D01*
X5259679Y8613394D01*
X4900422Y8613394D01*
X4889550Y8612479D01*
X4879390Y8609939D01*
X4869840Y8605723D01*
X4861052Y8599982D01*
X4853381Y8592921D01*
X4846929Y8584641D01*
X4841951Y8575446D01*
X4838547Y8565540D01*
X4836820Y8555228D01*
X4836820Y8544763D01*
X4838547Y8534450D01*
X4841951Y8524544D01*
X4846929Y8515299D01*
X4853381Y8507069D01*
X4861052Y8499957D01*
X4869840Y8494268D01*
X4879390Y8490051D01*
X4889550Y8487460D01*
X4900422Y8486597D01*
X4935778Y8486597D01*
X4939385Y8485886D01*
X4942535Y8483955D01*
X4944821Y8481009D01*
X4945888Y8477453D01*
X4945583Y8473795D01*
X4944516Y8469782D01*
X4943754Y8461451D01*
X4942840Y8458047D01*
X4940808Y8455152D01*
X4873193Y8387486D01*
X4868113Y8381288D01*
X4864557Y8374684D01*
X4862372Y8367471D01*
X4861560Y8359495D01*
X4861560Y8325154D01*
X4860798Y8321294D01*
X4858613Y8317992D01*
X4856835Y8316214D01*
X4851196Y8308136D01*
X4847031Y8299246D01*
X4844491Y8289747D01*
X4843627Y8279993D01*
X4844491Y8270189D01*
X4847031Y8260689D01*
X4851196Y8251799D01*
X4856835Y8243773D01*
X4863744Y8236813D01*
X4871821Y8231174D01*
X4880711Y8227009D01*
X4890211Y8224469D01*
G37*
G36*
X209194Y8350758D02*
G01*
X217373Y8352485D01*
X229057Y8356650D01*
X240080Y8362340D01*
X250240Y8369503D01*
X259283Y8377936D01*
X267106Y8387588D01*
X273558Y8398154D01*
X274828Y8401151D01*
X209194Y8401151D01*
G37*
G36*
X537514Y4306417D02*
G01*
X593598Y4306417D01*
X593598Y4362500D01*
X591464Y4361535D01*
X578459Y4353661D01*
X566470Y4344263D01*
X555701Y4333544D01*
X546354Y4321556D01*
X538480Y4308551D01*
G37*

%LPD*%
D10*
X509996Y8209978D02*
G01*
X600001Y8299983D01*
X452132Y8209978D02*
G01*
X509996Y8209978D01*
D11*
X450087Y8139937D02*
G01*
X1399997Y8144982D01*
X450087Y8079994D02*
G01*
X1299997Y8079983D01*
X1929993Y7649971D02*
G01*
X2149983Y7649971D01*
X2149983Y7649969D01*
X5999988Y9099981D02*
G01*
X5999988Y8899982D01*
D12*
X6199987Y8999981D02*
G01*
X8299983Y8999981D01*
D11*
X1999995Y7729984D02*
G01*
X2149995Y7729984D01*
D13*
X6099992Y7699982D02*
G01*
X6199982Y7799981D01*
X6199992Y7799981D01*
X6199992Y8699982D01*
X6299982Y8799984D01*
X6399979Y8899982D01*
X8199983Y8899982D01*
X7799984Y4599990D02*
G01*
X7799984Y5099989D01*
X8100059Y4599939D02*
G01*
X8100059Y5100065D01*
X8399983Y4699993D02*
G01*
X8399983Y5199989D01*
X8399983Y5199989D01*
X8849995Y4749977D02*
G01*
X9349993Y4749977D01*
X8849995Y6249974D02*
G01*
X9349993Y6249974D01*
X2250008Y3249980D02*
G01*
X1750009Y3249980D01*
X649935Y4750079D02*
G01*
X1149934Y4750079D01*
X4999990Y8459983D02*
G01*
X4899990Y8359983D01*
X4899990Y8279983D01*
D14*
X4999990Y8549982D02*
G01*
X5259989Y8549982D01*
X5399989Y8409983D01*
X5399989Y8349983D01*
X4899990Y8549982D02*
G01*
X4999990Y8549982D01*
D13*
X3729990Y8549970D02*
G01*
X3880002Y8699982D01*
X3879989Y9549980D01*
D12*
X3729990Y8799969D02*
G01*
X3409988Y9119971D01*
X3409988Y9549980D01*
X2450084Y8999981D02*
G01*
X2330094Y9119971D01*
X3729990Y8800084D02*
G01*
X3530091Y8999981D01*
X2450084Y8999981D01*
D15*
X2499868Y9559797D02*
G01*
X2499868Y9349994D01*
X2549994Y9299981D01*
X2800095Y9299955D01*
D16*
G01*
X452120Y7949971D03*
G01*
X452120Y8014995D03*
G01*
X452120Y8079968D03*
G01*
X452120Y8144967D03*
G01*
X452120Y8209991D03*
D17*
G01*
X4349991Y9549980D03*
G01*
X3879989Y9549980D03*
G01*
X3409988Y9549980D03*
D18*
G01*
X3729990Y8549982D03*
G01*
X3729990Y8299996D03*
G01*
X4069994Y8799969D03*
G01*
X4069994Y8549982D03*
G01*
X4069994Y8299996D03*
G01*
X3729990Y8799969D03*
D19*
G01*
X1149934Y6249949D03*
G01*
X649935Y6249949D03*
G01*
X649935Y5749950D03*
G01*
X1149934Y5749950D03*
G01*
X1149934Y4750079D03*
G01*
X649935Y4750079D03*
G01*
X649935Y4250080D03*
G01*
X1149934Y4250080D03*
D20*
G01*
X147878Y7719999D03*
G01*
X147878Y8439988D03*
D21*
G01*
X414883Y8322487D03*
G01*
X414883Y7837500D03*
D19*
G01*
X3250006Y4749977D03*
G01*
X2750007Y4749977D03*
G01*
X2750007Y4249978D03*
G01*
X3250006Y4249978D03*
G01*
X5250002Y5249976D03*
G01*
X4750003Y5249976D03*
G01*
X4750003Y4749977D03*
G01*
X5250002Y4749977D03*
G01*
X7249998Y4749977D03*
G01*
X6749999Y4749977D03*
G01*
X6749999Y4249978D03*
G01*
X7249998Y4249978D03*
G01*
X9349993Y4749977D03*
G01*
X8849995Y4749977D03*
G01*
X8849995Y4249978D03*
G01*
X9349993Y4249978D03*
G01*
X2250008Y3249980D03*
G01*
X1750009Y3249980D03*
G01*
X1750009Y2749981D03*
G01*
X2250008Y2749981D03*
G01*
X4250004Y3249980D03*
G01*
X3750005Y3249980D03*
G01*
X3750005Y2749981D03*
G01*
X4250004Y2749981D03*
G01*
X6250000Y3249980D03*
G01*
X5750001Y3249980D03*
G01*
X5750001Y2749981D03*
G01*
X6250000Y2749981D03*
G01*
X9349993Y6249974D03*
G01*
X8849995Y6249974D03*
G01*
X8849995Y5749975D03*
G01*
X9349993Y5749975D03*
G01*
X3250006Y1749983D03*
G01*
X2750007Y1749983D03*
G01*
X2750007Y1249984D03*
G01*
X3250006Y1249984D03*
G01*
X5250002Y1249984D03*
G01*
X4750003Y1249984D03*
G01*
X4750003Y749985D03*
G01*
X5250002Y749985D03*
G01*
X7249998Y1749983D03*
G01*
X6749999Y1749983D03*
G01*
X6749999Y1249984D03*
G01*
X7249998Y1249984D03*
G01*
X8249996Y3249980D03*
G01*
X7749997Y3249980D03*
G01*
X7749997Y2749981D03*
G01*
X8249996Y2749981D03*
D22*
G01*
X2909064Y8529982D03*
G01*
X2710944Y8529982D03*
D23*
G01*
X1399997Y8144992D03*
G01*
X1299997Y8079994D03*
G01*
X599998Y8299983D03*
G01*
X2499995Y9559975D03*
G01*
X2799994Y9299981D03*
G01*
X1929993Y7649971D03*
G01*
X2149983Y7649971D03*
G01*
X2149983Y7729981D03*
G01*
X1999995Y7729981D03*
G01*
X2450084Y8999981D03*
G01*
X2330094Y9119971D03*
G01*
X2389144Y9060921D03*
G01*
X4899990Y8549982D03*
G01*
X4999990Y8549982D03*
G01*
X5399989Y8349983D03*
G01*
X8199983Y8999981D03*
G01*
X7899984Y8999981D03*
G01*
X7999984Y8999981D03*
G01*
X8099983Y8999981D03*
G01*
X6399987Y8999981D03*
G01*
X6299987Y8999981D03*
G01*
X6199987Y8999981D03*
G01*
X4999990Y8459983D03*
G01*
X4899990Y8279983D03*
G01*
X8199983Y8899982D03*
G01*
X6099987Y7699984D03*
G01*
X8399983Y4699990D03*
G01*
X8399983Y5199989D03*
G01*
X8099983Y4599990D03*
G01*
X8099983Y5099989D03*
G01*
X7799984Y4599990D03*
G01*
X7799984Y5099989D03*
G01*
X5999988Y8899982D03*
G01*
X5999988Y9099981D03*
D24*
G01*
X9411096Y3730906D03*
G01*
X107205Y8876774D03*
G01*
X107205Y7352776D03*
G01*
X107205Y6844779D03*
G01*
X107205Y6336779D03*
G01*
X107205Y5828781D03*
G01*
X107205Y5320781D03*
G01*
X107205Y4812781D03*
G01*
X107205Y4304784D03*
G01*
X107205Y3796784D03*
G01*
X107205Y3288786D03*
G01*
X107205Y2780786D03*
G01*
X107205Y2272786D03*
G01*
X107205Y1764789D03*
G01*
X107205Y1256789D03*
G01*
X615205Y8876774D03*
G01*
X615205Y7860776D03*
G01*
X615205Y7352776D03*
G01*
X615205Y6844779D03*
G01*
X615205Y5320781D03*
G01*
X615205Y3796784D03*
G01*
X615205Y3288786D03*
G01*
X615205Y2780786D03*
G01*
X615205Y2272786D03*
G01*
X615205Y1764789D03*
G01*
X615205Y1256789D03*
G01*
X1123203Y9892771D03*
G01*
X1123203Y9384774D03*
G01*
X1123203Y8876774D03*
G01*
X1123203Y7860776D03*
G01*
X1123203Y7352776D03*
G01*
X1123203Y6844779D03*
G01*
X1123203Y5320781D03*
G01*
X1123203Y3796784D03*
G01*
X1123203Y3288786D03*
G01*
X1123203Y2780786D03*
G01*
X1123203Y2272786D03*
G01*
X1123203Y1764789D03*
G01*
X1123203Y1256789D03*
G01*
X1123203Y748792D03*
G01*
X1123203Y240792D03*
G01*
X1631203Y9892771D03*
G01*
X1631203Y9384774D03*
G01*
X1631203Y8876774D03*
G01*
X1631203Y7860776D03*
G01*
X1631203Y6844779D03*
G01*
X1631203Y6336779D03*
G01*
X1631203Y4812781D03*
G01*
X1631203Y4304784D03*
G01*
X1631203Y3796784D03*
G01*
X1631203Y2272786D03*
G01*
X1631203Y1764789D03*
G01*
X1631203Y1256789D03*
G01*
X1631203Y748792D03*
G01*
X1631203Y240792D03*
G01*
X2139200Y6336779D03*
G01*
X2139200Y5828781D03*
G01*
X2139200Y4812781D03*
G01*
X2139200Y4304784D03*
G01*
X2139200Y3796784D03*
G01*
X2139200Y2272786D03*
G01*
X2139200Y1764789D03*
G01*
X2139200Y1256789D03*
G01*
X2139200Y748792D03*
G01*
X2139200Y240792D03*
G01*
X2647200Y9892771D03*
G01*
X2647200Y8368776D03*
G01*
X2647200Y3796784D03*
G01*
X2647200Y3288786D03*
G01*
X2647200Y2780786D03*
G01*
X2647200Y2272786D03*
G01*
X2647200Y748792D03*
G01*
X2647200Y240792D03*
G01*
X3155200Y9892771D03*
G01*
X3155200Y9384774D03*
G01*
X3155200Y8876774D03*
G01*
X3155200Y8368776D03*
G01*
X3155200Y3288786D03*
G01*
X3155200Y2780786D03*
G01*
X3155200Y2272786D03*
G01*
X3155200Y748792D03*
G01*
X3155200Y240792D03*
G01*
X3663198Y9892771D03*
G01*
X3663198Y9384774D03*
G01*
X3663198Y4812781D03*
G01*
X3663198Y2272786D03*
G01*
X3663198Y1256789D03*
G01*
X3663198Y748792D03*
G01*
X3663198Y240792D03*
G01*
X4171198Y9892771D03*
G01*
X4171198Y9384774D03*
G01*
X4171198Y4812781D03*
G01*
X4171198Y4304784D03*
G01*
X4171198Y2272786D03*
G01*
X4171198Y1256789D03*
G01*
X4171198Y748792D03*
G01*
X4171198Y240792D03*
G01*
X4679195Y9892771D03*
G01*
X4679195Y9384774D03*
G01*
X4679195Y4304784D03*
G01*
X4679195Y3288786D03*
G01*
X4679195Y2780786D03*
G01*
X4679195Y2272786D03*
G01*
X4679195Y240792D03*
G01*
X5187195Y9892771D03*
G01*
X5187195Y9384774D03*
G01*
X5187195Y4304784D03*
G01*
X5187195Y3288786D03*
G01*
X5187195Y2780786D03*
G01*
X5187195Y2272786D03*
G01*
X5187195Y240792D03*
G01*
X5695195Y9892771D03*
G01*
X5599988Y9199981D03*
G01*
X5695195Y4812781D03*
G01*
X5695195Y4304784D03*
G01*
X5695195Y2272786D03*
G01*
X5695195Y1256789D03*
G01*
X5695195Y240792D03*
G01*
X6203193Y4812781D03*
G01*
X6203193Y4304784D03*
G01*
X6203193Y2272786D03*
G01*
X6203193Y1256789D03*
G01*
X6203193Y748792D03*
G01*
X6203193Y240792D03*
G01*
X6711193Y3288786D03*
G01*
X6711193Y2780786D03*
G01*
X6711193Y748792D03*
G01*
X6711193Y240792D03*
G01*
X7219190Y8368776D03*
G01*
X7219190Y5320781D03*
G01*
X7219190Y2780786D03*
G01*
X7219190Y2272786D03*
G01*
X7219190Y748792D03*
G01*
X7219190Y240792D03*
G01*
X7727190Y7860776D03*
G01*
X7727190Y2272786D03*
G01*
X7727190Y1256789D03*
G01*
X7727190Y748792D03*
G01*
X7727190Y240792D03*
G01*
X8235190Y6336779D03*
G01*
X8235190Y5828781D03*
G01*
X8235190Y5320781D03*
G01*
X8235190Y4304784D03*
G01*
X8235190Y3796784D03*
G01*
X8235190Y2272786D03*
G01*
X8235190Y1256789D03*
G01*
X8235190Y748792D03*
G01*
X8235190Y240792D03*
G01*
X8743188Y9384774D03*
G01*
X8743188Y3796784D03*
G01*
X8743188Y2780786D03*
G01*
X8743188Y2272786D03*
G01*
X8743188Y1256789D03*
G01*
X8743188Y748792D03*
G01*
X8743188Y240792D03*
G01*
X9251188Y8876774D03*
G01*
X9251188Y2780786D03*
G01*
X9251188Y2272786D03*
G01*
X9251188Y1256789D03*
G01*
X9759185Y8876774D03*
G01*
X9759185Y1764789D03*
G01*
X9759185Y1256789D03*
M02*
