G04 Layer: BoardOutlineLayer*
G04 EasyEDA v6.5.20, 2022-12-02 00:59:29*
G04 a67cddfb3fce44daa9051d46cbbcc19f,10*
G04 Gerber Generator version 0.2*
G04 Scale: 100 percent, Rotated: No, Reflected: No *
G04 Dimensions in millimeters *
G04 leading zeros omitted , absolute positions ,4 integer and 5 decimal *
%FSLAX45Y45*%
%MOMM*%

%ADD10C,0.2540*%
D10*
X6499986Y9499980D02*
G01*
X6499986Y9199981D01*
X8499983Y9199981D01*
X8499983Y9499980D01*
X8999981Y9999979D02*
G01*
X9499981Y9999979D01*
X500126Y9999979D02*
G01*
X5999988Y9999979D01*
X0Y499998D02*
G01*
X0Y9499980D01*
X9499981Y0D02*
G01*
X499998Y0D01*
X9999979Y9499980D02*
G01*
X9999979Y499998D01*
G75*
G01*
X9999980Y499999D02*
G02*
X9499981Y0I-499999J0D01*
G75*
G01*
X499999Y0D02*
G02*
X0Y499999I0J499999D01*
G75*
G01*
X9499981Y9999980D02*
G02*
X9999980Y9499981I0J-499999D01*
G75*
G01*
X5999988Y9999980D02*
G02*
X6499987Y9499981I0J-499999D01*
G75*
G01*
X0Y9499981D02*
G02*
X499999Y9999980I499999J0D01*
G75*
G01*
X8499983Y9499981D02*
G02*
X8999982Y9999980I499999J0D01*
G75*
G01*
X2699995Y5687289D02*
G02*
X2687295Y5699989I0J12700D01*
X2687294Y5699988D02*
G01*
X2687320Y7499858D01*
G75*
G01*
X2687320Y7499858D02*
G02*
X2700019Y7512558I12700J0D01*
X2700019Y7512558D02*
G01*
X6299987Y7512685D01*
G75*
G01*
X6299987Y7512685D02*
G02*
X6312687Y7499985I0J-12700D01*
X6312687Y7499985D02*
G01*
X6312687Y5699988D01*
G75*
G01*
X6312687Y5699989D02*
G02*
X6299987Y5687289I-12700J0D01*
X6299987Y5687288D02*
G01*
X2699994Y5687288D01*
X2699994Y5687288D02*
G01*
X2699994Y5687288D01*

%LPD*%
M02*
