G04 Layer: TopSilkscreenLayer*
G04 EasyEDA v6.5.20, 2022-12-02 00:59:29*
G04 a67cddfb3fce44daa9051d46cbbcc19f,10*
G04 Gerber Generator version 0.2*
G04 Scale: 100 percent, Rotated: No, Reflected: No *
G04 Dimensions in millimeters *
G04 leading zeros omitted , absolute positions ,4 integer and 5 decimal *
%FSLAX45Y45*%
%MOMM*%

%ADD10C,0.2032*%
%ADD11C,0.1524*%
%ADD12C,0.2540*%

%LPD*%
D10*
X6729305Y7127326D02*
G01*
X6710832Y7145799D01*
X6683123Y7155035D01*
X6646179Y7155035D01*
X6618470Y7145799D01*
X6599996Y7127326D01*
X6599996Y7108852D01*
X6609232Y7090382D01*
X6618470Y7081144D01*
X6636941Y7071908D01*
X6692361Y7053435D01*
X6710832Y7044199D01*
X6720070Y7034964D01*
X6729305Y7016490D01*
X6729305Y6988782D01*
X6710832Y6970308D01*
X6683123Y6961073D01*
X6646179Y6961073D01*
X6618470Y6970308D01*
X6599996Y6988782D01*
X6790265Y7155035D02*
G01*
X6790265Y6961073D01*
X6790265Y7155035D02*
G01*
X6919574Y6961073D01*
X6919574Y7155035D02*
G01*
X6919574Y6961073D01*
X6989772Y7071908D02*
G01*
X6980534Y7062673D01*
X6989772Y7053435D01*
X6999008Y7062673D01*
X6989772Y7071908D01*
X6989772Y7007252D02*
G01*
X6980534Y6998017D01*
X6989772Y6988782D01*
X6999008Y6998017D01*
X6989772Y7007252D01*
X6599996Y7655034D02*
G01*
X6599996Y7461072D01*
X6599996Y7655034D02*
G01*
X6664652Y7655034D01*
X6692361Y7645798D01*
X6710832Y7627325D01*
X6720070Y7608851D01*
X6729305Y7581143D01*
X6729305Y7534963D01*
X6720070Y7507251D01*
X6710832Y7488781D01*
X6692361Y7470307D01*
X6664652Y7461072D01*
X6599996Y7461072D01*
X6901101Y7590381D02*
G01*
X6901101Y7461072D01*
X6901101Y7562672D02*
G01*
X6882630Y7581143D01*
X6864156Y7590381D01*
X6836448Y7590381D01*
X6817974Y7581143D01*
X6799501Y7562672D01*
X6790265Y7534963D01*
X6790265Y7516489D01*
X6799501Y7488781D01*
X6817974Y7470307D01*
X6836448Y7461072D01*
X6864156Y7461072D01*
X6882630Y7470307D01*
X6901101Y7488781D01*
X6989772Y7655034D02*
G01*
X6989772Y7498016D01*
X6999008Y7470307D01*
X7017481Y7461072D01*
X7035952Y7461072D01*
X6962061Y7590381D02*
G01*
X7026716Y7590381D01*
X7096912Y7534963D02*
G01*
X7207750Y7534963D01*
X7207750Y7553434D01*
X7198512Y7571907D01*
X7189276Y7581143D01*
X7170803Y7590381D01*
X7143094Y7590381D01*
X7124621Y7581143D01*
X7106150Y7562672D01*
X7096912Y7534963D01*
X7096912Y7516489D01*
X7106150Y7488781D01*
X7124621Y7470307D01*
X7143094Y7461072D01*
X7170803Y7461072D01*
X7189276Y7470307D01*
X7207750Y7488781D01*
X7277945Y7571907D02*
G01*
X7268710Y7562672D01*
X7277945Y7553434D01*
X7287181Y7562672D01*
X7277945Y7571907D01*
X7277945Y7507251D02*
G01*
X7268710Y7498016D01*
X7277945Y7488781D01*
X7287181Y7498016D01*
X7277945Y7507251D01*
X6599986Y8155030D02*
G01*
X6673877Y7961068D01*
X6747769Y8155030D02*
G01*
X6673877Y7961068D01*
X6808729Y8034959D02*
G01*
X6919564Y8034959D01*
X6919564Y8053430D01*
X6910329Y8071904D01*
X6901091Y8081139D01*
X6882620Y8090377D01*
X6854911Y8090377D01*
X6836437Y8081139D01*
X6817964Y8062668D01*
X6808729Y8034959D01*
X6808729Y8016486D01*
X6817964Y7988777D01*
X6836437Y7970304D01*
X6854911Y7961068D01*
X6882620Y7961068D01*
X6901091Y7970304D01*
X6919564Y7988777D01*
X6980524Y8090377D02*
G01*
X6980524Y7961068D01*
X6980524Y8034959D02*
G01*
X6989762Y8062668D01*
X7008233Y8081139D01*
X7026706Y8090377D01*
X7054415Y8090377D01*
X7216975Y8062668D02*
G01*
X7207740Y8081139D01*
X7180031Y8090377D01*
X7152322Y8090377D01*
X7124611Y8081139D01*
X7115375Y8062668D01*
X7124611Y8044195D01*
X7143084Y8034959D01*
X7189266Y8025721D01*
X7207740Y8016486D01*
X7216975Y7998012D01*
X7216975Y7988777D01*
X7207740Y7970304D01*
X7180031Y7961068D01*
X7152322Y7961068D01*
X7124611Y7970304D01*
X7115375Y7988777D01*
X7277935Y8155030D02*
G01*
X7287171Y8145795D01*
X7296409Y8155030D01*
X7287171Y8164268D01*
X7277935Y8155030D01*
X7287171Y8090377D02*
G01*
X7287171Y7961068D01*
X7403551Y8090377D02*
G01*
X7385077Y8081139D01*
X7366604Y8062668D01*
X7357369Y8034959D01*
X7357369Y8016486D01*
X7366604Y7988777D01*
X7385077Y7970304D01*
X7403551Y7961068D01*
X7431260Y7961068D01*
X7449731Y7970304D01*
X7468204Y7988777D01*
X7477442Y8016486D01*
X7477442Y8034959D01*
X7468204Y8062668D01*
X7449731Y8081139D01*
X7431260Y8090377D01*
X7403551Y8090377D01*
X7538402Y8090377D02*
G01*
X7538402Y7961068D01*
X7538402Y8053430D02*
G01*
X7566111Y8081139D01*
X7584582Y8090377D01*
X7612291Y8090377D01*
X7630764Y8081139D01*
X7640002Y8053430D01*
X7640002Y7961068D01*
X7843202Y8118086D02*
G01*
X7861673Y8127321D01*
X7889382Y8155030D01*
X7889382Y7961068D01*
X7959580Y8007248D02*
G01*
X7950342Y7998012D01*
X7959580Y7988777D01*
X7968815Y7998012D01*
X7959580Y8007248D01*
X8085193Y8155030D02*
G01*
X8057484Y8145795D01*
X8039011Y8118086D01*
X8029775Y8071904D01*
X8029775Y8044195D01*
X8039011Y7998012D01*
X8057484Y7970304D01*
X8085193Y7961068D01*
X8103666Y7961068D01*
X8131375Y7970304D01*
X8149849Y7998012D01*
X8159084Y8044195D01*
X8159084Y8071904D01*
X8149849Y8118086D01*
X8131375Y8145795D01*
X8103666Y8155030D01*
X8085193Y8155030D01*
X6599936Y8655050D02*
G01*
X6599936Y8460994D01*
X6599936Y8655050D02*
G01*
X6683247Y8655050D01*
X6710934Y8645905D01*
X6720077Y8636508D01*
X6729222Y8617965D01*
X6729222Y8599678D01*
X6720077Y8581136D01*
X6710934Y8571992D01*
X6683247Y8562594D01*
X6599936Y8562594D02*
G01*
X6683247Y8562594D01*
X6710934Y8553450D01*
X6720077Y8544305D01*
X6729222Y8525763D01*
X6729222Y8498078D01*
X6720077Y8479536D01*
X6710934Y8470392D01*
X6683247Y8460994D01*
X6599936Y8460994D01*
X6790181Y8655050D02*
G01*
X6790181Y8460994D01*
X6790181Y8460994D02*
G01*
X6901179Y8460994D01*
X6962140Y8655050D02*
G01*
X6962140Y8460994D01*
X6962140Y8655050D02*
G01*
X7082027Y8655050D01*
X6962140Y8562594D02*
G01*
X7036054Y8562594D01*
X6962140Y8460994D02*
G01*
X7082027Y8460994D01*
X7285227Y8590279D02*
G01*
X7285227Y8460994D01*
X7285227Y8553450D02*
G01*
X7313168Y8581136D01*
X7331456Y8590279D01*
X7359141Y8590279D01*
X7377684Y8581136D01*
X7386827Y8553450D01*
X7386827Y8460994D01*
X7386827Y8553450D02*
G01*
X7414768Y8581136D01*
X7433056Y8590279D01*
X7460741Y8590279D01*
X7479284Y8581136D01*
X7488427Y8553450D01*
X7488427Y8460994D01*
X7549388Y8534908D02*
G01*
X7660386Y8534908D01*
X7660386Y8553450D01*
X7650988Y8571992D01*
X7641843Y8581136D01*
X7623302Y8590279D01*
X7595615Y8590279D01*
X7577327Y8581136D01*
X7558786Y8562594D01*
X7549388Y8534908D01*
X7549388Y8516365D01*
X7558786Y8488679D01*
X7577327Y8470392D01*
X7595615Y8460994D01*
X7623302Y8460994D01*
X7641843Y8470392D01*
X7660386Y8488679D01*
X7832090Y8655050D02*
G01*
X7832090Y8460994D01*
X7832090Y8562594D02*
G01*
X7813547Y8581136D01*
X7795259Y8590279D01*
X7767574Y8590279D01*
X7749031Y8581136D01*
X7730490Y8562594D01*
X7721345Y8534908D01*
X7721345Y8516365D01*
X7730490Y8488679D01*
X7749031Y8470392D01*
X7767574Y8460994D01*
X7795259Y8460994D01*
X7813547Y8470392D01*
X7832090Y8488679D01*
X7893050Y8655050D02*
G01*
X7902447Y8645905D01*
X7911591Y8655050D01*
X7902447Y8664194D01*
X7893050Y8655050D01*
X7902447Y8590279D02*
G01*
X7902447Y8460994D01*
X8083295Y8590279D02*
G01*
X8083295Y8460994D01*
X8083295Y8562594D02*
G01*
X8065008Y8581136D01*
X8046465Y8590279D01*
X8018779Y8590279D01*
X8000238Y8581136D01*
X7981695Y8562594D01*
X7972552Y8534908D01*
X7972552Y8516365D01*
X7981695Y8488679D01*
X8000238Y8470392D01*
X8018779Y8460994D01*
X8046465Y8460994D01*
X8065008Y8470392D01*
X8083295Y8488679D01*
X8286495Y8655050D02*
G01*
X8286495Y8460994D01*
X8378952Y8590279D02*
G01*
X8286495Y8498078D01*
X8323579Y8534908D02*
G01*
X8388095Y8460994D01*
X8449056Y8534908D02*
G01*
X8560054Y8534908D01*
X8560054Y8553450D01*
X8550656Y8571992D01*
X8541511Y8581136D01*
X8522970Y8590279D01*
X8495284Y8590279D01*
X8476741Y8581136D01*
X8458454Y8562594D01*
X8449056Y8534908D01*
X8449056Y8516365D01*
X8458454Y8488679D01*
X8476741Y8470392D01*
X8495284Y8460994D01*
X8522970Y8460994D01*
X8541511Y8470392D01*
X8560054Y8488679D01*
X8630158Y8590279D02*
G01*
X8685529Y8460994D01*
X8740902Y8590279D02*
G01*
X8685529Y8460994D01*
X8666988Y8424163D01*
X8648700Y8405621D01*
X8630158Y8396478D01*
X8621013Y8396478D01*
X8801861Y8655050D02*
G01*
X8801861Y8460994D01*
X8801861Y8562594D02*
G01*
X8820404Y8581136D01*
X8838945Y8590279D01*
X8866631Y8590279D01*
X8885174Y8581136D01*
X8903461Y8562594D01*
X8912859Y8534908D01*
X8912859Y8516365D01*
X8903461Y8488679D01*
X8885174Y8470392D01*
X8866631Y8460994D01*
X8838945Y8460994D01*
X8820404Y8470392D01*
X8801861Y8488679D01*
X9020047Y8590279D02*
G01*
X9001506Y8581136D01*
X8982963Y8562594D01*
X8973820Y8534908D01*
X8973820Y8516365D01*
X8982963Y8488679D01*
X9001506Y8470392D01*
X9020047Y8460994D01*
X9047734Y8460994D01*
X9066022Y8470392D01*
X9084563Y8488679D01*
X9093708Y8516365D01*
X9093708Y8534908D01*
X9084563Y8562594D01*
X9066022Y8581136D01*
X9047734Y8590279D01*
X9020047Y8590279D01*
X9265665Y8590279D02*
G01*
X9265665Y8460994D01*
X9265665Y8562594D02*
G01*
X9247124Y8581136D01*
X9228581Y8590279D01*
X9200895Y8590279D01*
X9182608Y8581136D01*
X9164065Y8562594D01*
X9154668Y8534908D01*
X9154668Y8516365D01*
X9164065Y8488679D01*
X9182608Y8470392D01*
X9200895Y8460994D01*
X9228581Y8460994D01*
X9247124Y8470392D01*
X9265665Y8488679D01*
X9326625Y8590279D02*
G01*
X9326625Y8460994D01*
X9326625Y8534908D02*
G01*
X9335770Y8562594D01*
X9354311Y8581136D01*
X9372854Y8590279D01*
X9400540Y8590279D01*
X9572243Y8655050D02*
G01*
X9572243Y8460994D01*
X9572243Y8562594D02*
G01*
X9553702Y8581136D01*
X9535413Y8590279D01*
X9507727Y8590279D01*
X9489186Y8581136D01*
X9470643Y8562594D01*
X9461500Y8534908D01*
X9461500Y8516365D01*
X9470643Y8488679D01*
X9489186Y8470392D01*
X9507727Y8460994D01*
X9535413Y8460994D01*
X9553702Y8470392D01*
X9572243Y8488679D01*
D11*
X4622634Y9849802D02*
G01*
X4612220Y9860216D01*
X4596726Y9865296D01*
X4575898Y9865296D01*
X4560404Y9860216D01*
X4549990Y9849802D01*
X4549990Y9839388D01*
X4555070Y9828974D01*
X4560404Y9823640D01*
X4570818Y9818560D01*
X4602060Y9808146D01*
X4612220Y9803066D01*
X4617554Y9797732D01*
X4622634Y9787318D01*
X4622634Y9771824D01*
X4612220Y9761410D01*
X4596726Y9756330D01*
X4575898Y9756330D01*
X4560404Y9761410D01*
X4549990Y9771824D01*
X4656924Y9865296D02*
G01*
X4683086Y9756330D01*
X4708994Y9865296D02*
G01*
X4683086Y9756330D01*
X4708994Y9865296D02*
G01*
X4734902Y9756330D01*
X4760810Y9865296D02*
G01*
X4734902Y9756330D01*
X4795100Y9844468D02*
G01*
X4805514Y9849802D01*
X4821262Y9865296D01*
X4821262Y9756330D01*
X4917782Y9865296D02*
G01*
X4865966Y9865296D01*
X4860632Y9818560D01*
X4865966Y9823640D01*
X4881460Y9828974D01*
X4896954Y9828974D01*
X4912702Y9823640D01*
X4923116Y9813480D01*
X4928196Y9797732D01*
X4928196Y9787318D01*
X4923116Y9771824D01*
X4912702Y9761410D01*
X4896954Y9756330D01*
X4881460Y9756330D01*
X4865966Y9761410D01*
X4860632Y9766490D01*
X4855552Y9776904D01*
X4304614Y8502738D02*
G01*
X4315028Y8513152D01*
X4320108Y8528646D01*
X4320108Y8549474D01*
X4315028Y8564968D01*
X4304614Y8575382D01*
X4294200Y8575382D01*
X4283786Y8570302D01*
X4278452Y8564968D01*
X4273372Y8554554D01*
X4262958Y8523312D01*
X4257878Y8513152D01*
X4252544Y8507818D01*
X4242130Y8502738D01*
X4226636Y8502738D01*
X4216222Y8513152D01*
X4211142Y8528646D01*
X4211142Y8549474D01*
X4216222Y8564968D01*
X4226636Y8575382D01*
X4320108Y8468448D02*
G01*
X4211142Y8442286D01*
X4320108Y8416378D02*
G01*
X4211142Y8442286D01*
X4320108Y8416378D02*
G01*
X4211142Y8390470D01*
X4320108Y8364562D02*
G01*
X4211142Y8390470D01*
X4299280Y8330272D02*
G01*
X4304614Y8319858D01*
X4320108Y8304110D01*
X4211142Y8304110D01*
X4304614Y8207590D02*
G01*
X4315028Y8212670D01*
X4320108Y8228418D01*
X4320108Y8238832D01*
X4315028Y8254326D01*
X4299280Y8264740D01*
X4273372Y8269820D01*
X4247464Y8269820D01*
X4226636Y8264740D01*
X4216222Y8254326D01*
X4211142Y8238832D01*
X4211142Y8233498D01*
X4216222Y8218004D01*
X4226636Y8207590D01*
X4242130Y8202256D01*
X4247464Y8202256D01*
X4262958Y8207590D01*
X4273372Y8218004D01*
X4278452Y8233498D01*
X4278452Y8238832D01*
X4273372Y8254326D01*
X4262958Y8264740D01*
X4247464Y8269820D01*
X814501Y5254421D02*
G01*
X824915Y5244261D01*
X840663Y5238927D01*
X861237Y5238927D01*
X876985Y5244261D01*
X887399Y5254421D01*
X887399Y5264835D01*
X882065Y5275249D01*
X876985Y5280583D01*
X866571Y5285663D01*
X835329Y5296077D01*
X824915Y5301411D01*
X819835Y5306491D01*
X814501Y5316905D01*
X814501Y5332399D01*
X824915Y5342813D01*
X840663Y5348147D01*
X861237Y5348147D01*
X876985Y5342813D01*
X887399Y5332399D01*
X780211Y5238927D02*
G01*
X754303Y5348147D01*
X728395Y5238927D02*
G01*
X754303Y5348147D01*
X728395Y5238927D02*
G01*
X702233Y5348147D01*
X676325Y5238927D02*
G01*
X702233Y5348147D01*
X642035Y5259755D02*
G01*
X631621Y5254421D01*
X616127Y5238927D01*
X616127Y5348147D01*
X571423Y5238927D02*
G01*
X514273Y5238927D01*
X545515Y5280583D01*
X529767Y5280583D01*
X519353Y5285663D01*
X514273Y5290997D01*
X509193Y5306491D01*
X509193Y5316905D01*
X514273Y5332399D01*
X524687Y5342813D01*
X540181Y5348147D01*
X555929Y5348147D01*
X571423Y5342813D01*
X576503Y5337733D01*
X581837Y5327319D01*
X814501Y3754551D02*
G01*
X824915Y3744137D01*
X840663Y3739057D01*
X861237Y3739057D01*
X876985Y3744137D01*
X887399Y3754551D01*
X887399Y3764965D01*
X882065Y3775379D01*
X876985Y3780459D01*
X866571Y3785793D01*
X835329Y3796207D01*
X824915Y3801287D01*
X819835Y3806367D01*
X814501Y3816781D01*
X814501Y3832529D01*
X824915Y3842943D01*
X840663Y3848023D01*
X861237Y3848023D01*
X876985Y3842943D01*
X887399Y3832529D01*
X780211Y3739057D02*
G01*
X754303Y3848023D01*
X728395Y3739057D02*
G01*
X754303Y3848023D01*
X728395Y3739057D02*
G01*
X702233Y3848023D01*
X676325Y3739057D02*
G01*
X702233Y3848023D01*
X642035Y3759631D02*
G01*
X631621Y3754551D01*
X616127Y3739057D01*
X616127Y3848023D01*
X529767Y3739057D02*
G01*
X581837Y3811701D01*
X503859Y3811701D01*
X529767Y3739057D02*
G01*
X529767Y3848023D01*
X99999Y7575301D02*
G01*
X99999Y7497323D01*
X105079Y7481829D01*
X115493Y7471415D01*
X131241Y7466335D01*
X141655Y7466335D01*
X157149Y7471415D01*
X167563Y7481829D01*
X172643Y7497323D01*
X172643Y7575301D01*
X279831Y7559807D02*
G01*
X269417Y7570221D01*
X253669Y7575301D01*
X233095Y7575301D01*
X217347Y7570221D01*
X206933Y7559807D01*
X206933Y7549393D01*
X212267Y7538979D01*
X217347Y7533645D01*
X227761Y7528565D01*
X259003Y7518151D01*
X269417Y7513071D01*
X274497Y7507737D01*
X279831Y7497323D01*
X279831Y7481829D01*
X269417Y7471415D01*
X253669Y7466335D01*
X233095Y7466335D01*
X217347Y7471415D01*
X206933Y7481829D01*
X314121Y7575301D02*
G01*
X314121Y7466335D01*
X314121Y7575301D02*
G01*
X360857Y7575301D01*
X376351Y7570221D01*
X381685Y7564887D01*
X386765Y7554473D01*
X386765Y7544059D01*
X381685Y7533645D01*
X376351Y7528565D01*
X360857Y7523485D01*
X314121Y7523485D02*
G01*
X360857Y7523485D01*
X376351Y7518151D01*
X381685Y7513071D01*
X386765Y7502657D01*
X386765Y7486909D01*
X381685Y7476495D01*
X376351Y7471415D01*
X360857Y7466335D01*
X314121Y7466335D01*
X421055Y7554473D02*
G01*
X431469Y7559807D01*
X446963Y7575301D01*
X446963Y7466335D01*
X2914662Y3754462D02*
G01*
X2925076Y3744048D01*
X2940570Y3738968D01*
X2961398Y3738968D01*
X2976892Y3744048D01*
X2987306Y3754462D01*
X2987306Y3764876D01*
X2982226Y3775290D01*
X2976892Y3780624D01*
X2966478Y3785704D01*
X2935236Y3796118D01*
X2925076Y3801198D01*
X2919742Y3806532D01*
X2914662Y3816946D01*
X2914662Y3832440D01*
X2925076Y3842854D01*
X2940570Y3847934D01*
X2961398Y3847934D01*
X2976892Y3842854D01*
X2987306Y3832440D01*
X2880372Y3738968D02*
G01*
X2854210Y3847934D01*
X2828302Y3738968D02*
G01*
X2854210Y3847934D01*
X2828302Y3738968D02*
G01*
X2802394Y3847934D01*
X2776486Y3738968D02*
G01*
X2802394Y3847934D01*
X2742196Y3759796D02*
G01*
X2731782Y3754462D01*
X2716034Y3738968D01*
X2716034Y3847934D01*
X4914658Y4254461D02*
G01*
X4925072Y4244047D01*
X4940566Y4238967D01*
X4961394Y4238967D01*
X4976888Y4244047D01*
X4987302Y4254461D01*
X4987302Y4264875D01*
X4982222Y4275289D01*
X4976888Y4280623D01*
X4966474Y4285703D01*
X4935232Y4296117D01*
X4925072Y4301197D01*
X4919738Y4306531D01*
X4914658Y4316945D01*
X4914658Y4332439D01*
X4925072Y4342853D01*
X4940566Y4347933D01*
X4961394Y4347933D01*
X4976888Y4342853D01*
X4987302Y4332439D01*
X4880368Y4238967D02*
G01*
X4854206Y4347933D01*
X4828298Y4238967D02*
G01*
X4854206Y4347933D01*
X4828298Y4238967D02*
G01*
X4802390Y4347933D01*
X4776482Y4238967D02*
G01*
X4802390Y4347933D01*
X4736858Y4264875D02*
G01*
X4736858Y4259795D01*
X4731778Y4249381D01*
X4726444Y4244047D01*
X4716030Y4238967D01*
X4695202Y4238967D01*
X4685042Y4244047D01*
X4679708Y4249381D01*
X4674628Y4259795D01*
X4674628Y4270209D01*
X4679708Y4280623D01*
X4690122Y4296117D01*
X4742192Y4347933D01*
X4669294Y4347933D01*
X6914654Y3754462D02*
G01*
X6925068Y3744048D01*
X6940562Y3738968D01*
X6961390Y3738968D01*
X6976884Y3744048D01*
X6987298Y3754462D01*
X6987298Y3764876D01*
X6982218Y3775290D01*
X6976884Y3780624D01*
X6966470Y3785704D01*
X6935228Y3796118D01*
X6925068Y3801198D01*
X6919734Y3806532D01*
X6914654Y3816946D01*
X6914654Y3832440D01*
X6925068Y3842854D01*
X6940562Y3847934D01*
X6961390Y3847934D01*
X6976884Y3842854D01*
X6987298Y3832440D01*
X6880364Y3738968D02*
G01*
X6854202Y3847934D01*
X6828294Y3738968D02*
G01*
X6854202Y3847934D01*
X6828294Y3738968D02*
G01*
X6802386Y3847934D01*
X6776478Y3738968D02*
G01*
X6802386Y3847934D01*
X6731774Y3738968D02*
G01*
X6674624Y3738968D01*
X6705612Y3780624D01*
X6690118Y3780624D01*
X6679704Y3785704D01*
X6674624Y3790784D01*
X6669290Y3806532D01*
X6669290Y3816946D01*
X6674624Y3832440D01*
X6685038Y3842854D01*
X6700532Y3847934D01*
X6716026Y3847934D01*
X6731774Y3842854D01*
X6736854Y3837774D01*
X6742188Y3827360D01*
X9014650Y3754462D02*
G01*
X9025064Y3744048D01*
X9040558Y3738968D01*
X9061386Y3738968D01*
X9076880Y3744048D01*
X9087294Y3754462D01*
X9087294Y3764876D01*
X9082214Y3775290D01*
X9076880Y3780624D01*
X9066466Y3785704D01*
X9035224Y3796118D01*
X9025064Y3801198D01*
X9019730Y3806532D01*
X9014650Y3816946D01*
X9014650Y3832440D01*
X9025064Y3842854D01*
X9040558Y3847934D01*
X9061386Y3847934D01*
X9076880Y3842854D01*
X9087294Y3832440D01*
X8980360Y3738968D02*
G01*
X8954198Y3847934D01*
X8928290Y3738968D02*
G01*
X8954198Y3847934D01*
X8928290Y3738968D02*
G01*
X8902382Y3847934D01*
X8876474Y3738968D02*
G01*
X8902382Y3847934D01*
X8790114Y3738968D02*
G01*
X8842184Y3811612D01*
X8764206Y3811612D01*
X8790114Y3738968D02*
G01*
X8790114Y3847934D01*
X1914664Y2254465D02*
G01*
X1925078Y2244051D01*
X1940572Y2238971D01*
X1961400Y2238971D01*
X1976894Y2244051D01*
X1987308Y2254465D01*
X1987308Y2264879D01*
X1982228Y2275293D01*
X1976894Y2280627D01*
X1966480Y2285707D01*
X1935238Y2296121D01*
X1925078Y2301201D01*
X1919744Y2306535D01*
X1914664Y2316949D01*
X1914664Y2332443D01*
X1925078Y2342857D01*
X1940572Y2347937D01*
X1961400Y2347937D01*
X1976894Y2342857D01*
X1987308Y2332443D01*
X1880374Y2238971D02*
G01*
X1854212Y2347937D01*
X1828304Y2238971D02*
G01*
X1854212Y2347937D01*
X1828304Y2238971D02*
G01*
X1802396Y2347937D01*
X1776488Y2238971D02*
G01*
X1802396Y2347937D01*
X1679714Y2238971D02*
G01*
X1731784Y2238971D01*
X1736864Y2285707D01*
X1731784Y2280627D01*
X1716036Y2275293D01*
X1700542Y2275293D01*
X1685048Y2280627D01*
X1674634Y2290787D01*
X1669300Y2306535D01*
X1669300Y2316949D01*
X1674634Y2332443D01*
X1685048Y2342857D01*
X1700542Y2347937D01*
X1716036Y2347937D01*
X1731784Y2342857D01*
X1736864Y2337777D01*
X1742198Y2327363D01*
X3914660Y2254465D02*
G01*
X3925074Y2244051D01*
X3940568Y2238971D01*
X3961396Y2238971D01*
X3976890Y2244051D01*
X3987304Y2254465D01*
X3987304Y2264879D01*
X3982224Y2275293D01*
X3976890Y2280627D01*
X3966476Y2285707D01*
X3935234Y2296121D01*
X3925074Y2301201D01*
X3919740Y2306535D01*
X3914660Y2316949D01*
X3914660Y2332443D01*
X3925074Y2342857D01*
X3940568Y2347937D01*
X3961396Y2347937D01*
X3976890Y2342857D01*
X3987304Y2332443D01*
X3880370Y2238971D02*
G01*
X3854208Y2347937D01*
X3828300Y2238971D02*
G01*
X3854208Y2347937D01*
X3828300Y2238971D02*
G01*
X3802392Y2347937D01*
X3776484Y2238971D02*
G01*
X3802392Y2347937D01*
X3679710Y2254465D02*
G01*
X3685044Y2244051D01*
X3700538Y2238971D01*
X3710952Y2238971D01*
X3726446Y2244051D01*
X3736860Y2259799D01*
X3742194Y2285707D01*
X3742194Y2311615D01*
X3736860Y2332443D01*
X3726446Y2342857D01*
X3710952Y2347937D01*
X3705618Y2347937D01*
X3690124Y2342857D01*
X3679710Y2332443D01*
X3674630Y2316949D01*
X3674630Y2311615D01*
X3679710Y2296121D01*
X3690124Y2285707D01*
X3705618Y2280627D01*
X3710952Y2280627D01*
X3726446Y2285707D01*
X3736860Y2296121D01*
X3742194Y2311615D01*
X5914656Y2254465D02*
G01*
X5925070Y2244051D01*
X5940564Y2238971D01*
X5961392Y2238971D01*
X5976886Y2244051D01*
X5987300Y2254465D01*
X5987300Y2264879D01*
X5982220Y2275293D01*
X5976886Y2280627D01*
X5966472Y2285707D01*
X5935230Y2296121D01*
X5925070Y2301201D01*
X5919736Y2306535D01*
X5914656Y2316949D01*
X5914656Y2332443D01*
X5925070Y2342857D01*
X5940564Y2347937D01*
X5961392Y2347937D01*
X5976886Y2342857D01*
X5987300Y2332443D01*
X5880366Y2238971D02*
G01*
X5854204Y2347937D01*
X5828296Y2238971D02*
G01*
X5854204Y2347937D01*
X5828296Y2238971D02*
G01*
X5802388Y2347937D01*
X5776480Y2238971D02*
G01*
X5802388Y2347937D01*
X5669292Y2238971D02*
G01*
X5721362Y2347937D01*
X5742190Y2238971D02*
G01*
X5669292Y2238971D01*
X9014650Y5254459D02*
G01*
X9025064Y5244045D01*
X9040558Y5238965D01*
X9061386Y5238965D01*
X9076880Y5244045D01*
X9087294Y5254459D01*
X9087294Y5264873D01*
X9082214Y5275287D01*
X9076880Y5280621D01*
X9066466Y5285701D01*
X9035224Y5296115D01*
X9025064Y5301195D01*
X9019730Y5306529D01*
X9014650Y5316943D01*
X9014650Y5332437D01*
X9025064Y5342851D01*
X9040558Y5347931D01*
X9061386Y5347931D01*
X9076880Y5342851D01*
X9087294Y5332437D01*
X8980360Y5238965D02*
G01*
X8954198Y5347931D01*
X8928290Y5238965D02*
G01*
X8954198Y5347931D01*
X8928290Y5238965D02*
G01*
X8902382Y5347931D01*
X8876474Y5238965D02*
G01*
X8902382Y5347931D01*
X8816022Y5238965D02*
G01*
X8831770Y5244045D01*
X8836850Y5254459D01*
X8836850Y5264873D01*
X8831770Y5275287D01*
X8821356Y5280621D01*
X8800528Y5285701D01*
X8785034Y5290781D01*
X8774620Y5301195D01*
X8769286Y5311609D01*
X8769286Y5327357D01*
X8774620Y5337771D01*
X8779700Y5342851D01*
X8795194Y5347931D01*
X8816022Y5347931D01*
X8831770Y5342851D01*
X8836850Y5337771D01*
X8842184Y5327357D01*
X8842184Y5311609D01*
X8836850Y5301195D01*
X8826436Y5290781D01*
X8810942Y5285701D01*
X8790114Y5280621D01*
X8779700Y5275287D01*
X8774620Y5264873D01*
X8774620Y5254459D01*
X8779700Y5244045D01*
X8795194Y5238965D01*
X8816022Y5238965D01*
X2914662Y754468D02*
G01*
X2925076Y744054D01*
X2940570Y738974D01*
X2961398Y738974D01*
X2976892Y744054D01*
X2987306Y754468D01*
X2987306Y764882D01*
X2982226Y775296D01*
X2976892Y780630D01*
X2966478Y785710D01*
X2935236Y796124D01*
X2925076Y801204D01*
X2919742Y806538D01*
X2914662Y816952D01*
X2914662Y832446D01*
X2925076Y842860D01*
X2940570Y847940D01*
X2961398Y847940D01*
X2976892Y842860D01*
X2987306Y832446D01*
X2880372Y738974D02*
G01*
X2854210Y847940D01*
X2828302Y738974D02*
G01*
X2854210Y847940D01*
X2828302Y738974D02*
G01*
X2802394Y847940D01*
X2776486Y738974D02*
G01*
X2802394Y847940D01*
X2674632Y775296D02*
G01*
X2679712Y790790D01*
X2690126Y801204D01*
X2705620Y806538D01*
X2710954Y806538D01*
X2726448Y801204D01*
X2736862Y790790D01*
X2742196Y775296D01*
X2742196Y770216D01*
X2736862Y754468D01*
X2726448Y744054D01*
X2710954Y738974D01*
X2705620Y738974D01*
X2690126Y744054D01*
X2679712Y754468D01*
X2674632Y775296D01*
X2674632Y801204D01*
X2679712Y827366D01*
X2690126Y842860D01*
X2705620Y847940D01*
X2716034Y847940D01*
X2731782Y842860D01*
X2736862Y832446D01*
X4914658Y254469D02*
G01*
X4925072Y244055D01*
X4940566Y238975D01*
X4961394Y238975D01*
X4976888Y244055D01*
X4987302Y254469D01*
X4987302Y264883D01*
X4982222Y275297D01*
X4976888Y280631D01*
X4966474Y285711D01*
X4935232Y296125D01*
X4925072Y301205D01*
X4919738Y306539D01*
X4914658Y316953D01*
X4914658Y332447D01*
X4925072Y342861D01*
X4940566Y347941D01*
X4961394Y347941D01*
X4976888Y342861D01*
X4987302Y332447D01*
X4880368Y238975D02*
G01*
X4854206Y347941D01*
X4828298Y238975D02*
G01*
X4854206Y347941D01*
X4828298Y238975D02*
G01*
X4802390Y347941D01*
X4776482Y238975D02*
G01*
X4802390Y347941D01*
X4742192Y259803D02*
G01*
X4731778Y254469D01*
X4716030Y238975D01*
X4716030Y347941D01*
X4650752Y238975D02*
G01*
X4666246Y244055D01*
X4676660Y259803D01*
X4681740Y285711D01*
X4681740Y301205D01*
X4676660Y327367D01*
X4666246Y342861D01*
X4650752Y347941D01*
X4640338Y347941D01*
X4624590Y342861D01*
X4614176Y327367D01*
X4609096Y301205D01*
X4609096Y285711D01*
X4614176Y259803D01*
X4624590Y244055D01*
X4640338Y238975D01*
X4650752Y238975D01*
X6914654Y754468D02*
G01*
X6925068Y744054D01*
X6940562Y738974D01*
X6961390Y738974D01*
X6976884Y744054D01*
X6987298Y754468D01*
X6987298Y764882D01*
X6982218Y775296D01*
X6976884Y780630D01*
X6966470Y785710D01*
X6935228Y796124D01*
X6925068Y801204D01*
X6919734Y806538D01*
X6914654Y816952D01*
X6914654Y832446D01*
X6925068Y842860D01*
X6940562Y847940D01*
X6961390Y847940D01*
X6976884Y842860D01*
X6987298Y832446D01*
X6880364Y738974D02*
G01*
X6854202Y847940D01*
X6828294Y738974D02*
G01*
X6854202Y847940D01*
X6828294Y738974D02*
G01*
X6802386Y847940D01*
X6776478Y738974D02*
G01*
X6802386Y847940D01*
X6742188Y759802D02*
G01*
X6731774Y754468D01*
X6716026Y738974D01*
X6716026Y847940D01*
X6681736Y759802D02*
G01*
X6671322Y754468D01*
X6655828Y738974D01*
X6655828Y847940D01*
X7914652Y2254465D02*
G01*
X7925066Y2244051D01*
X7940560Y2238971D01*
X7961388Y2238971D01*
X7976882Y2244051D01*
X7987296Y2254465D01*
X7987296Y2264879D01*
X7982216Y2275293D01*
X7976882Y2280627D01*
X7966468Y2285707D01*
X7935226Y2296121D01*
X7925066Y2301201D01*
X7919732Y2306535D01*
X7914652Y2316949D01*
X7914652Y2332443D01*
X7925066Y2342857D01*
X7940560Y2347937D01*
X7961388Y2347937D01*
X7976882Y2342857D01*
X7987296Y2332443D01*
X7880362Y2238971D02*
G01*
X7854200Y2347937D01*
X7828292Y2238971D02*
G01*
X7854200Y2347937D01*
X7828292Y2238971D02*
G01*
X7802384Y2347937D01*
X7776476Y2238971D02*
G01*
X7802384Y2347937D01*
X7742186Y2259799D02*
G01*
X7731772Y2254465D01*
X7716024Y2238971D01*
X7716024Y2347937D01*
X7676654Y2264879D02*
G01*
X7676654Y2259799D01*
X7671320Y2249385D01*
X7666240Y2244051D01*
X7655826Y2238971D01*
X7634998Y2238971D01*
X7624584Y2244051D01*
X7619504Y2249385D01*
X7614170Y2259799D01*
X7614170Y2270213D01*
X7619504Y2280627D01*
X7629918Y2296121D01*
X7681734Y2347937D01*
X7609090Y2347937D01*
X2757924Y7754266D02*
G01*
X2757924Y7837324D01*
X2763258Y7853072D01*
X2768338Y7858152D01*
X2778752Y7863232D01*
X2789166Y7863232D01*
X2799580Y7858152D01*
X2804914Y7853072D01*
X2809994Y7837324D01*
X2809994Y7826910D01*
X2723634Y7775094D02*
G01*
X2713474Y7769760D01*
X2697726Y7754266D01*
X2697726Y7863232D01*
X2720078Y8699146D02*
G01*
X2720078Y8782458D01*
X2761734Y8740802D02*
G01*
X2678676Y8740802D01*
X2952234Y8720482D02*
G01*
X2869176Y8720482D01*
G36*
X7399985Y7799984D02*
G01*
X7399985Y7399985D01*
X9599980Y7399985D01*
X9599980Y7799984D01*
G37*
G36*
X7399985Y7299959D02*
G01*
X7399985Y6899960D01*
X9599980Y6899960D01*
X9599980Y7299959D01*
G37*
D12*
X4514989Y9206979D02*
G01*
X3244989Y9206979D01*
X3244989Y9892982D01*
X4514989Y9892982D01*
X4514989Y9206979D01*
X3849192Y8803982D02*
G01*
X3950792Y8803982D01*
X3950792Y8702382D01*
X3849192Y8702382D01*
X3849192Y8803982D01*
X3772992Y8854782D02*
G01*
X4026992Y8854782D01*
X4026992Y8245182D01*
X3772992Y8245182D01*
X3772992Y8854782D01*
X3727780Y9007182D02*
G01*
X4077792Y9007182D01*
X4072204Y8092782D02*
G01*
X3722192Y8092782D01*
X4077792Y9007182D02*
G01*
X4077792Y8912814D01*
X4077792Y8687125D02*
G01*
X4077792Y8662827D01*
X4077792Y8437138D02*
G01*
X4077792Y8412840D01*
X4077792Y8187151D02*
G01*
X4077792Y8092782D01*
X3727780Y9007182D02*
G01*
X3727780Y8913060D01*
X3727780Y8686878D02*
G01*
X3727780Y8663073D01*
X3727780Y8436891D02*
G01*
X3727780Y8413087D01*
X3727780Y8186905D02*
G01*
X3727780Y8092782D01*
X979947Y6587937D02*
G01*
X979947Y6505671D01*
X815987Y6505671D01*
X815987Y6589146D01*
X987704Y5407667D02*
G01*
X987704Y5489930D01*
X823747Y5489930D01*
X823747Y5406456D01*
X1439946Y5997930D02*
G01*
X1439946Y5743930D01*
X1439946Y5997930D02*
G01*
X1439946Y6251930D01*
X979947Y5088067D02*
G01*
X979947Y5005801D01*
X815987Y5005801D01*
X815987Y5089276D01*
X987704Y3907797D02*
G01*
X987704Y3990060D01*
X823747Y3990060D01*
X823747Y3906586D01*
X1439946Y4498060D02*
G01*
X1439946Y4244060D01*
X1439946Y4498060D02*
G01*
X1439946Y4752060D01*
X-24000Y8379983D02*
G01*
X-74000Y8379983D01*
X-77000Y7770985D01*
X-24000Y7769984D01*
X279981Y8453254D02*
G01*
X297439Y8453170D01*
X-24000Y8379983D02*
G01*
X-25999Y8424981D01*
X-78000Y8454984D01*
X15974Y8454529D01*
X279946Y8453483D02*
G01*
X300723Y8453112D01*
X-24000Y8379983D02*
G01*
X-24000Y7769984D01*
X-24000Y7739984D01*
X-74000Y7699984D01*
X17068Y7699984D01*
X279946Y8453483D02*
G01*
X475998Y8449983D01*
X476293Y7774404D02*
G01*
X475998Y7699984D01*
X278683Y7699984D01*
X476818Y7906870D02*
G01*
X476793Y7900085D01*
X478226Y8261342D02*
G01*
X478193Y8253095D01*
X478998Y8455982D02*
G01*
X478708Y8383109D01*
X3080006Y5087978D02*
G01*
X3080006Y5005712D01*
X2916047Y5005712D01*
X2916047Y5089187D01*
X3087763Y3907708D02*
G01*
X3087763Y3989971D01*
X2923806Y3989971D01*
X2923806Y3906497D01*
X3540005Y4497971D02*
G01*
X3540005Y4243971D01*
X3540005Y4497971D02*
G01*
X3540005Y4751971D01*
X5080002Y5587977D02*
G01*
X5080002Y5505711D01*
X4916043Y5505711D01*
X4916043Y5589186D01*
X5087759Y4407707D02*
G01*
X5087759Y4489970D01*
X4923802Y4489970D01*
X4923802Y4406496D01*
X5540001Y4997970D02*
G01*
X5540001Y4743970D01*
X5540001Y4997970D02*
G01*
X5540001Y5251970D01*
X7079998Y5087978D02*
G01*
X7079998Y5005712D01*
X6916038Y5005712D01*
X6916038Y5089187D01*
X7087755Y3907708D02*
G01*
X7087755Y3989971D01*
X6923798Y3989971D01*
X6923798Y3906497D01*
X7539997Y4497971D02*
G01*
X7539997Y4243971D01*
X7539997Y4497971D02*
G01*
X7539997Y4751971D01*
X9179994Y5087978D02*
G01*
X9179994Y5005712D01*
X9016034Y5005712D01*
X9016034Y5089187D01*
X9187751Y3907708D02*
G01*
X9187751Y3989971D01*
X9023794Y3989971D01*
X9023794Y3906497D01*
X9639993Y4497971D02*
G01*
X9639993Y4243971D01*
X9639993Y4497971D02*
G01*
X9639993Y4751971D01*
X2080008Y3587981D02*
G01*
X2080008Y3505715D01*
X1916048Y3505715D01*
X1916048Y3589190D01*
X2087765Y2407711D02*
G01*
X2087765Y2489974D01*
X1923808Y2489974D01*
X1923808Y2406500D01*
X2540007Y2997974D02*
G01*
X2540007Y2743974D01*
X2540007Y2997974D02*
G01*
X2540007Y3251974D01*
X4080004Y3587981D02*
G01*
X4080004Y3505715D01*
X3916045Y3505715D01*
X3916045Y3589190D01*
X4087761Y2407711D02*
G01*
X4087761Y2489974D01*
X3923804Y2489974D01*
X3923804Y2406500D01*
X4540003Y2997974D02*
G01*
X4540003Y2743974D01*
X4540003Y2997974D02*
G01*
X4540003Y3251974D01*
X6080000Y3587981D02*
G01*
X6080000Y3505715D01*
X5916040Y3505715D01*
X5916040Y3589190D01*
X6087757Y2407711D02*
G01*
X6087757Y2489974D01*
X5923800Y2489974D01*
X5923800Y2406500D01*
X6539999Y2997974D02*
G01*
X6539999Y2743974D01*
X6539999Y2997974D02*
G01*
X6539999Y3251974D01*
X9179994Y6587975D02*
G01*
X9179994Y6505709D01*
X9016034Y6505709D01*
X9016034Y6589184D01*
X9187751Y5407705D02*
G01*
X9187751Y5489968D01*
X9023794Y5489968D01*
X9023794Y5406494D01*
X9639993Y5997968D02*
G01*
X9639993Y5743968D01*
X9639993Y5997968D02*
G01*
X9639993Y6251968D01*
X3080006Y2087984D02*
G01*
X3080006Y2005718D01*
X2916047Y2005718D01*
X2916047Y2089193D01*
X3087763Y907714D02*
G01*
X3087763Y989977D01*
X2923806Y989977D01*
X2923806Y906503D01*
X3540005Y1497977D02*
G01*
X3540005Y1243977D01*
X3540005Y1497977D02*
G01*
X3540005Y1751977D01*
X5080002Y1587985D02*
G01*
X5080002Y1505719D01*
X4916043Y1505719D01*
X4916043Y1589194D01*
X5087759Y407715D02*
G01*
X5087759Y489978D01*
X4923802Y489978D01*
X4923802Y406504D01*
X5540001Y997978D02*
G01*
X5540001Y743978D01*
X5540001Y997978D02*
G01*
X5540001Y1251978D01*
X7079998Y2087984D02*
G01*
X7079998Y2005718D01*
X6916038Y2005718D01*
X6916038Y2089193D01*
X7087755Y907714D02*
G01*
X7087755Y989977D01*
X6923798Y989977D01*
X6923798Y906503D01*
X7539997Y1497977D02*
G01*
X7539997Y1243977D01*
X7539997Y1497977D02*
G01*
X7539997Y1751977D01*
X8079996Y3587981D02*
G01*
X8079996Y3505715D01*
X7916036Y3505715D01*
X7916036Y3589190D01*
X8087753Y2407711D02*
G01*
X8087753Y2489974D01*
X7923796Y2489974D01*
X7923796Y2406500D01*
X8539995Y2997974D02*
G01*
X8539995Y2743974D01*
X8539995Y2997974D02*
G01*
X8539995Y3251974D01*
X3030974Y8669682D02*
G01*
X3030974Y8560462D01*
X3030974Y8560462D02*
G01*
X2599174Y8560462D01*
X2599174Y8560462D02*
G01*
X2599174Y8669682D01*
X2599174Y8669682D02*
G01*
X2589014Y8669682D01*
X2840474Y7900062D02*
G01*
X2840474Y8189622D01*
X2840474Y8189622D02*
G01*
X2779514Y8189622D01*
X2779514Y8189622D02*
G01*
X2779514Y7900062D01*
G75*
G01*
X1442885Y6255319D02*
G03*
X1443980Y5746900I-542936J-255380D01*
G75*
G01*
X664947Y5615937D02*
G03*
X1133518Y5616285I233999J386000D01*
G75*
G01*
X1279947Y5758937D02*
G03*
X1282764Y6238446I-381002J242001D01*
G75*
G01*
X1139947Y6379936D02*
G03*
X658226Y6382652I-242999J-378000D01*
G75*
G01*
X515948Y6237938D02*
G03*
X516456Y5763120I383000J-236999D01*
G75*
G01*
X1442885Y4755449D02*
G03*
X1443980Y4247030I-542936J-255380D01*
G75*
G01*
X664947Y4116067D02*
G03*
X1133518Y4116415I233999J386000D01*
G75*
G01*
X1279947Y4259067D02*
G03*
X1282764Y4738576I-381002J242001D01*
G75*
G01*
X1139947Y4880066D02*
G03*
X658226Y4882782I-242999J-378000D01*
G75*
G01*
X515948Y4738068D02*
G03*
X516456Y4263250I383000J-236999D01*
G75*
G01*
X3542944Y4755360D02*
G03*
X3544039Y4246941I-542936J-255380D01*
G75*
G01*
X2765006Y4115979D02*
G03*
X3233577Y4116327I233999J385999D01*
G75*
G01*
X3380006Y4258978D02*
G03*
X3382823Y4738487I-381001J242001D01*
G75*
G01*
X3240006Y4879978D02*
G03*
X2758285Y4882693I-242999J-378001D01*
G75*
G01*
X2616007Y4737979D02*
G03*
X2616515Y4263161I383001J-236999D01*
G75*
G01*
X5542940Y5255359D02*
G03*
X5544035Y4746940I-542936J-255380D01*
G75*
G01*
X4765002Y4615978D02*
G03*
X5233573Y4616326I233999J385999D01*
G75*
G01*
X5380002Y4758977D02*
G03*
X5382819Y5238486I-381001J242001D01*
G75*
G01*
X5240002Y5379977D02*
G03*
X4758281Y5382692I-242999J-378001D01*
G75*
G01*
X4616003Y5237978D02*
G03*
X4616511Y4763160I383001J-236999D01*
G75*
G01*
X7542936Y4755360D02*
G03*
X7544031Y4246941I-542936J-255380D01*
G75*
G01*
X6764998Y4115979D02*
G03*
X7233569Y4116327I233999J385999D01*
G75*
G01*
X7379998Y4258978D02*
G03*
X7382815Y4738487I-381001J242001D01*
G75*
G01*
X7239998Y4879978D02*
G03*
X6758277Y4882693I-242999J-378001D01*
G75*
G01*
X6615999Y4737979D02*
G03*
X6616507Y4263161I383001J-236999D01*
G75*
G01*
X9642932Y4755360D02*
G03*
X9644027Y4246941I-542936J-255380D01*
G75*
G01*
X8864994Y4115979D02*
G03*
X9333565Y4116327I233999J385999D01*
G75*
G01*
X9479994Y4258978D02*
G03*
X9482811Y4738487I-381001J242001D01*
G75*
G01*
X9339994Y4879978D02*
G03*
X8858273Y4882693I-242999J-378001D01*
G75*
G01*
X8715995Y4737979D02*
G03*
X8716503Y4263161I383001J-236999D01*
G75*
G01*
X2542946Y3255363D02*
G03*
X2544041Y2746944I-542936J-255380D01*
G75*
G01*
X1765008Y2615982D02*
G03*
X2233579Y2616330I233999J385999D01*
G75*
G01*
X2380008Y2758981D02*
G03*
X2382825Y3238490I-381001J242001D01*
G75*
G01*
X2240008Y3379981D02*
G03*
X1758287Y3382696I-242999J-378001D01*
G75*
G01*
X1616009Y3237982D02*
G03*
X1616517Y2763164I383001J-236999D01*
G75*
G01*
X4542942Y3255363D02*
G03*
X4544037Y2746944I-542936J-255380D01*
G75*
G01*
X3765004Y2615982D02*
G03*
X4233575Y2616330I233999J385999D01*
G75*
G01*
X4380004Y2758981D02*
G03*
X4382821Y3238490I-381001J242001D01*
G75*
G01*
X4240004Y3379981D02*
G03*
X3758283Y3382696I-242999J-378001D01*
G75*
G01*
X3616005Y3237982D02*
G03*
X3616513Y2763164I383001J-236999D01*
G75*
G01*
X6542938Y3255363D02*
G03*
X6544033Y2746944I-542936J-255380D01*
G75*
G01*
X5765000Y2615982D02*
G03*
X6233571Y2616330I233999J385999D01*
G75*
G01*
X6380000Y2758981D02*
G03*
X6382817Y3238490I-381001J242001D01*
G75*
G01*
X6240000Y3379981D02*
G03*
X5758279Y3382696I-242999J-378001D01*
G75*
G01*
X5616001Y3237982D02*
G03*
X5616509Y2763164I383001J-236999D01*
G75*
G01*
X9642932Y6255357D02*
G03*
X9644027Y5746938I-542936J-255380D01*
G75*
G01*
X8864994Y5615976D02*
G03*
X9333565Y5616324I233999J385999D01*
G75*
G01*
X9479994Y5758975D02*
G03*
X9482811Y6238484I-381001J242001D01*
G75*
G01*
X9339994Y6379975D02*
G03*
X8858273Y6382690I-242999J-378001D01*
G75*
G01*
X8715995Y6237976D02*
G03*
X8716503Y5763158I383001J-236999D01*
G75*
G01*
X3542944Y1755366D02*
G03*
X3544039Y1246947I-542936J-255380D01*
G75*
G01*
X2765006Y1115985D02*
G03*
X3233577Y1116333I233999J385999D01*
G75*
G01*
X3380006Y1258984D02*
G03*
X3382823Y1738493I-381001J242001D01*
G75*
G01*
X3240006Y1879984D02*
G03*
X2758285Y1882699I-242999J-378001D01*
G75*
G01*
X2616007Y1737985D02*
G03*
X2616515Y1263167I383001J-236999D01*
G75*
G01*
X5542940Y1255367D02*
G03*
X5544035Y746948I-542936J-255380D01*
G75*
G01*
X4765002Y615986D02*
G03*
X5233573Y616334I233999J385999D01*
G75*
G01*
X5380002Y758985D02*
G03*
X5382819Y1238494I-381001J242001D01*
G75*
G01*
X5240002Y1379985D02*
G03*
X4758281Y1382700I-242999J-378001D01*
G75*
G01*
X4616003Y1237986D02*
G03*
X4616511Y763168I383001J-236999D01*
G75*
G01*
X7542936Y1755366D02*
G03*
X7544031Y1246947I-542936J-255380D01*
G75*
G01*
X6764998Y1115985D02*
G03*
X7233569Y1116333I233999J385999D01*
G75*
G01*
X7379998Y1258984D02*
G03*
X7382815Y1738493I-381001J242001D01*
G75*
G01*
X7239998Y1879984D02*
G03*
X6758277Y1882699I-242999J-378001D01*
G75*
G01*
X6615999Y1737985D02*
G03*
X6616507Y1263167I383001J-236999D01*
G75*
G01*
X8542934Y3255363D02*
G03*
X8544029Y2746944I-542936J-255380D01*
G75*
G01*
X7764996Y2615982D02*
G03*
X8233567Y2616330I233999J385999D01*
G75*
G01*
X8379996Y2758981D02*
G03*
X8382813Y3238490I-381001J242001D01*
G75*
G01*
X8239996Y3379981D02*
G03*
X7758275Y3382696I-242999J-378001D01*
G75*
G01*
X7615997Y3237982D02*
G03*
X7616505Y2763164I383001J-236999D01*
G75*
G01
X4367949Y9143581D02*
G03X4367949Y9143581I-17958J0D01*
G75*
G01
X3961549Y9143581D02*
G03X3961549Y9143581I-17958J0D01*
G75*
G01
X3859949Y9143581D02*
G03X3859949Y9143581I-17958J0D01*
G75*
G01
X3529749Y9143581D02*
G03X3529749Y9143581I-17958J0D01*
G75*
G01
X3440849Y9143581D02*
G03X3440849Y9143581I-17958J0D01*
G75*
G01
X3351949Y9143581D02*
G03X3351949Y9143581I-17958J0D01*
M02*
