G04 Layer: TopPasteMaskLayer*
G04 EasyEDA v6.5.20, 2022-12-02 00:59:29*
G04 a67cddfb3fce44daa9051d46cbbcc19f,10*
G04 Gerber Generator version 0.2*
G04 Scale: 100 percent, Rotated: No, Reflected: No *
G04 Dimensions in millimeters *
G04 leading zeros omitted , absolute positions ,4 integer and 5 decimal *
%FSLAX45Y45*%
%MOMM*%

%ADD10C,0.0001*%

%LPD*%
G36*
X382117Y7969961D02*
G01*
X382117Y7929981D01*
X522122Y7929981D01*
X522122Y7969961D01*
G37*
G36*
X382117Y8229955D02*
G01*
X382117Y8189975D01*
X522122Y8189975D01*
X522122Y8229955D01*
G37*
G36*
X382117Y8034985D02*
G01*
X382117Y7995005D01*
X522122Y7995005D01*
X522122Y8034985D01*
G37*
G36*
X382117Y8099958D02*
G01*
X382117Y8059978D01*
X522122Y8059978D01*
X522122Y8099958D01*
G37*
G36*
X382117Y8164982D02*
G01*
X382117Y8125002D01*
X522122Y8125002D01*
X522122Y8164982D01*
G37*
G36*
X402945Y7901381D02*
G01*
X380644Y7892745D01*
X363016Y7876641D01*
X352348Y7855254D01*
X350164Y7831480D01*
X356666Y7808518D01*
X371094Y7789468D01*
X391414Y7776870D01*
X414883Y7772501D01*
X438353Y7776870D01*
X458673Y7789468D01*
X473049Y7808518D01*
X479602Y7831480D01*
X477367Y7855254D01*
X466750Y7876641D01*
X449072Y7892745D01*
X426821Y7901381D01*
G37*
G36*
X402945Y8386368D02*
G01*
X380644Y8377732D01*
X363016Y8361629D01*
X352348Y8340242D01*
X350164Y8316468D01*
X356666Y8293506D01*
X371094Y8274456D01*
X391414Y8261858D01*
X414883Y8257489D01*
X438353Y8261858D01*
X458673Y8274456D01*
X473049Y8293506D01*
X479602Y8316468D01*
X477367Y8340242D01*
X466750Y8361629D01*
X449072Y8377732D01*
X426821Y8386368D01*
G37*
G36*
X102870Y8504986D02*
G01*
X96418Y8504682D01*
X89966Y8503716D01*
X83718Y8502091D01*
X77622Y8499856D01*
X71780Y8497062D01*
X66243Y8493658D01*
X61061Y8489746D01*
X56337Y8485378D01*
X52019Y8480501D01*
X48260Y8475218D01*
X45008Y8469630D01*
X42367Y8463737D01*
X40284Y8457590D01*
X38862Y8451240D01*
X38049Y8444839D01*
X37896Y8438337D01*
X38354Y8431885D01*
X39471Y8425535D01*
X41249Y8419287D01*
X43637Y8413242D01*
X46583Y8407501D01*
X50088Y8402015D01*
X54102Y8396986D01*
X58674Y8392312D01*
X63601Y8388146D01*
X68986Y8384489D01*
X74676Y8381390D01*
X80619Y8378901D01*
X86817Y8376970D01*
X93167Y8375700D01*
X99618Y8375040D01*
X192887Y8374989D01*
X199339Y8375294D01*
X205740Y8376259D01*
X212039Y8377885D01*
X218135Y8380069D01*
X223977Y8382914D01*
X229463Y8386267D01*
X234645Y8390178D01*
X239420Y8394598D01*
X243687Y8399424D01*
X247446Y8404707D01*
X250698Y8410346D01*
X253390Y8416239D01*
X255422Y8422386D01*
X256895Y8428685D01*
X257708Y8435136D01*
X257860Y8441588D01*
X257352Y8448040D01*
X256235Y8454440D01*
X254457Y8460689D01*
X252120Y8466734D01*
X249174Y8472474D01*
X245617Y8477910D01*
X241604Y8482990D01*
X237083Y8487613D01*
X232105Y8491778D01*
X226771Y8495436D01*
X221081Y8498535D01*
X215087Y8501075D01*
X208889Y8502954D01*
X202539Y8504275D01*
X196088Y8504885D01*
G37*
G36*
X102870Y7784998D02*
G01*
X96418Y7784693D01*
X89966Y7783728D01*
X83718Y7782102D01*
X77622Y7779867D01*
X71780Y7777073D01*
X66243Y7773670D01*
X61061Y7769758D01*
X56337Y7765389D01*
X52019Y7760512D01*
X48260Y7755229D01*
X45008Y7749641D01*
X42367Y7743748D01*
X40284Y7737602D01*
X38862Y7731252D01*
X38049Y7724851D01*
X37896Y7718348D01*
X38354Y7711897D01*
X39471Y7705547D01*
X41249Y7699298D01*
X43637Y7693253D01*
X46583Y7687513D01*
X50088Y7682026D01*
X54102Y7676997D01*
X58674Y7672324D01*
X63601Y7668158D01*
X68986Y7664500D01*
X74676Y7661402D01*
X80619Y7658912D01*
X86817Y7656982D01*
X93167Y7655712D01*
X99618Y7655052D01*
X192887Y7655001D01*
X199339Y7655306D01*
X205740Y7656271D01*
X212039Y7657896D01*
X218135Y7660081D01*
X223977Y7662925D01*
X229463Y7666278D01*
X234645Y7670190D01*
X239420Y7674609D01*
X243687Y7679436D01*
X247446Y7684719D01*
X250698Y7690358D01*
X253390Y7696250D01*
X255422Y7702397D01*
X256895Y7708696D01*
X257708Y7715148D01*
X257860Y7721600D01*
X257352Y7728051D01*
X256235Y7734452D01*
X254457Y7740700D01*
X252120Y7746746D01*
X249174Y7752486D01*
X245617Y7757922D01*
X241604Y7763002D01*
X237083Y7767624D01*
X232105Y7771790D01*
X226771Y7775448D01*
X221081Y7778546D01*
X215087Y7781086D01*
X208889Y7782966D01*
X202539Y7784287D01*
X196088Y7784896D01*
G37*
M02*
